<svg version="1.1" xmlns="http://www.w3.org/2000/svg" viewBox="-5.3399399978797355 -98.32372702604806 10.67405214752024 196.64799989629736" fill="none" stroke="black" stroke-width="0.6%" vector-effect="non-scaling-stroke">
    <path d="M 3.1379 1.70597 A 1.19 0.13934 360 0 1 4.33411 1.8453 A 1.19 0.13934 360 0 1 1.95411 1.8453 A 1.19 0.13934 360 0 1 3.1379 1.70597 Z" />
    <path d="M 1.95411 97.18493 A 1.19 0.13934 180 0 0 4.33411 97.18493" />
    <path d="M -0.07581 9.43336 L -0.198 6.69344" />
    <path d="M -0.07581 9.43336 L -0.07581 12.90929 L 1.42417 12.90837 L 1.42417 9.43245 L -2.43996 -77.214 L -3.1431 -77.21357" />
    <path d="M -0.198 10.16936 L -0.07581 12.90929" />
    <path d="M 1.42417 9.43245 L -0.07581 9.43336" />
    <path d="M -0.07581 39.227 L -0.198 36.48707" />
    <path d="M -0.07581 39.227 L -0.07581 42.70292 L 1.42417 42.70201 L 1.42417 39.22608 L 0.25052 12.90909" />
    <path d="M -0.198 39.96299 L -0.07581 42.70292" />
    <path d="M 1.42417 39.22608 L -0.07581 39.227" />
    <path d="M -1.18575 -95.24438 A 1.19 0.13934 360 0 1 0.01046 -95.10505 A 1.19 0.13934 360 0 1 -2.36954 -95.10505 A 1.19 0.13934 360 0 1 -1.18575 -95.24438 Z" />
    <path d="M -3.88956 -15.71983 L -3.88956 -87.22455 L -3.86084 -86.58055 L -3.56084 -86.58074 L -3.58956 -87.22473 L -3.88956 -87.22455" />
    <path d="M -3.86084 -15.07583 L -3.86084 -86.58055" />
    <path d="M -3.88956 -15.71983 L -3.86084 -15.07583 L -3.85953 -15.07583" />
    <path d="M -3.56084 -86.55146 L -3.56084 -86.58074" />
    <path d="M -3.91958 -16.39309 L -3.91958 -87.89781 L -3.89086 -87.25382 L -3.59087 -87.254 L -3.61959 -87.898 L -3.91958 -87.89781" />
    <path d="M -3.89086 -15.7491 L -3.89086 -87.25382" />
    <path d="M -3.91958 -16.39309 L -3.89086 -15.7491 L -3.88956 -15.7491" />
    <path d="M -3.59087 -87.22473 L -3.59087 -87.254" />
    <path d="M -3.94961 -17.06636 L -3.94961 -88.57108 L -3.92089 -87.92709 L -3.62089 -87.92727 L -3.64961 -88.57126 L -3.94961 -88.57108" />
    <path d="M -3.92089 -16.42236 L -3.92089 -87.92709" />
    <path d="M -3.94961 -17.06636 L -3.92089 -16.42236 L -3.91958 -16.42237" />
    <path d="M -3.62089 -87.898 L -3.62089 -87.92727" />
    <path d="M -3.97963 -17.73962 L -3.97963 -89.24435 L -3.95091 -88.60035 L -3.65092 -88.60054 L -3.67964 -89.24453 L -3.97963 -89.24435" />
    <path d="M -3.95091 -17.09563 L -3.95091 -88.60035" />
    <path d="M -3.97963 -17.73962 L -3.95091 -17.09563 L -3.94961 -17.09563" />
    <path d="M -3.65092 -88.57126 L -3.65092 -88.60054" />
    <path d="M -4.00966 -18.41289 L -4.00966 -89.91761 L -3.98094 -89.27362 L -3.68094 -89.2738 L -3.70966 -89.9178 L -4.00966 -89.91761" />
    <path d="M -3.98094 -17.7689 L -3.98094 -89.27362" />
    <path d="M -4.00966 -18.41289 L -3.98094 -17.7689 L -3.97963 -17.7689" />
    <path d="M -3.68094 -89.24453 L -3.68094 -89.2738" />
    <path d="M -4.03969 -19.08616 L -4.03969 -90.59088 L -4.01097 -89.94689 L -3.71097 -89.94707 L -3.73969 -90.59106 L -4.03969 -90.59088" />
    <path d="M -4.01097 -18.44216 L -4.01097 -89.94689" />
    <path d="M -4.03969 -19.08616 L -4.01097 -18.44216 L -4.00966 -18.44216" />
    <path d="M -3.71097 -89.9178 L -3.71097 -89.94707" />
    <path d="M -4.06971 -19.75942 L -4.06971 -91.26415 L -4.04099 -90.62015 L -3.741 -90.62034 L -3.76971 -91.26433 L -4.06971 -91.26415" />
    <path d="M -4.04099 -19.11543 L -4.04099 -90.62015" />
    <path d="M -4.06971 -19.75942 L -4.04099 -19.11543 L -4.03969 -19.11543" />
    <path d="M -3.741 -90.59106 L -3.741 -90.62034" />
    <path d="M -4.09974 -20.43269 L -4.09974 -91.93741 L -4.07102 -91.29342 L -3.77102 -91.2936 L -3.79974 -91.9376 L -4.09974 -91.93741" />
    <path d="M -4.07102 -19.7887 L -4.07102 -91.29342" />
    <path d="M -4.09974 -20.43269 L -4.07102 -19.7887 L -4.06971 -19.7887" />
    <path d="M -3.77102 -91.26433 L -3.77102 -91.2936" />
    <path d="M -4.12976 -21.10596 L -4.12976 -92.61068 L -4.10104 -91.96668 L -3.80105 -91.96687 L -3.82977 -92.61086 L -4.12976 -92.61068" />
    <path d="M -4.10104 -20.46196 L -4.10104 -91.96668" />
    <path d="M -4.12976 -21.10596 L -4.10104 -20.46196 L -4.09974 -20.46196" />
    <path d="M -3.80105 -91.93759 L -3.80105 -91.96687" />
    <path d="M -4.15979 -21.77922 L -4.15979 -93.28394 L -4.13107 -92.63995 L -3.83107 -92.64013 L -3.85979 -93.28413 L -4.15979 -93.28394" />
    <path d="M -4.13107 -21.13523 L -4.13107 -92.63995" />
    <path d="M -4.15979 -21.77922 L -4.13107 -21.13523 L -4.12976 -21.13523" />
    <path d="M -3.83107 -92.61086 L -3.83107 -92.64013" />
    <path d="M -4.18981 -22.45249 L -4.18981 -93.95721 L -4.16109 -93.31322 L -3.8611 -93.3134 L -3.88982 -93.95739 L -4.18981 -93.95721" />
    <path d="M -4.16109 -21.80849 L -4.16109 -93.31322" />
    <path d="M -4.18981 -22.45249 L -4.16109 -21.80849 L -4.15979 -21.8085" />
    <path d="M -3.8611 -93.28413 L -3.8611 -93.3134" />
    <path d="M -4.21984 -23.12575 L -4.21984 -94.63048 L -4.19112 -93.98648 L -3.89112 -93.98667 L -3.91984 -94.63066 L -4.21984 -94.63048" />
    <path d="M -4.19112 -22.48176 L -4.19112 -93.98648" />
    <path d="M -4.21984 -23.12575 L -4.19112 -22.48176 L -4.18981 -22.48176" />
    <path d="M -3.89112 -93.95739 L -3.89112 -93.98667" />
    <path d="M -4.24986 -23.79902 L -4.24986 -95.30374 L -4.22114 -94.65975 L -3.92115 -94.65993 L -3.94987 -95.30393 L -4.24986 -95.30374" />
    <path d="M -4.22114 -23.15503 L -4.22114 -94.65975" />
    <path d="M -4.24986 -23.79902 L -4.22114 -23.15503 L -4.21984 -23.15503" />
    <path d="M -3.92115 -94.63066 L -3.92115 -94.65993" />
    <path d="M -4.27989 -24.47229 L -4.27989 -95.97701 L -4.25117 -95.33302 L -3.95117 -95.3332 L -3.97989 -95.97719 L -4.27989 -95.97701" />
    <path d="M -4.25117 -23.82829 L -4.25117 -95.33302" />
    <path d="M -4.27989 -24.47229 L -4.25117 -23.82829 L -4.24986 -23.82829" />
    <path d="M -3.95117 -95.30393 L -3.95117 -95.3332" />
    <path d="M -4.33994 -25.81882 L -4.33994 -97.32354 L -4.31122 -96.67955 L -4.01122 -96.67973 L -4.03994 -97.32373 L -4.33994 -97.32354" />
    <path d="M -4.31122 -25.17483 L -4.31122 -96.67955" />
    <path d="M -4.33994 -25.81882 L -4.31122 -25.17483 L -4.30991 -25.17483" />
    <path d="M -4.01122 -96.65046 L -4.01122 -96.67973" />
    <path d="M -4.30991 -25.14555 L -4.30991 -96.65028 L -4.28119 -96.00628 L -3.9812 -96.00647 L -4.00992 -96.65046 L -4.30991 -96.65028" />
    <path d="M -4.28119 -24.50156 L -4.28119 -96.00628" />
    <path d="M -4.30991 -25.14555 L -4.28119 -24.50156 L -4.27989 -24.50156" />
    <path d="M -3.9812 -95.97719 L -3.9812 -96.00647" />
    <path d="M -0.70535 -84.47212 A 1.19 0.13934 360 0 1 0.49087 -84.33279 A 1.19 0.13934 360 0 1 -1.88913 -84.33279 A 1.19 0.13934 360 0 1 -0.70535 -84.47212 Z" />
    <path d="M -3.40915 -4.94756 L -3.40915 -76.45229 L -3.38043 -75.80829 L -3.08044 -75.80848 L -3.10916 -76.45247 L -3.40915 -76.45229" />
    <path d="M -3.38043 -4.30357 L -3.38043 -75.80829" />
    <path d="M -3.40915 -4.94756 L -3.38043 -4.30357 L -3.37913 -4.30357" />
    <path d="M -3.08044 -75.7792 L -3.08044 -75.80848" />
    <path d="M -3.43918 -5.62083 L -3.43918 -77.12555 L -3.41046 -76.48156 L -3.11046 -76.48174 L -3.13918 -77.12574 L -3.43918 -77.12555" />
    <path d="M -3.41046 -4.97684 L -3.41046 -76.48156" />
    <path d="M -3.43918 -5.62083 L -3.41046 -4.97684 L -3.40915 -4.97684" />
    <path d="M -3.11046 -76.45247 L -3.11046 -76.48174" />
    <path d="M -3.4692 -6.2941 L -3.4692 -77.79882 L -3.44048 -77.15483 L -3.14049 -77.15501 L -3.16921 -77.799 L -3.4692 -77.79882" />
    <path d="M -3.44048 -5.6501 L -3.44048 -77.15483" />
    <path d="M -3.4692 -6.2941 L -3.44048 -5.6501 L -3.43918 -5.6501" />
    <path d="M -3.14049 -77.12574 L -3.14049 -77.15501" />
    <path d="M -3.49923 -6.96736 L -3.49923 -78.47209 L -3.47051 -77.82809 L -3.17051 -77.82828 L -3.19923 -78.47227 L -3.49923 -78.47209" />
    <path d="M -3.47051 -6.32337 L -3.47051 -77.82809" />
    <path d="M -3.49923 -6.96736 L -3.47051 -6.32337 L -3.4692 -6.32337" />
    <path d="M -3.17051 -77.799 L -3.17051 -77.82828" />
    <path d="M -3.52925 -7.64063 L -3.52925 -79.14535 L -3.50053 -78.50136 L -3.20054 -78.50154 L -3.22926 -79.14554 L -3.52925 -79.14535" />
    <path d="M -3.50053 -6.99664 L -3.50053 -78.50136" />
    <path d="M -3.52925 -7.64063 L -3.50053 -6.99664 L -3.49923 -6.99664" />
    <path d="M -3.20054 -78.47227 L -3.20054 -78.50154" />
    <path d="M -3.55928 -8.3139 L -3.55928 -79.81862 L -3.53056 -79.17462 L -3.23056 -79.17481 L -3.25928 -79.8188 L -3.55928 -79.81862" />
    <path d="M -3.53056 -7.6699 L -3.53056 -79.17462" />
    <path d="M -3.55928 -8.3139 L -3.53056 -7.6699 L -3.52925 -7.6699" />
    <path d="M -3.23056 -79.14553 L -3.23056 -79.17481" />
    <path d="M -3.58931 -8.98716 L -3.58931 -80.49188 L -3.56059 -79.84789 L -3.26059 -79.84807 L -3.28931 -80.49207 L -3.58931 -80.49188" />
    <path d="M -3.56059 -8.34317 L -3.56059 -79.84789" />
    <path d="M -3.58931 -8.98716 L -3.56059 -8.34317 L -3.55928 -8.34317" />
    <path d="M -3.26059 -79.8188 L -3.26059 -79.84807" />
    <path d="M -3.61933 -9.66043 L -3.61933 -81.16515 L -3.59061 -80.52116 L -3.29061 -80.52134 L -3.31933 -81.16533 L -3.61933 -81.16515" />
    <path d="M -3.59061 -9.01643 L -3.59061 -80.52116" />
    <path d="M -3.61933 -9.66043 L -3.59061 -9.01643 L -3.58931 -9.01644" />
    <path d="M -3.29061 -80.49207 L -3.29061 -80.52134" />
    <path d="M -3.64936 -10.33369 L -3.64936 -81.83842 L -3.62064 -81.19442 L -3.32064 -81.19461 L -3.34936 -81.8386 L -3.64936 -81.83842" />
    <path d="M -3.62064 -9.6897 L -3.62064 -81.19442" />
    <path d="M -3.64936 -10.33369 L -3.62064 -9.6897 L -3.61933 -9.6897" />
    <path d="M -3.32064 -81.16533 L -3.32064 -81.19461" />
    <path d="M -3.67938 -11.00696 L -3.67938 -82.51168 L -3.65066 -81.86769 L -3.35067 -81.86787 L -3.37939 -82.51187 L -3.67938 -82.51168" />
    <path d="M -3.65066 -10.36297 L -3.65066 -81.86769" />
    <path d="M -3.67938 -11.00696 L -3.65066 -10.36297 L -3.64936 -10.36297" />
    <path d="M -3.35067 -81.8386 L -3.35067 -81.86787" />
    <path d="M -3.70941 -11.68023 L -3.70941 -83.18495 L -3.68069 -82.54096 L -3.38069 -82.54114 L -3.40941 -83.18513 L -3.70941 -83.18495" />
    <path d="M -3.68069 -11.03623 L -3.68069 -82.54096" />
    <path d="M -3.70941 -11.68023 L -3.68069 -11.03623 L -3.67938 -11.03623" />
    <path d="M -3.38069 -82.51187 L -3.38069 -82.54114" />
    <path d="M -3.73943 -12.35349 L -3.73943 -83.85822 L -3.71071 -83.21422 L -3.41072 -83.21441 L -3.43944 -83.8584 L -3.73943 -83.85822" />
    <path d="M -3.71071 -11.7095 L -3.71071 -83.21422" />
    <path d="M -3.73943 -12.35349 L -3.71071 -11.7095 L -3.70941 -11.7095" />
    <path d="M -3.41072 -83.18513 L -3.41072 -83.21441" />
    <path d="M -3.76946 -13.02676 L -3.76946 -84.53148 L -3.74074 -83.88749 L -3.44074 -83.88767 L -3.46946 -84.53167 L -3.76946 -84.53148" />
    <path d="M -3.74074 -12.38277 L -3.74074 -83.88749" />
    <path d="M -3.76946 -13.02676 L -3.74074 -12.38277 L -3.73943 -12.38277" />
    <path d="M -3.44074 -83.8584 L -3.44074 -83.88767" />
    <path d="M -3.79948 -13.70003 L -3.79948 -85.20475 L -3.77076 -84.56075 L -3.47077 -84.56094 L -3.49949 -85.20493 L -3.79948 -85.20475" />
    <path d="M -3.77076 -13.05603 L -3.77076 -84.56075" />
    <path d="M -3.79948 -13.70003 L -3.77076 -13.05603 L -3.76946 -13.05603" />
    <path d="M -3.47077 -84.53167 L -3.47077 -84.56094" />
    <path d="M -3.85953 -15.04656 L -3.85953 -86.55128 L -3.83081 -85.90729 L -3.53082 -85.90747 L -3.55954 -86.55146 L -3.85953 -86.55128" />
    <path d="M -3.83081 -14.40257 L -3.83081 -85.90729" />
    <path d="M -3.85953 -15.04656 L -3.83081 -14.40257 L -3.82951 -14.40257" />
    <path d="M -3.53082 -85.8782 L -3.53082 -85.90747" />
    <path d="M -3.82951 -14.37329 L -3.82951 -85.87802 L -3.80079 -85.23402 L -3.50079 -85.2342 L -3.52951 -85.8782 L -3.82951 -85.87802" />
    <path d="M -3.80079 -13.7293 L -3.80079 -85.23402" />
    <path d="M -3.82951 -14.37329 L -3.80079 -13.7293 L -3.79948 -13.7293" />
    <path d="M -3.50079 -85.20493 L -3.50079 -85.2342" />
    <path d="M -0.22494 -73.69986 A 1.19 0.13934 360 0 1 0.97127 -73.56052 A 1.19 0.13934 360 0 1 -1.40873 -73.56052 A 1.19 0.13934 360 0 1 -0.22494 -73.69986 Z" />
    <path d="M -2.92875 5.8247 L -2.92875 -65.68003 L -2.90003 -65.03603 L -2.60003 -65.03622 L -2.62875 -65.68021 L -2.92875 -65.68003" />
    <path d="M -2.90003 6.46869 L -2.90003 -65.03603" />
    <path d="M -2.92875 5.8247 L -2.90003 6.46869 L -2.89872 6.46869" />
    <path d="M -2.60003 -65.00694 L -2.60003 -65.03622" />
    <path d="M -2.95877 5.15143 L -2.95877 -66.35329 L -2.93005 -65.7093 L -2.63006 -65.70948 L -2.65878 -66.35348 L -2.95877 -66.35329" />
    <path d="M -2.93005 5.79542 L -2.93005 -65.7093" />
    <path d="M -2.95877 5.15143 L -2.93005 5.79542 L -2.92875 5.79542" />
    <path d="M -2.63006 -65.68021 L -2.63006 -65.70948" />
    <path d="M -2.9888 4.47816 L -2.9888 -67.02656 L -2.96008 -66.38256 L -2.66008 -66.38275 L -2.6888 -67.02674 L -2.9888 -67.02656" />
    <path d="M -2.96008 5.12216 L -2.96008 -66.38256" />
    <path d="M -2.9888 4.47816 L -2.96008 5.12216 L -2.95877 5.12216" />
    <path d="M -2.66008 -66.35347 L -2.66008 -66.38275" />
    <path d="M -3.01882 3.8049 L -3.01882 -67.69982 L -2.9901 -67.05583 L -2.69011 -67.05601 L -2.71883 -67.70001 L -3.01882 -67.69982" />
    <path d="M -2.9901 4.44889 L -2.9901 -67.05583" />
    <path d="M -3.01882 3.8049 L -2.9901 4.44889 L -2.9888 4.44889" />
    <path d="M -2.69011 -67.02674 L -2.69011 -67.05601" />
    <path d="M -3.04885 3.13163 L -3.04885 -68.37309 L -3.02013 -67.7291 L -2.72013 -67.72928 L -2.74885 -68.37327 L -3.04885 -68.37309" />
    <path d="M -3.02013 3.77563 L -3.02013 -67.7291" />
    <path d="M -3.04885 3.13163 L -3.02013 3.77563 L -3.01882 3.77562" />
    <path d="M -2.72013 -67.70001 L -2.72013 -67.72928" />
    <path d="M -3.07887 2.45837 L -3.07887 -69.04636 L -3.05015 -68.40236 L -2.75016 -68.40255 L -2.77888 -69.04654 L -3.07887 -69.04636" />
    <path d="M -3.05015 3.10236 L -3.05015 -68.40236" />
    <path d="M -3.07887 2.45837 L -3.05015 3.10236 L -3.04885 3.10236" />
    <path d="M -2.75016 -68.37327 L -2.75016 -68.40255" />
    <path d="M -3.1089 1.7851 L -3.1089 -69.71962 L -3.08018 -69.07563 L -2.78018 -69.07581 L -2.8089 -69.71981 L -3.1089 -69.71962" />
    <path d="M -3.08018 2.42909 L -3.08018 -69.07563" />
    <path d="M -3.1089 1.7851 L -3.08018 2.42909 L -3.07887 2.42909" />
    <path d="M -2.78018 -69.04654 L -2.78018 -69.07581" />
    <path d="M -3.13893 1.11183 L -3.13893 -70.39289 L -3.11021 -69.7489 L -2.81021 -69.74908 L -2.83893 -70.39307 L -3.13893 -70.39289" />
    <path d="M -3.11021 1.75583 L -3.11021 -69.7489" />
    <path d="M -3.13893 1.11183 L -3.11021 1.75583 L -3.1089 1.75583" />
    <path d="M -2.81021 -69.71981 L -2.81021 -69.74908" />
    <path d="M -3.16895 0.43857 L -3.16895 -71.06616 L -3.14023 -70.42216 L -2.84023 -70.42235 L -2.86895 -71.06634 L -3.16895 -71.06616" />
    <path d="M -3.14023 1.08256 L -3.14023 -70.42216" />
    <path d="M -3.16895 0.43857 L -3.14023 1.08256 L -3.13893 1.08256" />
    <path d="M -2.84023 -70.39307 L -2.84023 -70.42235" />
    <path d="M -3.19898 -0.2347 L -3.19898 -71.73942 L -3.17026 -71.09543 L -2.87026 -71.09561 L -2.89898 -71.73961 L -3.19898 -71.73942" />
    <path d="M -3.17026 0.40929 L -3.17026 -71.09543" />
    <path d="M -3.19898 -0.2347 L -3.17026 0.40929 L -3.16895 0.40929" />
    <path d="M -2.87026 -71.06634 L -2.87026 -71.09561" />
    <path d="M -3.229 -0.90797 L -3.229 -72.41269 L -3.20028 -71.76869 L -2.90029 -71.76888 L -2.92901 -72.41287 L -3.229 -72.41269" />
    <path d="M -3.20028 -0.26397 L -3.20028 -71.76869" />
    <path d="M -3.229 -0.90797 L -3.20028 -0.26397 L -3.19898 -0.26397" />
    <path d="M -2.90029 -71.73961 L -2.90029 -71.76888" />
    <path d="M -3.25903 -1.58123 L -3.25903 -73.08596 L -3.23031 -72.44196 L -2.93031 -72.44214 L -2.95903 -73.08614 L -3.25903 -73.08596" />
    <path d="M -3.23031 -0.93724 L -3.23031 -72.44196" />
    <path d="M -3.25903 -1.58123 L -3.23031 -0.93724 L -3.229 -0.93724" />
    <path d="M -2.93031 -72.41287 L -2.93031 -72.44214" />
    <path d="M -3.28905 -2.2545 L -3.28905 -73.75922 L -3.26033 -73.11523 L -2.96034 -73.11541 L -2.98906 -73.7594 L -3.28905 -73.75922" />
    <path d="M -3.26033 -1.61051 L -3.26033 -73.11523" />
    <path d="M -3.28905 -2.2545 L -3.26033 -1.61051 L -3.25903 -1.61051" />
    <path d="M -2.96034 -73.08614 L -2.96034 -73.11541" />
    <path d="M -3.31908 -2.92777 L -3.31908 -74.43249 L -3.29036 -73.78849 L -2.99036 -73.78868 L -3.01908 -74.43267 L -3.31908 -74.43249" />
    <path d="M -3.29036 -2.28377 L -3.29036 -73.78849" />
    <path d="M -3.31908 -2.92777 L -3.29036 -2.28377 L -3.28905 -2.28377" />
    <path d="M -2.99036 -73.7594 L -2.99036 -73.78868" />
    <path d="M -3.37913 -4.2743 L -3.37913 -75.77902 L -3.35041 -75.13503 L -3.05041 -75.13521 L -3.07913 -75.7792 L -3.37913 -75.77902" />
    <path d="M -3.35041 -3.6303 L -3.35041 -75.13503" />
    <path d="M -3.37913 -4.2743 L -3.35041 -3.6303 L -3.3491 -3.6303" />
    <path d="M -3.05041 -75.10594 L -3.05041 -75.13521" />
    <path d="M -3.3491 -3.60103 L -3.3491 -75.10575 L -3.32038 -74.46176 L -3.02039 -74.46194 L -3.04911 -75.10594 L -3.3491 -75.10575" />
    <path d="M -3.32038 -2.95704 L -3.32038 -74.46176" />
    <path d="M -3.3491 -3.60103 L -3.32038 -2.95704 L -3.31908 -2.95704" />
    <path d="M -3.02039 -74.43267 L -3.02039 -74.46194" />
    <path d="M 0.25546 -62.9276 A 1.19 0.13934 360 0 1 1.45168 -62.78826 L 1.45168 -52.12786" />
    <path d="M 1.45168 -62.78826 A 1.19 0.13934 360 0 1 -0.92832 -62.78826 L -0.92832 -43.31802" />
    <path d="M -0.92832 -62.78826 A 1.19 0.13934 360 0 1 0.25546 -62.9276" />
    <path d="M -2.44834 16.59696 L -2.44834 -54.90776 L -2.41962 -54.26377 L -2.11963 -54.26395 L -2.14835 -54.90795 L -2.44834 -54.90776" />
    <path d="M -2.41962 17.24095 L -2.41962 -54.26377" />
    <path d="M -2.44834 16.59696 L -2.41962 17.24095 L -2.41832 17.24095" />
    <path d="M -2.11963 -54.23468 L -2.11963 -54.26395" />
    <path d="M -2.47837 15.92369 L -2.47837 -55.58103 L -2.44965 -54.93704 L -2.14965 -54.93722 L -2.17837 -55.58121 L -2.47837 -55.58103" />
    <path d="M -2.44965 16.56769 L -2.44965 -54.93704" />
    <path d="M -2.47837 15.92369 L -2.44965 16.56769 L -2.44834 16.56768" />
    <path d="M -2.14965 -54.90795 L -2.14965 -54.93722" />
    <path d="M -2.50839 15.25043 L -2.50839 -56.2543 L -2.47967 -55.6103 L -2.17968 -55.61049 L -2.2084 -56.25448 L -2.50839 -56.2543" />
    <path d="M -2.47967 15.89442 L -2.47967 -55.6103" />
    <path d="M -2.50839 15.25043 L -2.47967 15.89442 L -2.47837 15.89442" />
    <path d="M -2.17968 -55.58121 L -2.17968 -55.61049" />
    <path d="M -2.53842 14.57716 L -2.53842 -56.92756 L -2.5097 -56.28357 L -2.2097 -56.28375 L -2.23842 -56.92775 L -2.53842 -56.92756" />
    <path d="M -2.5097 15.22115 L -2.5097 -56.28357" />
    <path d="M -2.53842 14.57716 L -2.5097 15.22115 L -2.50839 15.22115" />
    <path d="M -2.2097 -56.25448 L -2.2097 -56.28375" />
    <path d="M -2.56844 13.90389 L -2.56844 -57.60083 L -2.53972 -56.95684 L -2.23973 -56.95702 L -2.26845 -57.60101 L -2.56844 -57.60083" />
    <path d="M -2.53972 14.54789 L -2.53972 -56.95684" />
    <path d="M -2.56844 13.90389 L -2.53972 14.54789 L -2.53842 14.54789" />
    <path d="M -2.23973 -56.92775 L -2.23973 -56.95702" />
    <path d="M -2.59847 13.23063 L -2.59847 -58.2741 L -2.56975 -57.6301 L -2.26975 -57.63029 L -2.29847 -58.27428 L -2.59847 -58.2741" />
    <path d="M -2.56975 13.87462 L -2.56975 -57.6301" />
    <path d="M -2.59847 13.23063 L -2.56975 13.87462 L -2.56844 13.87462" />
    <path d="M -2.26975 -57.60101 L -2.26975 -57.63029" />
    <path d="M -2.62849 12.55736 L -2.62849 -58.94736 L -2.59977 -58.30337 L -2.29978 -58.30355 L -2.3285 -58.94755 L -2.62849 -58.94736" />
    <path d="M -2.59977 13.20135 L -2.59977 -58.30337" />
    <path d="M -2.62849 12.55736 L -2.59977 13.20135 L -2.59847 13.20135" />
    <path d="M -2.29978 -58.27428 L -2.29978 -58.30355" />
    <path d="M -2.65852 11.88409 L -2.65852 -59.62063 L -2.6298 -58.97663 L -2.3298 -58.97682 L -2.35852 -59.62081 L -2.65852 -59.62063" />
    <path d="M -2.6298 12.52809 L -2.6298 -58.97663" />
    <path d="M -2.65852 11.88409 L -2.6298 12.52809 L -2.62849 12.52809" />
    <path d="M -2.3298 -58.94755 L -2.3298 -58.97682" />
    <path d="M -2.68855 11.21083 L -2.68855 -60.2939 L -2.65983 -59.6499 L -2.35983 -59.65008 L -2.38855 -60.29408 L -2.68855 -60.2939" />
    <path d="M -2.65983 11.85482 L -2.65983 -59.6499" />
    <path d="M -2.68855 11.21083 L -2.65983 11.85482 L -2.65852 11.85482" />
    <path d="M -2.35983 -59.62081 L -2.35983 -59.65008" />
    <path d="M -2.71857 10.53756 L -2.71857 -60.96716 L -2.68985 -60.32317 L -2.38985 -60.32335 L -2.41857 -60.96734 L -2.71857 -60.96716" />
    <path d="M -2.68985 11.18155 L -2.68985 -60.32317" />
    <path d="M -2.71857 10.53756 L -2.68985 11.18155 L -2.68855 11.18155" />
    <path d="M -2.38985 -60.29408 L -2.38985 -60.32335" />
    <path d="M -2.7486 9.86429 L -2.7486 -61.64043 L -2.71988 -60.99643 L -2.41988 -60.99662 L -2.4486 -61.64061 L -2.7486 -61.64043" />
    <path d="M -2.71988 10.50829 L -2.71988 -60.99643" />
    <path d="M -2.7486 9.86429 L -2.71988 10.50829 L -2.71857 10.50829" />
    <path d="M -2.41988 -60.96734 L -2.41988 -60.99662" />
    <path d="M -2.77862 9.19103 L -2.77862 -62.31369 L -2.7499 -61.6697 L -2.44991 -61.66988 L -2.47863 -62.31388 L -2.77862 -62.31369" />
    <path d="M -2.7499 9.83502 L -2.7499 -61.6697" />
    <path d="M -2.77862 9.19103 L -2.7499 9.83502 L -2.7486 9.83502" />
    <path d="M -2.44991 -61.64061 L -2.44991 -61.66988" />
    <path d="M -2.80865 8.51776 L -2.80865 -62.98696 L -2.77993 -62.34297 L -2.47993 -62.34315 L -2.50865 -62.98714 L -2.80865 -62.98696" />
    <path d="M -2.77993 9.16176 L -2.77993 -62.34297" />
    <path d="M -2.80865 8.51776 L -2.77993 9.16176 L -2.77862 9.16176" />
    <path d="M -2.47993 -62.31388 L -2.47993 -62.34315" />
    <path d="M -2.83867 7.8445 L -2.83867 -63.66023 L -2.80995 -63.01623 L -2.50996 -63.01642 L -2.53868 -63.66041 L -2.83867 -63.66023" />
    <path d="M -2.80995 8.48849 L -2.80995 -63.01623" />
    <path d="M -2.83867 7.8445 L -2.80995 8.48849 L -2.80865 8.48849" />
    <path d="M -2.50996 -62.98714 L -2.50996 -63.01642" />
    <path d="M -2.89872 6.49796 L -2.89872 -65.00676 L -2.87 -64.36277 L -2.57001 -64.36295 L -2.59873 -65.00694 L -2.89872 -65.00676" />
    <path d="M -2.87 7.14196 L -2.87 -64.36277" />
    <path d="M -2.89872 6.49796 L -2.87 7.14196 L -2.8687 7.14196" />
    <path d="M -2.57001 -64.33368 L -2.57001 -64.36295" />
    <path d="M -2.8687 7.17123 L -2.8687 -64.33349 L -2.83998 -63.6895 L -2.53998 -63.68968 L -2.5687 -64.33368 L -2.8687 -64.33349" />
    <path d="M -2.83998 7.81522 L -2.83998 -63.6895" />
    <path d="M -2.8687 7.17123 L -2.83998 7.81522 L -2.83867 7.81522" />
    <path d="M -2.53998 -63.66041 L -2.53998 -63.68968" />
    <path d="M 0.73587 -52.15534 A 1.19 0.13934 360 0 1 1.93208 -52.016 L 1.93208 -41.3556" />
    <path d="M 1.93208 -52.016 A 1.19 0.13934 360 0 1 -0.44792 -52.016 L -0.44792 -32.54576" />
    <path d="M -0.44792 -52.016 A 1.19 0.13934 360 0 1 0.73587 -52.15534" />
    <path d="M -0.198 43.40906 A 1.19 0.13934 180 0 0 0.03249 43.43548" />
    <path d="M -1.96794 27.36922 L -1.96794 -44.1355 L -1.93922 -43.49151 L -1.63922 -43.49169 L -1.66794 -44.13569 L -1.96794 -44.1355" />
    <path d="M -1.93922 28.01321 L -1.93922 -43.49151" />
    <path d="M -1.96794 27.36922 L -1.93922 28.01321 L -1.93791 28.01321" />
    <path d="M -1.63922 -43.46242 L -1.63922 -43.49169" />
    <path d="M -1.99796 26.69595 L -1.99796 -44.80877 L -1.96924 -44.16478 L -1.66925 -44.16496 L -1.69797 -44.80895 L -1.99796 -44.80877" />
    <path d="M -1.96924 27.33995 L -1.96924 -44.16478" />
    <path d="M -1.99796 26.69595 L -1.96924 27.33995 L -1.96794 27.33995" />
    <path d="M -1.66925 -44.13569 L -1.66925 -44.16496" />
    <path d="M -2.02799 26.02269 L -2.02799 -45.48204 L -1.99927 -44.83804 L -1.69927 -44.83823 L -1.72799 -45.48222 L -2.02799 -45.48204" />
    <path d="M -1.99927 26.66668 L -1.99927 -44.83804" />
    <path d="M -2.02799 26.02269 L -1.99927 26.66668 L -1.99796 26.66668" />
    <path d="M -1.69927 -44.80895 L -1.69927 -44.83823" />
    <path d="M -2.05801 25.34942 L -2.05801 -46.1553 L -2.02929 -45.51131 L -1.7293 -45.51149 L -1.75802 -46.15549 L -2.05801 -46.1553" />
    <path d="M -2.02929 25.99341 L -2.02929 -45.51131" />
    <path d="M -2.05801 25.34942 L -2.02929 25.99341 L -2.02799 25.99341" />
    <path d="M -1.7293 -45.48222 L -1.7293 -45.51149" />
    <path d="M -2.08804 24.67615 L -2.08804 -46.82857 L -2.05932 -46.18457 L -1.75932 -46.18476 L -1.78804 -46.82875 L -2.08804 -46.82857" />
    <path d="M -2.05932 25.32015 L -2.05932 -46.18457" />
    <path d="M -2.08804 24.67615 L -2.05932 25.32015 L -2.05801 25.32015" />
    <path d="M -1.75932 -46.15548 L -1.75932 -46.18476" />
    <path d="M -2.11806 24.00289 L -2.11806 -47.50183 L -2.08934 -46.85784 L -1.78935 -46.85802 L -1.81807 -47.50202 L -2.11806 -47.50183" />
    <path d="M -2.08934 24.64688 L -2.08934 -46.85784" />
    <path d="M -2.11806 24.00289 L -2.08934 24.64688 L -2.08804 24.64688" />
    <path d="M -1.78935 -46.82875 L -1.78935 -46.85802" />
    <path d="M -2.14809 23.32962 L -2.14809 -48.1751 L -2.11937 -47.53111 L -1.81937 -47.53129 L -1.84809 -48.17528 L -2.14809 -48.1751" />
    <path d="M -2.11937 23.97361 L -2.11937 -47.53111" />
    <path d="M -2.14809 23.32962 L -2.11937 23.97361 L -2.11806 23.97361" />
    <path d="M -1.81937 -47.50202 L -1.81937 -47.53129" />
    <path d="M -2.17811 22.65635 L -2.17811 -48.84837 L -2.14939 -48.20437 L -1.8494 -48.20456 L -1.87812 -48.84855 L -2.17811 -48.84837" />
    <path d="M -2.14939 23.30035 L -2.14939 -48.20437" />
    <path d="M -2.17811 22.65635 L -2.14939 23.30035 L -2.14809 23.30035" />
    <path d="M -1.8494 -48.17528 L -1.8494 -48.20456" />
    <path d="M -2.20814 21.98309 L -2.20814 -49.52163 L -2.17942 -48.87764 L -1.87942 -48.87782 L -1.90814 -49.52182 L -2.20814 -49.52163" />
    <path d="M -2.17942 22.62708 L -2.17942 -48.87764" />
    <path d="M -2.20814 21.98309 L -2.17942 22.62708 L -2.17811 22.62708" />
    <path d="M -1.87942 -48.84855 L -1.87942 -48.87782" />
    <path d="M -2.23816 21.30982 L -2.23816 -50.1949 L -2.20945 -49.55091 L -1.90945 -49.55109 L -1.93817 -50.19508 L -2.23816 -50.1949" />
    <path d="M -2.20945 21.95382 L -2.20945 -49.55091" />
    <path d="M -2.23816 21.30982 L -2.20945 21.95382 L -2.20814 21.95382" />
    <path d="M -1.90945 -49.52182 L -1.90945 -49.55109" />
    <path d="M -2.26819 20.63656 L -2.26819 -50.86817 L -2.23947 -50.22417 L -1.93947 -50.22436 L -1.96819 -50.86835 L -2.26819 -50.86817" />
    <path d="M -2.23947 21.28055 L -2.23947 -50.22417" />
    <path d="M -2.26819 20.63656 L -2.23947 21.28055 L -2.23816 21.28055" />
    <path d="M -1.93947 -50.19508 L -1.93947 -50.22436" />
    <path d="M -2.29822 19.96329 L -2.29822 -51.54143 L -2.2695 -50.89744 L -1.9695 -50.89762 L -1.99822 -51.54162 L -2.29822 -51.54143" />
    <path d="M -2.2695 20.60728 L -2.2695 -50.89744" />
    <path d="M -2.29822 19.96329 L -2.2695 20.60728 L -2.26819 20.60728" />
    <path d="M -1.9695 -50.86835 L -1.9695 -50.89762" />
    <path d="M -2.32824 19.29002 L -2.32824 -52.2147 L -2.29952 -51.57071 L -1.99953 -51.57089 L -2.02825 -52.21488 L -2.32824 -52.2147" />
    <path d="M -2.29952 19.93402 L -2.29952 -51.57071" />
    <path d="M -2.32824 19.29002 L -2.29952 19.93402 L -2.29822 19.93402" />
    <path d="M -1.99953 -51.54162 L -1.99953 -51.57089" />
    <path d="M -2.35827 18.61676 L -2.35827 -52.88797 L -2.32955 -52.24397 L -2.02955 -52.24416 L -2.05827 -52.88815 L -2.35827 -52.88797" />
    <path d="M -2.32955 19.26075 L -2.32955 -52.24397" />
    <path d="M -2.35827 18.61676 L -2.32955 19.26075 L -2.32824 19.26075" />
    <path d="M -2.02955 -52.21488 L -2.02955 -52.24416" />
    <path d="M -2.41832 17.27022 L -2.41832 -54.2345 L -2.3896 -53.5905 L -2.0896 -53.59069 L -2.11832 -54.23468 L -2.41832 -54.2345" />
    <path d="M -2.3896 17.91422 L -2.3896 -53.5905" />
    <path d="M -2.41832 17.27022 L -2.3896 17.91422 L -2.38829 17.91422" />
    <path d="M -2.0896 -53.56141 L -2.0896 -53.59069" />
    <path d="M -2.38829 17.94349 L -2.38829 -53.56123 L -2.35957 -52.91724 L -2.05958 -52.91742 L -2.0883 -53.56142 L -2.38829 -53.56123" />
    <path d="M -2.35957 18.58748 L -2.35957 -52.91724" />
    <path d="M -2.38829 17.94349 L -2.35957 18.58748 L -2.35827 18.58748" />
    <path d="M -2.05958 -52.88815 L -2.05958 -52.91742" />
    <path d="M 1.21628 -41.38308 A 1.19 0.13934 360 0 1 2.41249 -41.24374 L 2.41249 -30.58334" />
    <path d="M 2.41249 -41.24374 A 1.19 0.13934 360 0 1 0.03249 -41.24374 L 0.03249 -21.7735" />
    <path d="M 0.03249 -41.24374 A 1.19 0.13934 360 0 1 1.21628 -41.38308" />
    <path d="M 0.03249 54.09589 A 1.19 0.13934 180 0 0 0.51289 54.20774" />
    <path d="M -1.48753 38.14148 L -1.48753 -33.36324 L -1.45881 -32.71925 L -1.15882 -32.71943 L -1.18754 -33.36343 L -1.48753 -33.36324" />
    <path d="M -1.45881 38.78547 L -1.45881 -32.71925" />
    <path d="M -1.48753 38.14148 L -1.45881 38.78547 L -1.45751 38.78547" />
    <path d="M -1.15882 -32.69016 L -1.15882 -32.71943" />
    <path d="M -1.51756 37.46821 L -1.51756 -34.03651 L -1.48884 -33.39251 L -1.18884 -33.3927 L -1.21756 -34.03669 L -1.51756 -34.03651" />
    <path d="M -1.48884 38.11221 L -1.48884 -33.39251" />
    <path d="M -1.51756 37.46821 L -1.48884 38.11221 L -1.48753 38.11221" />
    <path d="M -1.18884 -33.36342 L -1.18884 -33.3927" />
    <path d="M -1.54758 36.79495 L -1.54758 -34.70977 L -1.51886 -34.06578 L -1.21887 -34.06596 L -1.24759 -34.70996 L -1.54758 -34.70977" />
    <path d="M -1.51886 37.43894 L -1.51886 -34.06578" />
    <path d="M -1.54758 36.79495 L -1.51886 37.43894 L -1.51756 37.43894" />
    <path d="M -1.21887 -34.03669 L -1.21887 -34.06596" />
    <path d="M -1.57761 36.12168 L -1.57761 -35.38304 L -1.54889 -34.73905 L -1.24889 -34.73923 L -1.27761 -35.38322 L -1.57761 -35.38304" />
    <path d="M -1.54889 36.76568 L -1.54889 -34.73905" />
    <path d="M -1.57761 36.12168 L -1.54889 36.76568 L -1.54758 36.76567" />
    <path d="M -1.24889 -34.70996 L -1.24889 -34.73923" />
    <path d="M -1.60763 35.44841 L -1.60763 -36.05631 L -1.57891 -35.41231 L -1.27892 -35.4125 L -1.30764 -36.05649 L -1.60763 -36.05631" />
    <path d="M -1.57891 36.09241 L -1.57891 -35.41231" />
    <path d="M -1.60763 35.44841 L -1.57891 36.09241 L -1.57761 36.09241" />
    <path d="M -1.27892 -35.38322 L -1.27892 -35.4125" />
    <path d="M -1.63766 34.77515 L -1.63766 -36.72957 L -1.60894 -36.08558 L -1.30894 -36.08576 L -1.33766 -36.72976 L -1.63766 -36.72957" />
    <path d="M -1.60894 35.41914 L -1.60894 -36.08558" />
    <path d="M -1.63766 34.77515 L -1.60894 35.41914 L -1.60763 35.41914" />
    <path d="M -1.30894 -36.05649 L -1.30894 -36.08576" />
    <path d="M -1.66768 34.10188 L -1.66768 -37.40284 L -1.63896 -36.75885 L -1.33897 -36.75903 L -1.36769 -37.40302 L -1.66768 -37.40284" />
    <path d="M -1.63896 34.74588 L -1.63896 -36.75885" />
    <path d="M -1.66768 34.10188 L -1.63896 34.74588 L -1.63766 34.74588" />
    <path d="M -1.33897 -36.72976 L -1.33897 -36.75903" />
    <path d="M -1.69771 33.42862 L -1.69771 -38.07611 L -1.66899 -37.43211 L -1.36899 -37.4323 L -1.39771 -38.07629 L -1.69771 -38.07611" />
    <path d="M -1.66899 34.07261 L -1.66899 -37.43211" />
    <path d="M -1.69771 33.42862 L -1.66899 34.07261 L -1.66768 34.07261" />
    <path d="M -1.36899 -37.40302 L -1.36899 -37.4323" />
    <path d="M -1.72773 32.75535 L -1.72773 -38.74937 L -1.69901 -38.10538 L -1.39902 -38.10556 L -1.42774 -38.74956 L -1.72773 -38.74937" />
    <path d="M -1.69901 33.39934 L -1.69901 -38.10538" />
    <path d="M -1.72773 32.75535 L -1.69901 33.39934 L -1.69771 33.39934" />
    <path d="M -1.39902 -38.07629 L -1.39902 -38.10556" />
    <path d="M -1.75776 32.08208 L -1.75776 -39.42264 L -1.72904 -38.77865 L -1.42904 -38.77883 L -1.45776 -39.42282 L -1.75776 -39.42264" />
    <path d="M -1.72904 32.72608 L -1.72904 -38.77865" />
    <path d="M -1.75776 32.08208 L -1.72904 32.72608 L -1.72773 32.72608" />
    <path d="M -1.42904 -38.74956 L -1.42904 -38.77883" />
    <path d="M -1.78778 31.40882 L -1.78778 -40.09591 L -1.75906 -39.45191 L -1.45907 -39.45209 L -1.48779 -40.09609 L -1.78778 -40.09591" />
    <path d="M -1.75906 32.05281 L -1.75906 -39.45191" />
    <path d="M -1.78778 31.40882 L -1.75906 32.05281 L -1.75776 32.05281" />
    <path d="M -1.45907 -39.42282 L -1.45907 -39.45209" />
    <path d="M -1.81781 30.73555 L -1.81781 -40.76917 L -1.78909 -40.12518 L -1.48909 -40.12536 L -1.51781 -40.76936 L -1.81781 -40.76917" />
    <path d="M -1.78909 31.37954 L -1.78909 -40.12518" />
    <path d="M -1.81781 30.73555 L -1.78909 31.37954 L -1.78778 31.37954" />
    <path d="M -1.48909 -40.09609 L -1.48909 -40.12536" />
    <path d="M -1.84784 30.06228 L -1.84784 -41.44244 L -1.81912 -40.79844 L -1.51912 -40.79863 L -1.54784 -41.44262 L -1.84784 -41.44244" />
    <path d="M -1.81912 30.70628 L -1.81912 -40.79844" />
    <path d="M -1.84784 30.06228 L -1.81912 30.70628 L -1.81781 30.70628" />
    <path d="M -1.51912 -40.76935 L -1.51912 -40.79863" />
    <path d="M -1.87786 29.38902 L -1.87786 -42.1157 L -1.84914 -41.47171 L -1.54915 -41.47189 L -1.57786 -42.11589 L -1.87786 -42.1157" />
    <path d="M -1.84914 30.03301 L -1.84914 -41.47171" />
    <path d="M -1.87786 29.38902 L -1.84914 30.03301 L -1.84784 30.03301" />
    <path d="M -1.54915 -41.44262 L -1.54915 -41.47189" />
    <path d="M -1.93791 28.04249 L -1.93791 -43.46224 L -1.90919 -42.81824 L -1.6092 -42.81843 L -1.63792 -43.46242 L -1.93791 -43.46224" />
    <path d="M -1.90919 28.68648 L -1.90919 -42.81824" />
    <path d="M -1.93791 28.04249 L -1.90919 28.68648 L -1.90789 28.68648" />
    <path d="M -1.6092 -42.78915 L -1.6092 -42.81843" />
    <path d="M -1.90789 28.71575 L -1.90789 -42.78897 L -1.87917 -42.14498 L -1.57917 -42.14516 L -1.60789 -42.78915 L -1.90789 -42.78897" />
    <path d="M -1.87917 29.35975 L -1.87917 -42.14498" />
    <path d="M -1.90789 28.71575 L -1.87917 29.35975 L -1.87786 29.35974" />
    <path d="M -1.57917 -42.11589 L -1.57917 -42.14516" />
    <path d="M 1.69668 -30.61082 A 1.19 0.13934 360 0 1 2.89289 -30.47148 L 2.89289 -19.81107" />
    <path d="M 2.89289 -30.47148 A 1.19 0.13934 360 0 1 0.51289 -30.47148 L 0.51289 -11.00124" />
    <path d="M 0.51289 -30.47148 A 1.19 0.13934 360 0 1 1.69668 -30.61082" />
    <path d="M 0.51289 64.86815 A 1.19 0.13934 180 0 0 0.9933 64.98001" />
    <path d="M -1.00713 48.91374 L -1.00713 -22.59098 L -0.97841 -21.94699 L -0.67841 -21.94717 L -0.70713 -22.59116 L -1.00713 -22.59098" />
    <path d="M -0.97841 49.55774 L -0.97841 -21.94699" />
    <path d="M -1.00713 48.91374 L -0.97841 49.55774 L -0.9771 49.55773" />
    <path d="M -0.67841 -21.9179 L -0.67841 -21.94717" />
    <path d="M -1.03715 48.24047 L -1.03715 -23.26425 L -1.00843 -22.62025 L -0.70844 -22.62044 L -0.73716 -23.26443 L -1.03715 -23.26425" />
    <path d="M -1.00843 48.88447 L -1.00843 -22.62025" />
    <path d="M -1.03715 48.24047 L -1.00843 48.88447 L -1.00713 48.88447" />
    <path d="M -0.70844 -22.59116 L -0.70844 -22.62044" />
    <path d="M -1.06718 47.56721 L -1.06718 -23.93751 L -1.03846 -23.29352 L -0.73846 -23.2937 L -0.76718 -23.9377 L -1.06718 -23.93751" />
    <path d="M -1.03846 48.2112 L -1.03846 -23.29352" />
    <path d="M -1.06718 47.56721 L -1.03846 48.2112 L -1.03715 48.2112" />
    <path d="M -0.73846 -23.26443 L -0.73846 -23.2937" />
    <path d="M -1.0972 46.89394 L -1.0972 -24.61078 L -1.06848 -23.96679 L -0.76849 -23.96697 L -0.79721 -24.61096 L -1.0972 -24.61078" />
    <path d="M -1.06848 47.53794 L -1.06848 -23.96679" />
    <path d="M -1.0972 46.89394 L -1.06848 47.53794 L -1.06718 47.53794" />
    <path d="M -0.76849 -23.9377 L -0.76849 -23.96697" />
    <path d="M -1.12723 46.22068 L -1.12723 -25.28405 L -1.09851 -24.64005 L -0.79851 -24.64024 L -0.82723 -25.28423 L -1.12723 -25.28405" />
    <path d="M -1.09851 46.86467 L -1.09851 -24.64005" />
    <path d="M -1.12723 46.22068 L -1.09851 46.86467 L -1.0972 46.86467" />
    <path d="M -0.79851 -24.61096 L -0.79851 -24.64024" />
    <path d="M -1.15725 45.54741 L -1.15725 -25.95731 L -1.12853 -25.31332 L -0.82854 -25.3135 L -0.85726 -25.9575 L -1.15725 -25.95731" />
    <path d="M -1.12853 46.1914 L -1.12853 -25.31332" />
    <path d="M -1.15725 45.54741 L -1.12853 46.1914 L -1.12723 46.1914" />
    <path d="M -0.82854 -25.28423 L -0.82854 -25.3135" />
    <path d="M -1.18728 44.87414 L -1.18728 -26.63058 L -1.15856 -25.98659 L -0.85856 -25.98677 L -0.88728 -26.63076 L -1.18728 -26.63058" />
    <path d="M -1.15856 45.51814 L -1.15856 -25.98659" />
    <path d="M -1.18728 44.87414 L -1.15856 45.51814 L -1.15725 45.51814" />
    <path d="M -0.85856 -25.9575 L -0.85856 -25.98677" />
    <path d="M -1.2173 44.20088 L -1.2173 -27.30385 L -1.18858 -26.65985 L -0.88859 -26.66003 L -0.91731 -27.30403 L -1.2173 -27.30385" />
    <path d="M -1.18858 44.84487 L -1.18858 -26.65985" />
    <path d="M -1.2173 44.20088 L -1.18858 44.84487 L -1.18728 44.84487" />
    <path d="M -0.88859 -26.63076 L -0.88859 -26.66003" />
    <path d="M -1.24733 43.52761 L -1.24733 -27.97711 L -1.21861 -27.33312 L -0.91861 -27.3333 L -0.94733 -27.9773 L -1.24733 -27.97711" />
    <path d="M -1.21861 44.1716 L -1.21861 -27.33312" />
    <path d="M -1.24733 43.52761 L -1.21861 44.1716 L -1.2173 44.1716" />
    <path d="M -0.91861 -27.30403 L -0.91861 -27.3333" />
    <path d="M -1.27735 42.85434 L -1.27735 -28.65038 L -1.24863 -28.00638 L -0.94864 -28.00657 L -0.97736 -28.65056 L -1.27735 -28.65038" />
    <path d="M -1.24863 43.49834 L -1.24863 -28.00638" />
    <path d="M -1.27735 42.85434 L -1.24863 43.49834 L -1.24733 43.49834" />
    <path d="M -0.94864 -27.97729 L -0.94864 -28.00657" />
    <path d="M -1.30738 42.18108 L -1.30738 -29.32364 L -1.27866 -28.67965 L -0.97866 -28.67983 L -1.00738 -29.32383 L -1.30738 -29.32364" />
    <path d="M -1.27866 42.82507 L -1.27866 -28.67965" />
    <path d="M -1.30738 42.18108 L -1.27866 42.82507 L -1.27735 42.82507" />
    <path d="M -0.97866 -28.65056 L -0.97866 -28.67983" />
    <path d="M -1.3374 41.50781 L -1.3374 -29.99691 L -1.30868 -29.35292 L -1.00869 -29.3531 L -1.03741 -29.99709 L -1.3374 -29.99691" />
    <path d="M -1.30868 42.15181 L -1.30868 -29.35292" />
    <path d="M -1.3374 41.50781 L -1.30868 42.15181 L -1.30738 42.1518" />
    <path d="M -1.00869 -29.32383 L -1.00869 -29.3531" />
    <path d="M -1.36743 40.83455 L -1.36743 -30.67018 L -1.33871 -30.02618 L -1.03871 -30.02637 L -1.06743 -30.67036 L -1.36743 -30.67018" />
    <path d="M -1.33871 41.47854 L -1.33871 -30.02618" />
    <path d="M -1.36743 40.83455 L -1.33871 41.47854 L -1.3374 41.47854" />
    <path d="M -1.03871 -29.99709 L -1.03871 -30.02637" />
    <path d="M -1.39746 40.16128 L -1.39746 -31.34344 L -1.36874 -30.69945 L -1.06874 -30.69963 L -1.09746 -31.34363 L -1.39746 -31.34344" />
    <path d="M -1.36874 40.80527 L -1.36874 -30.69945" />
    <path d="M -1.39746 40.16128 L -1.36874 40.80527 L -1.36743 40.80527" />
    <path d="M -1.06874 -30.67036 L -1.06874 -30.69963" />
    <path d="M -1.45751 38.81475 L -1.45751 -32.68998 L -1.42879 -32.04598 L -1.12879 -32.04617 L -1.15751 -32.69016 L -1.45751 -32.68998" />
    <path d="M -1.42879 39.45874 L -1.42879 -32.04598" />
    <path d="M -1.45751 38.81475 L -1.42879 39.45874 L -1.42748 39.45874" />
    <path d="M -1.12879 -32.01689 L -1.12879 -32.04617" />
    <path d="M -1.42748 39.48801 L -1.42748 -32.01671 L -1.39876 -31.37272 L -1.09876 -31.3729 L -1.12748 -32.01689 L -1.42748 -32.01671" />
    <path d="M -1.39876 40.13201 L -1.39876 -31.37272" />
    <path d="M -1.42748 39.48801 L -1.39876 40.13201 L -1.39746 40.13201" />
    <path d="M -1.09876 -31.34363 L -1.09876 -31.3729" />
    <path d="M 2.17709 -19.83856 A 1.19 0.13934 360 0 1 3.3733 -19.69922 L 3.3733 1.70857" />
    <path d="M 3.3733 -19.69922 A 1.19 0.13934 360 0 1 0.9933 -19.69922 L 0.9933 -0.22898" />
    <path d="M 0.9933 -19.69922 A 1.19 0.13934 360 0 1 2.17709 -19.83856" />
    <path d="M 0.9933 75.64041 A 1.19 0.13934 180 0 0 1.95411 75.77714" />
    <path d="M -0.52672 59.686 L -0.52672 -11.81872 L -0.498 -11.17473 L -0.198 -11.17491 L -0.22672 -11.8189 L -0.52672 -11.81872" />
    <path d="M -0.498 60.33 L -0.498 -11.17473" />
    <path d="M -0.52672 59.686 L -0.498 60.33 L -0.198 60.32981 L -0.198 -11.17491" />
    <path d="M -0.55675 59.01274 L -0.55675 -12.49199 L -0.52803 -11.84799 L -0.22803 -11.84818 L -0.25675 -12.49217 L -0.55675 -12.49199" />
    <path d="M -0.52803 59.65673 L -0.52803 -11.84799" />
    <path d="M -0.55675 59.01274 L -0.52803 59.65673 L -0.52672 59.65673" />
    <path d="M -0.22803 -11.8189 L -0.22803 -11.84818" />
    <path d="M -0.58677 58.33947 L -0.58677 -13.16525 L -0.55805 -12.52126 L -0.25806 -12.52144 L -0.28678 -13.16544 L -0.58677 -13.16525" />
    <path d="M -0.55805 58.98346 L -0.55805 -12.52126" />
    <path d="M -0.58677 58.33947 L -0.55805 58.98346 L -0.55675 58.98346" />
    <path d="M -0.25806 -12.49217 L -0.25806 -12.52144" />
    <path d="M -0.6168 57.6662 L -0.6168 -13.83852 L -0.58808 -13.19453 L -0.28808 -13.19471 L -0.3168 -13.8387 L -0.6168 -13.83852" />
    <path d="M -0.58808 58.3102 L -0.58808 -13.19453" />
    <path d="M -0.6168 57.6662 L -0.58808 58.3102 L -0.58677 58.3102" />
    <path d="M -0.28808 -13.16544 L -0.28808 -13.19471" />
    <path d="M -0.64682 56.99294 L -0.64682 -14.51179 L -0.6181 -13.86779 L -0.31811 -13.86797 L -0.34683 -14.51197 L -0.64682 -14.51179" />
    <path d="M -0.6181 57.63693 L -0.6181 -13.86779" />
    <path d="M -0.64682 56.99294 L -0.6181 57.63693 L -0.6168 57.63693" />
    <path d="M -0.31811 -13.8387 L -0.31811 -13.86797" />
    <path d="M -0.67685 56.31967 L -0.67685 -15.18505 L -0.64813 -14.54106 L -0.34813 -14.54124 L -0.37685 -15.18524 L -0.67685 -15.18505" />
    <path d="M -0.64813 56.96366 L -0.64813 -14.54106" />
    <path d="M -0.67685 56.31967 L -0.64813 56.96366 L -0.64682 56.96366" />
    <path d="M -0.34813 -14.51197 L -0.34813 -14.54124" />
    <path d="M -0.70687 55.6464 L -0.70687 -15.85832 L -0.67815 -15.21432 L -0.37816 -15.21451 L -0.40688 -15.8585 L -0.70687 -15.85832" />
    <path d="M -0.67815 56.2904 L -0.67815 -15.21432" />
    <path d="M -0.70687 55.6464 L -0.67815 56.2904 L -0.67685 56.2904" />
    <path d="M -0.37816 -15.18523 L -0.37816 -15.21451" />
    <path d="M -0.7369 54.97314 L -0.7369 -16.53158 L -0.70818 -15.88759 L -0.40818 -15.88777 L -0.4369 -16.53177 L -0.7369 -16.53158" />
    <path d="M -0.70818 55.61713 L -0.70818 -15.88759" />
    <path d="M -0.7369 54.97314 L -0.70818 55.61713 L -0.70687 55.61713" />
    <path d="M -0.40818 -15.8585 L -0.40818 -15.88777" />
    <path d="M -0.76692 54.29987 L -0.76692 -17.20485 L -0.7382 -16.56086 L -0.43821 -16.56104 L -0.46693 -17.20503 L -0.76692 -17.20485" />
    <path d="M -0.7382 54.94387 L -0.7382 -16.56086" />
    <path d="M -0.76692 54.29987 L -0.7382 54.94387 L -0.7369 54.94386" />
    <path d="M -0.43821 -16.53177 L -0.43821 -16.56104" />
    <path d="M -0.79695 53.62661 L -0.79695 -17.87812 L -0.76823 -17.23412 L -0.46823 -17.23431 L -0.49695 -17.8783 L -0.79695 -17.87812" />
    <path d="M -0.76823 54.2706 L -0.76823 -17.23412" />
    <path d="M -0.79695 53.62661 L -0.76823 54.2706 L -0.76692 54.2706" />
    <path d="M -0.46823 -17.20503 L -0.46823 -17.23431" />
    <path d="M -0.82697 52.95334 L -0.82697 -18.55138 L -0.79825 -17.90739 L -0.49826 -17.90757 L -0.52698 -18.55157 L -0.82697 -18.55138" />
    <path d="M -0.79825 53.59733 L -0.79825 -17.90739" />
    <path d="M -0.82697 52.95334 L -0.79825 53.59733 L -0.79695 53.59733" />
    <path d="M -0.49826 -17.8783 L -0.49826 -17.90757" />
    <path d="M -0.857 52.28007 L -0.857 -19.22465 L -0.82828 -18.58066 L -0.52828 -18.58084 L -0.557 -19.22483 L -0.857 -19.22465" />
    <path d="M -0.82828 52.92407 L -0.82828 -18.58066" />
    <path d="M -0.857 52.28007 L -0.82828 52.92407 L -0.82697 52.92407" />
    <path d="M -0.52828 -18.55157 L -0.52828 -18.58084" />
    <path d="M -0.88702 51.60681 L -0.88702 -19.89792 L -0.8583 -19.25392 L -0.55831 -19.25411 L -0.58703 -19.8981 L -0.88702 -19.89792" />
    <path d="M -0.8583 52.2508 L -0.8583 -19.25392" />
    <path d="M -0.88702 51.60681 L -0.8583 52.2508 L -0.857 52.2508" />
    <path d="M -0.55831 -19.22483 L -0.55831 -19.25411" />
    <path d="M -0.91705 50.93354 L -0.91705 -20.57118 L -0.88833 -19.92719 L -0.58833 -19.92737 L -0.61705 -20.57137 L -0.91705 -20.57118" />
    <path d="M -0.88833 51.57753 L -0.88833 -19.92719" />
    <path d="M -0.91705 50.93354 L -0.88833 51.57753 L -0.88702 51.57753" />
    <path d="M -0.58833 -19.8981 L -0.58833 -19.92737" />
    <path d="M -0.9771 49.58701 L -0.9771 -21.91771 L -0.94838 -21.27372 L -0.64838 -21.2739 L -0.6771 -21.9179 L -0.9771 -21.91771" />
    <path d="M -0.94838 50.231 L -0.94838 -21.27372" />
    <path d="M -0.9771 49.58701 L -0.94838 50.231 L -0.94708 50.231" />
    <path d="M -0.64838 -21.24463 L -0.64838 -21.2739" />
    <path d="M -0.94708 50.26027 L -0.94708 -21.24445 L -0.91836 -20.60045 L -0.61836 -20.60064 L -0.64708 -21.24463 L -0.94708 -21.24445" />
    <path d="M -0.91836 50.90427 L -0.91836 -20.60045" />
    <path d="M -0.94708 50.26027 L -0.91836 50.90427 L -0.91705 50.90427" />
    <path d="M -0.61836 -20.57136 L -0.61836 -20.60064" />
    <path d="M 1.95411 1.8453 L 1.95411 97.18493" />
    <path d="M 4.33411 1.8453 L 4.33411 97.18493" />
    <path d="M -2.36954 -95.10505 L -2.36954 -75.63481" />
    <path d="M 0.01046 -95.10505 L 0.01046 -84.44464" />
    <path d="M -1.88913 -84.33279 L -1.88913 -64.86255" />
    <path d="M 0.49087 -84.33279 L 0.49087 -73.67238" />
    <path d="M -1.40873 -73.56052 L -1.40873 -54.09029" />
    <path d="M 0.97127 -73.56052 L 0.97127 -62.90012" />
    <path d="M 0.03249 42.70286 L 0.03249 54.09589" />
    <path d="M 0.51289 12.90893 L 0.51289 18.79239" />
    <path d="M 0.51289 42.70256 L 0.51289 64.86815" />
    <path d="M 0.9933 12.90863 L 0.9933 29.56465" />
    <path d="M 0.9933 42.70227 L 0.9933 75.64041" />
</svg>