<svg version="1.1" xmlns="http://www.w3.org/2000/svg" viewBox="-5.3399420543968645 -98.32471531889351 10.66946774772314 196.55522455500798" fill="none" stroke="black" stroke-width="0.6%" vector-effect="non-scaling-stroke">
    <path d="M 3.13332 1.61119 A 1.19 0.1392 360 0 1 4.32952 1.75039 A 1.19 0.1392 360 0 1 1.94952 1.75039 A 1.19 0.1392 360 0 1 3.13332 1.61119 Z" />
    <path d="M 1.94952 97.0913 A 1.19 0.1392 180 0 0 4.32952 97.0913" />
    <path d="M -1.18576 -95.24543 A 1.19 0.1392 360 0 1 0.01045 -95.10623 A 1.19 0.1392 360 0 1 -2.36955 -95.10623 A 1.19 0.1392 360 0 1 -1.18576 -95.24543 Z" />
    <path d="M -0.70586 -84.48359 A 1.19 0.1392 360 0 1 0.49035 -84.34438 A 1.19 0.1392 360 0 1 -1.88965 -84.34438 A 1.19 0.1392 360 0 1 -0.70586 -84.48359 Z" />
    <path d="M -0.22596 -73.72174 A 1.19 0.1392 360 0 1 0.97024 -73.58254 A 1.19 0.1392 360 0 1 -1.40976 -73.58254 A 1.19 0.1392 360 0 1 -0.22596 -73.72174 Z" />
    <path d="M 0.25393 -62.95989 A 1.19 0.1392 360 0 1 1.45014 -62.82069 A 1.19 0.1392 360 0 1 -0.92986 -62.82069 A 1.19 0.1392 360 0 1 0.25393 -62.95989 Z" />
    <path d="M 0.73383 -52.19804 A 1.19 0.1392 360 0 1 1.93004 -52.05884 A 1.19 0.1392 360 0 1 -0.44996 -52.05884 A 1.19 0.1392 360 0 1 0.73383 -52.19804 Z" />
    <path d="M 1.21373 -41.4362 A 1.19 0.1392 360 0 1 2.40994 -41.297 A 1.19 0.1392 360 0 1 0.02994 -41.297 A 1.19 0.1392 360 0 1 1.21373 -41.4362 Z" />
    <path d="M 0.27783 54.12896 A 1.19 0.1392 180 0 0 0.50983 54.15562" />
    <path d="M 1.69363 -30.67435 A 1.19 0.1392 360 0 1 2.88983 -30.53515 A 1.19 0.1392 360 0 1 0.50983 -30.53515 A 1.19 0.1392 360 0 1 1.69363 -30.67435 Z" />
    <path d="M 0.50983 64.80576 A 1.19 0.1392 180 0 0 0.98973 64.91747" />
    <path d="M 2.17352 -19.9125 A 1.19 0.1392 360 0 1 3.36973 -19.7733 A 1.19 0.1392 360 0 1 0.98973 -19.7733 A 1.19 0.1392 360 0 1 2.17352 -19.9125 Z" />
    <path d="M 0.98973 75.56761 A 1.19 0.1392 180 0 0 1.46963 75.67931" />
    <path d="M 2.65342 -9.15066 A 1.19 0.1392 360 0 1 3.84963 -9.01145 A 1.19 0.1392 360 0 1 1.46963 -9.01145 A 1.19 0.1392 360 0 1 2.65342 -9.15066 Z" />
    <path d="M 1.46963 86.32946 A 1.19 0.1392 180 0 0 1.94952 86.44116" />
    <path d="M 0.39999 20.11073 L 0.27783 17.37108" />
    <path d="M 0.39999 20.11073 L 0.39999 23.5867 L 1.89997 23.58578 L 1.89997 20.10981 L -2.43997 -77.21472 L -3.14317 -77.21429" />
    <path d="M 0.27783 20.84705 L 0.39999 23.5867" />
    <path d="M 1.89997 20.10981 L 0.39999 20.11073" />
    <path d="M 0.39999 49.90476 L 0.27783 47.16511" />
    <path d="M 0.39999 49.90476 L 0.39999 53.38073 L 1.89997 53.37982 L 1.89997 49.90385 L 0.72642 23.5865" />
    <path d="M 0.27783 50.64108 L 0.39999 53.38073" />
    <path d="M 1.89997 49.90385 L 0.39999 49.90476" />
    <path d="M -4.33994 -25.81885 L -4.33994 -97.32453 L -4.31125 -96.68116 L -4.01126 -96.68134 L -4.03995 -97.32471 L -4.33994 -97.32453" />
    <path d="M -4.31125 -25.17548 L -4.31125 -96.68116" />
    <path d="M -4.33994 -25.81885 L -4.31125 -25.17548 L -4.30995 -25.17548" />
    <path d="M -4.01126 -96.6521 L -4.01126 -96.68134" />
    <path d="M -3.86004 -15.057 L -3.86004 -86.56268 L -3.83135 -85.91931 L -3.53136 -85.9195 L -3.56005 -86.56287 L -3.86004 -86.56268" />
    <path d="M -3.83135 -14.41363 L -3.83135 -85.91931" />
    <path d="M -3.86004 -15.057 L -3.83135 -14.41363 L -3.83005 -14.41363" />
    <path d="M -3.53136 -85.89025 L -3.53136 -85.9195" />
    <path d="M -3.38015 -4.29515 L -3.38015 -75.80084 L -3.35146 -75.15747 L -3.05146 -75.15765 L -3.08015 -75.80102 L -3.38015 -75.80084" />
    <path d="M -3.35146 -3.65178 L -3.35146 -75.15747" />
    <path d="M -3.38015 -4.29515 L -3.35146 -3.65178 L -3.35015 -3.65178" />
    <path d="M -3.05146 -75.1284 L -3.05146 -75.15765" />
    <path d="M -2.90025 6.46669 L -2.90025 -65.03899 L -2.87156 -64.39562 L -2.57156 -64.3958 L -2.60025 -65.03917 L -2.90025 -65.03899" />
    <path d="M -2.87156 7.11006 L -2.87156 -64.39562" />
    <path d="M -2.90025 6.46669 L -2.87156 7.11006 L -2.87026 7.11006" />
    <path d="M -2.57156 -64.36656 L -2.57156 -64.3958" />
    <path d="M -2.42035 17.22854 L -2.42035 -54.27714 L -2.39166 -53.63377 L -2.09167 -53.63395 L -2.12036 -54.27733 L -2.42035 -54.27714" />
    <path d="M -2.39166 17.87191 L -2.39166 -53.63377" />
    <path d="M -2.42035 17.22854 L -2.39166 17.87191 L -2.39036 17.87191" />
    <path d="M -2.09167 -53.60471 L -2.09167 -53.63395" />
    <path d="M -1.94045 27.99039 L -1.94045 -43.5153 L -1.91176 -42.87192 L -1.61177 -42.87211 L -1.64046 -43.51548 L -1.94045 -43.5153" />
    <path d="M -1.91176 28.63376 L -1.91176 -42.87192" />
    <path d="M -1.94045 27.99039 L -1.91176 28.63376 L -1.91046 28.63376" />
    <path d="M -1.61177 -42.84286 L -1.61177 -42.87211" />
    <path d="M -1.46056 38.75223 L -1.46056 -32.75345 L -1.43187 -32.11008 L -1.13187 -32.11026 L -1.16056 -32.75363 L -1.46056 -32.75345" />
    <path d="M -1.43187 39.39561 L -1.43187 -32.11008" />
    <path d="M -1.46056 38.75223 L -1.43187 39.39561 L -1.43056 39.39561" />
    <path d="M -1.13187 -32.08101 L -1.13187 -32.11026" />
    <path d="M -0.98066 49.51408 L -0.98066 -21.9916 L -0.95197 -21.34823 L -0.65197 -21.34841 L -0.68066 -21.99178 L -0.98066 -21.9916" />
    <path d="M -0.95197 50.15745 L -0.95197 -21.34823" />
    <path d="M -0.98066 49.51408 L -0.95197 50.15745 L -0.95067 50.15745" />
    <path d="M -0.65197 -21.31917 L -0.65197 -21.34841" />
    <path d="M -0.50076 60.27593 L -0.50076 -11.22975 L -0.47207 -10.58638 L -0.17208 -10.58657 L -0.20077 -11.22994 L -0.50076 -11.22975" />
    <path d="M -0.47207 60.9193 L -0.47207 -10.58638" />
    <path d="M -0.50076 60.27593 L -0.47207 60.9193 L -0.47077 60.9193" />
    <path d="M -0.17208 -10.55732 L -0.17208 -10.58657" />
    <path d="M -4.30995 -25.14623 L -4.30995 -96.65192 L -4.28126 -96.00854 L -3.98126 -96.00873 L -4.00995 -96.6521 L -4.30995 -96.65192" />
    <path d="M -4.28126 -24.50286 L -4.28126 -96.00854" />
    <path d="M -4.30995 -25.14623 L -4.28126 -24.50286 L -4.27995 -24.50286" />
    <path d="M -3.98126 -95.97948 L -3.98126 -96.00873" />
    <path d="M -3.83005 -14.38439 L -3.83005 -85.89007 L -3.80136 -85.2467 L -3.50136 -85.24688 L -3.53005 -85.89025 L -3.83005 -85.89007" />
    <path d="M -3.80136 -13.74101 L -3.80136 -85.2467" />
    <path d="M -3.83005 -14.38439 L -3.80136 -13.74101 L -3.80006 -13.74102" />
    <path d="M -3.50136 -85.21764 L -3.50136 -85.24688" />
    <path d="M -3.35015 -3.62254 L -3.35015 -75.12822 L -3.32146 -74.48485 L -3.02147 -74.48503 L -3.05016 -75.1284 L -3.35015 -75.12822" />
    <path d="M -3.32146 -2.97917 L -3.32146 -74.48485" />
    <path d="M -3.35015 -3.62254 L -3.32146 -2.97917 L -3.32016 -2.97917" />
    <path d="M -3.02147 -74.45579 L -3.02147 -74.48503" />
    <path d="M -2.87026 7.13931 L -2.87026 -64.36637 L -2.84157 -63.723 L -2.54157 -63.72319 L -2.57026 -64.36656 L -2.87026 -64.36637" />
    <path d="M -2.84157 7.78268 L -2.84157 -63.723" />
    <path d="M -2.87026 7.13931 L -2.84157 7.78268 L -2.84026 7.78268" />
    <path d="M -2.54157 -63.69394 L -2.54157 -63.72319" />
    <path d="M -2.39036 17.90116 L -2.39036 -53.60453 L -2.36167 -52.96116 L -2.06167 -52.96134 L -2.09036 -53.60471 L -2.39036 -53.60453" />
    <path d="M -2.36167 18.54453 L -2.36167 -52.96116" />
    <path d="M -2.39036 17.90116 L -2.36167 18.54453 L -2.36036 18.54453" />
    <path d="M -2.06167 -52.93209 L -2.06167 -52.96134" />
    <path d="M -1.91046 28.663 L -1.91046 -42.84268 L -1.88177 -42.19931 L -1.58178 -42.19949 L -1.61046 -42.84286 L -1.91046 -42.84268" />
    <path d="M -1.88177 29.30637 L -1.88177 -42.19931" />
    <path d="M -1.91046 28.663 L -1.88177 29.30637 L -1.88047 29.30637" />
    <path d="M -1.58178 -42.17025 L -1.58178 -42.19949" />
    <path d="M -1.43056 39.42485 L -1.43056 -32.08083 L -1.40187 -31.43746 L -1.10188 -31.43764 L -1.13057 -32.08102 L -1.43056 -32.08083" />
    <path d="M -1.40187 40.06822 L -1.40187 -31.43746" />
    <path d="M -1.43056 39.42485 L -1.40187 40.06822 L -1.40057 40.06822" />
    <path d="M -1.10188 -31.4084 L -1.10188 -31.43764" />
    <path d="M -0.95067 50.1867 L -0.95067 -21.31899 L -0.92198 -20.67561 L -0.62198 -20.6758 L -0.65067 -21.31917 L -0.95067 -21.31899" />
    <path d="M -0.92198 50.83007 L -0.92198 -20.67561" />
    <path d="M -0.95067 50.1867 L -0.92198 50.83007 L -0.92067 50.83007" />
    <path d="M -0.62198 -20.64655 L -0.62198 -20.6758" />
    <path d="M -0.47077 60.94854 L -0.47077 -10.55714 L -0.44208 -9.91377 L -0.14208 -9.91395 L -0.17077 -10.55732 L -0.47077 -10.55714" />
    <path d="M -0.44208 61.59192 L -0.44208 -9.91377" />
    <path d="M -0.47077 60.94854 L -0.44208 61.59192 L -0.44078 61.59192" />
    <path d="M -0.14208 -9.8847 L -0.14208 -9.91395" />
    <path d="M -4.27995 -24.47362 L -4.27995 -95.9793 L -4.25126 -95.33593 L -3.95127 -95.33611 L -3.97996 -95.97948 L -4.27995 -95.9793" />
    <path d="M -4.25126 -23.83025 L -4.25126 -95.33593" />
    <path d="M -4.27995 -24.47362 L -4.25126 -23.83025 L -4.24996 -23.83025" />
    <path d="M -3.95127 -95.30687 L -3.95127 -95.33611" />
    <path d="M -3.80006 -13.71177 L -3.80006 -85.21745 L -3.77137 -84.57408 L -3.47137 -84.57426 L -3.50006 -85.21764 L -3.80006 -85.21745" />
    <path d="M -3.77137 -13.0684 L -3.77137 -84.57408" />
    <path d="M -3.80006 -13.71177 L -3.77137 -13.0684 L -3.77006 -13.0684" />
    <path d="M -3.47137 -84.54502 L -3.47137 -84.57426" />
    <path d="M -3.32016 -2.94992 L -3.32016 -74.45561 L -3.29147 -73.81223 L -2.99147 -73.81242 L -3.02016 -74.45579 L -3.32016 -74.45561" />
    <path d="M -3.29147 -2.30655 L -3.29147 -73.81223" />
    <path d="M -3.32016 -2.94992 L -3.29147 -2.30655 L -3.29017 -2.30655" />
    <path d="M -2.99147 -73.78317 L -2.99147 -73.81242" />
    <path d="M -2.84026 7.81192 L -2.84026 -63.69376 L -2.81157 -63.05039 L -2.51158 -63.05057 L -2.54027 -63.69394 L -2.84026 -63.69376" />
    <path d="M -2.81157 8.4553 L -2.81157 -63.05039" />
    <path d="M -2.84026 7.81192 L -2.81157 8.4553 L -2.81027 8.45529" />
    <path d="M -2.51158 -63.02133 L -2.51158 -63.05057" />
    <path d="M -2.36036 18.57377 L -2.36036 -52.93191 L -2.33168 -52.28854 L -2.03168 -52.28872 L -2.06037 -52.93209 L -2.36036 -52.93191" />
    <path d="M -2.33168 19.21714 L -2.33168 -52.28854" />
    <path d="M -2.36036 18.57377 L -2.33168 19.21714 L -2.33037 19.21714" />
    <path d="M -2.03168 -52.25948 L -2.03168 -52.28872" />
    <path d="M -1.88047 29.33562 L -1.88047 -42.17006 L -1.85178 -41.52669 L -1.55178 -41.52688 L -1.58047 -42.17025 L -1.88047 -42.17006" />
    <path d="M -1.85178 29.97899 L -1.85178 -41.52669" />
    <path d="M -1.88047 29.33562 L -1.85178 29.97899 L -1.85047 29.97899" />
    <path d="M -1.55178 -41.49763 L -1.55178 -41.52688" />
    <path d="M -1.40057 40.09747 L -1.40057 -31.40822 L -1.37188 -30.76485 L -1.07188 -30.76503 L -1.10057 -31.4084 L -1.40057 -31.40822" />
    <path d="M -1.37188 40.74084 L -1.37188 -30.76485" />
    <path d="M -1.40057 40.09747 L -1.37188 40.74084 L -1.37058 40.74084" />
    <path d="M -1.07188 -30.73578 L -1.07188 -30.76503" />
    <path d="M -0.92067 50.85931 L -0.92067 -20.64637 L -0.89198 -20.003 L -0.59199 -20.00318 L -0.62068 -20.64655 L -0.92067 -20.64637" />
    <path d="M -0.89198 51.50268 L -0.89198 -20.003" />
    <path d="M -0.92067 50.85931 L -0.89198 51.50268 L -0.89068 51.50268" />
    <path d="M -0.59199 -19.97394 L -0.59199 -20.00318" />
    <path d="M -0.44078 61.62116 L -0.44078 -9.88452 L -0.41209 -9.24115 L -0.11209 -9.24133 L -0.14078 -9.88471 L -0.44078 -9.88452" />
    <path d="M -0.41209 62.26453 L -0.41209 -9.24115" />
    <path d="M -0.44078 61.62116 L -0.41209 62.26453 L -0.41078 62.26453" />
    <path d="M -0.11209 -9.21209 L -0.11209 -9.24133" />
    <path d="M -4.24996 -23.801 L -4.24996 -95.30668 L -4.22127 -94.66331 L -3.92127 -94.6635 L -3.94996 -95.30687 L -4.24996 -95.30668" />
    <path d="M -4.22127 -23.15763 L -4.22127 -94.66331" />
    <path d="M -4.24996 -23.801 L -4.22127 -23.15763 L -4.21997 -23.15763" />
    <path d="M -3.92127 -94.63425 L -3.92127 -94.6635" />
    <path d="M -3.77006 -13.03915 L -3.77006 -84.54484 L -3.74137 -83.90147 L -3.44138 -83.90165 L -3.47007 -84.54502 L -3.77006 -84.54484" />
    <path d="M -3.74137 -12.39578 L -3.74137 -83.90147" />
    <path d="M -3.77006 -13.03915 L -3.74137 -12.39578 L -3.74007 -12.39578" />
    <path d="M -3.44138 -83.8724 L -3.44138 -83.90165" />
    <path d="M -3.29017 -2.27731 L -3.29017 -73.78299 L -3.26148 -73.13962 L -2.96148 -73.1398 L -2.99017 -73.78317 L -3.29017 -73.78299" />
    <path d="M -3.26148 -1.63394 L -3.26148 -73.13962" />
    <path d="M -3.29017 -2.27731 L -3.26148 -1.63394 L -3.26017 -1.63394" />
    <path d="M -2.96148 -73.11056 L -2.96148 -73.1398" />
    <path d="M -2.81027 8.48454 L -2.81027 -63.02114 L -2.78158 -62.37777 L -2.48158 -62.37796 L -2.51027 -63.02133 L -2.81027 -63.02114" />
    <path d="M -2.78158 9.12791 L -2.78158 -62.37777" />
    <path d="M -2.81027 8.48454 L -2.78158 9.12791 L -2.78027 9.12791" />
    <path d="M -2.48158 -62.34871 L -2.48158 -62.37796" />
    <path d="M -2.33037 19.24639 L -2.33037 -52.2593 L -2.30168 -51.61592 L -2.00169 -51.61611 L -2.03038 -52.25948 L -2.33037 -52.2593" />
    <path d="M -2.30168 19.88976 L -2.30168 -51.61592" />
    <path d="M -2.33037 19.24639 L -2.30168 19.88976 L -2.30038 19.88976" />
    <path d="M -2.00169 -51.58686 L -2.00169 -51.61611" />
    <path d="M -1.85047 30.00823 L -1.85047 -41.49745 L -1.82178 -40.85408 L -1.52179 -40.85426 L -1.55048 -41.49763 L -1.85047 -41.49745" />
    <path d="M -1.82178 30.65161 L -1.82178 -40.85408" />
    <path d="M -1.85047 30.00823 L -1.82178 30.65161 L -1.82048 30.6516" />
    <path d="M -1.52179 -40.82502 L -1.52179 -40.85426" />
    <path d="M -1.37058 40.77008 L -1.37058 -30.7356 L -1.34189 -30.09223 L -1.04189 -30.09241 L -1.07058 -30.73578 L -1.37058 -30.7356" />
    <path d="M -1.34189 41.41345 L -1.34189 -30.09223" />
    <path d="M -1.37058 40.77008 L -1.34189 41.41345 L -1.34058 41.41345" />
    <path d="M -1.04189 -30.06317 L -1.04189 -30.09241" />
    <path d="M -0.89068 51.53193 L -0.89068 -19.97375 L -0.86199 -19.33038 L -0.56199 -19.33057 L -0.59068 -19.97394 L -0.89068 -19.97375" />
    <path d="M -0.86199 52.1753 L -0.86199 -19.33038" />
    <path d="M -0.89068 51.53193 L -0.86199 52.1753 L -0.86069 52.1753" />
    <path d="M -0.56199 -19.30132 L -0.56199 -19.33057" />
    <path d="M -0.41078 62.29378 L -0.41078 -9.21191 L -0.38209 -8.56854 L -0.0821 -8.56872 L -0.11079 -9.21209 L -0.41078 -9.21191" />
    <path d="M -0.38209 62.93715 L -0.38209 -8.56854" />
    <path d="M -0.41078 62.29378 L -0.38209 62.93715 L -0.38079 62.93715" />
    <path d="M -0.0821 -8.53947 L -0.0821 -8.56872" />
    <path d="M -4.21997 -23.12839 L -4.21997 -94.63407 L -4.19128 -93.9907 L -3.89128 -93.99088 L -3.91997 -94.63425 L -4.21997 -94.63407" />
    <path d="M -4.19128 -22.48502 L -4.19128 -93.9907" />
    <path d="M -4.21997 -23.12839 L -4.19128 -22.48502 L -4.18997 -22.48502" />
    <path d="M -3.89128 -93.96164 L -3.89128 -93.99088" />
    <path d="M -3.74007 -12.36654 L -3.74007 -83.87222 L -3.71138 -83.22885 L -3.41138 -83.22903 L -3.44007 -83.87241 L -3.74007 -83.87222" />
    <path d="M -3.71138 -11.72317 L -3.71138 -83.22885" />
    <path d="M -3.74007 -12.36654 L -3.71138 -11.72317 L -3.71008 -11.72317" />
    <path d="M -3.41138 -83.19979 L -3.41138 -83.22903" />
    <path d="M -3.26017 -1.60469 L -3.26017 -73.11038 L -3.23148 -72.467 L -2.93149 -72.46719 L -2.96018 -73.11056 L -3.26017 -73.11038" />
    <path d="M -3.23148 -0.96132 L -3.23148 -72.467" />
    <path d="M -3.26017 -1.60469 L -3.23148 -0.96132 L -3.23018 -0.96132" />
    <path d="M -2.93149 -72.43794 L -2.93149 -72.46719" />
    <path d="M -2.78027 9.15716 L -2.78027 -62.34853 L -2.75159 -61.70516 L -2.45159 -61.70534 L -2.48028 -62.34871 L -2.78027 -62.34853" />
    <path d="M -2.75159 9.80053 L -2.75159 -61.70516" />
    <path d="M -2.78027 9.15716 L -2.75159 9.80053 L -2.75028 9.80053" />
    <path d="M -2.45159 -61.67609 L -2.45159 -61.70534" />
    <path d="M -2.30038 19.919 L -2.30038 -51.58668 L -2.27169 -50.94331 L -1.97169 -50.94349 L -2.00038 -51.58686 L -2.30038 -51.58668" />
    <path d="M -2.27169 20.56237 L -2.27169 -50.94331" />
    <path d="M -2.30038 19.919 L -2.27169 20.56237 L -2.27038 20.56237" />
    <path d="M -1.97169 -50.91425 L -1.97169 -50.94349" />
    <path d="M -1.82048 30.68085 L -1.82048 -40.82483 L -1.79179 -40.18146 L -1.49179 -40.18165 L -1.52048 -40.82502 L -1.82048 -40.82483" />
    <path d="M -1.79179 31.32422 L -1.79179 -40.18146" />
    <path d="M -1.82048 30.68085 L -1.79179 31.32422 L -1.79049 31.32422" />
    <path d="M -1.49179 -40.1524 L -1.49179 -40.18165" />
    <path d="M -1.34058 41.4427 L -1.34058 -30.06299 L -1.31189 -29.41961 L -1.0119 -29.4198 L -1.04059 -30.06317 L -1.34058 -30.06299" />
    <path d="M -1.31189 42.08607 L -1.31189 -29.41961" />
    <path d="M -1.34058 41.4427 L -1.31189 42.08607 L -1.31059 42.08607" />
    <path d="M -1.0119 -29.39055 L -1.0119 -29.4198" />
    <path d="M -0.86069 52.20454 L -0.86069 -19.30114 L -0.832 -18.65777 L -0.532 -18.65795 L -0.56069 -19.30132 L -0.86069 -19.30114" />
    <path d="M -0.832 52.84792 L -0.832 -18.65777" />
    <path d="M -0.86069 52.20454 L -0.832 52.84792 L -0.83069 52.84791" />
    <path d="M -0.532 -18.62871 L -0.532 -18.65795" />
    <path d="M -0.38079 62.96639 L -0.38079 -8.53929 L -0.3521 -7.89592 L -0.0521 -7.8961 L -0.08079 -8.53947 L -0.38079 -8.53929" />
    <path d="M -0.3521 63.60976 L -0.3521 -7.89592" />
    <path d="M -0.38079 62.96639 L -0.3521 63.60976 L -0.35079 63.60976" />
    <path d="M -0.0521 -7.86686 L -0.0521 -7.8961" />
    <path d="M -4.18997 -22.45577 L -4.18997 -93.96145 L -4.16128 -93.31808 L -3.86129 -93.31827 L -3.88998 -93.96164 L -4.18997 -93.96145" />
    <path d="M -4.16128 -21.8124 L -4.16128 -93.31808" />
    <path d="M -4.18997 -22.45577 L -4.16128 -21.8124 L -4.15998 -21.8124" />
    <path d="M -3.86129 -93.28902 L -3.86129 -93.31827" />
    <path d="M -3.71008 -11.69392 L -3.71008 -83.19961 L -3.68139 -82.55624 L -3.38139 -82.55642 L -3.41008 -83.19979 L -3.71008 -83.19961" />
    <path d="M -3.68139 -11.05055 L -3.68139 -82.55624" />
    <path d="M -3.71008 -11.69392 L -3.68139 -11.05055 L -3.68008 -11.05055" />
    <path d="M -3.38139 -82.52717 L -3.38139 -82.55642" />
    <path d="M -3.23018 -0.93208 L -3.23018 -72.43776 L -3.20149 -71.79439 L -2.90149 -71.79457 L -2.93018 -72.43794 L -3.23018 -72.43776" />
    <path d="M -3.20149 -0.28871 L -3.20149 -71.79439" />
    <path d="M -3.23018 -0.93208 L -3.20149 -0.28871 L -3.20018 -0.28871" />
    <path d="M -2.90149 -71.76533 L -2.90149 -71.79457" />
    <path d="M -2.75028 9.82977 L -2.75028 -61.67591 L -2.72159 -61.03254 L -2.4216 -61.03272 L -2.45029 -61.6761 L -2.75028 -61.67591" />
    <path d="M -2.72159 10.47314 L -2.72159 -61.03254" />
    <path d="M -2.75028 9.82977 L -2.72159 10.47314 L -2.72029 10.47314" />
    <path d="M -2.4216 -61.00348 L -2.4216 -61.03272" />
    <path d="M -2.27038 20.59162 L -2.27038 -50.91407 L -2.24169 -50.27069 L -1.9417 -50.27088 L -1.97039 -50.91425 L -2.27038 -50.91407" />
    <path d="M -2.24169 21.23499 L -2.24169 -50.27069" />
    <path d="M -2.27038 20.59162 L -2.24169 21.23499 L -2.24039 21.23499" />
    <path d="M -1.9417 -50.24163 L -1.9417 -50.27088" />
    <path d="M -1.79049 31.35346 L -1.79049 -40.15222 L -1.7618 -39.50885 L -1.4618 -39.50903 L -1.49049 -40.1524 L -1.79049 -40.15222" />
    <path d="M -1.7618 31.99684 L -1.7618 -39.50885" />
    <path d="M -1.79049 31.35346 L -1.7618 31.99684 L -1.76049 31.99684" />
    <path d="M -1.4618 -39.47978 L -1.4618 -39.50903" />
    <path d="M -1.31059 42.11531 L -1.31059 -29.39037 L -1.2819 -28.747 L -0.9819 -28.74718 L -1.01059 -29.39055 L -1.31059 -29.39037" />
    <path d="M -1.2819 42.75868 L -1.2819 -28.747" />
    <path d="M -1.31059 42.11531 L -1.2819 42.75868 L -1.2806 42.75868" />
    <path d="M -0.9819 -28.71794 L -0.9819 -28.74718" />
    <path d="M -0.83069 52.87716 L -0.83069 -18.62852 L -0.802 -17.98515 L -0.50201 -17.98534 L -0.5307 -18.62871 L -0.83069 -18.62852" />
    <path d="M -0.802 53.52053 L -0.802 -17.98515" />
    <path d="M -0.83069 52.87716 L -0.802 53.52053 L -0.8007 53.52053" />
    <path d="M -0.50201 -17.95609 L -0.50201 -17.98534" />
    <path d="M -0.35079 63.63901 L -0.35079 -7.86668 L -0.3221 -7.2233 L -0.02211 -7.22349 L -0.0508 -7.86686 L -0.35079 -7.86668" />
    <path d="M -0.3221 64.28238 L -0.3221 -7.2233" />
    <path d="M -0.35079 63.63901 L -0.3221 64.28238 L -0.3208 64.28238" />
    <path d="M -0.02211 -7.19424 L -0.02211 -7.22349" />
    <path d="M -4.15998 -21.78316 L -4.15998 -93.28884 L -4.13129 -92.64547 L -3.83129 -92.64565 L -3.85998 -93.28902 L -4.15998 -93.28884" />
    <path d="M -4.13129 -21.13978 L -4.13129 -92.64547" />
    <path d="M -4.15998 -21.78316 L -4.13129 -21.13978 L -4.12999 -21.13979" />
    <path d="M -3.83129 -92.61641 L -3.83129 -92.64565" />
    <path d="M -3.68008 -11.02131 L -3.68008 -82.52699 L -3.65139 -81.88362 L -3.3514 -81.8838 L -3.38009 -82.52717 L -3.68008 -82.52699" />
    <path d="M -3.65139 -10.37794 L -3.65139 -81.88362" />
    <path d="M -3.68008 -11.02131 L -3.65139 -10.37794 L -3.65009 -10.37794" />
    <path d="M -3.3514 -81.85456 L -3.3514 -81.8838" />
    <path d="M -3.20018 -0.25946 L -3.20018 -71.76514 L -3.1715 -71.12177 L -2.8715 -71.12196 L -2.90019 -71.76533 L -3.20018 -71.76514" />
    <path d="M -3.1715 0.38391 L -3.1715 -71.12177" />
    <path d="M -3.20018 -0.25946 L -3.1715 0.38391 L -3.17019 0.38391" />
    <path d="M -2.8715 -71.09271 L -2.8715 -71.12196" />
    <path d="M -2.72029 10.50239 L -2.72029 -61.0033 L -2.6916 -60.35993 L -2.3916 -60.36011 L -2.42029 -61.00348 L -2.72029 -61.0033" />
    <path d="M -2.6916 11.14576 L -2.6916 -60.35993" />
    <path d="M -2.72029 10.50239 L -2.6916 11.14576 L -2.69029 11.14576" />
    <path d="M -2.3916 -60.33086 L -2.3916 -60.36011" />
    <path d="M -2.24039 21.26423 L -2.24039 -50.24145 L -2.2117 -49.59808 L -1.9117 -49.59826 L -1.94039 -50.24163 L -2.24039 -50.24145" />
    <path d="M -2.2117 21.9076 L -2.2117 -49.59808" />
    <path d="M -2.24039 21.26423 L -2.2117 21.9076 L -2.2104 21.9076" />
    <path d="M -1.9117 -49.56902 L -1.9117 -49.59826" />
    <path d="M -1.76049 32.02608 L -1.76049 -39.4796 L -1.7318 -38.83623 L -1.43181 -38.83641 L -1.4605 -39.47979 L -1.76049 -39.4796" />
    <path d="M -1.7318 32.66945 L -1.7318 -38.83623" />
    <path d="M -1.76049 32.02608 L -1.7318 32.66945 L -1.7305 32.66945" />
    <path d="M -1.43181 -38.80717 L -1.43181 -38.83641" />
    <path d="M -1.2806 42.78793 L -1.2806 -28.71776 L -1.25191 -28.07438 L -0.95191 -28.07457 L -0.9806 -28.71794 L -1.2806 -28.71776" />
    <path d="M -1.25191 43.4313 L -1.25191 -28.07438" />
    <path d="M -1.2806 42.78793 L -1.25191 43.4313 L -1.2506 43.4313" />
    <path d="M -0.95191 -28.04532 L -0.95191 -28.07457" />
    <path d="M -0.8007 53.54977 L -0.8007 -17.95591 L -0.77201 -17.31254 L -0.47201 -17.31272 L -0.5007 -17.95609 L -0.8007 -17.95591" />
    <path d="M -0.77201 54.19315 L -0.77201 -17.31254" />
    <path d="M -0.8007 53.54977 L -0.77201 54.19315 L -0.7707 54.19315" />
    <path d="M -0.47201 -17.28347 L -0.47201 -17.31272" />
    <path d="M -0.3208 64.31162 L -0.3208 -7.19406 L -0.29211 -6.55069 L 0.00788 -6.55087 L -0.0208 -7.19424 L -0.3208 -7.19406" />
    <path d="M -0.29211 64.95499 L -0.29211 -6.55069" />
    <path d="M -0.3208 64.31162 L -0.29211 64.95499 L -0.29081 64.95499" />
    <path d="M 0.00788 -6.52163 L 0.00788 -6.55087" />
    <path d="M -4.12999 -21.11054 L -4.12999 -92.61622 L -4.1013 -91.97285 L -3.8013 -91.97303 L -3.82999 -92.61641 L -4.12999 -92.61622" />
    <path d="M -4.1013 -20.46717 L -4.1013 -91.97285" />
    <path d="M -4.12999 -21.11054 L -4.1013 -20.46717 L -4.09999 -20.46717" />
    <path d="M -3.8013 -91.94379 L -3.8013 -91.97303" />
    <path d="M -3.65009 -10.34869 L -3.65009 -81.85438 L -3.6214 -81.211 L -3.3214 -81.21119 L -3.35009 -81.85456 L -3.65009 -81.85438" />
    <path d="M -3.6214 -9.70532 L -3.6214 -81.211" />
    <path d="M -3.65009 -10.34869 L -3.6214 -9.70532 L -3.6201 -9.70532" />
    <path d="M -3.3214 -81.18194 L -3.3214 -81.21119" />
    <path d="M -3.17019 0.41315 L -3.17019 -71.09253 L -3.1415 -70.44916 L -2.84151 -70.44934 L -2.8702 -71.09271 L -3.17019 -71.09253" />
    <path d="M -3.1415 1.05653 L -3.1415 -70.44916" />
    <path d="M -3.17019 0.41315 L -3.1415 1.05653 L -3.1402 1.05652" />
    <path d="M -2.84151 -70.4201 L -2.84151 -70.44934" />
    <path d="M -2.69029 11.175 L -2.69029 -60.33068 L -2.6616 -59.68731 L -2.36161 -59.68749 L -2.3903 -60.33086 L -2.69029 -60.33068" />
    <path d="M -2.6616 11.81837 L -2.6616 -59.68731" />
    <path d="M -2.69029 11.175 L -2.6616 11.81837 L -2.6603 11.81837" />
    <path d="M -2.36161 -59.65825 L -2.36161 -59.68749" />
    <path d="M -2.2104 21.93685 L -2.2104 -49.56883 L -2.18171 -48.92546 L -1.88171 -48.92565 L -1.9104 -49.56902 L -2.2104 -49.56883" />
    <path d="M -2.18171 22.58022 L -2.18171 -48.92546" />
    <path d="M -2.2104 21.93685 L -2.18171 22.58022 L -2.1804 22.58022" />
    <path d="M -1.88171 -48.8964 L -1.88171 -48.92565" />
    <path d="M -1.7305 32.6987 L -1.7305 -38.80699 L -1.70181 -38.16362 L -1.40181 -38.1638 L -1.4305 -38.80717 L -1.7305 -38.80699" />
    <path d="M -1.70181 33.34207 L -1.70181 -38.16362" />
    <path d="M -1.7305 32.6987 L -1.70181 33.34207 L -1.70051 33.34207" />
    <path d="M -1.40181 -38.13455 L -1.40181 -38.1638" />
    <path d="M -1.2506 43.46054 L -1.2506 -28.04514 L -1.22191 -27.40177 L -0.92192 -27.40195 L -0.95061 -28.04532 L -1.2506 -28.04514" />
    <path d="M -1.22191 44.10391 L -1.22191 -27.40177" />
    <path d="M -1.2506 43.46054 L -1.22191 44.10391 L -1.22061 44.10391" />
    <path d="M -0.92192 -27.37271 L -0.92192 -27.40195" />
    <path d="M -0.7707 54.22239 L -0.7707 -17.28329 L -0.74202 -16.63992 L -0.44202 -16.6401 L -0.47071 -17.28348 L -0.7707 -17.28329" />
    <path d="M -0.74202 54.86576 L -0.74202 -16.63992" />
    <path d="M -0.7707 54.22239 L -0.74202 54.86576 L -0.74071 54.86576" />
    <path d="M -0.44202 -16.61086 L -0.44202 -16.6401" />
    <path d="M -0.29081 64.98424 L -0.29081 -6.52145 L -0.26212 -5.87807 L 0.03788 -5.87826 L 0.00919 -6.52163 L -0.29081 -6.52145" />
    <path d="M -0.26212 65.62761 L -0.26212 -5.87807" />
    <path d="M -0.29081 64.98424 L -0.26212 65.62761 L -0.26081 65.62761" />
    <path d="M 0.03788 -5.84901 L 0.03788 -5.87826" />
    <path d="M -4.09999 -20.43792 L -4.09999 -91.94361 L -4.0713 -91.30024 L -3.77131 -91.30042 L -3.8 -91.94379 L -4.09999 -91.94361" />
    <path d="M -4.0713 -19.79455 L -4.0713 -91.30024" />
    <path d="M -4.09999 -20.43792 L -4.0713 -19.79455 L -4.07 -19.79455" />
    <path d="M -3.77131 -91.27117 L -3.77131 -91.30042" />
    <path d="M -3.6201 -9.67608 L -3.6201 -81.18176 L -3.59141 -80.53839 L -3.29141 -80.53857 L -3.3201 -81.18194 L -3.6201 -81.18176" />
    <path d="M -3.59141 -9.03271 L -3.59141 -80.53839" />
    <path d="M -3.6201 -9.67608 L -3.59141 -9.03271 L -3.5901 -9.03271" />
    <path d="M -3.29141 -80.50933 L -3.29141 -80.53857" />
    <path d="M -3.1402 1.08577 L -3.1402 -70.41991 L -3.11151 -69.77654 L -2.81151 -69.77672 L -2.8402 -70.4201 L -3.1402 -70.41991" />
    <path d="M -3.11151 1.72914 L -3.11151 -69.77654" />
    <path d="M -3.1402 1.08577 L -3.11151 1.72914 L -3.1102 1.72914" />
    <path d="M -2.81151 -69.74748 L -2.81151 -69.77672" />
    <path d="M -2.6603 11.84762 L -2.6603 -59.65807 L -2.63161 -59.01469 L -2.33161 -59.01488 L -2.3603 -59.65825 L -2.6603 -59.65807" />
    <path d="M -2.63161 12.49099 L -2.63161 -59.01469" />
    <path d="M -2.6603 11.84762 L -2.63161 12.49099 L -2.63031 12.49099" />
    <path d="M -2.33161 -58.98563 L -2.33161 -59.01488" />
    <path d="M -2.1804 22.60946 L -2.1804 -48.89622 L -2.15171 -48.25285 L -1.85172 -48.25303 L -1.88041 -48.8964 L -2.1804 -48.89622" />
    <path d="M -2.15171 23.25284 L -2.15171 -48.25285" />
    <path d="M -2.1804 22.60946 L -2.15171 23.25284 L -2.15041 23.25283" />
    <path d="M -1.85172 -48.22379 L -1.85172 -48.25303" />
    <path d="M -1.70051 33.37131 L -1.70051 -38.13437 L -1.67182 -37.491 L -1.37182 -37.49118 L -1.40051 -38.13455 L -1.70051 -38.13437" />
    <path d="M -1.67182 34.01468 L -1.67182 -37.491" />
    <path d="M -1.70051 33.37131 L -1.67182 34.01468 L -1.67051 34.01468" />
    <path d="M -1.37182 -37.46194 L -1.37182 -37.49118" />
    <path d="M -1.22061 44.13316 L -1.22061 -27.37252 L -1.19192 -26.72915 L -0.89192 -26.72934 L -0.92061 -27.37271 L -1.22061 -27.37252" />
    <path d="M -1.19192 44.77653 L -1.19192 -26.72915" />
    <path d="M -1.22061 44.13316 L -1.19192 44.77653 L -1.19061 44.77653" />
    <path d="M -0.89192 -26.70009 L -0.89192 -26.72934" />
    <path d="M -0.74071 54.89501 L -0.74071 -16.61068 L -0.71202 -15.96731 L -0.41203 -15.96749 L -0.44072 -16.61086 L -0.74071 -16.61068" />
    <path d="M -0.71202 55.53838 L -0.71202 -15.96731" />
    <path d="M -0.74071 54.89501 L -0.71202 55.53838 L -0.71072 55.53838" />
    <path d="M -0.41203 -15.93824 L -0.41203 -15.96749" />
    <path d="M -0.26081 65.65685 L -0.26081 -5.84883 L -0.23212 -5.20546 L 0.06787 -5.20564 L 0.03918 -5.84901 L -0.26081 -5.84883" />
    <path d="M -0.23212 66.30022 L -0.23212 -5.20546" />
    <path d="M -0.26081 65.65685 L -0.23212 66.30022 L -0.23082 66.30022" />
    <path d="M 0.06787 -5.1764 L 0.06787 -5.20564" />
    <path d="M -4.07 -19.76531 L -4.07 -91.27099 L -4.04131 -90.62762 L -3.74131 -90.6278 L -3.77 -91.27118 L -4.07 -91.27099" />
    <path d="M -4.04131 -19.12194 L -4.04131 -90.62762" />
    <path d="M -4.07 -19.76531 L -4.04131 -19.12194 L -4.04001 -19.12194" />
    <path d="M -3.74131 -90.59856 L -3.74131 -90.6278" />
    <path d="M -3.5901 -9.00346 L -3.5901 -80.50914 L -3.56141 -79.86577 L -3.26142 -79.86596 L -3.29011 -80.50933 L -3.5901 -80.50914" />
    <path d="M -3.56141 -8.36009 L -3.56141 -79.86577" />
    <path d="M -3.5901 -9.00346 L -3.56141 -8.36009 L -3.56011 -8.36009" />
    <path d="M -3.26142 -79.83671 L -3.26142 -79.86596" />
    <path d="M -3.1102 1.75839 L -3.1102 -69.7473 L -3.08151 -69.10393 L -2.78152 -69.10411 L -2.81021 -69.74748 L -3.1102 -69.7473" />
    <path d="M -3.08151 2.40176 L -3.08151 -69.10393" />
    <path d="M -3.1102 1.75839 L -3.08151 2.40176 L -3.08021 2.40176" />
    <path d="M -2.78152 -69.07486 L -2.78152 -69.10411" />
    <path d="M -2.63031 12.52023 L -2.63031 -58.98545 L -2.60162 -58.34208 L -2.30162 -58.34226 L -2.33031 -58.98563 L -2.63031 -58.98545" />
    <path d="M -2.60162 13.1636 L -2.60162 -58.34208" />
    <path d="M -2.63031 12.52023 L -2.60162 13.1636 L -2.60031 13.1636" />
    <path d="M -2.30162 -58.31302 L -2.30162 -58.34226" />
    <path d="M -2.15041 23.28208 L -2.15041 -48.2236 L -2.12172 -47.58023 L -1.82172 -47.58042 L -1.85041 -48.22379 L -2.15041 -48.2236" />
    <path d="M -2.12172 23.92545 L -2.12172 -47.58023" />
    <path d="M -2.15041 23.28208 L -2.12172 23.92545 L -2.12042 23.92545" />
    <path d="M -1.82172 -47.55117 L -1.82172 -47.58042" />
    <path d="M -1.67051 34.04393 L -1.67051 -37.46176 L -1.64182 -36.81838 L -1.34183 -36.81857 L -1.37052 -37.46194 L -1.67051 -37.46176" />
    <path d="M -1.64182 34.6873 L -1.64182 -36.81838" />
    <path d="M -1.67051 34.04393 L -1.64182 34.6873 L -1.64052 34.6873" />
    <path d="M -1.34183 -36.78932 L -1.34183 -36.81857" />
    <path d="M -1.19061 44.80577 L -1.19061 -26.69991 L -1.16193 -26.05654 L -0.86193 -26.05672 L -0.89062 -26.70009 L -1.19061 -26.69991" />
    <path d="M -1.16193 45.44915 L -1.16193 -26.05654" />
    <path d="M -1.19061 44.80577 L -1.16193 45.44915 L -1.16062 45.44914" />
    <path d="M -0.86193 -26.02748 L -0.86193 -26.05672" />
    <path d="M -0.71072 55.56762 L -0.71072 -15.93806 L -0.68203 -15.29469 L -0.38203 -15.29487 L -0.41072 -15.93824 L -0.71072 -15.93806" />
    <path d="M -0.68203 56.21099 L -0.68203 -15.29469" />
    <path d="M -0.71072 55.56762 L -0.68203 56.21099 L -0.68072 56.21099" />
    <path d="M -0.38203 -15.26563 L -0.38203 -15.29487" />
    <path d="M -0.23082 66.32947 L -0.23082 -5.17621 L -0.20213 -4.53284 L 0.09787 -4.53303 L 0.06918 -5.1764 L -0.23082 -5.17621" />
    <path d="M -0.20213 66.97284 L -0.20213 -4.53284" />
    <path d="M -0.23082 66.32947 L -0.20213 66.97284 L -0.20083 66.97284" />
    <path d="M 0.09787 -4.50378 L 0.09787 -4.53303" />
    <path d="M -4.04001 -19.09269 L -4.04001 -90.59838 L -4.01132 -89.95501 L -3.71132 -89.95519 L -3.74001 -90.59856 L -4.04001 -90.59838" />
    <path d="M -4.01132 -18.44932 L -4.01132 -89.95501" />
    <path d="M -4.04001 -19.09269 L -4.01132 -18.44932 L -4.01001 -18.44932" />
    <path d="M -3.71132 -89.92594 L -3.71132 -89.95519" />
    <path d="M -3.56011 -8.33085 L -3.56011 -79.83653 L -3.53142 -79.19316 L -3.23142 -79.19334 L -3.26011 -79.83671 L -3.56011 -79.83653" />
    <path d="M -3.53142 -7.68748 L -3.53142 -79.19316" />
    <path d="M -3.56011 -8.33085 L -3.53142 -7.68748 L -3.53011 -7.68748" />
    <path d="M -3.23142 -79.1641 L -3.23142 -79.19334" />
    <path d="M -3.08021 2.431 L -3.08021 -69.07468 L -3.05152 -68.43131 L -2.75153 -68.43149 L -2.78021 -69.07487 L -3.08021 -69.07468" />
    <path d="M -3.05152 3.07437 L -3.05152 -68.43131" />
    <path d="M -3.08021 2.431 L -3.05152 3.07437 L -3.05022 3.07437" />
    <path d="M -2.75153 -68.40225 L -2.75153 -68.43149" />
    <path d="M -2.60031 13.19285 L -2.60031 -58.31284 L -2.57162 -57.66946 L -2.27163 -57.66965 L -2.30032 -58.31302 L -2.60031 -58.31284" />
    <path d="M -2.57162 13.83622 L -2.57162 -57.66946" />
    <path d="M -2.60031 13.19285 L -2.57162 13.83622 L -2.57032 13.83622" />
    <path d="M -2.27163 -57.6404 L -2.27163 -57.66965" />
    <path d="M -2.12042 23.95469 L -2.12042 -47.55099 L -2.09173 -46.90762 L -1.79173 -46.9078 L -1.82042 -47.55117 L -2.12042 -47.55099" />
    <path d="M -2.09173 24.59807 L -2.09173 -46.90762" />
    <path d="M -2.12042 23.95469 L -2.09173 24.59807 L -2.09042 24.59807" />
    <path d="M -1.79173 -46.87855 L -1.79173 -46.9078" />
    <path d="M -1.64052 34.71654 L -1.64052 -36.78914 L -1.61183 -36.14577 L -1.31183 -36.14595 L -1.34052 -36.78932 L -1.64052 -36.78914" />
    <path d="M -1.61183 35.35991 L -1.61183 -36.14577" />
    <path d="M -1.64052 34.71654 L -1.61183 35.35991 L -1.61052 35.35991" />
    <path d="M -1.31183 -36.11671 L -1.31183 -36.14595" />
    <path d="M -1.16062 45.47839 L -1.16062 -26.02729 L -1.13193 -25.38392 L -0.83194 -25.38411 L -0.86063 -26.02748 L -1.16062 -26.02729" />
    <path d="M -1.13193 46.12176 L -1.13193 -25.38392" />
    <path d="M -1.16062 45.47839 L -1.13193 46.12176 L -1.13063 46.12176" />
    <path d="M -0.83194 -25.35486 L -0.83194 -25.38411" />
    <path d="M -0.68072 56.24024 L -0.68072 -15.26545 L -0.65203 -14.62207 L -0.35204 -14.62226 L -0.38073 -15.26563 L -0.68072 -15.26545" />
    <path d="M -0.65203 56.88361 L -0.65203 -14.62207" />
    <path d="M -0.68072 56.24024 L -0.65203 56.88361 L -0.65073 56.88361" />
    <path d="M -0.35204 -14.59301 L -0.35204 -14.62226" />
    <path d="M -0.20083 67.00208 L -0.20083 -4.5036 L -0.17214 -3.86023 L 0.12786 -3.86041 L 0.09917 -4.50378 L -0.20083 -4.5036" />
    <path d="M -0.17214 67.64546 L -0.17214 -3.86023" />
    <path d="M -0.20083 67.00208 L -0.17214 67.64546 L -0.17083 67.64545" />
    <path d="M 0.12786 -3.83117 L 0.12786 -3.86041" />
    <path d="M -4.01001 -18.42008 L -4.01001 -89.92576 L -3.98132 -89.28239 L -3.68133 -89.28257 L -3.71002 -89.92594 L -4.01001 -89.92576" />
    <path d="M -3.98132 -17.77671 L -3.98132 -89.28239" />
    <path d="M -4.01001 -18.42008 L -3.98132 -17.77671 L -3.98002 -17.77671" />
    <path d="M -3.68133 -89.25333 L -3.68133 -89.28257" />
    <path d="M -3.53011 -7.65823 L -3.53011 -79.16391 L -3.50142 -78.52054 L -3.20143 -78.52073 L -3.23012 -79.1641 L -3.53011 -79.16391" />
    <path d="M -3.50142 -7.01486 L -3.50142 -78.52054" />
    <path d="M -3.53011 -7.65823 L -3.50142 -7.01486 L -3.50012 -7.01486" />
    <path d="M -3.20143 -78.49148 L -3.20143 -78.52073" />
    <path d="M -3.05022 3.10362 L -3.05022 -68.40207 L -3.02153 -67.7587 L -2.72153 -67.75888 L -2.75022 -68.40225 L -3.05022 -68.40207" />
    <path d="M -3.02153 3.74699 L -3.02153 -67.7587" />
    <path d="M -3.05022 3.10362 L -3.02153 3.74699 L -3.02022 3.74699" />
    <path d="M -2.72153 -67.72963 L -2.72153 -67.75888" />
    <path d="M -2.57032 13.86546 L -2.57032 -57.64022 L -2.54163 -56.99685 L -2.24163 -56.99703 L -2.27032 -57.6404 L -2.57032 -57.64022" />
    <path d="M -2.54163 14.50883 L -2.54163 -56.99685" />
    <path d="M -2.57032 13.86546 L -2.54163 14.50883 L -2.54033 14.50883" />
    <path d="M -2.24163 -56.96779 L -2.24163 -56.99703" />
    <path d="M -2.09042 24.62731 L -2.09042 -46.87837 L -2.06173 -46.235 L -1.76174 -46.23518 L -1.79043 -46.87856 L -2.09042 -46.87837" />
    <path d="M -2.06173 25.27068 L -2.06173 -46.235" />
    <path d="M -2.09042 24.62731 L -2.06173 25.27068 L -2.06043 25.27068" />
    <path d="M -1.76174 -46.20594 L -1.76174 -46.23518" />
    <path d="M -1.61052 35.38916 L -1.61052 -36.11653 L -1.58184 -35.47315 L -1.28184 -35.47334 L -1.31053 -36.11671 L -1.61052 -36.11653" />
    <path d="M -1.58184 36.03253 L -1.58184 -35.47315" />
    <path d="M -1.61052 35.38916 L -1.58184 36.03253 L -1.58053 36.03253" />
    <path d="M -1.28184 -35.44409 L -1.28184 -35.47334" />
    <path d="M -1.13063 46.151 L -1.13063 -25.35468 L -1.10194 -24.71131 L -0.80194 -24.71149 L -0.83063 -25.35486 L -1.13063 -25.35468" />
    <path d="M -1.10194 46.79438 L -1.10194 -24.71131" />
    <path d="M -1.13063 46.151 L -1.10194 46.79438 L -1.10063 46.79438" />
    <path d="M -0.80194 -24.68224 L -0.80194 -24.71149" />
    <path d="M -0.65073 56.91285 L -0.65073 -14.59283 L -0.62204 -13.94946 L -0.32204 -13.94964 L -0.35073 -14.59301 L -0.65073 -14.59283" />
    <path d="M -0.62204 57.55622 L -0.62204 -13.94946" />
    <path d="M -0.65073 56.91285 L -0.62204 57.55622 L -0.62074 57.55622" />
    <path d="M -0.32204 -13.9204 L -0.32204 -13.94964" />
    <path d="M -0.17083 67.6747 L -0.17083 -3.83098 L -0.14214 -3.18761 L 0.15785 -3.1878 L 0.12916 -3.83117 L -0.17083 -3.83098" />
    <path d="M -0.14214 68.31807 L -0.14214 -3.18761" />
    <path d="M -0.17083 67.6747 L -0.14214 68.31807 L -0.14084 68.31807" />
    <path d="M 0.15785 -3.15855 L 0.15785 -3.1878" />
    <path d="M -3.98002 -17.74746 L -3.98002 -89.25315 L -3.95133 -88.60977 L -3.65133 -88.60996 L -3.68002 -89.25333 L -3.98002 -89.25315" />
    <path d="M -3.95133 -17.10409 L -3.95133 -88.60977" />
    <path d="M -3.98002 -17.74746 L -3.95133 -17.10409 L -3.95002 -17.10409" />
    <path d="M -3.65133 -88.58071 L -3.65133 -88.60996" />
    <path d="M -3.50012 -6.98562 L -3.50012 -78.4913 L -3.47143 -77.84793 L -3.17144 -77.84811 L -3.20012 -78.49148 L -3.50012 -78.4913" />
    <path d="M -3.47143 -6.34224 L -3.47143 -77.84793" />
    <path d="M -3.50012 -6.98562 L -3.47143 -6.34224 L -3.47013 -6.34225" />
    <path d="M -3.17144 -77.81887 L -3.17144 -77.84811" />
    <path d="M -3.02022 3.77623 L -3.02022 -67.72945 L -2.99153 -67.08608 L -2.69154 -67.08626 L -2.72023 -67.72963 L -3.02022 -67.72945" />
    <path d="M -2.99153 4.4196 L -2.99153 -67.08608" />
    <path d="M -3.02022 3.77623 L -2.99153 4.4196 L -2.99023 4.4196" />
    <path d="M -2.69154 -67.05702 L -2.69154 -67.08626" />
    <path d="M -2.54033 14.53808 L -2.54033 -56.9676 L -2.51164 -56.32423 L -2.21164 -56.32442 L -2.24033 -56.96779 L -2.54033 -56.9676" />
    <path d="M -2.51164 15.18145 L -2.51164 -56.32423" />
    <path d="M -2.54033 14.53808 L -2.51164 15.18145 L -2.51033 15.18145" />
    <path d="M -2.21164 -56.29517 L -2.21164 -56.32442" />
    <path d="M -2.06043 25.29993 L -2.06043 -46.20576 L -2.03174 -45.56239 L -1.73174 -45.56257 L -1.76043 -46.20594 L -2.06043 -46.20576" />
    <path d="M -2.03174 25.9433 L -2.03174 -45.56239" />
    <path d="M -2.06043 25.29993 L -2.03174 25.9433 L -2.03044 25.9433" />
    <path d="M -1.73174 -45.53332 L -1.73174 -45.56257" />
    <path d="M -1.58053 36.06177 L -1.58053 -35.44391 L -1.55184 -34.80054 L -1.25185 -34.80072 L -1.28054 -35.44409 L -1.58053 -35.44391" />
    <path d="M -1.55184 36.70514 L -1.55184 -34.80054" />
    <path d="M -1.58053 36.06177 L -1.55184 36.70514 L -1.55054 36.70514" />
    <path d="M -1.25185 -34.77148 L -1.25185 -34.80072" />
    <path d="M -1.10063 46.82362 L -1.10063 -24.68206 L -1.07194 -24.03869 L -0.77195 -24.03887 L -0.80064 -24.68225 L -1.10063 -24.68206" />
    <path d="M -1.07194 47.46699 L -1.07194 -24.03869" />
    <path d="M -1.10063 46.82362 L -1.07194 47.46699 L -1.07064 47.46699" />
    <path d="M -0.77195 -24.00963 L -0.77195 -24.03887" />
    <path d="M -0.62074 57.58547 L -0.62074 -13.92022 L -0.59205 -13.27684 L -0.29205 -13.27703 L -0.32074 -13.9204 L -0.62074 -13.92022" />
    <path d="M -0.59205 58.22884 L -0.59205 -13.27684" />
    <path d="M -0.62074 57.58547 L -0.59205 58.22884 L -0.59074 58.22884" />
    <path d="M -0.29205 -13.24778 L -0.29205 -13.27703" />
    <path d="M -0.14084 68.34731 L -0.14084 -3.15837 L -0.11215 -2.515 L 0.18785 -2.51518 L 0.15916 -3.15855 L -0.14084 -3.15837" />
    <path d="M -0.11215 68.99069 L -0.11215 -2.515" />
    <path d="M -0.14084 68.34731 L -0.11215 68.99069 L -0.11085 68.99069" />
    <path d="M 0.18785 -2.48593 L 0.18785 -2.51518" />
    <path d="M -3.95002 -17.07485 L -3.95002 -88.58053 L -3.92133 -87.93716 L -3.62134 -87.93734 L -3.65003 -88.58071 L -3.95002 -88.58053" />
    <path d="M -3.92133 -16.43148 L -3.92133 -87.93716" />
    <path d="M -3.95002 -17.07485 L -3.92133 -16.43148 L -3.92003 -16.43148" />
    <path d="M -3.62134 -87.9081 L -3.62134 -87.93734" />
    <path d="M -3.47013 -6.313 L -3.47013 -77.81868 L -3.44144 -77.17531 L -3.14144 -77.17549 L -3.17013 -77.81887 L -3.47013 -77.81868" />
    <path d="M -3.44144 -5.66963 L -3.44144 -77.17531" />
    <path d="M -3.47013 -6.313 L -3.44144 -5.66963 L -3.44013 -5.66963" />
    <path d="M -3.14144 -77.14625 L -3.14144 -77.17549" />
    <path d="M -2.99023 4.44885 L -2.99023 -67.05684 L -2.96154 -66.41346 L -2.66154 -66.41365 L -2.69023 -67.05702 L -2.99023 -67.05684" />
    <path d="M -2.96154 5.09222 L -2.96154 -66.41346" />
    <path d="M -2.99023 4.44885 L -2.96154 5.09222 L -2.96024 5.09222" />
    <path d="M -2.66154 -66.3844 L -2.66154 -66.41365" />
    <path d="M -2.51033 15.21069 L -2.51033 -56.29499 L -2.48164 -55.65162 L -2.18165 -55.6518 L -2.21034 -56.29517 L -2.51033 -56.29499" />
    <path d="M -2.48164 15.85407 L -2.48164 -55.65162" />
    <path d="M -2.51033 15.21069 L -2.48164 15.85407 L -2.48034 15.85406" />
    <path d="M -2.18165 -55.62256 L -2.18165 -55.6518" />
    <path d="M -2.03044 25.97254 L -2.03044 -45.53314 L -2.00175 -44.88977 L -1.70175 -44.88995 L -1.73044 -45.53332 L -2.03044 -45.53314" />
    <path d="M -2.00175 26.61591 L -2.00175 -44.88977" />
    <path d="M -2.03044 25.97254 L -2.00175 26.61591 L -2.00044 26.61591" />
    <path d="M -1.70175 -44.86071 L -1.70175 -44.88995" />
    <path d="M -1.55054 36.73439 L -1.55054 -34.77129 L -1.52185 -34.12792 L -1.22185 -34.12811 L -1.25054 -34.77148 L -1.55054 -34.77129" />
    <path d="M -1.52185 37.37776 L -1.52185 -34.12792" />
    <path d="M -1.55054 36.73439 L -1.52185 37.37776 L -1.52054 37.37776" />
    <path d="M -1.22185 -34.09886 L -1.22185 -34.12811" />
    <path d="M -1.07064 47.49624 L -1.07064 -24.00945 L -1.04195 -23.36608 L -0.74195 -23.36626 L -0.77064 -24.00963 L -1.07064 -24.00945" />
    <path d="M -1.04195 48.13961 L -1.04195 -23.36608" />
    <path d="M -1.07064 47.49624 L -1.04195 48.13961 L -1.04065 48.13961" />
    <path d="M -0.74195 -23.33701 L -0.74195 -23.36626" />
    <path d="M -0.59074 58.25808 L -0.59074 -13.2476 L -0.56205 -12.60423 L -0.26206 -12.60441 L -0.29075 -13.24778 L -0.59074 -13.2476" />
    <path d="M -0.56205 58.90145 L -0.56205 -12.60423" />
    <path d="M -0.59074 58.25808 L -0.56205 58.90145 L -0.56075 58.90145" />
    <path d="M -0.26206 -12.57517 L -0.26206 -12.60441" />
    <path d="M -0.11085 69.01993 L -0.11085 -2.48575 L -0.08216 -1.84238 L 0.21784 -1.84256 L 0.18915 -2.48594 L -0.11085 -2.48575" />
    <path d="M -0.08216 69.6633 L -0.08216 -1.84238" />
    <path d="M -0.11085 69.01993 L -0.08216 69.6633 L -0.08085 69.6633" />
    <path d="M 0.21784 -1.81332 L 0.21784 -1.84256" />
    <path d="M -3.92003 -16.40223 L -3.92003 -87.90791 L -3.89134 -87.26454 L -3.59135 -87.26473 L -3.62003 -87.9081 L -3.92003 -87.90791" />
    <path d="M -3.89134 -15.75886 L -3.89134 -87.26454" />
    <path d="M -3.92003 -16.40223 L -3.89134 -15.75886 L -3.89004 -15.75886" />
    <path d="M -3.59135 -87.23548 L -3.59135 -87.26473" />
    <path d="M -3.44013 -5.64038 L -3.44013 -77.14607 L -3.41144 -76.5027 L -3.11145 -76.50288 L -3.14014 -77.14625 L -3.44013 -77.14607" />
    <path d="M -3.41144 -4.99701 L -3.41144 -76.5027" />
    <path d="M -3.44013 -5.64038 L -3.41144 -4.99701 L -3.41014 -4.99701" />
    <path d="M -3.11145 -76.47363 L -3.11145 -76.50288" />
    <path d="M -2.96024 5.12146 L -2.96024 -66.38422 L -2.93155 -65.74085 L -2.63155 -65.74103 L -2.66024 -66.3844 L -2.96024 -66.38422" />
    <path d="M -2.93155 5.76483 L -2.93155 -65.74085" />
    <path d="M -2.96024 5.12146 L -2.93155 5.76483 L -2.93024 5.76483" />
    <path d="M -2.63155 -65.71179 L -2.63155 -65.74103" />
    <path d="M -2.48034 15.88331 L -2.48034 -55.62237 L -2.45165 -54.979 L -2.15165 -54.97919 L -2.18034 -55.62256 L -2.48034 -55.62237" />
    <path d="M -2.45165 16.52668 L -2.45165 -54.979" />
    <path d="M -2.48034 15.88331 L -2.45165 16.52668 L -2.45035 16.52668" />
    <path d="M -2.15165 -54.94994 L -2.15165 -54.97919" />
    <path d="M -2.00044 26.64516 L -2.00044 -44.86053 L -1.97175 -44.21715 L -1.67176 -44.21734 L -1.70045 -44.86071 L -2.00044 -44.86053" />
    <path d="M -1.97175 27.28853 L -1.97175 -44.21715" />
    <path d="M -2.00044 26.64516 L -1.97175 27.28853 L -1.97045 27.28853" />
    <path d="M -1.67176 -44.18809 L -1.67176 -44.21734" />
    <path d="M -1.52054 37.407 L -1.52054 -34.09868 L -1.49185 -33.45531 L -1.19186 -33.45549 L -1.22055 -34.09886 L -1.52054 -34.09868" />
    <path d="M -1.49185 38.05038 L -1.49185 -33.45531" />
    <path d="M -1.52054 37.407 L -1.49185 38.05038 L -1.49055 38.05037" />
    <path d="M -1.19186 -33.42625 L -1.19186 -33.45549" />
    <path d="M -1.04065 48.16885 L -1.04065 -23.33683 L -1.01196 -22.69346 L -0.71196 -22.69364 L -0.74065 -23.33701 L -1.04065 -23.33683" />
    <path d="M -1.01196 48.81222 L -1.01196 -22.69346" />
    <path d="M -1.04065 48.16885 L -1.01196 48.81222 L -1.01065 48.81222" />
    <path d="M -0.71196 -22.6644 L -0.71196 -22.69364" />
    <path d="M -0.56075 58.9307 L -0.56075 -12.57498 L -0.53206 -11.93161 L -0.23206 -11.9318 L -0.26075 -12.57517 L -0.56075 -12.57498" />
    <path d="M -0.53206 59.57407 L -0.53206 -11.93161" />
    <path d="M -0.56075 58.9307 L -0.53206 59.57407 L -0.53076 59.57407" />
    <path d="M -0.23206 -11.90255 L -0.23206 -11.9318" />
    <path d="M -0.08085 69.69255 L -0.08085 -1.81314 L -0.05216 -1.16977 L 0.24783 -1.16995 L 0.21914 -1.81332 L -0.08085 -1.81314" />
    <path d="M -0.05216 70.33592 L -0.05216 -1.16977" />
    <path d="M -0.08085 69.69255 L -0.05216 70.33592 L -0.05086 70.33592" />
    <path d="M 0.24783 -1.1407 L 0.24783 -1.16995" />
    <path d="M -3.89004 -15.72962 L -3.89004 -87.2353 L -3.86135 -86.59193 L -3.56135 -86.59211 L -3.59004 -87.23548 L -3.89004 -87.2353" />
    <path d="M -3.86135 -15.08625 L -3.86135 -86.59193" />
    <path d="M -3.89004 -15.72962 L -3.86135 -15.08625 L -3.86004 -15.08625" />
    <path d="M -3.56135 -86.56287 L -3.56135 -86.59211" />
    <path d="M -3.41014 -4.96777 L -3.41014 -76.47345 L -3.38145 -75.83008 L -3.08145 -75.83026 L -3.11014 -76.47364 L -3.41014 -76.47345" />
    <path d="M -3.38145 -4.3244 L -3.38145 -75.83008" />
    <path d="M -3.41014 -4.96777 L -3.38145 -4.3244 L -3.38015 -4.3244" />
    <path d="M -3.08145 -75.80102 L -3.08145 -75.83026" />
    <path d="M -2.93024 5.79408 L -2.93024 -65.71161 L -2.90155 -65.06823 L -2.60156 -65.06842 L -2.63025 -65.71179 L -2.93024 -65.71161" />
    <path d="M -2.90155 6.43745 L -2.90155 -65.06823" />
    <path d="M -2.93024 5.79408 L -2.90155 6.43745 L -2.90025 6.43745" />
    <path d="M -2.60156 -65.03917 L -2.60156 -65.06842" />
    <path d="M -2.45035 16.55592 L -2.45035 -54.94976 L -2.42166 -54.30639 L -2.12166 -54.30657 L -2.15035 -54.94994 L -2.45035 -54.94976" />
    <path d="M -2.42166 17.1993 L -2.42166 -54.30639" />
    <path d="M -2.45035 16.55592 L -2.42166 17.1993 L -2.42035 17.1993" />
    <path d="M -2.12166 -54.27732 L -2.12166 -54.30657" />
    <path d="M -1.97045 27.31777 L -1.97045 -44.18791 L -1.94176 -43.54454 L -1.64176 -43.54472 L -1.67045 -44.18809 L -1.97045 -44.18791" />
    <path d="M -1.94176 27.96114 L -1.94176 -43.54454" />
    <path d="M -1.97045 27.31777 L -1.94176 27.96114 L -1.94045 27.96114" />
    <path d="M -1.64176 -43.51548 L -1.64176 -43.54472" />
    <path d="M -1.49055 38.07962 L -1.49055 -33.42606 L -1.46186 -32.78269 L -1.16187 -32.78288 L -1.19055 -33.42625 L -1.49055 -33.42606" />
    <path d="M -1.46186 38.72299 L -1.46186 -32.78269" />
    <path d="M -1.49055 38.07962 L -1.46186 38.72299 L -1.46056 38.72299" />
    <path d="M -1.16187 -32.75363 L -1.16187 -32.78288" />
    <path d="M -1.01065 48.84147 L -1.01065 -22.66422 L -0.98196 -22.02084 L -0.68197 -22.02103 L -0.71066 -22.6644 L -1.01065 -22.66422" />
    <path d="M -0.98196 49.48484 L -0.98196 -22.02084" />
    <path d="M -1.01065 48.84147 L -0.98196 49.48484 L -0.98066 49.48484" />
    <path d="M -0.68197 -21.99178 L -0.68197 -22.02103" />
    <path d="M -0.53076 59.60331 L -0.53076 -11.90237 L -0.50207 -11.259 L -0.20207 -11.25918 L -0.23076 -11.90255 L -0.53076 -11.90237" />
    <path d="M -0.50207 60.24669 L -0.50207 -11.259" />
    <path d="M -0.53076 59.60331 L -0.50207 60.24669 L -0.50076 60.24668" />
    <path d="M -0.20207 -11.22994 L -0.20207 -11.25918" />
    <path d="M -0.05086 70.36516 L -0.05086 -1.14052 L -0.02217 -0.49715 L 0.27783 -0.49733 L 0.24914 -1.1407 L -0.05086 -1.14052" />
    <path d="M -0.02217 71.00853 L -0.02217 -0.49715" />
    <path d="M -0.05086 70.36516 L -0.02217 71.00853 L 0.27783 71.00835 L 0.27783 -0.49733" />
    <path d="M 1.94952 1.75039 L 1.94952 97.0913" />
    <path d="M 4.32952 1.75039 L 4.32952 97.0913" />
    <path d="M -2.36955 -95.10623 L -2.36955 -75.63563" />
    <path d="M 0.01045 -95.10623 L 0.01045 -84.45609" />
    <path d="M -1.88965 -84.34438 L -1.88965 -64.87378" />
    <path d="M 0.49035 -84.34438 L 0.49035 -73.69424" />
    <path d="M -1.40976 -73.58254 L -1.40976 -54.11193" />
    <path d="M 0.97024 -73.58254 L 0.97024 -62.93239" />
    <path d="M -0.92986 -62.82069 L -0.92986 -43.35009" />
    <path d="M 1.45014 -62.82069 L 1.45014 -52.17055" />
    <path d="M -0.44996 -52.05884 L -0.44996 -32.58824" />
    <path d="M 1.93004 -52.05884 L 1.93004 -41.4087" />
    <path d="M 0.02994 -41.297 L 0.02994 -21.82639" />
    <path d="M 2.40994 -41.297 L 2.40994 -30.64685" />
    <path d="M 0.50983 -30.53515 L 0.50983 -11.06454" />
    <path d="M 0.50983 53.38067 L 0.50983 64.80576" />
    <path d="M 2.88983 -30.53515 L 2.88983 -19.885" />
    <path d="M 0.98973 -19.7733 L 0.98973 -0.3027" />
    <path d="M 0.98973 23.58634 L 0.98973 29.49134" />
    <path d="M 0.98973 53.38037 L 0.98973 75.56761" />
    <path d="M 3.36973 -19.7733 L 3.36973 -9.12316" />
    <path d="M 1.46963 -9.01145 L 1.46963 10.45915" />
    <path d="M 1.46963 23.58605 L 1.46963 40.25319" />
    <path d="M 1.46963 53.38008 L 1.46963 86.32946" />
    <path d="M 3.84963 -9.01145 L 3.84963 1.63869" />
</svg>