<svg version="1.1" xmlns="http://www.w3.org/2000/svg" viewBox="-97.13284392069545 -94.85504166143714 193.8035750942139 191.07751481097688" fill="none" stroke="black" stroke-width="0.6%" vector-effect="non-scaling-stroke">
    <path d="M 4.59799 -0.42557 A 1.19 0.13518 360 0 1 5.92546 -0.29129 A 1.19 0.13518 360 0 1 3.54546 -0.29129 A 1.19 0.13518 360 0 1 4.59799 -0.42557 Z" />
    <path d="M 3.54546 95.08729 A 1.19 0.13518 180 0 0 5.92546 95.08729" />
    <path d="M -92.11187 -34.13454 A 2 0.22719 360 0 1 -93.15293 -34.33392 A 2 0.22719 360 0 1 -92.11187 -34.53329" />
    <path d="M -89.73187 -34.49379 A 2 0.22719 360 0 1 -89.15293 -34.33392 A 2 0.22719 360 0 1 -89.73187 -34.17405" />
    <path d="M -92.09129 -34.13328 L -92.09129 -24.19801" />
    <path d="M -92.49006 -24.2297 A 2 0.22719 180 0 0 -92.11187 -24.19927" />
    <path d="M -92.49006 -32.17791 L -92.49006 -24.2297" />
    <path d="M -92.49006 -32.17791 A 2 0.22719 360 0 1 -93.15293 -32.34687" />
    <path d="M -89.73187 -24.23878 A 2 0.22719 180 0 0 -89.15293 -24.39865" />
    <path d="M -92.11187 1.65872 A 1.19 0.13518 180 0 0 -89.73187 1.65872" />
    <path d="M -91.05935 -93.85414 A 1.19 0.13518 360 0 1 -89.73187 -93.71986 A 1.19 0.13518 360 0 1 -92.11187 -93.71986 A 1.19 0.13518 360 0 1 -91.05935 -93.85414 Z" />
    <path d="M -96.13284 -24.35928 A 2 0.22719 180 0 0 -92.49006 -24.2297" />
    <path d="M -92.49006 -32.17791 A 2 0.22719 360 0 1 -96.13284 -32.30749 A 2 0.22719 360 0 1 -93.15293 -32.50555" />
    <path d="M -81.48328 -23.75359 A 2 0.22719 360 0 1 -82.52434 -23.95297 A 2 0.22719 360 0 1 -81.48328 -24.15234" />
    <path d="M -79.10328 -24.11284 A 2 0.22719 360 0 1 -78.52434 -23.95297 A 2 0.22719 360 0 1 -79.10328 -23.7931" />
    <path d="M -81.46269 -23.75233 L -81.46269 -13.81706" />
    <path d="M -81.86146 -13.84874 A 2 0.22719 180 0 0 -81.48328 -13.81832" />
    <path d="M -81.86146 -21.79696 L -81.86146 -13.84874" />
    <path d="M -81.86146 -21.79696 A 2 0.22719 360 0 1 -82.52434 -21.96591" />
    <path d="M -79.10328 -13.85783 A 2 0.22719 180 0 0 -78.52434 -14.0177" />
    <path d="M -81.48328 12.03967 A 1.19 0.13518 180 0 0 -79.10328 12.03967" />
    <path d="M -80.43076 -83.47318 A 1.19 0.13518 360 0 1 -79.10328 -83.33891 A 1.19 0.13518 360 0 1 -81.48328 -83.33891 A 1.19 0.13518 360 0 1 -80.43076 -83.47318 Z" />
    <path d="M -85.50425 -13.97833 A 2 0.22719 180 0 0 -81.86146 -13.84874" />
    <path d="M -81.86146 -21.79696 A 2 0.22719 360 0 1 -85.50425 -21.92654 A 2 0.22719 360 0 1 -82.52434 -22.1246" />
    <path d="M -70.85469 -13.37264 A 2 0.22719 360 0 1 -71.89574 -13.57201 A 2 0.22719 360 0 1 -70.85469 -13.77139" />
    <path d="M -68.47469 -13.73188 A 2 0.22719 360 0 1 -67.89574 -13.57201 A 2 0.22719 360 0 1 -68.47469 -13.41215" />
    <path d="M -70.8341 -13.37138 L -70.8341 -3.43611" />
    <path d="M -71.23287 -3.46779 A 2 0.22719 180 0 0 -70.85469 -3.43737" />
    <path d="M -71.23287 -11.41601 L -71.23287 -3.46779" />
    <path d="M -71.23287 -11.41601 A 2 0.22719 360 0 1 -71.89574 -11.58496" />
    <path d="M -68.47469 -3.47688 A 2 0.22719 180 0 0 -67.89574 -3.63675" />
    <path d="M -70.85469 22.42063 A 1.19 0.13518 180 0 0 -68.47469 22.42063" />
    <path d="M -69.80217 -73.09223 A 1.19 0.13518 360 0 1 -68.47469 -72.95796 A 1.19 0.13518 360 0 1 -70.85469 -72.95796 A 1.19 0.13518 360 0 1 -69.80217 -73.09223 Z" />
    <path d="M -74.87566 -3.59737 A 2 0.22719 180 0 0 -71.23287 -3.46779" />
    <path d="M -71.23287 -11.41601 A 2 0.22719 360 0 1 -74.87566 -11.54559 A 2 0.22719 360 0 1 -71.89574 -11.74365" />
    <path d="M -60.22609 -2.99169 A 2 0.22719 360 0 1 -61.26715 -3.19106 A 2 0.22719 360 0 1 -60.22609 -3.39044" />
    <path d="M -57.84609 -3.35093 A 2 0.22719 360 0 1 -57.26715 -3.19106 A 2 0.22719 360 0 1 -57.84609 -3.03119" />
    <path d="M -60.20551 -2.99043 L -60.20551 6.94484" />
    <path d="M -60.60428 6.91316 A 2 0.22719 180 0 0 -60.22609 6.94358" />
    <path d="M -60.60428 -1.03505 L -60.60428 6.91316" />
    <path d="M -60.60428 -1.03505 A 2 0.22719 360 0 1 -61.26715 -1.20401" />
    <path d="M -57.84609 6.90408 A 2 0.22719 180 0 0 -57.26715 6.74421" />
    <path d="M -60.22609 32.80158 A 1.19 0.13518 180 0 0 -57.84609 32.80158" />
    <path d="M -59.17357 -62.71128 A 1.19 0.13518 360 0 1 -57.84609 -62.577 A 1.19 0.13518 360 0 1 -60.22609 -62.577 A 1.19 0.13518 360 0 1 -59.17357 -62.71128 Z" />
    <path d="M -64.24706 6.78358 A 2 0.22719 180 0 0 -60.60428 6.91316" />
    <path d="M -60.60428 -1.03505 A 2 0.22719 360 0 1 -64.24706 -1.16464 A 2 0.22719 360 0 1 -61.26715 -1.36269" />
    <path d="M -49.5975 7.38927 A 2 0.22719 360 0 1 -50.63856 7.18989 A 2 0.22719 360 0 1 -49.5975 6.99051" />
    <path d="M -47.2175 7.03002 A 2 0.22719 360 0 1 -46.63856 7.18989 A 2 0.22719 360 0 1 -47.2175 7.34976" />
    <path d="M -49.57691 7.39053 L -49.57691 17.32579" />
    <path d="M -49.97568 17.29411 A 2 0.22719 180 0 0 -49.5975 17.32453" />
    <path d="M -49.97568 9.3459 L -49.97568 17.29411" />
    <path d="M -49.97568 9.3459 A 2 0.22719 360 0 1 -50.63856 9.17694" />
    <path d="M -47.2175 17.28503 A 2 0.22719 180 0 0 -46.63856 17.12516" />
    <path d="M -49.5975 43.18253 A 1.19 0.13518 180 0 0 -47.2175 43.18253" />
    <path d="M -48.54498 -52.33033 A 1.19 0.13518 360 0 1 -47.2175 -52.19605 A 1.19 0.13518 360 0 1 -49.5975 -52.19605 A 1.19 0.13518 360 0 1 -48.54498 -52.33033 Z" />
    <path d="M -53.61847 17.16453 A 2 0.22719 180 0 0 -49.97568 17.29411" />
    <path d="M -49.97568 9.3459 A 2 0.22719 360 0 1 -53.61847 9.21631 A 2 0.22719 360 0 1 -50.63856 9.01826" />
    <path d="M -38.96891 17.77022 A 2 0.22719 360 0 1 -40.00996 17.57084 A 2 0.22719 360 0 1 -38.96891 17.37147" />
    <path d="M -36.58891 17.41097 A 2 0.22719 360 0 1 -36.00996 17.57084 A 2 0.22719 360 0 1 -36.58891 17.73071" />
    <path d="M -38.94832 17.77148 L -38.94832 27.70675" />
    <path d="M -39.34709 27.67506 A 2 0.22719 180 0 0 -38.96891 27.70549" />
    <path d="M -39.34709 19.72685 L -39.34709 27.67506" />
    <path d="M -39.34709 19.72685 A 2 0.22719 360 0 1 -40.00996 19.5579" />
    <path d="M -36.58891 27.66598 A 2 0.22719 180 0 0 -36.00996 27.50611" />
    <path d="M -38.96891 53.56348 A 1.19 0.13518 180 0 0 -36.58891 53.56348" />
    <path d="M -37.91639 -41.94937 A 1.19 0.13518 360 0 1 -36.58891 -41.8151 A 1.19 0.13518 360 0 1 -38.96891 -41.8151 A 1.19 0.13518 360 0 1 -37.91639 -41.94937 Z" />
    <path d="M -42.98988 27.54548 A 2 0.22719 180 0 0 -39.34709 27.67506" />
    <path d="M -39.34709 19.72685 A 2 0.22719 360 0 1 -42.98988 19.59727 A 2 0.22719 360 0 1 -40.00996 19.39921" />
    <path d="M -28.34031 28.15117 A 2 0.22719 360 0 1 -29.38137 27.95179 A 2 0.22719 360 0 1 -28.34031 27.75242" />
    <path d="M -25.96031 27.79192 A 2 0.22719 360 0 1 -25.38137 27.95179 A 2 0.22719 360 0 1 -25.96031 28.11166" />
    <path d="M -28.31973 28.15243 L -28.31973 38.0877" />
    <path d="M -28.7185 38.05602 A 2 0.22719 180 0 0 -28.34031 38.08644" />
    <path d="M -28.7185 30.1078 L -28.7185 38.05602" />
    <path d="M -28.7185 30.1078 A 2 0.22719 360 0 1 -29.38137 29.93885" />
    <path d="M -25.96031 38.04693 A 2 0.22719 180 0 0 -25.38137 37.88706" />
    <path d="M -28.34031 63.94444 A 1.19 0.13518 180 0 0 -25.96031 63.94444" />
    <path d="M -27.28779 -31.56842 A 1.19 0.13518 360 0 1 -25.96031 -31.43415 A 1.19 0.13518 360 0 1 -28.34031 -31.43415 A 1.19 0.13518 360 0 1 -27.28779 -31.56842 Z" />
    <path d="M -32.36128 37.92643 A 2 0.22719 180 0 0 -28.7185 38.05602" />
    <path d="M -28.7185 30.1078 A 2 0.22719 360 0 1 -32.36128 29.97822 A 2 0.22719 360 0 1 -29.38137 29.78016" />
    <path d="M -17.71172 38.53212 A 2 0.22719 360 0 1 -18.75278 38.33275 A 2 0.22719 360 0 1 -17.71172 38.13337" />
    <path d="M -15.33172 38.17288 A 2 0.22719 360 0 1 -14.75278 38.33275 A 2 0.22719 360 0 1 -15.33172 38.49262" />
    <path d="M -17.69113 38.53338 L -17.69113 48.46865" />
    <path d="M -18.0899 48.43697 A 2 0.22719 180 0 0 -17.71172 48.46739" />
    <path d="M -18.0899 40.48875 L -18.0899 48.43697" />
    <path d="M -18.0899 40.48875 A 2 0.22719 360 0 1 -18.75278 40.3198" />
    <path d="M -15.33172 48.42788 A 2 0.22719 180 0 0 -14.75278 48.26802" />
    <path d="M -17.71172 74.32539 A 1.19 0.13518 180 0 0 -15.33172 74.32539" />
    <path d="M -16.6592 -21.18747 A 1.19 0.13518 360 0 1 -15.33172 -21.0532 A 1.19 0.13518 360 0 1 -17.71172 -21.0532 A 1.19 0.13518 360 0 1 -16.6592 -21.18747 Z" />
    <path d="M -21.73269 48.30739 A 2 0.22719 180 0 0 -18.0899 48.43697" />
    <path d="M -18.0899 40.48875 A 2 0.22719 360 0 1 -21.73269 40.35917 A 2 0.22719 360 0 1 -18.75278 40.16112" />
    <path d="M -7.08313 48.91307 A 2 0.22719 360 0 1 -8.12418 48.7137 A 2 0.22719 360 0 1 -7.08313 48.51432" />
    <path d="M -4.70313 48.55383 A 2 0.22719 360 0 1 -4.12418 48.7137 A 2 0.22719 360 0 1 -4.70313 48.87357" />
    <path d="M -7.06254 48.91433 L -7.06254 58.8496" />
    <path d="M -7.46131 58.81792 A 2 0.22719 180 0 0 -7.08313 58.84834" />
    <path d="M -7.46131 50.86971 L -7.46131 58.81792" />
    <path d="M -7.46131 50.86971 A 2 0.22719 360 0 1 -8.12418 50.70075" />
    <path d="M -4.70313 58.80884 A 2 0.22719 180 0 0 -4.12418 58.64897" />
    <path d="M -7.08313 84.70634 A 1.19 0.13518 180 0 0 -4.70313 84.70634" />
    <path d="M -6.03061 -10.80652 A 1.19 0.13518 360 0 1 -4.70313 -10.67224 A 1.19 0.13518 360 0 1 -7.08313 -10.67224 A 1.19 0.13518 360 0 1 -6.03061 -10.80652 Z" />
    <path d="M -11.1041 58.68834 A 2 0.22719 180 0 0 -7.46131 58.81792" />
    <path d="M -7.46131 50.86971 A 2 0.22719 360 0 1 -11.1041 50.74012 A 2 0.22719 360 0 1 -8.12418 50.54207" />
    <path d="M -78.52434 -23.2566 A 2 0.22719 180 0 0 -78.06461 -23.40152" />
    <path d="M -79.10328 -33.53602 A 2 0.22719 360 0 1 -78.06461 -33.33679 A 2 0.22719 360 0 1 -79.10328 -33.13756" />
    <path d="M -85.04452 -23.36215 A 2 0.22719 180 0 0 -82.52434 -23.14278" />
    <path d="M -82.22164 -31.10329 A 2 0.22719 360 0 1 -85.04452 -31.31037 A 2 0.22719 360 0 1 -82.66198 -31.53337" />
    <path d="M -67.89574 -12.87565 A 2 0.22719 180 0 0 -67.43601 -13.02057" />
    <path d="M -68.47469 -23.15507 A 2 0.22719 360 0 1 -67.43601 -22.95584 A 2 0.22719 360 0 1 -68.47469 -22.75661" />
    <path d="M -74.41593 -12.9812 A 2 0.22719 180 0 0 -71.89574 -12.76182" />
    <path d="M -71.59305 -20.72234 A 2 0.22719 360 0 1 -74.41593 -20.92941 A 2 0.22719 360 0 1 -72.03338 -21.15241" />
    <path d="M -57.26715 -2.49469 A 2 0.22719 180 0 0 -56.80742 -2.63962" />
    <path d="M -57.84609 -12.77411 A 2 0.22719 360 0 1 -56.80742 -12.57489 A 2 0.22719 360 0 1 -57.84609 -12.37566" />
    <path d="M -63.78733 -2.60025 A 2 0.22719 180 0 0 -61.26715 -2.38087" />
    <path d="M -60.96446 -10.34139 A 2 0.22719 360 0 1 -63.78733 -10.54846 A 2 0.22719 360 0 1 -61.40479 -10.77146" />
    <path d="M -46.63856 7.88626 A 2 0.22719 180 0 0 -46.17883 7.74133" />
    <path d="M -47.2175 -2.39316 A 2 0.22719 360 0 1 -46.17883 -2.19393 A 2 0.22719 360 0 1 -47.2175 -1.99471" />
    <path d="M -53.15874 7.78071 A 2 0.22719 180 0 0 -50.63856 8.00008" />
    <path d="M -50.33587 0.03956 A 2 0.22719 360 0 1 -53.15874 -0.16751 A 2 0.22719 360 0 1 -50.7762 -0.39051" />
    <path d="M -36.00996 18.26721 A 2 0.22719 180 0 0 -35.55023 18.12229" />
    <path d="M -36.58891 7.98779 A 2 0.22719 360 0 1 -35.55023 8.18702 A 2 0.22719 360 0 1 -36.58891 8.38625" />
    <path d="M -42.53015 18.16166 A 2 0.22719 180 0 0 -40.00996 18.38103" />
    <path d="M -39.70727 10.42052 A 2 0.22719 360 0 1 -42.53015 10.21344 A 2 0.22719 360 0 1 -40.1476 9.99044" />
    <path d="M -25.38137 28.64816 A 2 0.22719 180 0 0 -24.92164 28.50324" />
    <path d="M -25.96031 18.36874 A 2 0.22719 360 0 1 -24.92164 18.56797 A 2 0.22719 360 0 1 -25.96031 18.7672" />
    <path d="M -31.90155 28.54261 A 2 0.22719 180 0 0 -29.38137 28.76198" />
    <path d="M -29.07868 20.80147 A 2 0.22719 360 0 1 -31.90155 20.59439 A 2 0.22719 360 0 1 -29.51901 20.37139" />
    <path d="M -14.75278 39.02911 A 2 0.22719 180 0 0 -14.29305 38.88419" />
    <path d="M -15.33172 28.74969 A 2 0.22719 360 0 1 -14.29305 28.94892 A 2 0.22719 360 0 1 -15.33172 29.14815" />
    <path d="M -21.27296 38.92356 A 2 0.22719 180 0 0 -18.75278 39.14294" />
    <path d="M -18.45009 31.18242 A 2 0.22719 360 0 1 -21.27296 30.97535 A 2 0.22719 360 0 1 -18.89042 30.75235" />
    <path d="M -4.12418 49.41007 A 2 0.22719 180 0 0 -3.66445 49.26514" />
    <path d="M -4.70313 39.13065 A 2 0.22719 360 0 1 -3.66445 39.32987 A 2 0.22719 360 0 1 -4.70313 39.5291" />
    <path d="M -10.64437 49.30451 A 2 0.22719 180 0 0 -8.12418 49.52389" />
    <path d="M -7.82149 41.56337 A 2 0.22719 360 0 1 -10.64437 41.3563 A 2 0.22719 360 0 1 -8.26182 41.1333" />
    <path d="M 5.92546 59.84532 A 2 0.22719 180 0 0 6.96414 59.64609" />
    <path d="M 3.54546 51.85802 A 2 0.22719 360 0 1 2.96414 51.69788" />
    <path d="M 5.92546 49.5116 A 2 0.22719 360 0 1 6.96414 49.71083 A 2 0.22719 360 0 1 5.92546 49.91005" />
    <path d="M -0.01577 59.68547 A 2 0.22719 180 0 0 3.54546 59.82746" />
    <path d="M 3.54546 51.87925 A 2 0.22719 360 0 1 -0.01577 51.73725 A 2 0.22719 360 0 1 2.96414 51.53919" />
    <path d="M -67.43601 -22.25947 A 2 0.22719 180 0 0 -66.97628 -22.40439" />
    <path d="M -70.85469 -30.2746 A 2 0.22719 360 0 1 -70.97628 -30.35261" />
    <path d="M -68.47469 -32.5596 A 2 0.22719 360 0 1 -66.97628 -32.33966 A 2 0.22719 360 0 1 -68.47469 -32.11973" />
    <path d="M -70.85469 -32.26165 A 2 0.22719 360 0 1 -70.97628 -32.33966 A 2 0.22719 360 0 1 -70.85469 -32.41767" />
    <path d="M -73.9562 -22.36502 A 2 0.22719 180 0 0 -73.08272 -22.1773" />
    <path d="M -70.85469 -30.12361 A 2 0.22719 360 0 1 -73.9562 -30.31324 A 2 0.22719 360 0 1 -70.97628 -30.51129" />
    <path d="M -56.80742 -11.87852 A 2 0.22719 180 0 0 -56.34769 -12.02344" />
    <path d="M -60.22609 -19.89365 A 2 0.22719 360 0 1 -60.34769 -19.97166" />
    <path d="M -57.84609 -22.17864 A 2 0.22719 360 0 1 -56.34769 -21.95871 A 2 0.22719 360 0 1 -57.84609 -21.73878" />
    <path d="M -60.22609 -21.8807 A 2 0.22719 360 0 1 -60.34769 -21.95871 A 2 0.22719 360 0 1 -60.22609 -22.03672" />
    <path d="M -63.3276 -11.98407 A 2 0.22719 180 0 0 -62.45412 -11.79635" />
    <path d="M -60.22609 -19.74265 A 2 0.22719 360 0 1 -63.3276 -19.93229 A 2 0.22719 360 0 1 -60.34769 -20.13034" />
    <path d="M -46.17883 -1.49757 A 2 0.22719 180 0 0 -45.7191 -1.64249" />
    <path d="M -49.5975 -9.5127 A 2 0.22719 360 0 1 -49.7191 -9.59071" />
    <path d="M -47.2175 -11.79769 A 2 0.22719 360 0 1 -45.7191 -11.57776 A 2 0.22719 360 0 1 -47.2175 -11.35783" />
    <path d="M -49.5975 -11.49975 A 2 0.22719 360 0 1 -49.7191 -11.57776 A 2 0.22719 360 0 1 -49.5975 -11.65577" />
    <path d="M -52.69901 -1.60312 A 2 0.22719 180 0 0 -51.82553 -1.41539" />
    <path d="M -49.5975 -9.3617 A 2 0.22719 360 0 1 -52.69901 -9.55133 A 2 0.22719 360 0 1 -49.7191 -9.74939" />
    <path d="M -35.55023 8.88338 A 2 0.22719 180 0 0 -35.0905 8.73846" />
    <path d="M -38.96891 0.86826 A 2 0.22719 360 0 1 -39.0905 0.79025" />
    <path d="M -36.58891 -1.41674 A 2 0.22719 360 0 1 -35.0905 -1.19681 A 2 0.22719 360 0 1 -36.58891 -0.97687" />
    <path d="M -38.96891 -1.1188 A 2 0.22719 360 0 1 -39.0905 -1.19681 A 2 0.22719 360 0 1 -38.96891 -1.27482" />
    <path d="M -42.07042 8.77783 A 2 0.22719 180 0 0 -41.19694 8.96556" />
    <path d="M -38.96891 1.01925 A 2 0.22719 360 0 1 -42.07042 0.82962 A 2 0.22719 360 0 1 -39.0905 0.63156" />
    <path d="M -24.92164 19.26434 A 2 0.22719 180 0 0 -24.46191 19.11941" />
    <path d="M -28.34031 11.24921 A 2 0.22719 360 0 1 -28.46191 11.1712" />
    <path d="M -25.96031 8.96421 A 2 0.22719 360 0 1 -24.46191 9.18415 A 2 0.22719 360 0 1 -25.96031 9.40408" />
    <path d="M -28.34031 9.26216 A 2 0.22719 360 0 1 -28.46191 9.18415 A 2 0.22719 360 0 1 -28.34031 9.10613" />
    <path d="M -31.44182 19.15879 A 2 0.22719 180 0 0 -30.56834 19.34651" />
    <path d="M -28.34031 11.4002 A 2 0.22719 360 0 1 -31.44182 11.21057 A 2 0.22719 360 0 1 -28.46191 11.01251" />
    <path d="M -14.29305 29.64529 A 2 0.22719 180 0 0 -13.83332 29.50037" />
    <path d="M -17.71172 21.63016 A 2 0.22719 360 0 1 -17.83332 21.55215" />
    <path d="M -15.33172 19.34516 A 2 0.22719 360 0 1 -13.83332 19.5651 A 2 0.22719 360 0 1 -15.33172 19.78503" />
    <path d="M -17.71172 19.64311 A 2 0.22719 360 0 1 -17.83332 19.5651 A 2 0.22719 360 0 1 -17.71172 19.48709" />
    <path d="M -20.81323 29.53974 A 2 0.22719 180 0 0 -19.93975 29.72746" />
    <path d="M -17.71172 21.78115 A 2 0.22719 360 0 1 -20.81323 21.59152 A 2 0.22719 360 0 1 -17.83332 21.39347" />
    <path d="M -3.66445 40.02624 A 2 0.22719 180 0 0 -3.20472 39.88132" />
    <path d="M -7.08313 32.01111 A 2 0.22719 360 0 1 -7.20472 31.9331" />
    <path d="M -4.70313 29.72612 A 2 0.22719 360 0 1 -3.20472 29.94605 A 2 0.22719 360 0 1 -4.70313 30.16598" />
    <path d="M -7.08313 30.02406 A 2 0.22719 360 0 1 -7.20472 29.94605 A 2 0.22719 360 0 1 -7.08313 29.86804" />
    <path d="M -10.18464 39.92069 A 2 0.22719 180 0 0 -9.31116 40.10842" />
    <path d="M -7.08313 32.16211 A 2 0.22719 360 0 1 -10.18464 31.97247 A 2 0.22719 360 0 1 -7.20472 31.77442" />
    <path d="M 6.96414 50.40719 A 2 0.22719 180 0 0 7.42387 50.26227" />
    <path d="M 3.54546 42.39207 A 2 0.22719 360 0 1 3.42387 42.31406" />
    <path d="M 5.92546 40.10707 A 2 0.22719 360 0 1 7.42387 40.327 A 2 0.22719 360 0 1 5.92546 40.54693" />
    <path d="M 3.54546 40.40501 A 2 0.22719 360 0 1 3.42387 40.327 A 2 0.22719 360 0 1 3.54546 40.24899" />
    <path d="M 0.44396 50.30164 A 2 0.22719 180 0 0 1.31744 50.48937" />
    <path d="M 3.54546 42.54306 A 2 0.22719 360 0 1 0.44396 42.35343 A 2 0.22719 360 0 1 3.42387 42.15537" />
    <path d="M 14.71534 60.81218 A 2 0.22719 180 0 0 18.05246 60.64322" />
    <path d="M 14.71534 52.86396 L 14.71534 60.81218" />
    <path d="M 14.71534 52.86396 A 2 0.22719 360 0 1 14.05246 52.69501" />
    <path d="M 15.82141 50.48228 A 2 0.22719 360 0 1 18.05246 50.70795 A 2 0.22719 360 0 1 14.05246 50.70795 A 2 0.22719 360 0 1 15.82141 50.48228 Z" />
    <path d="M 11.07255 60.68259 A 2 0.22719 180 0 0 14.71534 60.81218" />
    <path d="M 14.71534 52.86396 A 2 0.22719 360 0 1 11.07255 52.73438 A 2 0.22719 360 0 1 14.05246 52.53632" />
    <path d="M -56.34769 -21.26234 A 2 0.22719 180 0 0 -55.88796 -21.40727" />
    <path d="M -57.84609 -31.56968 A 2 0.22719 360 0 1 -55.88796 -31.34254 A 2 0.22719 360 0 1 -57.84609 -31.11539" />
    <path d="M -62.86787 -21.3679 A 2 0.22719 180 0 0 -60.34769 -21.14852" />
    <path d="M -60.22609 -29.10093 A 2 0.22719 360 0 1 -62.86787 -29.31611 A 2 0.22719 360 0 1 -60.22609 -29.53129" />
    <path d="M -45.7191 -10.88139 A 2 0.22719 180 0 0 -45.25937 -11.02631" />
    <path d="M -47.2175 -21.18873 A 2 0.22719 360 0 1 -45.25937 -20.96158 A 2 0.22719 360 0 1 -47.2175 -20.73444" />
    <path d="M -52.23928 -10.98694 A 2 0.22719 180 0 0 -49.7191 -10.76757" />
    <path d="M -49.5975 -18.71998 A 2 0.22719 360 0 1 -52.23928 -18.93516 A 2 0.22719 360 0 1 -49.5975 -19.15034" />
    <path d="M -35.0905 -0.50044 A 2 0.22719 180 0 0 -34.63077 -0.64536" />
    <path d="M -36.58891 -10.80778 A 2 0.22719 360 0 1 -34.63077 -10.58063 A 2 0.22719 360 0 1 -36.58891 -10.35349" />
    <path d="M -41.61068 -0.60599 A 2 0.22719 180 0 0 -39.0905 -0.38662" />
    <path d="M -38.96891 -8.33903 A 2 0.22719 360 0 1 -41.61068 -8.55421 A 2 0.22719 360 0 1 -38.96891 -8.76939" />
    <path d="M -24.46191 9.88051 A 2 0.22719 180 0 0 -24.00218 9.73559" />
    <path d="M -25.96031 -0.42682 A 2 0.22719 360 0 1 -24.00218 -0.19968 A 2 0.22719 360 0 1 -25.96031 0.02747" />
    <path d="M -30.98209 9.77496 A 2 0.22719 180 0 0 -28.46191 9.99434" />
    <path d="M -28.34031 2.04192 A 2 0.22719 360 0 1 -30.98209 1.82675 A 2 0.22719 360 0 1 -28.34031 1.61157" />
    <path d="M -13.83332 20.26146 A 2 0.22719 180 0 0 -13.37359 20.11654" />
    <path d="M -15.33172 9.95413 A 2 0.22719 360 0 1 -13.37359 10.18127 A 2 0.22719 360 0 1 -15.33172 10.40842" />
    <path d="M -20.3535 20.15591 A 2 0.22719 180 0 0 -17.83332 20.37529" />
    <path d="M -17.71172 12.42288 A 2 0.22719 360 0 1 -20.3535 12.2077 A 2 0.22719 360 0 1 -17.71172 11.99252" />
    <path d="M -3.20472 30.64242 A 2 0.22719 180 0 0 -2.74499 30.49749" />
    <path d="M -4.70313 20.33508 A 2 0.22719 360 0 1 -2.74499 20.56222 A 2 0.22719 360 0 1 -4.70313 20.78937" />
    <path d="M -9.72491 30.53687 A 2 0.22719 180 0 0 -7.20472 30.75624" />
    <path d="M -7.08313 22.80383 A 2 0.22719 360 0 1 -9.72491 22.58865 A 2 0.22719 360 0 1 -7.08313 22.37347" />
    <path d="M 7.42387 41.02337 A 2 0.22719 180 0 0 7.8836 40.87845" />
    <path d="M 5.92546 30.71603 A 2 0.22719 360 0 1 7.8836 30.94318 A 2 0.22719 360 0 1 5.92546 31.17032" />
    <path d="M 0.90369 40.91782 A 2 0.22719 180 0 0 3.42387 41.13719" />
    <path d="M 3.54546 33.18478 A 2 0.22719 360 0 1 0.90369 32.9696 A 2 0.22719 360 0 1 3.54546 32.75442" />
    <path d="M 18.05246 51.40432 A 2 0.22719 180 0 0 18.51219 51.2594" />
    <path d="M 15.17507 43.48014 L 15.17507 50.50379" />
    <path d="M 15.17507 43.48014 A 2 0.22719 360 0 1 14.51219 43.31118" />
    <path d="M 16.28114 41.09846 A 2 0.22719 360 0 1 18.51219 41.32413 A 2 0.22719 360 0 1 14.51219 41.32413 L 14.51219 43.31118" />
    <path d="M 14.51219 41.32413 A 2 0.22719 360 0 1 16.28114 41.09846" />
    <path d="M 11.53228 51.29877 A 2 0.22719 180 0 0 14.05246 51.51814" />
    <path d="M 15.17507 43.48014 A 2 0.22719 360 0 1 11.53228 43.35055 L 11.53228 51.29877" />
    <path d="M 11.53228 43.35055 A 2 0.22719 360 0 1 14.51219 43.1525" />
    <path d="M 25.80366 61.8093 A 2 0.22719 180 0 0 29.14079 61.64035" />
    <path d="M 25.80366 53.86109 L 25.80366 61.8093" />
    <path d="M 25.80366 53.86109 A 2 0.22719 360 0 1 25.14079 53.69214" />
    <path d="M 26.90973 51.47941 A 2 0.22719 360 0 1 29.14079 51.70508 L 29.14079 61.64035" />
    <path d="M 29.14079 51.70508 A 2 0.22719 360 0 1 25.14079 51.70508 L 25.14079 53.69214" />
    <path d="M 25.14079 51.70508 A 2 0.22719 360 0 1 26.90973 51.47941" />
    <path d="M 22.16087 61.67972 A 2 0.22719 180 0 0 25.80366 61.8093" />
    <path d="M 25.80366 53.86109 A 2 0.22719 360 0 1 22.16087 53.73151 L 22.16087 61.67972" />
    <path d="M 22.16087 53.73151 A 2 0.22719 360 0 1 25.14079 53.53345" />
    <path d="M -45.25937 -20.26522 A 2 0.22719 180 0 0 -44.79963 -20.41014" />
    <path d="M -46.07526 -30.55718 A 2 0.22719 360 0 1 -44.79963 -30.34541 L -44.79963 -29.31128" />
    <path d="M -44.79963 -30.34541 A 2 0.22719 360 0 1 -45.66674 -30.15818" />
    <path d="M -51.77955 -20.37077 A 2 0.22719 180 0 0 -49.5975 -20.14452" />
    <path d="M -49.5975 -28.09273 A 2 0.22719 360 0 1 -51.77955 -28.31898 L -51.77955 -20.37077" />
    <path d="M -51.77955 -28.31898 A 2 0.22719 360 0 1 -49.5975 -28.54523" />
    <path d="M -34.63077 -9.88426 A 2 0.22719 180 0 0 -34.17104 -10.02919" />
    <path d="M -35.44666 -20.17622 A 2 0.22719 360 0 1 -34.17104 -19.96446 L -34.17104 -18.93032" />
    <path d="M -34.17104 -19.96446 A 2 0.22719 360 0 1 -35.03815 -19.77723" />
    <path d="M -41.15095 -9.98982 A 2 0.22719 180 0 0 -38.96891 -9.76356" />
    <path d="M -38.96891 -17.71178 A 2 0.22719 360 0 1 -41.15095 -17.93803 L -41.15095 -9.98982" />
    <path d="M -41.15095 -17.93803 A 2 0.22719 360 0 1 -38.96891 -18.16428" />
    <path d="M -24.00218 0.49669 A 2 0.22719 180 0 0 -23.54245 0.35177" />
    <path d="M -24.81807 -9.79527 A 2 0.22719 360 0 1 -23.54245 -9.5835 L -23.54245 -8.54937" />
    <path d="M -23.54245 -9.5835 A 2 0.22719 360 0 1 -24.40955 -9.39627" />
    <path d="M -30.52236 0.39114 A 2 0.22719 180 0 0 -28.34031 0.61739" />
    <path d="M -28.34031 -7.33083 A 2 0.22719 360 0 1 -30.52236 -7.55708 L -30.52236 0.39114" />
    <path d="M -30.52236 -7.55708 A 2 0.22719 360 0 1 -28.34031 -7.78333" />
    <path d="M -13.37359 10.87764 A 2 0.22719 180 0 0 -12.91386 10.73272" />
    <path d="M -14.18948 0.58568 A 2 0.22719 360 0 1 -12.91386 0.79745 L -12.91386 1.83158" />
    <path d="M -12.91386 0.79745 A 2 0.22719 360 0 1 -13.78096 0.98468" />
    <path d="M -19.89377 10.77209 A 2 0.22719 180 0 0 -17.71172 10.99834" />
    <path d="M -17.71172 3.05012 A 2 0.22719 360 0 1 -19.89377 2.82387 L -19.89377 10.77209" />
    <path d="M -19.89377 2.82387 A 2 0.22719 360 0 1 -17.71172 2.59762" />
    <path d="M -2.74499 21.25859 A 2 0.22719 180 0 0 -2.28526 21.11367" />
    <path d="M -3.56088 10.96663 A 2 0.22719 360 0 1 -2.28526 11.1784 L -2.28526 12.21253" />
    <path d="M -2.28526 11.1784 A 2 0.22719 360 0 1 -3.15237 11.36563" />
    <path d="M -9.26517 21.15304 A 2 0.22719 180 0 0 -7.08313 21.37929" />
    <path d="M -7.08313 13.43108 A 2 0.22719 360 0 1 -9.26517 13.20483 L -9.26517 21.15304" />
    <path d="M -9.26517 13.20483 A 2 0.22719 360 0 1 -7.08313 12.97857" />
    <path d="M 7.8836 31.63954 A 2 0.22719 180 0 0 8.34333 31.49462" />
    <path d="M 6.11227 21.33368 A 2 0.22719 360 0 1 8.34333 21.55935 L 8.34333 31.49462" />
    <path d="M 8.34333 21.55935 A 2 0.22719 360 0 1 5.92546 21.78153" />
    <path d="M 5.92546 21.33717 A 2 0.22719 360 0 1 6.11227 21.33368" />
    <path d="M 1.36342 31.53399 A 2 0.22719 180 0 0 3.54546 31.76024" />
    <path d="M 3.54546 23.81203 A 2 0.22719 360 0 1 1.36342 23.58578 L 1.36342 31.53399" />
    <path d="M 1.36342 23.58578 A 2 0.22719 360 0 1 3.54546 23.35953" />
    <path d="M 18.51219 42.0205 A 2 0.22719 180 0 0 18.97192 41.87557" />
    <path d="M 15.6348 34.09631 L 15.6348 41.11996" />
    <path d="M 15.6348 34.09631 A 2 0.22719 360 0 1 14.97192 33.92736" />
    <path d="M 16.74087 31.71463 A 2 0.22719 360 0 1 18.97192 31.9403 L 18.97192 41.87557" />
    <path d="M 18.97192 31.9403 A 2 0.22719 360 0 1 14.97192 31.9403 L 14.97192 33.92736" />
    <path d="M 14.97192 31.9403 A 2 0.22719 360 0 1 16.74087 31.71463" />
    <path d="M 11.99201 41.91494 A 2 0.22719 180 0 0 14.51219 42.13432" />
    <path d="M 15.6348 34.09631 A 2 0.22719 360 0 1 11.99201 33.96673 L 11.99201 41.91494" />
    <path d="M 11.99201 33.96673 A 2 0.22719 360 0 1 14.97192 33.76867" />
    <path d="M 29.14079 52.40145 A 2 0.22719 180 0 0 29.60052 52.25653" />
    <path d="M 26.26339 44.47726 L 26.26339 51.50092" />
    <path d="M 26.26339 44.47726 A 2 0.22719 360 0 1 25.60052 44.30831" />
    <path d="M 27.36946 42.09558 A 2 0.22719 360 0 1 29.60052 42.32126 L 29.60052 52.25653" />
    <path d="M 29.60052 42.32126 A 2 0.22719 360 0 1 25.60052 42.32126 L 25.60052 44.30831" />
    <path d="M 25.60052 42.32126 A 2 0.22719 360 0 1 27.36946 42.09558" />
    <path d="M 22.6206 52.2959 A 2 0.22719 180 0 0 25.14079 52.51527" />
    <path d="M 26.26339 44.47726 A 2 0.22719 360 0 1 22.6206 44.34768 L 22.6206 52.2959" />
    <path d="M 22.6206 44.34768 A 2 0.22719 360 0 1 25.60052 44.14963" />
    <path d="M 36.89198 62.80643 A 2 0.22719 180 0 0 40.22911 62.63748" />
    <path d="M 36.89198 54.85822 L 36.89198 62.80643" />
    <path d="M 36.89198 54.85822 A 2 0.22719 360 0 1 36.22911 54.68926" />
    <path d="M 37.99805 52.47654 A 2 0.22719 360 0 1 40.22911 52.70221 L 40.22911 62.63748" />
    <path d="M 40.22911 52.70221 A 2 0.22719 360 0 1 36.22911 52.70221 L 36.22911 54.68926" />
    <path d="M 36.22911 52.70221 A 2 0.22719 360 0 1 37.99805 52.47654" />
    <path d="M 33.2492 62.67685 A 2 0.22719 180 0 0 36.89198 62.80643" />
    <path d="M 36.89198 54.85822 A 2 0.22719 360 0 1 33.2492 54.72863 L 33.2492 62.67685" />
    <path d="M 33.2492 54.72863 A 2 0.22719 360 0 1 36.22911 54.53058" />
    <path d="M -34.17104 -19.26809 A 2 0.22719 180 0 0 -33.71131 -19.41301" />
    <path d="M -35.94237 -29.57395 A 2 0.22719 360 0 1 -33.71131 -29.34828 L -33.71131 -19.41301" />
    <path d="M -33.71131 -29.34828 A 2 0.22719 360 0 1 -36.58891 -29.14413" />
    <path d="M -36.58891 -29.55243 A 2 0.22719 360 0 1 -35.94237 -29.57395" />
    <path d="M -40.69122 -19.37364 A 2 0.22719 180 0 0 -39.48167 -19.16494" />
    <path d="M -38.96891 -27.09686 A 2 0.22719 360 0 1 -40.69122 -27.32186 L -40.69122 -25.29859" />
    <path d="M -40.69122 -27.32186 A 2 0.22719 360 0 1 -38.96891 -27.54685" />
    <path d="M -23.54245 -8.88714 A 2 0.22719 180 0 0 -23.08272 -9.03206" />
    <path d="M -25.31377 -19.193 A 2 0.22719 360 0 1 -23.08272 -18.96733 L -23.08272 -9.03206" />
    <path d="M -23.08272 -18.96733 A 2 0.22719 360 0 1 -25.96031 -18.76317" />
    <path d="M -25.96031 -19.17148 A 2 0.22719 360 0 1 -25.31377 -19.193" />
    <path d="M -30.06263 -8.99269 A 2 0.22719 180 0 0 -28.85307 -8.78399" />
    <path d="M -28.34031 -16.71591 A 2 0.22719 360 0 1 -30.06263 -16.9409 L -30.06263 -14.91764" />
    <path d="M -30.06263 -16.9409 A 2 0.22719 360 0 1 -28.34031 -17.1659" />
    <path d="M -12.91386 1.49382 A 2 0.22719 180 0 0 -12.45412 1.34889" />
    <path d="M -14.68518 -8.81205 A 2 0.22719 360 0 1 -12.45412 -8.58638 L -12.45412 1.34889" />
    <path d="M -12.45412 -8.58638 A 2 0.22719 360 0 1 -15.33172 -8.38222" />
    <path d="M -15.33172 -8.79053 A 2 0.22719 360 0 1 -14.68518 -8.81205" />
    <path d="M -19.43404 1.38826 A 2 0.22719 180 0 0 -18.22448 1.59696" />
    <path d="M -17.71172 -6.33496 A 2 0.22719 360 0 1 -19.43404 -6.55995 L -19.43404 -4.53668" />
    <path d="M -19.43404 -6.55995 A 2 0.22719 360 0 1 -17.71172 -6.78494" />
    <path d="M -2.28526 11.87477 A 2 0.22719 180 0 0 -1.82553 11.72985" />
    <path d="M -4.05659 1.5689 A 2 0.22719 360 0 1 -1.82553 1.79458 L -1.82553 11.72985" />
    <path d="M -1.82553 1.79458 A 2 0.22719 360 0 1 -4.70313 1.99873" />
    <path d="M -4.70313 1.59042 A 2 0.22719 360 0 1 -4.05659 1.5689" />
    <path d="M -8.80544 11.76922 A 2 0.22719 180 0 0 -7.59589 11.97791" />
    <path d="M -7.08313 4.04599 A 2 0.22719 360 0 1 -8.80544 3.821 L -8.80544 5.84427" />
    <path d="M -8.80544 3.821 A 2 0.22719 360 0 1 -7.08313 3.59601" />
    <path d="M 8.34333 22.25572 A 2 0.22719 180 0 0 8.80306 22.1108" />
    <path d="M 6.57201 11.94986 A 2 0.22719 360 0 1 8.80306 12.17553 L 8.80306 22.1108" />
    <path d="M 8.80306 12.17553 A 2 0.22719 360 0 1 5.92546 12.37968" />
    <path d="M 5.92546 11.97138 A 2 0.22719 360 0 1 6.57201 11.94986" />
    <path d="M 1.82315 22.15017 A 2 0.22719 180 0 0 3.54546 22.37516" />
    <path d="M 3.54546 14.42695 A 2 0.22719 360 0 1 1.82315 14.20195 L 1.82315 16.22522" />
    <path d="M 1.82315 14.20195 A 2 0.22719 360 0 1 3.54546 13.97696" />
    <path d="M 18.97192 32.63667 A 2 0.22719 180 0 0 19.43166 32.49175" />
    <path d="M 16.09453 24.71249 L 16.09453 31.73614" />
    <path d="M 16.09453 24.71249 A 2 0.22719 360 0 1 15.43166 24.54353" />
    <path d="M 17.2006 22.33081 A 2 0.22719 360 0 1 19.43166 22.55648 L 19.43166 32.49175" />
    <path d="M 19.43166 22.55648 A 2 0.22719 360 0 1 15.43166 22.55648 L 15.43166 24.54353" />
    <path d="M 15.43166 22.55648 A 2 0.22719 360 0 1 17.2006 22.33081" />
    <path d="M 12.45174 32.53112 A 2 0.22719 180 0 0 14.97192 32.7505" />
    <path d="M 16.09453 24.71249 A 2 0.22719 360 0 1 12.45174 24.58291 L 12.45174 32.53112" />
    <path d="M 12.45174 24.58291 A 2 0.22719 360 0 1 15.43166 24.38485" />
    <path d="M 29.60052 43.01762 A 2 0.22719 180 0 0 30.06025 42.8727" />
    <path d="M 26.72312 35.09344 L 26.72312 42.11709" />
    <path d="M 26.72312 35.09344 A 2 0.22719 360 0 1 26.06025 34.92449" />
    <path d="M 27.82919 32.71176 A 2 0.22719 360 0 1 30.06025 32.93743 L 30.06025 42.8727" />
    <path d="M 30.06025 32.93743 A 2 0.22719 360 0 1 26.06025 32.93743 L 26.06025 34.92449" />
    <path d="M 26.06025 32.93743 A 2 0.22719 360 0 1 27.82919 32.71176" />
    <path d="M 23.08034 42.91207 A 2 0.22719 180 0 0 25.60052 43.13145" />
    <path d="M 26.72312 35.09344 A 2 0.22719 360 0 1 23.08034 34.96386 L 23.08034 42.91207" />
    <path d="M 23.08034 34.96386 A 2 0.22719 360 0 1 26.06025 34.7658" />
    <path d="M 40.22911 53.39858 A 2 0.22719 180 0 0 40.68884 53.25365" />
    <path d="M 37.35171 45.47439 L 37.35171 52.49804" />
    <path d="M 37.35171 45.47439 A 2 0.22719 360 0 1 36.68884 45.30544" />
    <path d="M 38.45779 43.09271 A 2 0.22719 360 0 1 40.68884 43.31838 L 40.68884 53.25365" />
    <path d="M 40.68884 43.31838 A 2 0.22719 360 0 1 36.68884 43.31838 L 36.68884 45.30544" />
    <path d="M 36.68884 43.31838 A 2 0.22719 360 0 1 38.45779 43.09271" />
    <path d="M 33.70893 53.29302 A 2 0.22719 180 0 0 36.22911 53.5124" />
    <path d="M 37.35171 45.47439 A 2 0.22719 360 0 1 33.70893 45.34481 L 33.70893 53.29302" />
    <path d="M 33.70893 45.34481 A 2 0.22719 360 0 1 36.68884 45.14675" />
    <path d="M 47.98031 63.80356 A 2 0.22719 180 0 0 51.31743 63.63461" />
    <path d="M 47.98031 55.85534 L 47.98031 63.80356" />
    <path d="M 47.98031 55.85534 A 2 0.22719 360 0 1 47.31743 55.68639" />
    <path d="M 49.08638 53.47366 A 2 0.22719 360 0 1 51.31743 53.69934 L 51.31743 63.63461" />
    <path d="M 51.31743 53.69934 A 2 0.22719 360 0 1 47.31743 53.69934 L 47.31743 55.68639" />
    <path d="M 47.31743 53.69934 A 2 0.22719 360 0 1 49.08638 53.47366" />
    <path d="M 44.33752 63.67398 A 2 0.22719 180 0 0 47.98031 63.80356" />
    <path d="M 47.98031 55.85534 A 2 0.22719 360 0 1 44.33752 55.72576 L 44.33752 63.67398" />
    <path d="M 44.33752 55.72576 A 2 0.22719 360 0 1 47.31743 55.52771" />
    <path d="M -23.08272 -18.27096 A 2 0.22719 180 0 0 -22.62299 -18.41588" />
    <path d="M -25.96011 -26.19514 L -25.96011 -19.17149" />
    <path d="M -25.96011 -26.19514 A 2 0.22719 360 0 1 -25.96031 -26.19517" />
    <path d="M -24.85404 -28.57683 A 2 0.22719 360 0 1 -22.62299 -28.35115 L -22.62299 -18.41588" />
    <path d="M -22.62299 -28.35115 A 2 0.22719 360 0 1 -25.96031 -28.18222" />
    <path d="M -25.96031 -28.52009 A 2 0.22719 360 0 1 -24.85404 -28.57683" />
    <path d="M -29.6029 -18.37651 A 2 0.22719 180 0 0 -28.34031 -18.16533" />
    <path d="M -25.96011 -26.19514 A 2 0.22719 360 0 1 -25.96031 -26.19511" />
    <path d="M -28.34031 -26.11354 A 2 0.22719 360 0 1 -29.6029 -26.32473 L -29.6029 -18.37651" />
    <path d="M -29.6029 -26.32473 A 2 0.22719 360 0 1 -28.34031 -26.53591" />
    <path d="M -12.45412 -7.89001 A 2 0.22719 180 0 0 -11.99439 -8.03493" />
    <path d="M -15.33152 -15.81419 L -15.33152 -8.79054" />
    <path d="M -15.33152 -15.81419 A 2 0.22719 360 0 1 -15.33172 -15.81421" />
    <path d="M -14.22545 -18.19587 A 2 0.22719 360 0 1 -11.99439 -17.9702 L -11.99439 -8.03493" />
    <path d="M -11.99439 -17.9702 A 2 0.22719 360 0 1 -15.33172 -17.80127" />
    <path d="M -15.33172 -18.13913 A 2 0.22719 360 0 1 -14.22545 -18.19587" />
    <path d="M -18.97431 -7.99556 A 2 0.22719 180 0 0 -17.71172 -7.78437" />
    <path d="M -15.33152 -15.81419 A 2 0.22719 360 0 1 -15.33172 -15.81416" />
    <path d="M -17.71172 -15.73259 A 2 0.22719 360 0 1 -18.97431 -15.94378 L -18.97431 -7.99556" />
    <path d="M -18.97431 -15.94378 A 2 0.22719 360 0 1 -17.71172 -16.15496" />
    <path d="M -1.82553 2.49094 A 2 0.22719 180 0 0 -1.3658 2.34602" />
    <path d="M -4.70293 -5.43324 L -4.70293 1.59041" />
    <path d="M -4.70293 -5.43324 A 2 0.22719 360 0 1 -4.70313 -5.43326" />
    <path d="M -3.59686 -7.81492 A 2 0.22719 360 0 1 -1.3658 -7.58925 L -1.3658 2.34602" />
    <path d="M -1.3658 -7.58925 A 2 0.22719 360 0 1 -4.70313 -7.42031" />
    <path d="M -4.70313 -7.75818 A 2 0.22719 360 0 1 -3.59686 -7.81492" />
    <path d="M -8.34571 2.38539 A 2 0.22719 180 0 0 -7.08313 2.59658" />
    <path d="M -4.70293 -5.43324 A 2 0.22719 360 0 1 -4.70313 -5.43321" />
    <path d="M -7.08313 -5.35164 A 2 0.22719 360 0 1 -8.34571 -5.56282 L -8.34571 2.38539" />
    <path d="M -8.34571 -5.56282 A 2 0.22719 360 0 1 -7.08313 -5.77401" />
    <path d="M 8.80306 12.8719 A 2 0.22719 180 0 0 9.26279 12.72697" />
    <path d="M 5.92567 4.94771 L 5.92567 11.97136" />
    <path d="M 5.92567 4.94771 A 2 0.22719 360 0 1 5.92546 4.94769" />
    <path d="M 7.03174 2.56603 A 2 0.22719 360 0 1 9.26279 2.7917 L 9.26279 12.72697" />
    <path d="M 9.26279 2.7917 A 2 0.22719 360 0 1 5.92546 2.96064" />
    <path d="M 5.92546 2.62277 A 2 0.22719 360 0 1 7.03174 2.56603" />
    <path d="M 2.28288 12.76634 A 2 0.22719 180 0 0 3.54546 12.97753" />
    <path d="M 5.92567 4.94771 A 2 0.22719 360 0 1 5.92546 4.94774" />
    <path d="M 3.54546 5.02932 A 2 0.22719 360 0 1 2.28288 4.81813 L 2.28288 12.76634" />
    <path d="M 2.28288 4.81813 A 2 0.22719 360 0 1 3.54546 4.60694" />
    <path d="M 19.43166 23.25285 A 2 0.22719 180 0 0 19.89139 23.10793" />
    <path d="M 16.55426 15.32866 L 16.55426 22.35232" />
    <path d="M 16.55426 15.32866 A 2 0.22719 360 0 1 15.89139 15.15971" />
    <path d="M 17.66033 12.94698 A 2 0.22719 360 0 1 19.89139 13.17266 L 19.89139 23.10793" />
    <path d="M 19.89139 13.17266 A 2 0.22719 360 0 1 15.89139 13.17266 L 15.89139 15.15971" />
    <path d="M 15.89139 13.17266 A 2 0.22719 360 0 1 17.66033 12.94698" />
    <path d="M 12.91147 23.1473 A 2 0.22719 180 0 0 15.43166 23.36667" />
    <path d="M 16.55426 15.32866 A 2 0.22719 360 0 1 12.91147 15.19908 L 12.91147 23.1473" />
    <path d="M 12.91147 15.19908 A 2 0.22719 360 0 1 15.89139 15.00103" />
    <path d="M 30.06025 33.6338 A 2 0.22719 180 0 0 30.51998 33.48888" />
    <path d="M 27.18285 25.70962 L 27.18285 32.73327" />
    <path d="M 27.18285 25.70962 A 2 0.22719 360 0 1 26.51998 25.54066" />
    <path d="M 28.28892 23.32794 A 2 0.22719 360 0 1 30.51998 23.55361 L 30.51998 33.48888" />
    <path d="M 30.51998 23.55361 A 2 0.22719 360 0 1 26.51998 23.55361 L 26.51998 25.54066" />
    <path d="M 26.51998 23.55361 A 2 0.22719 360 0 1 28.28892 23.32794" />
    <path d="M 23.54007 33.52825 A 2 0.22719 180 0 0 26.06025 33.74762" />
    <path d="M 27.18285 25.70962 A 2 0.22719 360 0 1 23.54007 25.58003 L 23.54007 33.52825" />
    <path d="M 23.54007 25.58003 A 2 0.22719 360 0 1 26.51998 25.38198" />
    <path d="M 40.68884 44.01475 A 2 0.22719 180 0 0 41.14857 43.86983" />
    <path d="M 37.81145 36.09057 L 37.81145 43.11422" />
    <path d="M 37.81145 36.09057 A 2 0.22719 360 0 1 37.14857 35.92161" />
    <path d="M 38.91752 33.70889 A 2 0.22719 360 0 1 41.14857 33.93456 L 41.14857 43.86983" />
    <path d="M 41.14857 33.93456 A 2 0.22719 360 0 1 37.14857 33.93456 L 37.14857 35.92161" />
    <path d="M 37.14857 33.93456 A 2 0.22719 360 0 1 38.91752 33.70889" />
    <path d="M 34.16866 43.9092 A 2 0.22719 180 0 0 36.68884 44.12858" />
    <path d="M 37.81145 36.09057 A 2 0.22719 360 0 1 34.16866 35.96099 L 34.16866 43.9092" />
    <path d="M 34.16866 35.96099 A 2 0.22719 360 0 1 37.14857 35.76293" />
    <path d="M 51.31743 54.3957 A 2 0.22719 180 0 0 51.77717 54.25078" />
    <path d="M 48.44004 46.47152 L 48.44004 53.49517" />
    <path d="M 48.44004 46.47152 A 2 0.22719 360 0 1 47.77717 46.30257" />
    <path d="M 49.54611 44.08984 A 2 0.22719 360 0 1 51.77717 44.31551 L 51.77717 54.25078" />
    <path d="M 51.77717 44.31551 A 2 0.22719 360 0 1 47.77717 44.31551 L 47.77717 46.30257" />
    <path d="M 47.77717 44.31551 A 2 0.22719 360 0 1 49.54611 44.08984" />
    <path d="M 44.79725 54.29015 A 2 0.22719 180 0 0 47.31743 54.50953" />
    <path d="M 48.44004 46.47152 A 2 0.22719 360 0 1 44.79725 46.34194 L 44.79725 54.29015" />
    <path d="M 44.79725 46.34194 A 2 0.22719 360 0 1 47.77717 46.14388" />
    <path d="M 59.06863 64.80069 A 2 0.22719 180 0 0 62.40576 64.63173" />
    <path d="M 59.06863 56.85247 L 59.06863 64.80069" />
    <path d="M 59.06863 56.85247 A 2 0.22719 360 0 1 58.40576 56.68352" />
    <path d="M 60.1747 54.47079 A 2 0.22719 360 0 1 62.40576 54.69646 L 62.40576 64.63173" />
    <path d="M 62.40576 54.69646 A 2 0.22719 360 0 1 58.40576 54.69646 L 58.40576 56.68352" />
    <path d="M 58.40576 54.69646 A 2 0.22719 360 0 1 60.1747 54.47079" />
    <path d="M 55.42585 64.6711 A 2 0.22719 180 0 0 59.06863 64.80069" />
    <path d="M 59.06863 56.85247 A 2 0.22719 360 0 1 55.42585 56.72289 L 55.42585 64.6711" />
    <path d="M 55.42585 56.72289 A 2 0.22719 360 0 1 58.40576 56.52483" />
    <path d="M -11.99439 -17.27383 A 2 0.22719 180 0 0 -11.53466 -17.41876" />
    <path d="M -14.87179 -25.19802 L -14.87179 -18.17436" />
    <path d="M -14.87179 -25.19802 A 2 0.22719 360 0 1 -15.53466 -25.36697" />
    <path d="M -13.76572 -27.5797 A 2 0.22719 360 0 1 -11.53466 -27.35402 L -11.53466 -17.41876" />
    <path d="M -11.53466 -27.35402 A 2 0.22719 360 0 1 -15.53466 -27.35402 L -15.53466 -25.36697" />
    <path d="M -15.53466 -27.35402 A 2 0.22719 360 0 1 -13.76572 -27.5797" />
    <path d="M -18.51458 -17.37938 A 2 0.22719 180 0 0 -17.71172 -17.19739" />
    <path d="M -14.87179 -25.19802 A 2 0.22719 360 0 1 -18.51458 -25.3276 L -18.51458 -17.37938" />
    <path d="M -18.51458 -25.3276 A 2 0.22719 360 0 1 -15.53466 -25.52566" />
    <path d="M -1.3658 -6.89288 A 2 0.22719 180 0 0 -0.90607 -7.0378" />
    <path d="M -4.2432 -14.81706 L -4.2432 -7.79341" />
    <path d="M -4.2432 -14.81706 A 2 0.22719 360 0 1 -4.90607 -14.98602" />
    <path d="M -3.13713 -17.19875 A 2 0.22719 360 0 1 -0.90607 -16.97307 L -0.90607 -7.0378" />
    <path d="M -0.90607 -16.97307 A 2 0.22719 360 0 1 -4.90607 -16.97307 L -4.90607 -14.98602" />
    <path d="M -4.90607 -16.97307 A 2 0.22719 360 0 1 -3.13713 -17.19875" />
    <path d="M -7.88598 -6.99843 A 2 0.22719 180 0 0 -7.08313 -6.81643" />
    <path d="M -4.2432 -14.81706 A 2 0.22719 360 0 1 -7.88598 -14.94665 L -7.88598 -6.99843" />
    <path d="M -7.88598 -14.94665 A 2 0.22719 360 0 1 -4.90607 -15.1447" />
    <path d="M 9.26279 3.48807 A 2 0.22719 180 0 0 9.72252 3.34315" />
    <path d="M 6.3854 -4.43611 L 6.3854 2.58754" />
    <path d="M 6.3854 -4.43611 A 2 0.22719 360 0 1 5.72252 -4.60507" />
    <path d="M 7.49147 -6.81779 A 2 0.22719 360 0 1 9.72252 -6.59212 L 9.72252 3.34315" />
    <path d="M 9.72252 -6.59212 A 2 0.22719 360 0 1 5.72252 -6.59212 L 5.72252 -4.60507" />
    <path d="M 5.72252 -6.59212 A 2 0.22719 360 0 1 7.49147 -6.81779" />
    <path d="M 2.74261 3.38252 A 2 0.22719 180 0 0 3.54546 3.56452" />
    <path d="M 6.3854 -4.43611 A 2 0.22719 360 0 1 2.74261 -4.5657 L 2.74261 3.38252" />
    <path d="M 2.74261 -4.5657 A 2 0.22719 360 0 1 5.72252 -4.76375" />
    <path d="M 19.89139 13.86902 A 2 0.22719 180 0 0 20.35112 13.7241" />
    <path d="M 17.01399 5.94484 L 17.01399 12.96849" />
    <path d="M 17.01399 5.94484 A 2 0.22719 360 0 1 16.35112 5.77589" />
    <path d="M 18.12006 3.56316 A 2 0.22719 360 0 1 20.35112 3.78883 L 20.35112 13.7241" />
    <path d="M 20.35112 3.78883 A 2 0.22719 360 0 1 16.35112 3.78883 L 16.35112 5.77589" />
    <path d="M 16.35112 3.78883 A 2 0.22719 360 0 1 18.12006 3.56316" />
    <path d="M 13.3712 13.76347 A 2 0.22719 180 0 0 15.89139 13.98285" />
    <path d="M 17.01399 5.94484 A 2 0.22719 360 0 1 13.3712 5.81526 L 13.3712 13.76347" />
    <path d="M 13.3712 5.81526 A 2 0.22719 360 0 1 16.35112 5.6172" />
    <path d="M 30.51998 24.24998 A 2 0.22719 180 0 0 30.97971 24.10505" />
    <path d="M 27.64258 16.32579 L 27.64258 23.34944" />
    <path d="M 27.64258 16.32579 A 2 0.22719 360 0 1 26.97971 16.15684" />
    <path d="M 28.74865 13.94411 A 2 0.22719 360 0 1 30.97971 14.16978 L 30.97971 24.10505" />
    <path d="M 30.97971 14.16978 A 2 0.22719 360 0 1 26.97971 14.16978 L 26.97971 16.15684" />
    <path d="M 26.97971 14.16978 A 2 0.22719 360 0 1 28.74865 13.94411" />
    <path d="M 23.9998 24.14442 A 2 0.22719 180 0 0 26.51998 24.3638" />
    <path d="M 27.64258 16.32579 A 2 0.22719 360 0 1 23.9998 16.19621 L 23.9998 24.14442" />
    <path d="M 23.9998 16.19621 A 2 0.22719 360 0 1 26.97971 15.99815" />
    <path d="M 41.14857 34.63093 A 2 0.22719 180 0 0 41.6083 34.486" />
    <path d="M 38.27118 26.70674 L 38.27118 33.7304" />
    <path d="M 38.27118 26.70674 A 2 0.22719 360 0 1 37.6083 26.53779" />
    <path d="M 39.37725 24.32506 A 2 0.22719 360 0 1 41.6083 24.55074 L 41.6083 34.486" />
    <path d="M 41.6083 24.55074 A 2 0.22719 360 0 1 37.6083 24.55074 L 37.6083 26.53779" />
    <path d="M 37.6083 24.55074 A 2 0.22719 360 0 1 39.37725 24.32506" />
    <path d="M 34.62839 34.52538 A 2 0.22719 180 0 0 37.14857 34.74475" />
    <path d="M 38.27118 26.70674 A 2 0.22719 360 0 1 34.62839 26.57716 L 34.62839 34.52538" />
    <path d="M 34.62839 26.57716 A 2 0.22719 360 0 1 37.6083 26.3791" />
    <path d="M 51.77717 45.01188 A 2 0.22719 180 0 0 52.2369 44.86696" />
    <path d="M 48.89977 37.0877 L 48.89977 44.11135" />
    <path d="M 48.89977 37.0877 A 2 0.22719 360 0 1 48.2369 36.91874" />
    <path d="M 50.00584 34.70602 A 2 0.22719 360 0 1 52.2369 34.93169 L 52.2369 44.86696" />
    <path d="M 52.2369 34.93169 A 2 0.22719 360 0 1 48.2369 34.93169 L 48.2369 36.91874" />
    <path d="M 48.2369 34.93169 A 2 0.22719 360 0 1 50.00584 34.70602" />
    <path d="M 45.25698 44.90633 A 2 0.22719 180 0 0 47.77717 45.1257" />
    <path d="M 48.89977 37.0877 A 2 0.22719 360 0 1 45.25698 36.95811 L 45.25698 44.90633" />
    <path d="M 45.25698 36.95811 A 2 0.22719 360 0 1 48.2369 36.76006" />
    <path d="M 62.40576 55.39283 A 2 0.22719 180 0 0 62.86549 55.24791" />
    <path d="M 59.52836 47.46865 L 59.52836 54.4923" />
    <path d="M 59.52836 47.46865 A 2 0.22719 360 0 1 58.86549 47.29969" />
    <path d="M 60.63443 45.08697 A 2 0.22719 360 0 1 62.86549 45.31264 L 62.86549 55.24791" />
    <path d="M 62.86549 45.31264 A 2 0.22719 360 0 1 58.86549 45.31264 L 58.86549 47.29969" />
    <path d="M 58.86549 45.31264 A 2 0.22719 360 0 1 60.63443 45.08697" />
    <path d="M 55.88558 55.28728 A 2 0.22719 180 0 0 58.40576 55.50666" />
    <path d="M 59.52836 47.46865 A 2 0.22719 360 0 1 55.88558 47.33906 L 55.88558 55.28728" />
    <path d="M 55.88558 47.33906 A 2 0.22719 360 0 1 58.86549 47.14101" />
    <path d="M 70.15696 65.79782 A 2 0.22719 180 0 0 73.49408 65.62886" />
    <path d="M 70.15696 57.8496 L 70.15696 65.79782" />
    <path d="M 70.15696 57.8496 A 2 0.22719 360 0 1 69.49408 57.68065" />
    <path d="M 71.26303 55.46792 A 2 0.22719 360 0 1 73.49408 55.69359 L 73.49408 65.62886" />
    <path d="M 73.49408 55.69359 A 2 0.22719 360 0 1 69.49408 55.69359 L 69.49408 57.68065" />
    <path d="M 69.49408 55.69359 A 2 0.22719 360 0 1 71.26303 55.46792" />
    <path d="M 66.51417 65.66823 A 2 0.22719 180 0 0 70.15696 65.79782" />
    <path d="M 70.15696 57.8496 A 2 0.22719 360 0 1 66.51417 57.72002 L 66.51417 65.66823" />
    <path d="M 66.51417 57.72002 A 2 0.22719 360 0 1 69.49408 57.52196" />
    <path d="M -0.90607 -16.2767 A 2 0.22719 180 0 0 -0.44634 -16.42163" />
    <path d="M -3.78347 -24.20089 L -3.78347 -17.17724" />
    <path d="M -3.78347 -24.20089 A 2 0.22719 360 0 1 -4.44634 -24.36984" />
    <path d="M -2.6774 -26.58257 A 2 0.22719 360 0 1 -0.44634 -26.3569 L -0.44634 -16.42163" />
    <path d="M -0.44634 -26.3569 A 2 0.22719 360 0 1 -4.44634 -26.3569 L -4.44634 -24.36984" />
    <path d="M -4.44634 -26.3569 A 2 0.22719 360 0 1 -2.6774 -26.58257" />
    <path d="M -7.42625 -16.38226 A 2 0.22719 180 0 0 -4.90607 -16.16288" />
    <path d="M -3.78347 -24.20089 A 2 0.22719 360 0 1 -7.42625 -24.33047 L -7.42625 -16.38226" />
    <path d="M -7.42625 -24.33047 A 2 0.22719 360 0 1 -4.44634 -24.52853" />
    <path d="M 9.72252 -5.89575 A 2 0.22719 180 0 0 10.18225 -6.04068" />
    <path d="M 6.84513 -13.81994 L 6.84513 -6.79628" />
    <path d="M 6.84513 -13.81994 A 2 0.22719 360 0 1 6.18225 -13.98889" />
    <path d="M 7.9512 -16.20162 A 2 0.22719 360 0 1 10.18225 -15.97594 L 10.18225 -6.04068" />
    <path d="M 10.18225 -15.97594 A 2 0.22719 360 0 1 6.18225 -15.97594 L 6.18225 -13.98889" />
    <path d="M 6.18225 -15.97594 A 2 0.22719 360 0 1 7.9512 -16.20162" />
    <path d="M 3.20234 -6.0013 A 2 0.22719 180 0 0 5.72252 -5.78193" />
    <path d="M 6.84513 -13.81994 A 2 0.22719 360 0 1 3.20234 -13.94952 L 3.20234 -6.0013" />
    <path d="M 3.20234 -13.94952 A 2 0.22719 360 0 1 6.18225 -14.14758" />
    <path d="M 20.35112 4.4852 A 2 0.22719 180 0 0 20.81085 4.34028" />
    <path d="M 17.47372 -3.43898 L 17.47372 3.58467" />
    <path d="M 17.47372 -3.43898 A 2 0.22719 360 0 1 16.81085 -3.60794" />
    <path d="M 18.57979 -5.82067 A 2 0.22719 360 0 1 20.81085 -5.59499 L 20.81085 4.34028" />
    <path d="M 20.81085 -5.59499 A 2 0.22719 360 0 1 16.81085 -5.59499 L 16.81085 -3.60794" />
    <path d="M 16.81085 -5.59499 A 2 0.22719 360 0 1 18.57979 -5.82067" />
    <path d="M 13.83093 4.37965 A 2 0.22719 180 0 0 16.35112 4.59902" />
    <path d="M 17.47372 -3.43898 A 2 0.22719 360 0 1 13.83093 -3.56857 L 13.83093 4.37965" />
    <path d="M 13.83093 -3.56857 A 2 0.22719 360 0 1 16.81085 -3.76662" />
    <path d="M 30.97971 14.86615 A 2 0.22719 180 0 0 31.43944 14.72123" />
    <path d="M 28.10231 6.94197 L 28.10231 13.96562" />
    <path d="M 28.10231 6.94197 A 2 0.22719 360 0 1 27.43944 6.77301" />
    <path d="M 29.20838 4.56029 A 2 0.22719 360 0 1 31.43944 4.78596 L 31.43944 14.72123" />
    <path d="M 31.43944 4.78596 A 2 0.22719 360 0 1 27.43944 4.78596 L 27.43944 6.77301" />
    <path d="M 27.43944 4.78596 A 2 0.22719 360 0 1 29.20838 4.56029" />
    <path d="M 24.45953 14.7606 A 2 0.22719 180 0 0 26.97971 14.97997" />
    <path d="M 28.10231 6.94197 A 2 0.22719 360 0 1 24.45953 6.81238 L 24.45953 14.7606" />
    <path d="M 24.45953 6.81238 A 2 0.22719 360 0 1 27.43944 6.61433" />
    <path d="M 41.6083 25.2471 A 2 0.22719 180 0 0 42.06803 25.10218" />
    <path d="M 38.73091 17.32292 L 38.73091 24.34657" />
    <path d="M 38.73091 17.32292 A 2 0.22719 360 0 1 38.06803 17.15397" />
    <path d="M 39.83698 14.94124 A 2 0.22719 360 0 1 42.06803 15.16691 L 42.06803 25.10218" />
    <path d="M 42.06803 15.16691 A 2 0.22719 360 0 1 38.06803 15.16691 L 38.06803 17.15397" />
    <path d="M 38.06803 15.16691 A 2 0.22719 360 0 1 39.83698 14.94124" />
    <path d="M 35.08812 25.14155 A 2 0.22719 180 0 0 37.6083 25.36093" />
    <path d="M 38.73091 17.32292 A 2 0.22719 360 0 1 35.08812 17.19334 L 35.08812 25.14155" />
    <path d="M 35.08812 17.19334 A 2 0.22719 360 0 1 38.06803 16.99528" />
    <path d="M 52.2369 35.62806 A 2 0.22719 180 0 0 52.69663 35.48313" />
    <path d="M 49.3595 27.70387 L 49.3595 34.72752" />
    <path d="M 49.3595 27.70387 A 2 0.22719 360 0 1 48.69663 27.53492" />
    <path d="M 50.46557 25.32219 A 2 0.22719 360 0 1 52.69663 25.54786 L 52.69663 35.48313" />
    <path d="M 52.69663 25.54786 A 2 0.22719 360 0 1 48.69663 25.54786 L 48.69663 27.53492" />
    <path d="M 48.69663 25.54786 A 2 0.22719 360 0 1 50.46557 25.32219" />
    <path d="M 45.71671 35.5225 A 2 0.22719 180 0 0 48.2369 35.74188" />
    <path d="M 49.3595 27.70387 A 2 0.22719 360 0 1 45.71671 27.57429 L 45.71671 35.5225" />
    <path d="M 45.71671 27.57429 A 2 0.22719 360 0 1 48.69663 27.37623" />
    <path d="M 62.86549 46.00901 A 2 0.22719 180 0 0 63.32522 45.86408" />
    <path d="M 59.98809 38.08482 L 59.98809 45.10848" />
    <path d="M 59.98809 38.08482 A 2 0.22719 360 0 1 59.32522 37.91587" />
    <path d="M 61.09416 35.70314 A 2 0.22719 360 0 1 63.32522 35.92882 L 63.32522 45.86408" />
    <path d="M 63.32522 35.92882 A 2 0.22719 360 0 1 59.32522 35.92882 L 59.32522 37.91587" />
    <path d="M 59.32522 35.92882 A 2 0.22719 360 0 1 61.09416 35.70314" />
    <path d="M 56.34531 45.90346 A 2 0.22719 180 0 0 58.86549 46.12283" />
    <path d="M 59.98809 38.08482 A 2 0.22719 360 0 1 56.34531 37.95524 L 56.34531 45.90346" />
    <path d="M 56.34531 37.95524 A 2 0.22719 360 0 1 59.32522 37.75718" />
    <path d="M 73.49408 56.38996 A 2 0.22719 180 0 0 73.95381 56.24504" />
    <path d="M 70.61669 48.46578 L 70.61669 55.48943" />
    <path d="M 70.61669 48.46578 A 2 0.22719 360 0 1 69.95381 48.29682" />
    <path d="M 71.72276 46.0841 A 2 0.22719 360 0 1 73.95381 46.30977 L 73.95381 56.24504" />
    <path d="M 73.95381 46.30977 A 2 0.22719 360 0 1 69.95381 46.30977 L 69.95381 48.29682" />
    <path d="M 69.95381 46.30977 A 2 0.22719 360 0 1 71.72276 46.0841" />
    <path d="M 66.9739 56.28441 A 2 0.22719 180 0 0 69.49408 56.50378" />
    <path d="M 70.61669 48.46578 A 2 0.22719 360 0 1 66.9739 48.33619 L 66.9739 56.28441" />
    <path d="M 66.9739 48.33619 A 2 0.22719 360 0 1 69.95381 48.13814" />
    <path d="M 81.24528 66.79494 A 2 0.22719 180 0 0 84.58241 66.62599" />
    <path d="M 81.24528 58.84673 L 81.24528 66.79494" />
    <path d="M 81.24528 58.84673 A 2 0.22719 360 0 1 80.58241 58.67777" />
    <path d="M 82.35135 56.46505 A 2 0.22719 360 0 1 84.58241 56.69072 L 84.58241 66.62599" />
    <path d="M 84.58241 56.69072 A 2 0.22719 360 0 1 80.58241 56.69072 L 80.58241 58.67777" />
    <path d="M 80.58241 56.69072 A 2 0.22719 360 0 1 82.35135 56.46505" />
    <path d="M 77.60249 66.66536 A 2 0.22719 180 0 0 81.24528 66.79494" />
    <path d="M 81.24528 58.84673 A 2 0.22719 360 0 1 77.60249 58.71714 L 77.60249 66.66536" />
    <path d="M 77.60249 58.71714 A 2 0.22719 360 0 1 80.58241 58.51909" />
    <path d="M 10.18225 -15.27958 A 2 0.22719 180 0 0 10.64198 -15.4245" />
    <path d="M 7.30486 -23.20376 L 7.30486 -16.18011" />
    <path d="M 7.30486 -23.20376 A 2 0.22719 360 0 1 6.64198 -23.37272" />
    <path d="M 8.41093 -25.58544 A 2 0.22719 360 0 1 10.64198 -25.35977 L 10.64198 -15.4245" />
    <path d="M 10.64198 -25.35977 A 2 0.22719 360 0 1 6.64198 -25.35977 L 6.64198 -23.37272" />
    <path d="M 6.64198 -25.35977 A 2 0.22719 360 0 1 8.41093 -25.58544" />
    <path d="M 3.66207 -15.38513 A 2 0.22719 180 0 0 6.18225 -15.16575" />
    <path d="M 7.30486 -23.20376 A 2 0.22719 360 0 1 3.66207 -23.33334 L 3.66207 -15.38513" />
    <path d="M 3.66207 -23.33334 A 2 0.22719 360 0 1 6.64198 -23.5314" />
    <path d="M 20.81085 -4.89863 A 2 0.22719 180 0 0 21.27058 -5.04355" />
    <path d="M 17.93345 -12.82281 L 17.93345 -5.79916" />
    <path d="M 17.93345 -12.82281 A 2 0.22719 360 0 1 17.27058 -12.99176" />
    <path d="M 19.03952 -15.20449 A 2 0.22719 360 0 1 21.27058 -14.97882 L 21.27058 -5.04355" />
    <path d="M 21.27058 -14.97882 A 2 0.22719 360 0 1 17.27058 -14.97882 L 17.27058 -12.99176" />
    <path d="M 17.27058 -14.97882 A 2 0.22719 360 0 1 19.03952 -15.20449" />
    <path d="M 14.29067 -5.00418 A 2 0.22719 180 0 0 16.81085 -4.7848" />
    <path d="M 17.93345 -12.82281 A 2 0.22719 360 0 1 14.29067 -12.95239 L 14.29067 -5.00418" />
    <path d="M 14.29067 -12.95239 A 2 0.22719 360 0 1 17.27058 -13.15045" />
    <path d="M 31.43944 5.48233 A 2 0.22719 180 0 0 31.89917 5.3374" />
    <path d="M 28.56204 -2.44186 L 28.56204 4.58179" />
    <path d="M 28.56204 -2.44186 A 2 0.22719 360 0 1 27.89917 -2.61081" />
    <path d="M 29.66811 -4.82354 A 2 0.22719 360 0 1 31.89917 -4.59786 L 31.89917 5.3374" />
    <path d="M 31.89917 -4.59786 A 2 0.22719 360 0 1 27.89917 -4.59786 L 27.89917 -2.61081" />
    <path d="M 27.89917 -4.59786 A 2 0.22719 360 0 1 29.66811 -4.82354" />
    <path d="M 24.91926 5.37678 A 2 0.22719 180 0 0 27.43944 5.59615" />
    <path d="M 28.56204 -2.44186 A 2 0.22719 360 0 1 24.91926 -2.57144 L 24.91926 5.37678" />
    <path d="M 24.91926 -2.57144 A 2 0.22719 360 0 1 27.89917 -2.7695" />
    <path d="M 42.06803 15.86328 A 2 0.22719 180 0 0 42.52776 15.71836" />
    <path d="M 39.19064 7.9391 L 39.19064 14.96275" />
    <path d="M 39.19064 7.9391 A 2 0.22719 360 0 1 38.52776 7.77014" />
    <path d="M 40.29671 5.55741 A 2 0.22719 360 0 1 42.52776 5.78309 L 42.52776 15.71836" />
    <path d="M 42.52776 5.78309 A 2 0.22719 360 0 1 38.52776 5.78309 L 38.52776 7.77014" />
    <path d="M 38.52776 5.78309 A 2 0.22719 360 0 1 40.29671 5.55741" />
    <path d="M 35.54785 15.75773 A 2 0.22719 180 0 0 38.06803 15.9771" />
    <path d="M 39.19064 7.9391 A 2 0.22719 360 0 1 35.54785 7.80951 L 35.54785 15.75773" />
    <path d="M 35.54785 7.80951 A 2 0.22719 360 0 1 38.52776 7.61146" />
    <path d="M 52.69663 26.24423 A 2 0.22719 180 0 0 53.15636 26.09931" />
    <path d="M 49.81923 18.32005 L 49.81923 25.3437" />
    <path d="M 49.81923 18.32005 A 2 0.22719 360 0 1 49.15636 18.15109" />
    <path d="M 50.9253 15.93837 A 2 0.22719 360 0 1 53.15636 16.16404 L 53.15636 26.09931" />
    <path d="M 53.15636 16.16404 A 2 0.22719 360 0 1 49.15636 16.16404 L 49.15636 18.15109" />
    <path d="M 49.15636 16.16404 A 2 0.22719 360 0 1 50.9253 15.93837" />
    <path d="M 46.17644 26.13868 A 2 0.22719 180 0 0 48.69663 26.35805" />
    <path d="M 49.81923 18.32005 A 2 0.22719 360 0 1 46.17644 18.19046 L 46.17644 26.13868" />
    <path d="M 46.17644 18.19046 A 2 0.22719 360 0 1 49.15636 17.99241" />
    <path d="M 63.32522 36.62518 A 2 0.22719 180 0 0 63.78495 36.48026" />
    <path d="M 60.44782 28.701 L 60.44782 35.72465" />
    <path d="M 60.44782 28.701 A 2 0.22719 360 0 1 59.78495 28.53205" />
    <path d="M 61.55389 26.31932 A 2 0.22719 360 0 1 63.78495 26.54499 L 63.78495 36.48026" />
    <path d="M 63.78495 26.54499 A 2 0.22719 360 0 1 59.78495 26.54499 L 59.78495 28.53205" />
    <path d="M 59.78495 26.54499 A 2 0.22719 360 0 1 61.55389 26.31932" />
    <path d="M 56.80504 36.51963 A 2 0.22719 180 0 0 59.32522 36.73901" />
    <path d="M 60.44782 28.701 A 2 0.22719 360 0 1 56.80504 28.57142 L 56.80504 36.51963" />
    <path d="M 56.80504 28.57142 A 2 0.22719 360 0 1 59.78495 28.37336" />
    <path d="M 73.95381 47.00614 A 2 0.22719 180 0 0 74.41354 46.86121" />
    <path d="M 71.07642 39.08195 L 71.07642 46.1056" />
    <path d="M 71.07642 39.08195 A 2 0.22719 360 0 1 70.41354 38.913" />
    <path d="M 72.18249 36.70027 A 2 0.22719 360 0 1 74.41354 36.92594 L 74.41354 46.86121" />
    <path d="M 74.41354 36.92594 A 2 0.22719 360 0 1 70.41354 36.92594 L 70.41354 38.913" />
    <path d="M 70.41354 36.92594 A 2 0.22719 360 0 1 72.18249 36.70027" />
    <path d="M 67.43363 46.90058 A 2 0.22719 180 0 0 69.95381 47.11996" />
    <path d="M 71.07642 39.08195 A 2 0.22719 360 0 1 67.43363 38.95237 L 67.43363 46.90058" />
    <path d="M 67.43363 38.95237 A 2 0.22719 360 0 1 70.41354 38.75431" />
    <path d="M 84.58241 57.38709 A 2 0.22719 180 0 0 85.04214 57.24216" />
    <path d="M 81.70501 49.4629 L 81.70501 56.48656" />
    <path d="M 81.70501 49.4629 A 2 0.22719 360 0 1 81.04214 49.29395" />
    <path d="M 82.81108 47.08122 A 2 0.22719 360 0 1 85.04214 47.3069 L 85.04214 57.24216" />
    <path d="M 85.04214 47.3069 A 2 0.22719 360 0 1 81.04214 47.3069 L 81.04214 49.29395" />
    <path d="M 81.04214 47.3069 A 2 0.22719 360 0 1 82.81108 47.08122" />
    <path d="M 78.06222 57.28154 A 2 0.22719 180 0 0 80.58241 57.50091" />
    <path d="M 81.70501 49.4629 A 2 0.22719 360 0 1 78.06222 49.33332 L 78.06222 57.28154" />
    <path d="M 78.06222 49.33332 A 2 0.22719 360 0 1 81.04214 49.13526" />
    <path d="M 92.3336 67.79207 A 2 0.22719 180 0 0 95.67073 67.62312" />
    <path d="M 92.3336 59.84386 L 92.3336 67.79207" />
    <path d="M 92.3336 59.84386 A 2 0.22719 360 0 1 91.67073 59.6749" />
    <path d="M 93.43967 57.46217 A 2 0.22719 360 0 1 95.67073 57.68785 L 95.67073 67.62312" />
    <path d="M 95.67073 57.68785 A 2 0.22719 360 0 1 91.67073 57.68785 L 91.67073 59.6749" />
    <path d="M 91.67073 57.68785 A 2 0.22719 360 0 1 93.43967 57.46217" />
    <path d="M 88.69082 67.66249 A 2 0.22719 180 0 0 92.3336 67.79207" />
    <path d="M 92.3336 59.84386 A 2 0.22719 360 0 1 88.69082 59.71427 L 88.69082 67.66249" />
    <path d="M 88.69082 59.71427 A 2 0.22719 360 0 1 91.67073 59.51622" />
    <path d="M -93.88452 -75.77758 L -93.88452 -72.30023 L 2.23493 21.57968 L 3.72489 21.56 L 3.72489 18.08265 L -92.39456 -75.79726 L -93.88452 -75.77758 Z" />
    <path d="M 2.23493 18.10234 L -93.88452 -75.77758" />
    <path d="M 2.23493 18.10234 L 2.23493 21.57968" />
    <path d="M 3.72489 18.08265 L 2.23493 18.10234" />
    <path d="M -93.88452 -45.97177 L -93.88452 -42.49443 L 2.23493 51.38549 L 3.72489 51.3658 L 3.72489 47.88846 L -92.39456 -45.99146 L -93.88452 -45.97177 Z" />
    <path d="M 2.23493 47.90814 L -93.88452 -45.97177" />
    <path d="M 2.23493 47.90814 L 2.23493 51.38549" />
    <path d="M 3.72489 47.88846 L 2.23493 47.90814" />
    <path d="M 3.54546 -0.29129 L 3.54546 17.90741" />
    <path d="M 3.54546 21.56237 L 3.54546 47.71321" />
    <path d="M 3.54546 51.36817 L 3.54546 95.08729" />
    <path d="M 5.92546 -0.29129 L 5.92546 95.08729" />
    <path d="M -93.15293 -34.33392 L -93.15293 -32.34687" />
    <path d="M -89.15293 -34.33392 L -89.15293 -24.39865" />
    <path d="M -92.11187 -93.71986 L -92.11187 -75.52116" />
    <path d="M -92.11187 -70.56889 L -92.11187 -45.71536" />
    <path d="M -92.11187 -40.76308 L -92.11187 1.65872" />
    <path d="M -89.73187 -93.71986 L -89.73187 -73.19662" />
    <path d="M -89.73187 -68.24434 L -89.73187 -43.39081" />
    <path d="M -89.73187 -38.43854 L -89.73187 1.65872" />
    <path d="M -96.13284 -32.30749 L -96.13284 -24.35928" />
    <path d="M -82.52434 -23.95297 L -82.52434 -21.96591" />
    <path d="M -78.52434 -23.95297 L -78.52434 -14.0177" />
    <path d="M -81.48328 -83.33891 L -81.48328 -65.14021" />
    <path d="M -81.48328 -60.18794 L -81.48328 -35.3344" />
    <path d="M -81.48328 -30.38213 L -81.48328 12.03967" />
    <path d="M -79.10328 -83.33891 L -79.10328 -62.81566" />
    <path d="M -79.10328 -57.86339 L -79.10328 -33.00986" />
    <path d="M -79.10328 -28.05759 L -79.10328 12.03967" />
    <path d="M -85.50425 -21.92654 L -85.50425 -13.97833" />
    <path d="M -71.89574 -13.57201 L -71.89574 -11.58496" />
    <path d="M -67.89574 -13.57201 L -67.89574 -3.63675" />
    <path d="M -70.85469 -72.95796 L -70.85469 -54.75926" />
    <path d="M -70.85469 -49.80699 L -70.85469 -24.95345" />
    <path d="M -70.85469 -20.00118 L -70.85469 22.42063" />
    <path d="M -68.47469 -72.95796 L -68.47469 -52.43471" />
    <path d="M -68.47469 -47.48244 L -68.47469 -22.6289" />
    <path d="M -68.47469 -17.67663 L -68.47469 22.42063" />
    <path d="M -74.87566 -11.54559 L -74.87566 -3.59737" />
    <path d="M -61.26715 -3.19106 L -61.26715 -1.20401" />
    <path d="M -57.26715 -3.19106 L -57.26715 6.74421" />
    <path d="M -60.22609 -62.577 L -60.22609 -44.37831" />
    <path d="M -60.22609 -39.42604 L -60.22609 -14.5725" />
    <path d="M -60.22609 -9.62023 L -60.22609 32.80158" />
    <path d="M -57.84609 -62.577 L -57.84609 -42.05376" />
    <path d="M -57.84609 -37.10149 L -57.84609 -12.24795" />
    <path d="M -57.84609 -7.29568 L -57.84609 32.80158" />
    <path d="M -64.24706 -1.16464 L -64.24706 6.78358" />
    <path d="M -50.63856 7.18989 L -50.63856 9.17694" />
    <path d="M -46.63856 7.18989 L -46.63856 17.12516" />
    <path d="M -49.5975 -52.19605 L -49.5975 -33.99735" />
    <path d="M -49.5975 -29.04508 L -49.5975 -4.19155" />
    <path d="M -49.5975 0.76072 L -49.5975 43.18253" />
    <path d="M -47.2175 -52.19605 L -47.2175 -31.67281" />
    <path d="M -47.2175 -26.72054 L -47.2175 -1.867" />
    <path d="M -47.2175 3.08527 L -47.2175 43.18253" />
    <path d="M -53.61847 9.21631 L -53.61847 17.16453" />
    <path d="M -40.00996 17.57084 L -40.00996 19.5579" />
    <path d="M -36.00996 17.57084 L -36.00996 27.50611" />
    <path d="M -38.96891 -41.8151 L -38.96891 -23.6164" />
    <path d="M -38.96891 -18.66413 L -38.96891 6.18941" />
    <path d="M -38.96891 11.14168 L -38.96891 53.56348" />
    <path d="M -36.58891 -41.8151 L -36.58891 -21.29185" />
    <path d="M -36.58891 -16.33958 L -36.58891 8.51395" />
    <path d="M -36.58891 13.46622 L -36.58891 53.56348" />
    <path d="M -42.98988 19.59727 L -42.98988 27.54548" />
    <path d="M -29.38137 27.95179 L -29.38137 29.93885" />
    <path d="M -25.38137 27.95179 L -25.38137 37.88706" />
    <path d="M -28.34031 -31.43415 L -28.34031 -13.23545" />
    <path d="M -28.34031 -8.28318 L -28.34031 16.57036" />
    <path d="M -28.34031 21.52263 L -28.34031 63.94444" />
    <path d="M -25.96031 -31.43415 L -25.96031 -10.9109" />
    <path d="M -25.96031 -5.95863 L -25.96031 18.8949" />
    <path d="M -25.96031 23.84718 L -25.96031 63.94444" />
    <path d="M -32.36128 29.97822 L -32.36128 37.92643" />
    <path d="M -18.75278 38.33275 L -18.75278 40.3198" />
    <path d="M -14.75278 38.33275 L -14.75278 48.26802" />
    <path d="M -17.71172 -21.0532 L -17.71172 -2.8545" />
    <path d="M -17.71172 2.09777 L -17.71172 26.95131" />
    <path d="M -17.71172 31.90358 L -17.71172 74.32539" />
    <path d="M -15.33172 -21.0532 L -15.33172 -0.52995" />
    <path d="M -15.33172 4.42232 L -15.33172 29.27586" />
    <path d="M -15.33172 34.22813 L -15.33172 74.32539" />
    <path d="M -21.73269 40.35917 L -21.73269 48.30739" />
    <path d="M -8.12418 48.7137 L -8.12418 50.70075" />
    <path d="M -4.12418 48.7137 L -4.12418 58.64897" />
    <path d="M -7.08313 -10.67224 L -7.08313 7.52645" />
    <path d="M -7.08313 12.47873 L -7.08313 37.33226" />
    <path d="M -7.08313 42.28453 L -7.08313 84.70634" />
    <path d="M -4.70313 -10.67224 L -4.70313 9.851" />
    <path d="M -4.70313 14.80327 L -4.70313 39.65681" />
    <path d="M -4.70313 44.60908 L -4.70313 84.70634" />
    <path d="M -11.1041 50.74012 L -11.1041 58.68834" />
    <path d="M -78.06461 -33.33679 L -78.06461 -31.99538" />
    <path d="M -78.06461 -27.04311 L -78.06461 -23.40152" />
    <path d="M -85.04452 -31.31037 L -85.04452 -23.36215" />
    <path d="M -67.43601 -22.95584 L -67.43601 -21.61443" />
    <path d="M -67.43601 -16.66216 L -67.43601 -13.02057" />
    <path d="M -74.41593 -20.92941 L -74.41593 -12.9812" />
    <path d="M -56.80742 -12.57489 L -56.80742 -11.23348" />
    <path d="M -56.80742 -6.28121 L -56.80742 -2.63962" />
    <path d="M -63.78733 -10.54846 L -63.78733 -2.60025" />
    <path d="M -46.17883 -2.19393 L -46.17883 -0.85253" />
    <path d="M -46.17883 4.09974 L -46.17883 7.74133" />
    <path d="M -53.15874 -0.16751 L -53.15874 7.78071" />
    <path d="M -35.55023 8.18702 L -35.55023 9.52843" />
    <path d="M -35.55023 14.4807 L -35.55023 18.12229" />
    <path d="M -42.53015 10.21344 L -42.53015 18.16166" />
    <path d="M -24.92164 18.56797 L -24.92164 19.90938" />
    <path d="M -24.92164 24.86165 L -24.92164 28.50324" />
    <path d="M -31.90155 20.59439 L -31.90155 28.54261" />
    <path d="M -14.29305 28.94892 L -14.29305 30.29033" />
    <path d="M -14.29305 35.2426 L -14.29305 38.88419" />
    <path d="M -21.27296 30.97535 L -21.27296 38.92356" />
    <path d="M -3.66445 39.32987 L -3.66445 40.67128" />
    <path d="M -3.66445 45.62355 L -3.66445 49.26514" />
    <path d="M -10.64437 41.3563 L -10.64437 49.30451" />
    <path d="M 2.96414 51.37585 L 2.96414 51.69788" />
    <path d="M 6.96414 49.71083 L 6.96414 59.64609" />
    <path d="M -0.01577 51.73725 L -0.01577 59.68547" />
    <path d="M -70.97628 -32.33966 L -70.97628 -30.35261" />
    <path d="M -66.97628 -32.33966 L -66.97628 -22.40439" />
    <path d="M -73.9562 -30.31324 L -73.9562 -27.98269" />
    <path d="M -73.9562 -23.03042 L -73.9562 -22.36502" />
    <path d="M -60.34769 -21.95871 L -60.34769 -19.97166" />
    <path d="M -56.34769 -21.95871 L -56.34769 -12.02344" />
    <path d="M -63.3276 -19.93229 L -63.3276 -17.60174" />
    <path d="M -63.3276 -12.64947 L -63.3276 -11.98407" />
    <path d="M -49.7191 -11.57776 L -49.7191 -9.59071" />
    <path d="M -45.7191 -11.57776 L -45.7191 -1.64249" />
    <path d="M -52.69901 -9.55133 L -52.69901 -7.22079" />
    <path d="M -52.69901 -2.26852 L -52.69901 -1.60312" />
    <path d="M -39.0905 -1.19681 L -39.0905 0.79025" />
    <path d="M -35.0905 -1.19681 L -35.0905 8.73846" />
    <path d="M -42.07042 0.82962 L -42.07042 3.16016" />
    <path d="M -42.07042 8.11243 L -42.07042 8.77783" />
    <path d="M -28.46191 9.18415 L -28.46191 11.1712" />
    <path d="M -24.46191 9.18415 L -24.46191 19.11941" />
    <path d="M -31.44182 11.21057 L -31.44182 13.54111" />
    <path d="M -31.44182 18.49338 L -31.44182 19.15879" />
    <path d="M -17.83332 19.5651 L -17.83332 21.55215" />
    <path d="M -13.83332 19.5651 L -13.83332 29.50037" />
    <path d="M -20.81323 21.59152 L -20.81323 23.92207" />
    <path d="M -20.81323 28.87434 L -20.81323 29.53974" />
    <path d="M -7.20472 29.94605 L -7.20472 31.9331" />
    <path d="M -3.20472 29.94605 L -3.20472 39.88132" />
    <path d="M -10.18464 31.97247 L -10.18464 34.30302" />
    <path d="M -10.18464 39.25529 L -10.18464 39.92069" />
    <path d="M 3.42387 40.327 L 3.42387 42.31406" />
    <path d="M 7.42387 40.327 L 7.42387 50.26227" />
    <path d="M 0.44396 42.35343 L 0.44396 44.68397" />
    <path d="M 0.44396 49.63624 L 0.44396 50.30164" />
    <path d="M 14.05246 50.70795 L 14.05246 52.69501" />
    <path d="M 18.05246 50.70795 L 18.05246 60.64322" />
    <path d="M 11.07255 52.73438 L 11.07255 60.68259" />
    <path d="M -55.88796 -31.34254 L -55.88796 -21.40727" />
    <path d="M -62.86787 -29.31611 L -62.86787 -21.3679" />
    <path d="M -45.25937 -20.96158 L -45.25937 -11.02631" />
    <path d="M -52.23928 -18.93516 L -52.23928 -10.98694" />
    <path d="M -34.63077 -10.58063 L -34.63077 -0.64536" />
    <path d="M -41.61068 -8.55421 L -41.61068 -0.60599" />
    <path d="M -24.00218 -0.19968 L -24.00218 9.73559" />
    <path d="M -30.98209 1.82675 L -30.98209 9.77496" />
    <path d="M -13.37359 10.18127 L -13.37359 20.11654" />
    <path d="M -20.3535 12.2077 L -20.3535 20.15591" />
    <path d="M -2.74499 20.56222 L -2.74499 30.49749" />
    <path d="M -9.72491 22.58865 L -9.72491 30.53687" />
    <path d="M 7.8836 30.94318 L 7.8836 40.87845" />
    <path d="M 0.90369 32.9696 L 0.90369 40.91782" />
    <path d="M 18.51219 41.32413 L 18.51219 51.2594" />
    <path d="M -44.79963 -24.359 L -44.79963 -20.41014" />
    <path d="M -34.17104 -13.97805 L -34.17104 -10.02919" />
    <path d="M -23.54245 -3.5971 L -23.54245 0.35177" />
    <path d="M -12.91386 6.78385 L -12.91386 10.73272" />
    <path d="M -2.28526 17.1648 L -2.28526 21.11367" />
    <path d="M -40.69122 -20.34632 L -40.69122 -19.37364" />
    <path d="M -30.06263 -9.96537 L -30.06263 -8.99269" />
    <path d="M -19.43404 0.41559 L -19.43404 1.38826" />
    <path d="M -8.80544 10.79654 L -8.80544 11.76922" />
    <path d="M 1.82315 21.17749 L 1.82315 22.15017" />
</svg>