<svg version="1.1" xmlns="http://www.w3.org/2000/svg" viewBox="-3.326467787008524 -76.48632678529353 6.266104381366866 153.9530698443789" fill="none" stroke="black" stroke-width="0.6%" vector-effect="non-scaling-stroke">
    <path d="M -1.86842 -0.42676 L -1.86842 0.94231 A 1.19 0.74122 360 0 1 -2.32647 0.35788" />
    <path d="M -1.88633 0.93343 L -1.88633 1.736 L 0.43992 76.46674 L 1.93964 76.44863 L 1.93964 73.7105 L 0.43992 73.72861 L 0.43992 76.46674" />
    <path d="M -1.86842 -0.42676 L 0.43992 73.72861" />
    <path d="M -0.96361 -55.236 A 1.19 0.74122 360 0 1 -1.26355 -55.23238 L -1.26355 -0.2742" />
    <path d="M -1.86842 -0.42676 A 1.19 0.74122 180 0 0 -1.26355 -0.2742" />
    <path d="M -1.15954 -75.48619 A 1.19 0.74122 360 0 1 0.05353 -74.74511 A 1.19 0.74122 360 0 1 -2.32647 -74.74511 A 1.19 0.74122 360 0 1 -1.15954 -75.48619 Z" />
    <path d="M -1.22828 0.70315 L -1.23313 0.70321 L -1.23313 -54.25497 L -0.93319 -54.25859 L -0.96361 -55.236" />
    <path d="M -1.23313 0.70321 L -1.26355 -0.2742" />
    <path d="M 0.07001 13.64855 L 1.93964 73.7105" />
    <path d="M -0.22994 32.93084 L -0.33656 29.50568 L -0.33656 -25.4525 L -0.22994 -22.02734 L 0.07001 -22.03096 L -0.03661 -25.45612 L -0.33656 -25.4525" />
    <path d="M 0.07001 32.92722 L -0.22994 32.93084 L -0.22994 -22.02734" />
    <path d="M -0.3414 29.34999 L -0.44802 25.92483 L -0.44802 -29.03334 L -0.3414 -25.60819 L -0.04146 -25.61181 L -0.14808 -29.03697 L -0.44802 -29.03334" />
    <path d="M -0.33656 29.34993 L -0.3414 29.34999 L -0.3414 -25.60819" />
    <path d="M -0.45287 25.76914 L -0.55949 22.34399 L -0.55949 -32.61419 L -0.45287 -29.18903 L -0.15292 -29.19266 L -0.25954 -32.61781 L -0.55949 -32.61419" />
    <path d="M -0.44802 25.76909 L -0.45287 25.76914 L -0.45287 -29.18903" />
    <path d="M -0.56433 22.1883 L -0.67095 18.76314 L -0.67095 -36.19504 L -0.56433 -32.76988 L -0.26439 -32.7735 L -0.37101 -36.19866 L -0.67095 -36.19504" />
    <path d="M -0.55949 22.18824 L -0.56433 22.1883 L -0.56433 -32.76988" />
    <path d="M -0.6758 18.60745 L -0.78242 15.18229 L -0.78242 -39.77589 L -0.6758 -36.35073 L -0.37586 -36.35435 L -0.48248 -39.77951 L -0.78242 -39.77589" />
    <path d="M -0.67095 18.60739 L -0.6758 18.60745 L -0.6758 -36.35073" />
    <path d="M -0.78727 15.0266 L -0.89389 11.60144 L -0.89389 -43.35674 L -0.78727 -39.93158 L -0.48732 -39.9352 L -0.59394 -43.36036 L -0.89389 -43.35674" />
    <path d="M -0.78242 15.02654 L -0.78727 15.0266 L -0.78727 -39.93158" />
    <path d="M -0.89873 11.44575 L -1.00535 8.02059 L -1.00535 -46.93758 L -0.89873 -43.51243 L -0.59879 -43.51605 L -0.70541 -46.94121 L -1.00535 -46.93758" />
    <path d="M -0.89389 11.44569 L -0.89873 11.44575 L -0.89873 -43.51243" />
    <path d="M -1.0102 7.8649 L -1.11682 4.43975 L -1.11682 -50.51843 L -1.0102 -47.09327 L -0.71025 -47.0969 L -0.81687 -50.52205 L -1.11682 -50.51843" />
    <path d="M -1.00535 7.86485 L -1.0102 7.8649 L -1.0102 -47.09327" />
    <path d="M -1.12166 4.28406 L -1.22828 0.8589 L -1.22828 -54.09928 L -1.12166 -50.67412 L -0.82172 -50.67774 L -0.92834 -54.1029 L -1.22828 -54.09928" />
    <path d="M -1.11682 4.284 L -1.12166 4.28406 L -1.12166 -50.67412" />
    <path d="M -0.93319 -54.10284 L -0.93319 -54.25859" />
    <path d="M -1.26355 -55.23238 L -1.23313 -54.25497" />
    <path d="M 0.07001 32.92722 L 0.07001 -22.03096" />
    <path d="M -0.04146 -25.45606 L -0.04146 -25.61181" />
    <path d="M -0.15292 -29.03691 L -0.15292 -29.19266" />
    <path d="M -0.26439 -32.61776 L -0.26439 -32.7735" />
    <path d="M -0.37586 -36.1986 L -0.37586 -36.35435" />
    <path d="M -0.48732 -39.77945 L -0.48732 -39.9352" />
    <path d="M -0.59879 -43.3603 L -0.59879 -43.51605" />
    <path d="M -0.71025 -46.94115 L -0.71025 -47.0969" />
    <path d="M -0.82172 -50.522 L -0.82172 -50.67774" />
    <path d="M -2.32647 -74.74511 L -2.32647 0.35788" />
    <path d="M 0.05353 -74.74511 L 0.05353 -22.56019" />
</svg>