<svg version="1.1" xmlns="http://www.w3.org/2000/svg" viewBox="-5.337151639958533 -76.83167472180159 8.236267393700588 130.29524611749753" fill="none" stroke="black" stroke-width="0.6%" vector-effect="non-scaling-stroke">
    <path d="M 0.11039 33.85698 L 0.40009 38.9213 L 0.40009 41.63287 L 1.89911 41.59858 L 1.89911 38.88702 L 0.40009 38.9213" />
    <path d="M 0.11039 36.56855 L 0.40009 41.63287" />
    <path d="M 0.72622 18.38338 L 1.89911 38.88702" />
    <path d="M -0.38821 48.98826 L -0.38821 -6.7926 L -0.18941 -3.31729 L 0.11039 -3.32415 L -0.08841 -6.79946 L -0.38821 -6.7926" />
    <path d="M -0.18941 52.46357 L -0.18941 -3.31729" />
    <path d="M -0.38821 48.98826 L -0.18941 52.46357 L 0.11039 52.45671 L 0.11039 -3.32415" />
    <path d="M -0.59605 45.35499 L -0.59605 -10.42587 L -0.39725 -6.95057 L -0.09744 -6.95742 L -0.29625 -10.43273 L -0.59605 -10.42587" />
    <path d="M -0.39725 48.8303 L -0.39725 -6.95057" />
    <path d="M -0.59605 45.35499 L -0.39725 48.8303 L -0.38821 48.83009" />
    <path d="M -0.09744 -6.79925 L -0.09744 -6.95742" />
    <path d="M -0.80389 41.72171 L -0.80389 -14.05915 L -0.60509 -10.58384 L -0.30528 -10.5907 L -0.50409 -14.06601 L -0.80389 -14.05915" />
    <path d="M -0.60509 45.19702 L -0.60509 -10.58384" />
    <path d="M -0.80389 41.72171 L -0.60509 45.19702 L -0.59605 45.19681" />
    <path d="M -0.30528 -10.43252 L -0.30528 -10.5907" />
    <path d="M -1.01173 38.08844 L -1.01173 -17.69242 L -0.81293 -14.21712 L -0.51312 -14.22397 L -0.71192 -17.69928 L -1.01173 -17.69242" />
    <path d="M -0.81293 41.56375 L -0.81293 -14.21712" />
    <path d="M -1.01173 38.08844 L -0.81293 41.56375 L -0.80389 41.56354" />
    <path d="M -0.51312 -14.0658 L -0.51312 -14.22397" />
    <path d="M -1.21957 34.45517 L -1.21957 -21.3257 L -1.02077 -17.85039 L -0.72096 -17.85725 L -0.91976 -21.33255 L -1.21957 -21.3257" />
    <path d="M -1.02077 37.93047 L -1.02077 -17.85039" />
    <path d="M -1.21957 34.45517 L -1.02077 37.93047 L -1.01173 37.93027" />
    <path d="M -0.72096 -17.69907 L -0.72096 -17.85725" />
    <path d="M -1.42741 30.82189 L -1.42741 -24.95897 L -1.2286 -21.48367 L -0.9288 -21.49052 L -1.1276 -24.96583 L -1.42741 -24.95897" />
    <path d="M -1.2286 34.2972 L -1.2286 -21.48367" />
    <path d="M -1.42741 30.82189 L -1.2286 34.2972 L -1.21957 34.29699" />
    <path d="M -0.9288 -21.33235 L -0.9288 -21.49052" />
    <path d="M -1.63525 27.18862 L -1.63525 -28.59225 L -1.43644 -25.11694 L -1.13664 -25.1238 L -1.33544 -28.5991 L -1.63525 -28.59225" />
    <path d="M -1.43644 30.66392 L -1.43644 -25.11694" />
    <path d="M -1.63525 27.18862 L -1.43644 30.66392 L -1.42741 30.66372" />
    <path d="M -1.13664 -24.96562 L -1.13664 -25.1238" />
    <path d="M -1.84308 23.55534 L -1.84308 -32.22552 L -1.64428 -28.75022 L -1.34448 -28.75707 L -1.54328 -32.23238 L -1.84308 -32.22552" />
    <path d="M -1.64428 27.03065 L -1.64428 -28.75022" />
    <path d="M -1.84308 23.55534 L -1.64428 27.03065 L -1.63525 27.03044" />
    <path d="M -1.34448 -28.5989 L -1.34448 -28.75707" />
    <path d="M -2.05092 19.92207 L -2.05092 -35.8588 L -1.85212 -32.38349 L -1.55232 -32.39035 L -1.75112 -35.86565 L -2.05092 -35.8588" />
    <path d="M -1.85212 23.39737 L -1.85212 -32.38349" />
    <path d="M -2.05092 19.92207 L -1.85212 23.39737 L -1.84308 23.39717" />
    <path d="M -1.55232 -32.23217 L -1.55232 -32.39035" />
    <path d="M -2.25876 16.28879 L -2.25876 -39.49207 L -2.05996 -36.01676 L -1.76016 -36.02362 L -1.95896 -39.49893 L -2.25876 -39.49207" />
    <path d="M -2.05996 19.7641 L -2.05996 -36.01676" />
    <path d="M -2.25876 16.28879 L -2.05996 19.7641 L -2.05092 19.76389" />
    <path d="M -1.76016 -35.86545 L -1.76016 -36.02362" />
    <path d="M -2.4666 12.65552 L -2.4666 -43.12535 L -2.2678 -39.65004 L -1.96799 -39.6569 L -2.1668 -43.1322 L -2.4666 -43.12535" />
    <path d="M -2.2678 16.13082 L -2.2678 -39.65004" />
    <path d="M -2.4666 12.65552 L -2.2678 16.13082 L -2.25876 16.13062" />
    <path d="M -1.96799 -39.49872 L -1.96799 -39.6569" />
    <path d="M -2.67444 9.02224 L -2.67444 -46.75862 L -2.47564 -43.28331 L -2.17583 -43.29017 L -2.37464 -46.76548 L -2.67444 -46.75862" />
    <path d="M -2.47564 12.49755 L -2.47564 -43.28331" />
    <path d="M -2.67444 9.02224 L -2.47564 12.49755 L -2.4666 12.49734" />
    <path d="M -2.17583 -43.132 L -2.17583 -43.29017" />
    <path d="M -2.88228 5.38897 L -2.88228 -50.39189 L -2.68348 -46.91659 L -2.38367 -46.92345 L -2.58247 -50.39875 L -2.88228 -50.39189" />
    <path d="M -2.68348 8.86427 L -2.68348 -46.91659" />
    <path d="M -2.88228 5.38897 L -2.68348 8.86427 L -2.67444 8.86407" />
    <path d="M -2.38367 -46.76527 L -2.38367 -46.92345" />
    <path d="M -3.09012 1.75569 L -3.09012 -54.02517 L -2.89131 -50.54986 L -2.59151 -50.55672 L -2.79031 -54.03203 L -3.09012 -54.02517" />
    <path d="M -2.89131 5.231 L -2.89131 -50.54986" />
    <path d="M -3.09012 1.75569 L -2.89131 5.231 L -2.88228 5.23079" />
    <path d="M -2.59151 -50.39854 L -2.59151 -50.55672" />
    <path d="M -3.29796 -1.87758 L -3.29796 -57.65844 L -3.09915 -54.18314 L -2.79935 -54.18999 L -2.99815 -57.6653 L -3.29796 -57.65844" />
    <path d="M -3.09915 1.59773 L -3.09915 -54.18314" />
    <path d="M -3.29796 -1.87758 L -3.09915 1.59773 L -3.09012 1.59752" />
    <path d="M -2.79935 -54.03182 L -2.79935 -54.18999" />
    <path d="M -3.5058 -5.51086 L -3.5058 -61.29172 L -3.30699 -57.81641 L -3.00719 -57.82327 L -3.20599 -61.29858 L -3.5058 -61.29172" />
    <path d="M -3.30699 -2.03555 L -3.30699 -57.81641" />
    <path d="M -3.5058 -5.51086 L -3.30699 -2.03555 L -3.29796 -2.03576" />
    <path d="M -3.00719 -57.66509 L -3.00719 -57.82327" />
    <path d="M -3.71363 -9.14413 L -3.71363 -64.92499 L -3.51483 -61.44969 L -3.21503 -61.45654 L -3.41383 -64.93185 L -3.71363 -64.92499" />
    <path d="M -3.51483 -5.66882 L -3.51483 -61.44969" />
    <path d="M -3.71363 -9.14413 L -3.51483 -5.66882 L -3.5058 -5.66903" />
    <path d="M -3.21503 -61.29837 L -3.21503 -61.45654" />
    <path d="M -3.92147 -12.7774 L -3.92147 -68.55827 L -3.72267 -65.08296 L -3.42287 -65.08982 L -3.62167 -68.56512 L -3.92147 -68.55827" />
    <path d="M -3.72267 -9.3021 L -3.72267 -65.08296" />
    <path d="M -3.92147 -12.7774 L -3.72267 -9.3021 L -3.71363 -9.3023" />
    <path d="M -3.42287 -64.93164 L -3.42287 -65.08982" />
    <path d="M -4.33715 -20.04395 L -4.33715 -75.82482 L -4.13835 -72.34951 L -3.83854 -72.35637 L -4.03735 -75.83167 L -4.33715 -75.82482" />
    <path d="M -4.13835 -16.56865 L -4.13835 -72.34951" />
    <path d="M -4.33715 -20.04395 L -4.13835 -16.56865 L -4.12931 -16.56885" />
    <path d="M -3.83854 -72.19819 L -3.83854 -72.35637" />
    <path d="M -4.12931 -16.41068 L -4.12931 -72.19154 L -3.93051 -68.71624 L -3.63071 -68.72309 L -3.82951 -72.1984 L -4.12931 -72.19154" />
    <path d="M -3.93051 -12.93537 L -3.93051 -68.71624" />
    <path d="M -4.12931 -16.41068 L -3.93051 -12.93537 L -3.92147 -12.93558" />
    <path d="M -3.63071 -68.56492 L -3.63071 -68.72309" />
    <path d="M -1.15993 -73.83552 A 1.19 0.75242 360 0 1 0.07308 -73.08359 L 0.07308 -16.27626" />
    <path d="M 0.07308 -73.08359 A 1.19 0.75242 360 0 1 -2.30692 -73.08359 L -2.30692 -57.88153" />
    <path d="M -2.30692 -73.08359 A 1.19 0.75242 360 0 1 -1.15993 -73.83552" />
    <path d="M 0.11039 10.61495 L 0.40009 15.67927 L 0.40009 18.39084 L 1.89911 18.35656 L 1.89911 15.64499 L 0.40009 15.67927" />
    <path d="M 0.11039 13.32652 L 0.40009 18.39084" />
    <path d="M -2.43839 -60.17987 L 1.89911 15.64499" />
    <path d="M -2.43839 -60.17987 L -3.14108 -60.1638" />
</svg>