<svg version="1.1" xmlns="http://www.w3.org/2000/svg" viewBox="-5.339701403419911 -95.75534384767212 9.5831702934272 167.8730700600074" fill="none" stroke="black" stroke-width="0.6%" vector-effect="non-scaling-stroke">
    <path d="M -3.33344 -3.16031 L -3.33344 -72.78511 L -3.26927 -71.38417 L -2.96929 -71.38506 L -3.03346 -72.786 L -3.33344 -72.78511" />
    <path d="M -3.26927 -1.75937 L -3.26927 -71.38417" />
    <path d="M -3.33344 -3.16031 L -3.26927 -1.75937 L -3.26635 -1.75938" />
    <path d="M -2.96929 -71.32137 L -2.96929 -71.38506" />
    <path d="M -3.40052 -4.62494 L -3.40052 -74.24973 L -3.33635 -72.84879 L -3.03637 -72.84968 L -3.10054 -74.25063 L -3.40052 -74.24973" />
    <path d="M -3.33635 -3.22399 L -3.33635 -72.84879" />
    <path d="M -3.40052 -4.62494 L -3.33635 -3.22399 L -3.33344 -3.224" />
    <path d="M -3.03637 -72.786 L -3.03637 -72.84968" />
    <path d="M -3.4676 -6.08956 L -3.4676 -75.71436 L -3.40344 -74.31341 L -3.10346 -74.31431 L -3.16762 -75.71525 L -3.4676 -75.71436" />
    <path d="M -3.40344 -4.68862 L -3.40344 -74.31341" />
    <path d="M -3.4676 -6.08956 L -3.40344 -4.68862 L -3.40052 -4.68863" />
    <path d="M -3.10346 -74.25062 L -3.10346 -74.31431" />
    <path d="M -3.53469 -7.55418 L -3.53469 -77.17898 L -3.47052 -75.77804 L -3.17054 -75.77893 L -3.23471 -77.17987 L -3.53469 -77.17898" />
    <path d="M -3.47052 -6.15324 L -3.47052 -75.77804" />
    <path d="M -3.53469 -7.55418 L -3.47052 -6.15324 L -3.4676 -6.15325" />
    <path d="M -3.17054 -75.71524 L -3.17054 -75.77893" />
    <path d="M -3.60177 -9.0188 L -3.60177 -78.6436 L -3.5376 -77.24266 L -3.23763 -77.24355 L -3.30179 -78.64449 L -3.60177 -78.6436" />
    <path d="M -3.5376 -7.61786 L -3.5376 -77.24266" />
    <path d="M -3.60177 -9.0188 L -3.5376 -7.61786 L -3.53469 -7.61787" />
    <path d="M -3.23763 -77.17986 L -3.23763 -77.24355" />
    <path d="M -3.66886 -10.48343 L -3.66886 -80.10823 L -3.60469 -78.70728 L -3.30471 -78.70817 L -3.36888 -80.10912 L -3.66886 -80.10823" />
    <path d="M -3.60469 -9.08248 L -3.60469 -78.70728" />
    <path d="M -3.66886 -10.48343 L -3.60469 -9.08248 L -3.60177 -9.08249" />
    <path d="M -3.30471 -78.64449 L -3.30471 -78.70817" />
    <path d="M -3.73594 -11.94805 L -3.73594 -81.57285 L -3.67177 -80.1719 L -3.37179 -80.1728 L -3.43596 -81.57374 L -3.73594 -81.57285" />
    <path d="M -3.67177 -10.54711 L -3.67177 -80.1719" />
    <path d="M -3.73594 -11.94805 L -3.67177 -10.54711 L -3.66886 -10.54712" />
    <path d="M -3.37179 -80.10911 L -3.37179 -80.1728" />
    <path d="M -3.80303 -13.41267 L -3.80303 -83.03747 L -3.73886 -81.63653 L -3.43888 -81.63742 L -3.50305 -83.03836 L -3.80303 -83.03747" />
    <path d="M -3.73886 -12.01173 L -3.73886 -81.63653" />
    <path d="M -3.80303 -13.41267 L -3.73886 -12.01173 L -3.73594 -12.01174" />
    <path d="M -3.43888 -81.57373 L -3.43888 -81.63742" />
    <path d="M -3.87011 -14.8773 L -3.87011 -84.50209 L -3.80594 -83.10115 L -3.50596 -83.10204 L -3.57013 -84.50298 L -3.87011 -84.50209" />
    <path d="M -3.80594 -13.47635 L -3.80594 -83.10115" />
    <path d="M -3.87011 -14.8773 L -3.80594 -13.47635 L -3.80303 -13.47636" />
    <path d="M -3.50596 -83.03835 L -3.50596 -83.10204" />
    <path d="M -3.93719 -16.34192 L -3.93719 -85.96672 L -3.87303 -84.56577 L -3.57305 -84.56666 L -3.63721 -85.96761 L -3.93719 -85.96672" />
    <path d="M -3.87303 -14.94097 L -3.87303 -84.56577" />
    <path d="M -3.93719 -16.34192 L -3.87303 -14.94097 L -3.87011 -14.94098" />
    <path d="M -3.57305 -84.50298 L -3.57305 -84.56666" />
    <path d="M -4.00428 -17.80654 L -4.00428 -87.43134 L -3.94011 -86.03039 L -3.64013 -86.03129 L -3.7043 -87.43223 L -4.00428 -87.43134" />
    <path d="M -3.94011 -16.4056 L -3.94011 -86.03039" />
    <path d="M -4.00428 -17.80654 L -3.94011 -16.4056 L -3.93719 -16.40561" />
    <path d="M -3.64013 -85.9676 L -3.64013 -86.03129" />
    <path d="M -4.07136 -19.27116 L -4.07136 -88.89596 L -4.0072 -87.49502 L -3.70722 -87.49591 L -3.77138 -88.89685 L -4.07136 -88.89596" />
    <path d="M -4.0072 -17.87022 L -4.0072 -87.49502" />
    <path d="M -4.07136 -19.27116 L -4.0072 -17.87022 L -4.00428 -17.87023" />
    <path d="M -3.70722 -87.43222 L -3.70722 -87.49591" />
    <path d="M -4.13845 -20.73579 L -4.13845 -90.36058 L -4.07428 -88.95964 L -3.7743 -88.96053 L -3.83847 -90.36148 L -4.13845 -90.36058" />
    <path d="M -4.07428 -19.33484 L -4.07428 -88.95964" />
    <path d="M -4.13845 -20.73579 L -4.07428 -19.33484 L -4.07136 -19.33485" />
    <path d="M -3.7743 -88.89684 L -3.7743 -88.96053" />
    <path d="M -4.20553 -22.20041 L -4.20553 -91.82521 L -4.14136 -90.42426 L -3.84138 -90.42515 L -3.90555 -91.8261 L -4.20553 -91.82521" />
    <path d="M -4.14136 -20.79946 L -4.14136 -90.42426" />
    <path d="M -4.20553 -22.20041 L -4.14136 -20.79946 L -4.13845 -20.79947" />
    <path d="M -3.84138 -90.36147 L -3.84138 -90.42515" />
    <path d="M -4.3397 -25.12965 L -4.3397 -94.75445 L -4.27553 -93.35351 L -3.97555 -93.3544 L -4.03972 -94.75534 L -4.3397 -94.75445" />
    <path d="M -4.27553 -23.72871 L -4.27553 -93.35351" />
    <path d="M -4.3397 -25.12965 L -4.27553 -23.72871 L -4.27262 -23.72872" />
    <path d="M -3.97555 -93.29071 L -3.97555 -93.3544" />
    <path d="M -4.27262 -23.66503 L -4.27262 -93.28983 L -4.20845 -91.88889 L -3.90847 -91.88978 L -3.97264 -93.29072 L -4.27262 -93.28983" />
    <path d="M -4.20845 -22.26409 L -4.20845 -91.88889" />
    <path d="M -4.27262 -23.66503 L -4.20845 -22.26409 L -4.20553 -22.2641" />
    <path d="M -3.90847 -91.82609 L -3.90847 -91.88978" />
    <path d="M -2.26009 20.27365 L -2.26009 -49.35115 L -2.19592 -47.95021 L -1.89594 -47.9511 L -1.96011 -49.35204 L -2.26009 -49.35115" />
    <path d="M -2.19592 21.67459 L -2.19592 -47.95021" />
    <path d="M -2.26009 20.27365 L -2.19592 21.67459 L -2.193 21.67458" />
    <path d="M -1.89594 -47.88741 L -1.89594 -47.9511" />
    <path d="M -2.32717 18.80902 L -2.32717 -50.81577 L -2.263 -49.41483 L -1.96302 -49.41572 L -2.02719 -50.81667 L -2.32717 -50.81577" />
    <path d="M -2.263 20.20997 L -2.263 -49.41483" />
    <path d="M -2.32717 18.80902 L -2.263 20.20997 L -2.26009 20.20996" />
    <path d="M -1.96302 -49.35203 L -1.96302 -49.41572" />
    <path d="M -2.39425 17.3444 L -2.39425 -52.2804 L -2.33009 -50.87945 L -2.03011 -50.88034 L -2.09427 -52.28129 L -2.39425 -52.2804" />
    <path d="M -2.33009 18.74535 L -2.33009 -50.87945" />
    <path d="M -2.39425 17.3444 L -2.33009 18.74535 L -2.32717 18.74534" />
    <path d="M -2.03011 -50.81666 L -2.03011 -50.88034" />
    <path d="M -2.46134 15.87978 L -2.46134 -53.74502 L -2.39717 -52.34408 L -2.09719 -52.34497 L -2.16136 -53.74591 L -2.46134 -53.74502" />
    <path d="M -2.39717 17.28072 L -2.39717 -52.34408" />
    <path d="M -2.46134 15.87978 L -2.39717 17.28072 L -2.39425 17.28071" />
    <path d="M -2.09719 -52.28128 L -2.09719 -52.34497" />
    <path d="M -2.52842 14.41516 L -2.52842 -55.20964 L -2.46426 -53.8087 L -2.16428 -53.80959 L -2.22844 -55.21053 L -2.52842 -55.20964" />
    <path d="M -2.46426 15.8161 L -2.46426 -53.8087" />
    <path d="M -2.52842 14.41516 L -2.46426 15.8161 L -2.46134 15.81609" />
    <path d="M -2.16428 -53.7459 L -2.16428 -53.80959" />
    <path d="M -2.59551 12.95053 L -2.59551 -56.67426 L -2.53134 -55.27332 L -2.23136 -55.27421 L -2.29553 -56.67516 L -2.59551 -56.67426" />
    <path d="M -2.53134 14.35148 L -2.53134 -55.27332" />
    <path d="M -2.59551 12.95053 L -2.53134 14.35148 L -2.52842 14.35147" />
    <path d="M -2.23136 -55.21052 L -2.23136 -55.27421" />
    <path d="M -2.66259 11.48591 L -2.66259 -58.13889 L -2.59842 -56.73794 L -2.29844 -56.73883 L -2.36261 -58.13978 L -2.66259 -58.13889" />
    <path d="M -2.59842 12.88685 L -2.59842 -56.73794" />
    <path d="M -2.66259 11.48591 L -2.59842 12.88685 L -2.59551 12.88685" />
    <path d="M -2.29844 -56.67515 L -2.29844 -56.73883" />
    <path d="M -2.72968 10.02129 L -2.72968 -59.60351 L -2.66551 -58.20257 L -2.36553 -58.20346 L -2.4297 -59.6044 L -2.72968 -59.60351" />
    <path d="M -2.66551 11.42223 L -2.66551 -58.20257" />
    <path d="M -2.72968 10.02129 L -2.66551 11.42223 L -2.66259 11.42222" />
    <path d="M -2.36553 -58.13977 L -2.36553 -58.20346" />
    <path d="M -2.79676 8.55667 L -2.79676 -61.06813 L -2.73259 -59.66719 L -2.43261 -59.66808 L -2.49678 -61.06902 L -2.79676 -61.06813" />
    <path d="M -2.73259 9.95761 L -2.73259 -59.66719" />
    <path d="M -2.79676 8.55667 L -2.73259 9.95761 L -2.72968 9.9576" />
    <path d="M -2.43261 -59.60439 L -2.43261 -59.66808" />
    <path d="M -2.86384 7.09204 L -2.86384 -62.53275 L -2.79968 -61.13181 L -2.4997 -61.1327 L -2.56387 -62.53365 L -2.86384 -62.53275" />
    <path d="M -2.79968 8.49299 L -2.79968 -61.13181" />
    <path d="M -2.86384 7.09204 L -2.79968 8.49299 L -2.79676 8.49298" />
    <path d="M -2.4997 -61.06901 L -2.4997 -61.1327" />
    <path d="M -2.93093 5.62742 L -2.93093 -63.99738 L -2.86676 -62.59643 L -2.56678 -62.59733 L -2.63095 -63.99827 L -2.93093 -63.99738" />
    <path d="M -2.86676 7.02836 L -2.86676 -62.59643" />
    <path d="M -2.93093 5.62742 L -2.86676 7.02836 L -2.86384 7.02836" />
    <path d="M -2.56678 -62.53364 L -2.56678 -62.59733" />
    <path d="M -2.99801 4.1628 L -2.99801 -65.462 L -2.93385 -64.06106 L -2.63387 -64.06195 L -2.69803 -65.46289 L -2.99801 -65.462" />
    <path d="M -2.93385 5.56374 L -2.93385 -64.06106" />
    <path d="M -2.99801 4.1628 L -2.93385 5.56374 L -2.93093 5.56373" />
    <path d="M -2.63387 -63.99826 L -2.63387 -64.06195" />
    <path d="M -3.0651 2.69818 L -3.0651 -66.92662 L -3.00093 -65.52568 L -2.70095 -65.52657 L -2.76512 -66.92751 L -3.0651 -66.92662" />
    <path d="M -3.00093 4.09912 L -3.00093 -65.52568" />
    <path d="M -3.0651 2.69818 L -3.00093 4.09912 L -2.99801 4.09911" />
    <path d="M -2.70095 -65.46288 L -2.70095 -65.52657" />
    <path d="M -3.13218 1.23355 L -3.13218 -68.39124 L -3.06801 -66.9903 L -2.76803 -66.99119 L -2.8322 -68.39214 L -3.13218 -68.39124" />
    <path d="M -3.06801 2.6345 L -3.06801 -66.9903" />
    <path d="M -3.13218 1.23355 L -3.06801 2.6345 L -3.0651 2.63449" />
    <path d="M -2.76803 -66.9275 L -2.76803 -66.99119" />
    <path d="M -3.26635 -1.69569 L -3.26635 -71.32049 L -3.20218 -69.91955 L -2.9022 -69.92044 L -2.96637 -71.32138 L -3.26635 -71.32049" />
    <path d="M -3.20218 -0.29475 L -3.20218 -69.91955" />
    <path d="M -3.26635 -1.69569 L -3.20218 -0.29475 L -3.19927 -0.29476" />
    <path d="M -2.9022 -69.85675 L -2.9022 -69.92044" />
    <path d="M -3.19927 -0.23107 L -3.19927 -69.85587 L -3.1351 -68.45492 L -2.83512 -68.45582 L -2.89929 -69.85676 L -3.19927 -69.85587" />
    <path d="M -3.1351 1.16987 L -3.1351 -68.45492" />
    <path d="M -3.19927 -0.23107 L -3.1351 1.16987 L -3.13218 1.16987" />
    <path d="M -2.83512 -68.39213 L -2.83512 -68.45582" />
    <path d="M -1.18674 43.70761 L -1.18674 -25.91719 L -1.12257 -24.51625 L -0.82259 -24.51714 L -0.88676 -25.91808 L -1.18674 -25.91719" />
    <path d="M -1.12257 45.10855 L -1.12257 -24.51625" />
    <path d="M -1.18674 43.70761 L -1.12257 45.10855 L -1.11965 45.10854" />
    <path d="M -0.82259 -24.45345 L -0.82259 -24.51714" />
    <path d="M -1.25382 42.24299 L -1.25382 -27.38181 L -1.18965 -25.98087 L -0.88967 -25.98176 L -0.95384 -27.3827 L -1.25382 -27.38181" />
    <path d="M -1.18965 43.64393 L -1.18965 -25.98087" />
    <path d="M -1.25382 42.24299 L -1.18965 43.64393 L -1.18674 43.64392" />
    <path d="M -0.88967 -25.91807 L -0.88967 -25.98176" />
    <path d="M -1.3209 40.77836 L -1.3209 -28.84643 L -1.25674 -27.44549 L -0.95676 -27.44638 L -1.02092 -28.84733 L -1.3209 -28.84643" />
    <path d="M -1.25674 42.17931 L -1.25674 -27.44549" />
    <path d="M -1.3209 40.77836 L -1.25674 42.17931 L -1.25382 42.1793" />
    <path d="M -0.95676 -27.3827 L -0.95676 -27.44638" />
    <path d="M -1.38799 39.31374 L -1.38799 -30.31106 L -1.32382 -28.91011 L -1.02384 -28.91101 L -1.08801 -30.31195 L -1.38799 -30.31106" />
    <path d="M -1.32382 40.71468 L -1.32382 -28.91011" />
    <path d="M -1.38799 39.31374 L -1.32382 40.71468 L -1.3209 40.71468" />
    <path d="M -1.02384 -28.84732 L -1.02384 -28.91101" />
    <path d="M -1.45507 37.84912 L -1.45507 -31.77568 L -1.39091 -30.37474 L -1.09093 -30.37563 L -1.15509 -31.77657 L -1.45507 -31.77568" />
    <path d="M -1.39091 39.25006 L -1.39091 -30.37474" />
    <path d="M -1.45507 37.84912 L -1.39091 39.25006 L -1.38799 39.25005" />
    <path d="M -1.09093 -30.31194 L -1.09093 -30.37563" />
    <path d="M -1.52216 36.3845 L -1.52216 -33.2403 L -1.45799 -31.83936 L -1.15801 -31.84025 L -1.22218 -33.24119 L -1.52216 -33.2403" />
    <path d="M -1.45799 37.78544 L -1.45799 -31.83936" />
    <path d="M -1.52216 36.3845 L -1.45799 37.78544 L -1.45507 37.78543" />
    <path d="M -1.15801 -31.77656 L -1.15801 -31.84025" />
    <path d="M -1.58924 34.91987 L -1.58924 -34.70493 L -1.52507 -33.30398 L -1.22509 -33.30487 L -1.28926 -34.70582 L -1.58924 -34.70493" />
    <path d="M -1.52507 36.32082 L -1.52507 -33.30398" />
    <path d="M -1.58924 34.91987 L -1.52507 36.32082 L -1.52216 36.32081" />
    <path d="M -1.22509 -33.24119 L -1.22509 -33.30487" />
    <path d="M -1.65633 33.45525 L -1.65633 -36.16955 L -1.59216 -34.7686 L -1.29218 -34.7695 L -1.35635 -36.17044 L -1.65633 -36.16955" />
    <path d="M -1.59216 34.85619 L -1.59216 -34.7686" />
    <path d="M -1.65633 33.45525 L -1.59216 34.85619 L -1.58924 34.85618" />
    <path d="M -1.29218 -34.70581 L -1.29218 -34.7695" />
    <path d="M -1.72341 31.99063 L -1.72341 -37.63417 L -1.65924 -36.23323 L -1.35926 -36.23412 L -1.42343 -37.63506 L -1.72341 -37.63417" />
    <path d="M -1.65924 33.39157 L -1.65924 -36.23323" />
    <path d="M -1.72341 31.99063 L -1.65924 33.39157 L -1.65633 33.39156" />
    <path d="M -1.35926 -36.17043 L -1.35926 -36.23412" />
    <path d="M -1.79049 30.52601 L -1.79049 -39.09879 L -1.72633 -37.69785 L -1.42635 -37.69874 L -1.49052 -39.09968 L -1.79049 -39.09879" />
    <path d="M -1.72633 31.92695 L -1.72633 -37.69785" />
    <path d="M -1.79049 30.52601 L -1.72633 31.92695 L -1.72341 31.92694" />
    <path d="M -1.42635 -37.63505 L -1.42635 -37.69874" />
    <path d="M -1.85758 29.06138 L -1.85758 -40.56342 L -1.79341 -39.16247 L -1.49343 -39.16336 L -1.5576 -40.56431 L -1.85758 -40.56342" />
    <path d="M -1.79341 30.46233 L -1.79341 -39.16247" />
    <path d="M -1.85758 29.06138 L -1.79341 30.46233 L -1.79049 30.46232" />
    <path d="M -1.49343 -39.09968 L -1.49343 -39.16336" />
    <path d="M -1.92466 27.59676 L -1.92466 -42.02804 L -1.8605 -40.62709 L -1.56052 -40.62799 L -1.62468 -42.02893 L -1.92466 -42.02804" />
    <path d="M -1.8605 28.9977 L -1.8605 -40.62709" />
    <path d="M -1.92466 27.59676 L -1.8605 28.9977 L -1.85758 28.99769" />
    <path d="M -1.56052 -40.5643 L -1.56052 -40.62799" />
    <path d="M -1.99175 26.13214 L -1.99175 -43.49266 L -1.92758 -42.09172 L -1.6276 -42.09261 L -1.69177 -43.49355 L -1.99175 -43.49266" />
    <path d="M -1.92758 27.53308 L -1.92758 -42.09172" />
    <path d="M -1.99175 26.13214 L -1.92758 27.53308 L -1.92466 27.53307" />
    <path d="M -1.6276 -42.02892 L -1.6276 -42.09261" />
    <path d="M -2.05883 24.66751 L -2.05883 -44.95728 L -1.99466 -43.55634 L -1.69469 -43.55723 L -1.75885 -44.95817 L -2.05883 -44.95728" />
    <path d="M -1.99466 26.06846 L -1.99466 -43.55634" />
    <path d="M -2.05883 24.66751 L -1.99466 26.06846 L -1.99175 26.06845" />
    <path d="M -1.69469 -43.49354 L -1.69469 -43.55723" />
    <path d="M -2.193 21.73827 L -2.193 -47.88653 L -2.12883 -46.48559 L -1.82885 -46.48648 L -1.89302 -47.88742 L -2.193 -47.88653" />
    <path d="M -2.12883 23.13921 L -2.12883 -46.48559" />
    <path d="M -2.193 21.73827 L -2.12883 23.13921 L -2.12592 23.1392" />
    <path d="M -1.82885 -46.42279 L -1.82885 -46.48648" />
    <path d="M -2.12592 23.20289 L -2.12592 -46.42191 L -2.06175 -45.02096 L -1.76177 -45.02185 L -1.82594 -46.4228 L -2.12592 -46.42191" />
    <path d="M -2.06175 24.60384 L -2.06175 -45.02096" />
    <path d="M -2.12592 23.20289 L -2.06175 24.60384 L -2.05883 24.60383" />
    <path d="M -1.76177 -44.95817 L -1.76177 -45.02185" />
    <path d="M -0.11339 67.14157 L -0.11339 -2.48323 L -0.04922 -1.08228 L 0.25076 -1.08318 L 0.18659 -2.48412 L -0.11339 -2.48323" />
    <path d="M -0.04922 68.54251 L -0.04922 -1.08228" />
    <path d="M -0.11339 67.14157 L -0.04922 68.54251 L 0.25076 68.54162 L 0.25076 -1.08318" />
    <path d="M -0.18047 65.67695 L -0.18047 -3.94785 L -0.1163 -2.54691 L 0.18368 -2.5478 L 0.11951 -3.94874 L -0.18047 -3.94785" />
    <path d="M -0.1163 67.07789 L -0.1163 -2.54691" />
    <path d="M -0.18047 65.67695 L -0.1163 67.07789 L -0.11339 67.07788" />
    <path d="M 0.18368 -2.48411 L 0.18368 -2.5478" />
    <path d="M -0.24755 64.21232 L -0.24755 -5.41247 L -0.18339 -4.01153 L 0.11659 -4.01242 L 0.05242 -5.41336 L -0.24755 -5.41247" />
    <path d="M -0.18339 65.61327 L -0.18339 -4.01153" />
    <path d="M -0.24755 64.21232 L -0.18339 65.61327 L -0.18047 65.61326" />
    <path d="M 0.11659 -3.94873 L 0.11659 -4.01242" />
    <path d="M -0.31464 62.7477 L -0.31464 -6.8771 L -0.25047 -5.47615 L 0.04951 -5.47704 L -0.01466 -6.87799 L -0.31464 -6.8771" />
    <path d="M -0.25047 64.14865 L -0.25047 -5.47615" />
    <path d="M -0.31464 62.7477 L -0.25047 64.14865 L -0.24755 64.14864" />
    <path d="M 0.04951 -5.41336 L 0.04951 -5.47704" />
    <path d="M -0.38172 61.28308 L -0.38172 -8.34172 L -0.31756 -6.94078 L -0.01758 -6.94167 L -0.08174 -8.34261 L -0.38172 -8.34172" />
    <path d="M -0.31756 62.68402 L -0.31756 -6.94078" />
    <path d="M -0.38172 61.28308 L -0.31756 62.68402 L -0.31464 62.68401" />
    <path d="M -0.01758 -6.87798 L -0.01758 -6.94167" />
    <path d="M -0.44881 59.81846 L -0.44881 -9.80634 L -0.38464 -8.4054 L -0.08466 -8.40629 L -0.14883 -9.80723 L -0.44881 -9.80634" />
    <path d="M -0.38464 61.2194 L -0.38464 -8.4054" />
    <path d="M -0.44881 59.81846 L -0.38464 61.2194 L -0.38172 61.21939" />
    <path d="M -0.08466 -8.3426 L -0.08466 -8.40629" />
    <path d="M -0.51589 58.35383 L -0.51589 -11.27096 L -0.45172 -9.87002 L -0.15174 -9.87091 L -0.21591 -11.27186 L -0.51589 -11.27096" />
    <path d="M -0.45172 59.75478 L -0.45172 -9.87002" />
    <path d="M -0.51589 58.35383 L -0.45172 59.75478 L -0.44881 59.75477" />
    <path d="M -0.15174 -9.80722 L -0.15174 -9.87091" />
    <path d="M -0.58298 56.88921 L -0.58298 -12.73559 L -0.51881 -11.33464 L -0.21883 -11.33553 L -0.283 -12.73648 L -0.58298 -12.73559" />
    <path d="M -0.51881 58.29016 L -0.51881 -11.33464" />
    <path d="M -0.58298 56.88921 L -0.51881 58.29016 L -0.51589 58.29015" />
    <path d="M -0.21883 -11.27185 L -0.21883 -11.33553" />
    <path d="M -0.65006 55.42459 L -0.65006 -14.20021 L -0.58589 -12.79927 L -0.28591 -12.80016 L -0.35008 -14.2011 L -0.65006 -14.20021" />
    <path d="M -0.58589 56.82553 L -0.58589 -12.79927" />
    <path d="M -0.65006 55.42459 L -0.58589 56.82553 L -0.58298 56.82552" />
    <path d="M -0.28591 -12.73647 L -0.28591 -12.80016" />
    <path d="M -0.71715 53.95997 L -0.71715 -15.66483 L -0.65298 -14.26389 L -0.353 -14.26478 L -0.41717 -15.66572 L -0.71715 -15.66483" />
    <path d="M -0.65298 55.36091 L -0.65298 -14.26389" />
    <path d="M -0.71715 53.95997 L -0.65298 55.36091 L -0.65006 55.3609" />
    <path d="M -0.353 -14.20109 L -0.353 -14.26478" />
    <path d="M -0.78423 52.49534 L -0.78423 -17.12945 L -0.72006 -15.72851 L -0.42008 -15.7294 L -0.48425 -17.13035 L -0.78423 -17.12945" />
    <path d="M -0.72006 53.89629 L -0.72006 -15.72851" />
    <path d="M -0.78423 52.49534 L -0.72006 53.89629 L -0.71715 53.89628" />
    <path d="M -0.42008 -15.66571 L -0.42008 -15.7294" />
    <path d="M -0.85131 51.03072 L -0.85131 -18.59408 L -0.78715 -17.19313 L -0.48717 -17.19402 L -0.55133 -18.59497 L -0.85131 -18.59408" />
    <path d="M -0.78715 52.43166 L -0.78715 -17.19313" />
    <path d="M -0.85131 51.03072 L -0.78715 52.43166 L -0.78423 52.43166" />
    <path d="M -0.48717 -17.13034 L -0.48717 -17.19402" />
    <path d="M -0.9184 49.5661 L -0.9184 -20.0587 L -0.85423 -18.65776 L -0.55425 -18.65865 L -0.61842 -20.05959 L -0.9184 -20.0587" />
    <path d="M -0.85423 50.96704 L -0.85423 -18.65776" />
    <path d="M -0.9184 49.5661 L -0.85423 50.96704 L -0.85131 50.96703" />
    <path d="M -0.55425 -18.59496 L -0.55425 -18.65865" />
    <path d="M -0.98548 48.10148 L -0.98548 -21.52332 L -0.92132 -20.12238 L -0.62134 -20.12327 L -0.6855 -21.52421 L -0.98548 -21.52332" />
    <path d="M -0.92132 49.50242 L -0.92132 -20.12238" />
    <path d="M -0.98548 48.10148 L -0.92132 49.50242 L -0.9184 49.50241" />
    <path d="M -0.62134 -20.05958 L -0.62134 -20.12327" />
    <path d="M -1.11965 45.17223 L -1.11965 -24.45257 L -1.05548 -23.05162 L -0.7555 -23.05252 L -0.81967 -24.45346 L -1.11965 -24.45257" />
    <path d="M -1.05548 46.57317 L -1.05548 -23.05162" />
    <path d="M -1.11965 45.17223 L -1.05548 46.57317 L -1.05257 46.57317" />
    <path d="M -0.7555 -22.98883 L -0.7555 -23.05252" />
    <path d="M -1.05257 46.63685 L -1.05257 -22.98794 L -0.9884 -21.587 L -0.68842 -21.58789 L -0.75259 -22.98884 L -1.05257 -22.98794" />
    <path d="M -0.9884 48.0378 L -0.9884 -21.587" />
    <path d="M -1.05257 46.63685 L -0.9884 48.0378 L -0.98548 48.03779" />
    <path d="M -0.68842 -21.5242 L -0.68842 -21.58789" />
    <path d="M -1.18046 -92.62347 A 1.19 0.30313 360 0 1 0.02342 -92.32036 L 0.02342 -69.18807" />
    <path d="M 0.02342 -92.32036 A 1.19 0.30313 360 0 1 -2.35658 -92.32036 L -2.35658 -73.36059" />
    <path d="M -2.35658 -92.32036 A 1.19 0.30313 360 0 1 -1.18046 -92.62347" />
    <path d="M -0.10711 -69.18951 A 1.19 0.30313 360 0 1 1.09677 -68.8864 L 1.09677 -45.75411" />
    <path d="M 1.09677 -68.8864 A 1.19 0.30313 360 0 1 -1.28323 -68.8864 L -1.28323 -49.92663" />
    <path d="M -1.28323 -68.8864 A 1.19 0.30313 360 0 1 -0.10711 -69.18951" />
    <path d="M 0.96623 -45.75555 A 1.19 0.30313 360 0 1 2.17012 -45.45243 L 2.17012 -22.32015" />
    <path d="M 2.17012 -45.45243 A 1.19 0.30313 360 0 1 -0.20988 -45.45243 L -0.20988 -26.49267" />
    <path d="M -0.20988 -45.45243 A 1.19 0.30313 360 0 1 0.96623 -45.75555" />
    <path d="M 2.03958 -22.32159 A 1.19 0.30313 360 0 1 3.24347 -22.01847 L 3.24347 70.81459" />
    <path d="M 3.24347 -22.01847 A 1.19 0.30313 360 0 1 0.86347 -22.01847 L 0.86347 -3.05871" />
    <path d="M 0.86347 -22.01847 A 1.19 0.30313 360 0 1 2.03958 -22.32159" />
    <path d="M 0.86347 70.81459 A 1.19 0.30313 180 0 0 3.24347 70.81459" />
    <path d="M 0.40034 19.58105 L 0.25076 16.31539" />
    <path d="M 0.40034 19.58105 L 0.40034 22.96559 L 1.90024 22.96113 L 1.90024 19.57659 L -2.43983 -75.17812 L -3.14293 -75.17603" />
    <path d="M 0.25076 19.69993 L 0.40034 22.96559" />
    <path d="M 1.90024 19.57659 L 0.40034 19.58105" />
    <path d="M 0.25076 48.71027 L 0.40034 51.97592 L 1.90024 51.97146 L 1.90024 48.58692 L 0.72665 22.96462" />
    <path d="M 0.40034 48.59138 L 0.25076 45.32573" />
    <path d="M 0.40034 48.59138 L 0.40034 51.97592" />
    <path d="M 1.90024 48.58692 L 0.40034 48.59138" />
    <path d="M 0.86347 22.96421 L 0.86347 25.95162" />
    <path d="M 0.86347 51.97454 L 0.86347 70.81459" />
</svg>