<svg version="1.1" xmlns="http://www.w3.org/2000/svg" viewBox="-5.335555458861003 -69.48386495440877 8.23397041172176 117.86283803129567" fill="none" stroke="black" stroke-width="0.6%" vector-effect="non-scaling-stroke">
    <path d="M 0.10809 30.56031 L 0.39994 35.16934 L 0.39994 37.61985 L 1.89841 37.57147 L 1.89841 35.12097 L 0.39994 35.16934" />
    <path d="M 0.10809 33.01081 L 0.39994 37.61985" />
    <path d="M 0.72595 16.60499 L 1.89841 35.12097" />
    <path d="M -0.44001 43.45597 L -0.44001 -6.95442 L -0.1916 -3.03143 L 0.10809 -3.0411 L -0.14032 -6.9641 L -0.44001 -6.95442" />
    <path d="M -0.1916 47.37897 L -0.1916 -3.03143" />
    <path d="M -0.44001 43.45597 L -0.1916 47.37897 L 0.10809 47.3693 L 0.10809 -3.0411" />
    <path d="M -0.69972 39.35465 L -0.69972 -11.05574 L -0.4513 -7.13274 L -0.15161 -7.14242 L -0.40002 -11.06542 L -0.69972 -11.05574" />
    <path d="M -0.4513 43.27765 L -0.4513 -7.13274" />
    <path d="M -0.69972 39.35465 L -0.4513 43.27765 L -0.44001 43.27729" />
    <path d="M -0.15161 -6.96373 L -0.15161 -7.14242" />
    <path d="M -0.95942 35.25334 L -0.95942 -15.15706 L -0.71101 -11.23406 L -0.41131 -11.24374 L -0.65972 -15.16673 L -0.95942 -15.15706" />
    <path d="M -0.71101 39.17634 L -0.71101 -11.23406" />
    <path d="M -0.95942 35.25334 L -0.71101 39.17634 L -0.69972 39.17597" />
    <path d="M -0.41131 -11.06505 L -0.41131 -11.24374" />
    <path d="M -1.21912 31.15202 L -1.21912 -19.25838 L -0.97071 -15.33538 L -0.67102 -15.34505 L -0.91943 -19.26805 L -1.21912 -19.25838" />
    <path d="M -0.97071 35.07502 L -0.97071 -15.33538" />
    <path d="M -1.21912 31.15202 L -0.97071 35.07502 L -0.95942 35.07465" />
    <path d="M -0.67102 -15.16637 L -0.67102 -15.34505" />
    <path d="M -1.47882 27.0507 L -1.47882 -23.3597 L -1.23041 -19.4367 L -0.93072 -19.44637 L -1.17913 -23.36937 L -1.47882 -23.3597" />
    <path d="M -1.23041 30.9737 L -1.23041 -19.4367" />
    <path d="M -1.47882 27.0507 L -1.23041 30.9737 L -1.21912 30.97334" />
    <path d="M -0.93072 -19.26769 L -0.93072 -19.44637" />
    <path d="M -1.73853 22.94938 L -1.73853 -27.46101 L -1.49012 -23.53801 L -1.19042 -23.54769 L -1.43883 -27.47069 L -1.73853 -27.46101" />
    <path d="M -1.49012 26.87238 L -1.49012 -23.53801" />
    <path d="M -1.73853 22.94938 L -1.49012 26.87238 L -1.47882 26.87202" />
    <path d="M -1.19042 -23.36901 L -1.19042 -23.54769" />
    <path d="M -1.99823 18.84807 L -1.99823 -31.56233 L -1.74982 -27.63933 L -1.45012 -27.64901 L -1.69854 -31.57201 L -1.99823 -31.56233" />
    <path d="M -1.74982 22.77107 L -1.74982 -27.63933" />
    <path d="M -1.99823 18.84807 L -1.74982 22.77107 L -1.73853 22.7707" />
    <path d="M -1.45012 -27.47032 L -1.45012 -27.64901" />
    <path d="M -2.25793 14.74675 L -2.25793 -35.66365 L -2.00952 -31.74065 L -1.70983 -31.75032 L -1.95824 -35.67332 L -2.25793 -35.66365" />
    <path d="M -2.00952 18.66975 L -2.00952 -31.74065" />
    <path d="M -2.25793 14.74675 L -2.00952 18.66975 L -1.99823 18.66938" />
    <path d="M -1.70983 -31.57164 L -1.70983 -31.75032" />
    <path d="M -2.51763 10.64543 L -2.51763 -39.76497 L -2.26922 -35.84197 L -1.96953 -35.85164 L -2.21794 -39.77464 L -2.51763 -39.76497" />
    <path d="M -2.26922 14.56843 L -2.26922 -35.84197" />
    <path d="M -2.51763 10.64543 L -2.26922 14.56843 L -2.25793 14.56807" />
    <path d="M -1.96953 -35.67296 L -1.96953 -35.85164" />
    <path d="M -2.77734 6.54411 L -2.77734 -43.86628 L -2.52893 -39.94328 L -2.22923 -39.95296 L -2.47764 -43.87596 L -2.77734 -43.86628" />
    <path d="M -2.52893 10.46711 L -2.52893 -39.94328" />
    <path d="M -2.77734 6.54411 L -2.52893 10.46711 L -2.51763 10.46675" />
    <path d="M -2.22923 -39.77428 L -2.22923 -39.95296" />
    <path d="M -3.03704 2.4428 L -3.03704 -47.9676 L -2.78863 -44.0446 L -2.48894 -44.05428 L -2.73735 -47.97728 L -3.03704 -47.9676" />
    <path d="M -2.78863 6.3658 L -2.78863 -44.0446" />
    <path d="M -3.03704 2.4428 L -2.78863 6.3658 L -2.77734 6.36543" />
    <path d="M -2.48894 -43.87559 L -2.48894 -44.05428" />
    <path d="M -3.29674 -1.65852 L -3.29674 -52.06892 L -3.04833 -48.14592 L -2.74864 -48.15559 L -2.99705 -52.07859 L -3.29674 -52.06892" />
    <path d="M -3.04833 2.26448 L -3.04833 -48.14592" />
    <path d="M -3.29674 -1.65852 L -3.04833 2.26448 L -3.03704 2.26411" />
    <path d="M -2.74864 -47.97691 L -2.74864 -48.15559" />
    <path d="M -3.55645 -5.75984 L -3.55645 -56.17024 L -3.30803 -52.24724 L -3.00834 -52.25691 L -3.25675 -56.17991 L -3.55645 -56.17024" />
    <path d="M -3.30803 -1.83684 L -3.30803 -52.24724" />
    <path d="M -3.55645 -5.75984 L -3.30803 -1.83684 L -3.29674 -1.8372" />
    <path d="M -3.00834 -52.07823 L -3.00834 -52.25691" />
    <path d="M -3.81615 -9.86116 L -3.81615 -60.27155 L -3.56774 -56.34855 L -3.26804 -56.35823 L -3.51646 -60.28123 L -3.81615 -60.27155" />
    <path d="M -3.56774 -5.93816 L -3.56774 -56.34855" />
    <path d="M -3.81615 -9.86116 L -3.56774 -5.93816 L -3.55645 -5.93852" />
    <path d="M -3.26804 -56.17955 L -3.26804 -56.35823" />
    <path d="M -4.33555 -18.06379 L -4.33555 -68.47419 L -4.08714 -64.55119 L -3.78745 -64.56086 L -4.03586 -68.48386 L -4.33555 -68.47419" />
    <path d="M -4.08714 -14.14079 L -4.08714 -64.55119" />
    <path d="M -4.33555 -18.06379 L -4.08714 -14.14079 L -4.07585 -14.14116" />
    <path d="M -3.78745 -64.38218 L -3.78745 -64.56086" />
    <path d="M -4.07585 -13.96247 L -4.07585 -64.37287 L -3.82744 -60.44987 L -3.52775 -60.45955 L -3.77616 -64.38255 L -4.07585 -64.37287" />
    <path d="M -3.82744 -10.03947 L -3.82744 -60.44987" />
    <path d="M -4.07585 -13.96247 L -3.82744 -10.03947 L -3.81615 -10.03984" />
    <path d="M -3.52775 -60.28086 L -3.52775 -60.45955" />
    <path d="M -1.15218 -66.59773 A 1.19 0.84966 360 0 1 0.09156 -65.74894 L 0.09156 -14.4178" />
    <path d="M 0.09156 -65.74894 A 1.19 0.84966 360 1 1 -2.28844 -65.74894 L -2.28844 -52.0036" />
    <path d="M -2.28844 -65.74894 A 1.19 0.84966 360 0 1 -1.15218 -66.59773" />
    <path d="M 0.10809 9.55598 L 0.39994 14.16501 L 0.39994 16.61551 L 1.89841 16.56714 L 1.89841 14.11664 L 0.39994 14.16501" />
    <path d="M 0.10809 12.00648 L 0.39994 16.61551" />
    <path d="M -2.43749 -54.35754 L 1.89841 14.11664" />
    <path d="M -2.43749 -54.35754 L -3.13992 -54.33486" />
</svg>