<svg version="1.1" xmlns="http://www.w3.org/2000/svg" viewBox="-3.8736526633853057 -75.64201639957304 7.8128108489383274 137.8717473553634" fill="none" stroke="black" stroke-width="0.6%" vector-effect="non-scaling-stroke">
    <path d="M -0.22873 18.32637 L 1.43959 61.22973 L 2.93916 61.20761 L 2.93916 58.45033 L 1.43959 58.47245 L 1.43959 61.22973" />
    <path d="M -0.22873 15.5691 L 1.43959 58.47245" />
    <path d="M -1.71215 -74.64181 A 1.19 0.73297 0 0 1 -0.49365 -73.90905 A 1.19 0.73297 0 0 1 -2.87365 -73.90905 A 1.19 0.73297 0 0 1 -1.71215 -74.64181 Z" />
    <path d="M -1.50543 -54.2773 A 1.19 0.73297 360 0 1 -1.80534 -54.27287 L -1.80534 2.44828 L -1.76776 3.41472 L -1.76776 -53.30644 L -1.46785 -53.31086 L -1.50543 -54.2773 Z" />
    <path d="M -2.87365 1.71916 A 1.19 0.73297 180 0 0 -1.80534 2.44828" />
    <path d="M -0.49399 -39.06672 A 1.19 0.73297 0 0 1 -0.49365 -39.04917 A 1.19 0.73297 0 0 1 -0.89199 -38.50193" />
    <path d="M -0.49399 -39.06672 L -0.49399 -39.03162" />
    <path d="M 2.12783 37.58576 L 2.93916 58.45033" />
    <path d="M -1.76776 3.41472 L -1.76178 3.41463" />
    <path d="M -1.46785 -53.15683 L -1.46785 -53.31086" />
    <path d="M -1.80534 -54.27287 L -1.76776 -53.30644" />
    <path d="M -0.22873 -5.30744 L 1.43959 37.59592 L 2.93916 37.57379 L 2.93916 34.81652 L 1.43959 34.83864 L 1.43959 37.59592" />
    <path d="M -0.22873 -8.06472 L 1.43959 34.83864" />
    <path d="M 0.06585 -39.07498 L -0.49365 -39.06673" />
    <path d="M 0.06585 -39.07498 L 2.93916 34.81652" />
    <path d="M -0.66034 31.89373 L -0.66034 -24.82742 L -0.52865 -21.44073 L -0.22873 -21.44515 L -0.36043 -24.83185 L -0.66034 -24.82742" />
    <path d="M -0.52865 35.28042 L -0.52865 -21.44073" />
    <path d="M -0.66034 31.89373 L -0.52865 35.28042 L -0.22873 35.276 L -0.22873 -21.44515" />
    <path d="M -0.79802 28.3531 L -0.79802 -28.36806 L -0.66633 -24.98136 L -0.36641 -24.98579 L -0.49811 -28.37248 L -0.79802 -28.36806" />
    <path d="M -0.66633 31.73979 L -0.66633 -24.98136" />
    <path d="M -0.79802 28.3531 L -0.66633 31.73979 L -0.66034 31.7397" />
    <path d="M -0.36641 -24.83176 L -0.36641 -24.98579" />
    <path d="M -0.9357 24.81246 L -0.9357 -31.90869 L -0.80401 -28.522 L -0.50409 -28.52642 L -0.63579 -31.91312 L -0.9357 -31.90869" />
    <path d="M -0.80401 28.19916 L -0.80401 -28.522" />
    <path d="M -0.9357 24.81246 L -0.80401 28.19916 L -0.79802 28.19907" />
    <path d="M -0.50409 -28.37239 L -0.50409 -28.52642" />
    <path d="M -1.07338 21.27183 L -1.07338 -35.44933 L -0.94169 -32.06263 L -0.64177 -32.06706 L -0.77346 -35.45375 L -1.07338 -35.44933" />
    <path d="M -0.94169 24.65852 L -0.94169 -32.06263" />
    <path d="M -1.07338 21.27183 L -0.94169 24.65852 L -0.9357 24.65843" />
    <path d="M -0.64177 -31.91303 L -0.64177 -32.06706" />
    <path d="M -1.21106 17.73119 L -1.21106 -38.98996 L -1.07936 -35.60327 L -0.77945 -35.60769 L -0.91114 -38.99438 L -1.21106 -38.98996" />
    <path d="M -1.07936 21.11789 L -1.07936 -35.60327" />
    <path d="M -1.21106 17.73119 L -1.07936 21.11789 L -1.07338 21.1178" />
    <path d="M -0.77945 -35.45366 L -0.77945 -35.60769" />
    <path d="M -1.34874 14.19056 L -1.34874 -42.53059 L -1.21704 -39.1439 L -0.91713 -39.14833 L -1.04882 -42.53502 L -1.34874 -42.53059" />
    <path d="M -1.21704 17.57725 L -1.21704 -39.1439" />
    <path d="M -1.34874 14.19056 L -1.21704 17.57725 L -1.21106 17.57716" />
    <path d="M -0.91713 -38.9943 L -0.91713 -39.14833" />
    <path d="M -1.48642 10.64992 L -1.48642 -46.07123 L -1.35472 -42.68454 L -1.05481 -42.68896 L -1.1865 -46.07565 L -1.48642 -46.07123" />
    <path d="M -1.35472 14.03662 L -1.35472 -42.68454" />
    <path d="M -1.48642 10.64992 L -1.35472 14.03662 L -1.34874 14.03653" />
    <path d="M -1.05481 -42.53493 L -1.05481 -42.68896" />
    <path d="M -1.6241 7.10929 L -1.6241 -49.61186 L -1.4924 -46.22517 L -1.19249 -46.22959 L -1.32418 -49.61629 L -1.6241 -49.61186" />
    <path d="M -1.4924 10.49598 L -1.4924 -46.22517" />
    <path d="M -1.6241 7.10929 L -1.4924 10.49598 L -1.48642 10.4959" />
    <path d="M -1.19249 -46.07556 L -1.19249 -46.22959" />
    <path d="M -1.76178 3.56866 L -1.76178 -53.1525 L -1.63008 -49.7658 L -1.33017 -49.77023 L -1.46186 -53.15692 L -1.76178 -53.1525" />
    <path d="M -1.63008 6.95535 L -1.63008 -49.7658" />
    <path d="M -1.76178 3.56866 L -1.63008 6.95535 L -1.6241 6.95526" />
    <path d="M -1.33017 -49.6162 L -1.33017 -49.77023" />
    <path d="M -2.87365 -73.90905 L -2.87365 1.71916" />
    <path d="M -0.49365 -73.90905 L -0.49365 -39.04917" />
</svg>