<svg version="1.1" xmlns="http://www.w3.org/2000/svg" viewBox="-5.836086220936124 -76.9397011382607 8.714842827515223 133.8165684914439" fill="none" stroke="black" stroke-width="0.6%" vector-effect="non-scaling-stroke">
    <path d="M 0.30011 37.41855 L 0.37996 38.67221 L 0.37996 41.38845 L 1.87876 41.35048 L 1.87876 38.63425 L 0.37996 38.67221" />
    <path d="M 0.30011 40.13478 L 0.37996 41.38845" />
    <path d="M 0.57094 18.1016 L 1.87876 38.63425" />
    <path d="M -0.2204 52.41108 L -0.2204 -3.46574 L 0.00035 0.00004 L 0.30011 -0.00755 L 0.07936 -3.47333 L -0.2204 -3.46574" />
    <path d="M 0.00035 55.87687 L 0.00035 0.00004" />
    <path d="M -0.2204 52.41108 L 0.00035 55.87687 L 0.30011 55.86927 L 0.30011 -0.00755" />
    <path d="M -0.45118 48.78777 L -0.45118 -7.08906 L -0.23043 -3.62327 L 0.06933 -3.63087 L -0.15142 -7.09665 L -0.45118 -7.08906" />
    <path d="M -0.23043 52.25355 L -0.23043 -3.62327" />
    <path d="M -0.45118 48.78777 L -0.23043 52.25355 L -0.2204 52.25329" />
    <path d="M 0.06933 -3.47308 L 0.06933 -3.63087" />
    <path d="M -0.68196 45.16445 L -0.68196 -10.71238 L -0.46121 -7.24659 L -0.16146 -7.25419 L -0.38221 -10.71997 L -0.68196 -10.71238" />
    <path d="M -0.46121 48.63023 L -0.46121 -7.24659" />
    <path d="M -0.68196 45.16445 L -0.46121 48.63023 L -0.45118 48.62998" />
    <path d="M -0.16146 -7.0964 L -0.16146 -7.25419" />
    <path d="M -0.91275 41.54113 L -0.91275 -14.33569 L -0.692 -10.86991 L -0.39224 -10.8775 L -0.61299 -14.34329 L -0.91275 -14.33569" />
    <path d="M -0.692 45.00691 L -0.692 -10.86991" />
    <path d="M -0.91275 41.54113 L -0.692 45.00691 L -0.68196 45.00666" />
    <path d="M -0.39224 -10.71971 L -0.39224 -10.8775" />
    <path d="M -1.14353 37.91781 L -1.14353 -17.95901 L -0.92278 -14.49323 L -0.62302 -14.50082 L -0.84378 -17.96661 L -1.14353 -17.95901" />
    <path d="M -0.92278 41.38359 L -0.92278 -14.49323" />
    <path d="M -1.14353 37.91781 L -0.92278 41.38359 L -0.91275 41.38334" />
    <path d="M -0.62302 -14.34303 L -0.62302 -14.50082" />
    <path d="M -1.37432 34.29449 L -1.37432 -21.58233 L -1.15357 -18.11655 L -0.85381 -18.12414 L -1.07456 -21.58992 L -1.37432 -21.58233" />
    <path d="M -1.15357 37.76027 L -1.15357 -18.11655" />
    <path d="M -1.37432 34.29449 L -1.15357 37.76027 L -1.14353 37.76002" />
    <path d="M -0.85381 -17.96635 L -0.85381 -18.12414" />
    <path d="M -1.6051 30.67117 L -1.6051 -25.20565 L -1.38435 -21.73987 L -1.08459 -21.74746 L -1.30534 -25.21324 L -1.6051 -25.20565" />
    <path d="M -1.38435 34.13696 L -1.38435 -21.73987" />
    <path d="M -1.6051 30.67117 L -1.38435 34.13696 L -1.37432 34.1367" />
    <path d="M -1.08459 -21.58967 L -1.08459 -21.74746" />
    <path d="M -1.83589 27.04785 L -1.83589 -28.82897 L -1.61514 -25.36318 L -1.31538 -25.37078 L -1.53613 -28.83656 L -1.83589 -28.82897" />
    <path d="M -1.61514 30.51364 L -1.61514 -25.36318" />
    <path d="M -1.83589 27.04785 L -1.61514 30.51364 L -1.6051 30.51338" />
    <path d="M -1.31538 -25.21299 L -1.31538 -25.37078" />
    <path d="M -2.06667 23.42454 L -2.06667 -32.45229 L -1.84592 -28.9865 L -1.54616 -28.9941 L -1.76691 -32.45988 L -2.06667 -32.45229" />
    <path d="M -1.84592 26.89032 L -1.84592 -28.9865" />
    <path d="M -2.06667 23.42454 L -1.84592 26.89032 L -1.83589 26.89006" />
    <path d="M -1.54616 -28.83631 L -1.54616 -28.9941" />
    <path d="M -2.29746 19.80122 L -2.29746 -36.0756 L -2.07671 -32.60982 L -1.77695 -32.61741 L -1.9977 -36.0832 L -2.29746 -36.0756" />
    <path d="M -2.07671 23.267 L -2.07671 -32.60982" />
    <path d="M -2.29746 19.80122 L -2.07671 23.267 L -2.06667 23.26675" />
    <path d="M -1.77695 -32.45962 L -1.77695 -32.61741" />
    <path d="M -2.52824 16.1779 L -2.52824 -39.69892 L -2.30749 -36.23314 L -2.00773 -36.24073 L -2.22848 -39.70652 L -2.52824 -39.69892" />
    <path d="M -2.30749 19.64368 L -2.30749 -36.23314" />
    <path d="M -2.52824 16.1779 L -2.30749 19.64368 L -2.29746 19.64343" />
    <path d="M -2.00773 -36.08294 L -2.00773 -36.24073" />
    <path d="M -2.75902 12.55458 L -2.75902 -43.32224 L -2.53827 -39.85646 L -2.23852 -39.86405 L -2.45927 -43.32983 L -2.75902 -43.32224" />
    <path d="M -2.53827 16.02036 L -2.53827 -39.85646" />
    <path d="M -2.75902 12.55458 L -2.53827 16.02036 L -2.52824 16.02011" />
    <path d="M -2.23852 -39.70626 L -2.23852 -39.86405" />
    <path d="M -2.98981 8.93126 L -2.98981 -46.94556 L -2.76906 -43.47978 L -2.4693 -43.48737 L -2.69005 -46.95315 L -2.98981 -46.94556" />
    <path d="M -2.76906 12.39705 L -2.76906 -43.47978" />
    <path d="M -2.98981 8.93126 L -2.76906 12.39705 L -2.75902 12.39679" />
    <path d="M -2.4693 -43.32958 L -2.4693 -43.48737" />
    <path d="M -3.22059 5.30794 L -3.22059 -50.56888 L -2.99984 -47.10309 L -2.70009 -47.11069 L -2.92084 -50.57647 L -3.22059 -50.56888" />
    <path d="M -2.99984 8.77373 L -2.99984 -47.10309" />
    <path d="M -3.22059 5.30794 L -2.99984 8.77373 L -2.98981 8.77347" />
    <path d="M -2.70009 -46.9529 L -2.70009 -47.11069" />
    <path d="M -3.45138 1.68463 L -3.45138 -54.1922 L -3.23063 -50.72641 L -2.93087 -50.73401 L -3.15162 -54.19979 L -3.45138 -54.1922" />
    <path d="M -3.23063 5.15041 L -3.23063 -50.72641" />
    <path d="M -3.45138 1.68463 L -3.23063 5.15041 L -3.22059 5.15015" />
    <path d="M -2.93087 -50.57622 L -2.93087 -50.73401" />
    <path d="M -3.68216 -1.93869 L -3.68216 -57.81551 L -3.46141 -54.34973 L -3.16165 -54.35733 L -3.3824 -57.82311 L -3.68216 -57.81551" />
    <path d="M -3.46141 1.52709 L -3.46141 -54.34973" />
    <path d="M -3.68216 -1.93869 L -3.46141 1.52709 L -3.45138 1.52684" />
    <path d="M -3.16165 -54.19954 L -3.16165 -54.35733" />
    <path d="M -3.91295 -5.56201 L -3.91295 -61.43883 L -3.6922 -57.97305 L -3.39244 -57.98064 L -3.61319 -61.44643 L -3.91295 -61.43883" />
    <path d="M -3.6922 -2.09623 L -3.6922 -57.97305" />
    <path d="M -3.91295 -5.56201 L -3.6922 -2.09623 L -3.68216 -2.09648" />
    <path d="M -3.39244 -57.82285 L -3.39244 -57.98064" />
    <path d="M -4.14373 -9.18533 L -4.14373 -65.06215 L -3.92298 -61.59637 L -3.62322 -61.60396 L -3.84397 -65.06974 L -4.14373 -65.06215" />
    <path d="M -3.92298 -5.71955 L -3.92298 -61.59637" />
    <path d="M -4.14373 -9.18533 L -3.92298 -5.71955 L -3.91295 -5.7198" />
    <path d="M -3.62322 -61.44617 L -3.62322 -61.60396" />
    <path d="M -4.37452 -12.80865 L -4.37452 -68.68547 L -4.15377 -65.21969 L -3.85401 -65.22728 L -4.07476 -68.69306 L -4.37452 -68.68547" />
    <path d="M -4.15377 -9.34287 L -4.15377 -65.21969" />
    <path d="M -4.37452 -12.80865 L -4.15377 -9.34287 L -4.14373 -9.34312" />
    <path d="M -3.85401 -65.06949 L -3.85401 -65.22728" />
    <path d="M -4.83609 -20.05528 L -4.83609 -75.93211 L -4.61533 -72.46632 L -4.31558 -72.47392 L -4.53633 -75.9397 L -4.83609 -75.93211" />
    <path d="M -4.61533 -16.5895 L -4.61533 -72.46632" />
    <path d="M -4.83609 -20.05528 L -4.61533 -16.5895 L -4.6053 -16.58976" />
    <path d="M -4.31558 -72.31613 L -4.31558 -72.47392" />
    <path d="M -4.6053 -16.43197 L -4.6053 -72.30879 L -4.38455 -68.84301 L -4.08479 -68.8506 L -4.30554 -72.31638 L -4.6053 -72.30879" />
    <path d="M -4.38455 -12.96618 L -4.38455 -68.84301" />
    <path d="M -4.6053 -16.43197 L -4.38455 -12.96618 L -4.37452 -12.96644" />
    <path d="M -4.08479 -68.69281 L -4.08479 -68.8506" />
    <path d="M -1.15652 -73.96195 A 1.19 0.75047 360 0 1 0.08125 -73.21208 L 0.08125 -12.86867" />
    <path d="M 0.08125 -73.21208 A 1.19 0.75047 360 0 1 -2.29875 -73.21208 L -2.29875 -50.23469" />
    <path d="M -2.29875 -73.21208 A 1.19 0.75047 360 0 1 -1.15652 -73.96195" />
    <path d="M 0.30011 14.13654 L 0.37996 15.3902 L 0.37996 18.10644 L 1.87876 18.06847 L 1.87876 15.35224 L 0.37996 15.3902" />
    <path d="M 0.30011 16.85277 L 0.37996 18.10644" />
    <path d="M -2.93762 -60.26484 L 1.87876 15.35224" />
    <path d="M -2.93762 -60.26484 L -3.53696 -60.24966" />
</svg>