<svg version="1.1" xmlns="http://www.w3.org/2000/svg" viewBox="-5.339940114913187 -98.32503029606089 10.669832860066482 196.55585371141484" fill="none" stroke="black" stroke-width="0.6%" vector-effect="non-scaling-stroke">
    <path d="M 3.13368 1.61151 A 1.19 0.1392 360 0 1 4.32989 1.75072 A 1.19 0.1392 360 0 1 1.94989 1.75072 A 1.19 0.1392 360 0 1 3.13368 1.61151 Z" />
    <path d="M 1.94989 97.09162 A 1.19 0.1392 180 0 0 4.32989 97.09162" />
    <path d="M 0.40036 20.11105 L 0.27819 17.37157" />
    <path d="M 0.40036 20.11105 L 0.40036 23.58702 L 1.90034 23.58611 L 1.90034 20.11014 L -2.43996 -77.21503 L -3.1431 -77.21461" />
    <path d="M 0.27819 20.84754 L 0.40036 23.58702" />
    <path d="M 1.90034 20.11014 L 0.40036 20.11105" />
    <path d="M 0.40036 49.90508 L 0.27819 47.1656" />
    <path d="M 0.40036 49.90508 L 0.40036 53.38105 L 1.90034 53.38014 L 1.90034 49.90417 L 0.7267 23.58682" />
    <path d="M 0.27819 50.64157 L 0.40036 53.38105" />
    <path d="M 1.90034 49.90417 L 0.40036 49.90508" />
    <path d="M -1.18576 -95.24575 A 1.19 0.1392 360 0 1 0.01045 -95.10654 A 1.19 0.1392 360 0 1 -2.36955 -95.10654 A 1.19 0.1392 360 0 1 -1.18576 -95.24575 Z" />
    <path d="M -3.89 -15.72987 L -3.89 -87.23555 L -3.86131 -86.59217 L -3.56131 -86.59236 L -3.59 -87.23573 L -3.89 -87.23555" />
    <path d="M -3.86131 -15.0865 L -3.86131 -86.59217" />
    <path d="M -3.89 -15.72987 L -3.86131 -15.0865 L -3.86 -15.0865" />
    <path d="M -3.56131 -86.56311 L -3.56131 -86.59236" />
    <path d="M -3.91999 -16.40249 L -3.91999 -87.90817 L -3.8913 -87.26479 L -3.59131 -87.26498 L -3.62 -87.90835 L -3.91999 -87.90817" />
    <path d="M -3.8913 -15.75912 L -3.8913 -87.26479" />
    <path d="M -3.91999 -16.40249 L -3.8913 -15.75912 L -3.89 -15.75912" />
    <path d="M -3.59131 -87.23573 L -3.59131 -87.26498" />
    <path d="M -3.94999 -17.07511 L -3.94999 -88.58079 L -3.9213 -87.93741 L -3.6213 -87.9376 L -3.64999 -88.58097 L -3.94999 -88.58079" />
    <path d="M -3.9213 -16.43174 L -3.9213 -87.93741" />
    <path d="M -3.94999 -17.07511 L -3.9213 -16.43174 L -3.91999 -16.43174" />
    <path d="M -3.6213 -87.90835 L -3.6213 -87.9376" />
    <path d="M -3.97999 -17.74773 L -3.97999 -89.25341 L -3.95129 -88.61003 L -3.6513 -88.61022 L -3.67999 -89.25359 L -3.97999 -89.25341" />
    <path d="M -3.95129 -17.10436 L -3.95129 -88.61003" />
    <path d="M -3.97999 -17.74773 L -3.95129 -17.10436 L -3.94999 -17.10436" />
    <path d="M -3.6513 -88.58097 L -3.6513 -88.61022" />
    <path d="M -4.00998 -18.42035 L -4.00998 -89.92603 L -3.98129 -89.28265 L -3.68129 -89.28284 L -3.70999 -89.92621 L -4.00998 -89.92603" />
    <path d="M -3.98129 -17.77698 L -3.98129 -89.28265" />
    <path d="M -4.00998 -18.42035 L -3.98129 -17.77698 L -3.97999 -17.77698" />
    <path d="M -3.68129 -89.25359 L -3.68129 -89.28284" />
    <path d="M -4.03998 -19.09297 L -4.03998 -90.59865 L -4.01129 -89.95527 L -3.71129 -89.95546 L -3.73998 -90.59883 L -4.03998 -90.59865" />
    <path d="M -4.01129 -18.4496 L -4.01129 -89.95527" />
    <path d="M -4.03998 -19.09297 L -4.01129 -18.4496 L -4.00998 -18.4496" />
    <path d="M -3.71129 -89.92621 L -3.71129 -89.95546" />
    <path d="M -4.06997 -19.76559 L -4.06997 -91.27127 L -4.04128 -90.62789 L -3.74129 -90.62807 L -3.76998 -91.27145 L -4.06997 -91.27127" />
    <path d="M -4.04128 -19.12222 L -4.04128 -90.62789" />
    <path d="M -4.06997 -19.76559 L -4.04128 -19.12222 L -4.03998 -19.12222" />
    <path d="M -3.74129 -90.59883 L -3.74129 -90.62807" />
    <path d="M -4.09997 -20.43821 L -4.09997 -91.94389 L -4.07128 -91.30051 L -3.77128 -91.30069 L -3.79997 -91.94407 L -4.09997 -91.94389" />
    <path d="M -4.07128 -19.79484 L -4.07128 -91.30051" />
    <path d="M -4.09997 -20.43821 L -4.07128 -19.79484 L -4.06997 -19.79484" />
    <path d="M -3.77128 -91.27145 L -3.77128 -91.30069" />
    <path d="M -4.12997 -21.11083 L -4.12997 -92.61651 L -4.10127 -91.97313 L -3.80128 -91.97331 L -3.82997 -92.61669 L -4.12997 -92.61651" />
    <path d="M -4.10127 -20.46746 L -4.10127 -91.97313" />
    <path d="M -4.12997 -21.11083 L -4.10127 -20.46746 L -4.09997 -20.46746" />
    <path d="M -3.80128 -91.94407 L -3.80128 -91.97331" />
    <path d="M -4.15996 -21.78345 L -4.15996 -93.28913 L -4.13127 -92.64575 L -3.83127 -92.64593 L -3.85997 -93.28931 L -4.15996 -93.28913" />
    <path d="M -4.13127 -21.14008 L -4.13127 -92.64575" />
    <path d="M -4.15996 -21.78345 L -4.13127 -21.14008 L -4.12997 -21.14008" />
    <path d="M -3.83127 -92.61669 L -3.83127 -92.64593" />
    <path d="M -4.18996 -22.45607 L -4.18996 -93.96175 L -4.16127 -93.31837 L -3.86127 -93.31855 L -3.88996 -93.96193 L -4.18996 -93.96175" />
    <path d="M -4.16127 -21.8127 L -4.16127 -93.31837" />
    <path d="M -4.18996 -22.45607 L -4.16127 -21.8127 L -4.15996 -21.8127" />
    <path d="M -3.86127 -93.28931 L -3.86127 -93.31855" />
    <path d="M -4.21995 -23.12869 L -4.21995 -94.63437 L -4.19126 -93.99099 L -3.89127 -93.99117 L -3.91996 -94.63455 L -4.21995 -94.63437" />
    <path d="M -4.19126 -22.48531 L -4.19126 -93.99099" />
    <path d="M -4.21995 -23.12869 L -4.19126 -22.48531 L -4.18996 -22.48532" />
    <path d="M -3.89127 -93.96193 L -3.89127 -93.99117" />
    <path d="M -4.24995 -23.80131 L -4.24995 -95.30699 L -4.22126 -94.66361 L -3.92126 -94.66379 L -3.94995 -95.30717 L -4.24995 -95.30699" />
    <path d="M -4.22126 -23.15793 L -4.22126 -94.66361" />
    <path d="M -4.24995 -23.80131 L -4.22126 -23.15793 L -4.21995 -23.15794" />
    <path d="M -3.92126 -94.63455 L -3.92126 -94.66379" />
    <path d="M -4.27995 -24.47393 L -4.27995 -95.97961 L -4.25125 -95.33623 L -3.95126 -95.33641 L -3.97995 -95.97979 L -4.27995 -95.97961" />
    <path d="M -4.25125 -23.83055 L -4.25125 -95.33623" />
    <path d="M -4.27995 -24.47393 L -4.25125 -23.83055 L -4.24995 -23.83056" />
    <path d="M -3.95126 -95.30717 L -3.95126 -95.33641" />
    <path d="M -4.33994 -25.81917 L -4.33994 -97.32485 L -4.31125 -96.68147 L -4.01125 -96.68165 L -4.03994 -97.32503 L -4.33994 -97.32485" />
    <path d="M -4.31125 -25.17579 L -4.31125 -96.68147" />
    <path d="M -4.33994 -25.81917 L -4.31125 -25.17579 L -4.30994 -25.1758" />
    <path d="M -4.01125 -96.65241 L -4.01125 -96.68165" />
    <path d="M -4.30994 -25.14655 L -4.30994 -96.65223 L -4.28125 -96.00885 L -3.98126 -96.00903 L -4.00995 -96.65241 L -4.30994 -96.65223" />
    <path d="M -4.28125 -24.50317 L -4.28125 -96.00885" />
    <path d="M -4.30994 -25.14655 L -4.28125 -24.50317 L -4.27995 -24.50318" />
    <path d="M -3.98126 -95.97979 L -3.98126 -96.00903" />
    <path d="M -0.70582 -84.48383 A 1.19 0.1392 360 0 1 0.49039 -84.34463 A 1.19 0.1392 360 0 1 -1.88961 -84.34463 A 1.19 0.1392 360 0 1 -0.70582 -84.48383 Z" />
    <path d="M -3.41006 -4.96795 L -3.41006 -76.47363 L -3.38137 -75.83025 L -3.08137 -75.83044 L -3.11006 -76.47381 L -3.41006 -76.47363" />
    <path d="M -3.38137 -4.32458 L -3.38137 -75.83025" />
    <path d="M -3.41006 -4.96795 L -3.38137 -4.32458 L -3.38006 -4.32458" />
    <path d="M -3.08137 -75.80119 L -3.08137 -75.83044" />
    <path d="M -3.44006 -5.64057 L -3.44006 -77.14625 L -3.41136 -76.50287 L -3.11137 -76.50306 L -3.14006 -77.14643 L -3.44006 -77.14625" />
    <path d="M -3.41136 -4.9972 L -3.41136 -76.50287" />
    <path d="M -3.44006 -5.64057 L -3.41136 -4.9972 L -3.41006 -4.9972" />
    <path d="M -3.11137 -76.47381 L -3.11137 -76.50306" />
    <path d="M -3.47005 -6.31319 L -3.47005 -77.81887 L -3.44136 -77.17549 L -3.14136 -77.17568 L -3.17006 -77.81905 L -3.47005 -77.81887" />
    <path d="M -3.44136 -5.66982 L -3.44136 -77.17549" />
    <path d="M -3.47005 -6.31319 L -3.44136 -5.66982 L -3.44006 -5.66982" />
    <path d="M -3.14136 -77.14643 L -3.14136 -77.17568" />
    <path d="M -3.50005 -6.98581 L -3.50005 -78.49149 L -3.47136 -77.84811 L -3.17136 -77.8483 L -3.20005 -78.49167 L -3.50005 -78.49149" />
    <path d="M -3.47136 -6.34244 L -3.47136 -77.84811" />
    <path d="M -3.50005 -6.98581 L -3.47136 -6.34244 L -3.47005 -6.34244" />
    <path d="M -3.17136 -77.81905 L -3.17136 -77.8483" />
    <path d="M -3.53004 -7.65843 L -3.53004 -79.16411 L -3.50135 -78.52073 L -3.20136 -78.52092 L -3.23005 -79.16429 L -3.53004 -79.16411" />
    <path d="M -3.50135 -7.01506 L -3.50135 -78.52073" />
    <path d="M -3.53004 -7.65843 L -3.50135 -7.01506 L -3.50005 -7.01506" />
    <path d="M -3.20136 -78.49167 L -3.20136 -78.52092" />
    <path d="M -3.56004 -8.33105 L -3.56004 -79.83673 L -3.53135 -79.19335 L -3.23135 -79.19354 L -3.26004 -79.83691 L -3.56004 -79.83673" />
    <path d="M -3.53135 -7.68768 L -3.53135 -79.19335" />
    <path d="M -3.56004 -8.33105 L -3.53135 -7.68768 L -3.53004 -7.68768" />
    <path d="M -3.23135 -79.16429 L -3.23135 -79.19354" />
    <path d="M -3.59004 -9.00367 L -3.59004 -80.50935 L -3.56134 -79.86597 L -3.26135 -79.86616 L -3.29004 -80.50953 L -3.59004 -80.50935" />
    <path d="M -3.56134 -8.3603 L -3.56134 -79.86597" />
    <path d="M -3.59004 -9.00367 L -3.56134 -8.3603 L -3.56004 -8.3603" />
    <path d="M -3.26135 -79.83691 L -3.26135 -79.86616" />
    <path d="M -3.62003 -9.67629 L -3.62003 -81.18197 L -3.59134 -80.53859 L -3.29134 -80.53878 L -3.32004 -81.18215 L -3.62003 -81.18197" />
    <path d="M -3.59134 -9.03292 L -3.59134 -80.53859" />
    <path d="M -3.62003 -9.67629 L -3.59134 -9.03292 L -3.59004 -9.03292" />
    <path d="M -3.29134 -80.50953 L -3.29134 -80.53878" />
    <path d="M -3.65003 -10.34891 L -3.65003 -81.85459 L -3.62134 -81.21121 L -3.32134 -81.2114 L -3.35003 -81.85477 L -3.65003 -81.85459" />
    <path d="M -3.62134 -9.70554 L -3.62134 -81.21121" />
    <path d="M -3.65003 -10.34891 L -3.62134 -9.70554 L -3.62003 -9.70554" />
    <path d="M -3.32134 -81.18215 L -3.32134 -81.2114" />
    <path d="M -3.68002 -11.02153 L -3.68002 -82.52721 L -3.65133 -81.88383 L -3.35134 -81.88402 L -3.38003 -82.52739 L -3.68002 -82.52721" />
    <path d="M -3.65133 -10.37816 L -3.65133 -81.88383" />
    <path d="M -3.68002 -11.02153 L -3.65133 -10.37816 L -3.65003 -10.37816" />
    <path d="M -3.35134 -81.85477 L -3.35134 -81.88402" />
    <path d="M -3.71002 -11.69415 L -3.71002 -83.19983 L -3.68133 -82.55645 L -3.38133 -82.55664 L -3.41002 -83.20001 L -3.71002 -83.19983" />
    <path d="M -3.68133 -11.05078 L -3.68133 -82.55645" />
    <path d="M -3.71002 -11.69415 L -3.68133 -11.05078 L -3.68002 -11.05078" />
    <path d="M -3.38133 -82.52739 L -3.38133 -82.55664" />
    <path d="M -3.74002 -12.36677 L -3.74002 -83.87245 L -3.71132 -83.22907 L -3.41133 -83.22926 L -3.44002 -83.87263 L -3.74002 -83.87245" />
    <path d="M -3.71132 -11.7234 L -3.71132 -83.22907" />
    <path d="M -3.74002 -12.36677 L -3.71132 -11.7234 L -3.71002 -11.7234" />
    <path d="M -3.41133 -83.20001 L -3.41133 -83.22926" />
    <path d="M -3.77001 -13.03939 L -3.77001 -84.54507 L -3.74132 -83.90169 L -3.44133 -83.90188 L -3.47002 -84.54525 L -3.77001 -84.54507" />
    <path d="M -3.74132 -12.39602 L -3.74132 -83.90169" />
    <path d="M -3.77001 -13.03939 L -3.74132 -12.39602 L -3.74002 -12.39602" />
    <path d="M -3.44133 -83.87263 L -3.44133 -83.90188" />
    <path d="M -3.80001 -13.71201 L -3.80001 -85.21769 L -3.77132 -84.57431 L -3.47132 -84.5745 L -3.50001 -85.21787 L -3.80001 -85.21769" />
    <path d="M -3.77132 -13.06864 L -3.77132 -84.57431" />
    <path d="M -3.80001 -13.71201 L -3.77132 -13.06864 L -3.77001 -13.06864" />
    <path d="M -3.47132 -84.54525 L -3.47132 -84.5745" />
    <path d="M -3.86 -15.05725 L -3.86 -86.56293 L -3.83131 -85.91955 L -3.53131 -85.91974 L -3.56001 -86.56311 L -3.86 -86.56293" />
    <path d="M -3.83131 -14.41388 L -3.83131 -85.91955" />
    <path d="M -3.86 -15.05725 L -3.83131 -14.41388 L -3.83001 -14.41388" />
    <path d="M -3.53131 -85.89049 L -3.53131 -85.91974" />
    <path d="M -3.83001 -14.38463 L -3.83001 -85.89031 L -3.80131 -85.24693 L -3.50132 -85.24712 L -3.53001 -85.89049 L -3.83001 -85.89031" />
    <path d="M -3.80131 -13.74126 L -3.80131 -85.24693" />
    <path d="M -3.83001 -14.38463 L -3.80131 -13.74126 L -3.80001 -13.74126" />
    <path d="M -3.50132 -85.21787 L -3.50132 -85.24712" />
    <path d="M -0.22588 -73.72191 A 1.19 0.1392 360 0 1 0.97033 -73.58271 A 1.19 0.1392 360 0 1 -1.40967 -73.58271 A 1.19 0.1392 360 0 1 -0.22588 -73.72191 Z" />
    <path d="M -2.93012 5.79396 L -2.93012 -65.71171 L -2.90143 -65.06834 L -2.60143 -65.06852 L -2.63013 -65.7119 L -2.93012 -65.71171" />
    <path d="M -2.90143 6.43734 L -2.90143 -65.06834" />
    <path d="M -2.93012 5.79396 L -2.90143 6.43734 L -2.90013 6.43734" />
    <path d="M -2.60143 -65.03927 L -2.60143 -65.06852" />
    <path d="M -2.96012 5.12134 L -2.96012 -66.38433 L -2.93143 -65.74096 L -2.63143 -65.74114 L -2.66012 -66.38452 L -2.96012 -66.38433" />
    <path d="M -2.93143 5.76472 L -2.93143 -65.74096" />
    <path d="M -2.96012 5.12134 L -2.93143 5.76472 L -2.93012 5.76472" />
    <path d="M -2.63143 -65.71189 L -2.63143 -65.74114" />
    <path d="M -2.99011 4.44872 L -2.99011 -67.05695 L -2.96142 -66.41358 L -2.66143 -66.41376 L -2.69012 -67.05714 L -2.99011 -67.05695" />
    <path d="M -2.96142 5.0921 L -2.96142 -66.41358" />
    <path d="M -2.99011 4.44872 L -2.96142 5.0921 L -2.96012 5.0921" />
    <path d="M -2.66143 -66.38451 L -2.66143 -66.41376" />
    <path d="M -3.02011 3.7761 L -3.02011 -67.72957 L -2.99142 -67.0862 L -2.69142 -67.08638 L -2.72011 -67.72976 L -3.02011 -67.72957" />
    <path d="M -2.99142 4.41948 L -2.99142 -67.0862" />
    <path d="M -3.02011 3.7761 L -2.99142 4.41948 L -2.99011 4.41948" />
    <path d="M -2.69142 -67.05713 L -2.69142 -67.08638" />
    <path d="M -3.05011 3.10348 L -3.05011 -68.40219 L -3.02141 -67.75882 L -2.72142 -67.759 L -2.75011 -68.40238 L -3.05011 -68.40219" />
    <path d="M -3.02141 3.74686 L -3.02141 -67.75882" />
    <path d="M -3.05011 3.10348 L -3.02141 3.74686 L -3.02011 3.74686" />
    <path d="M -2.72142 -67.72975 L -2.72142 -67.759" />
    <path d="M -3.0801 2.43086 L -3.0801 -69.07481 L -3.05141 -68.43144 L -2.75141 -68.43162 L -2.78011 -69.07499 L -3.0801 -69.07481" />
    <path d="M -3.05141 3.07424 L -3.05141 -68.43144" />
    <path d="M -3.0801 2.43086 L -3.05141 3.07424 L -3.05011 3.07424" />
    <path d="M -2.75141 -68.40237 L -2.75141 -68.43162" />
    <path d="M -3.1101 1.75824 L -3.1101 -69.74743 L -3.08141 -69.10406 L -2.78141 -69.10424 L -2.8101 -69.74761 L -3.1101 -69.74743" />
    <path d="M -3.08141 2.40162 L -3.08141 -69.10406" />
    <path d="M -3.1101 1.75824 L -3.08141 2.40162 L -3.0801 2.40162" />
    <path d="M -2.78141 -69.07499 L -2.78141 -69.10424" />
    <path d="M -3.14009 1.08562 L -3.14009 -70.42005 L -3.1114 -69.77668 L -2.81141 -69.77686 L -2.8401 -70.42023 L -3.14009 -70.42005" />
    <path d="M -3.1114 1.729 L -3.1114 -69.77668" />
    <path d="M -3.14009 1.08562 L -3.1114 1.729 L -3.1101 1.729" />
    <path d="M -2.81141 -69.74761 L -2.81141 -69.77686" />
    <path d="M -3.17009 0.413 L -3.17009 -71.09267 L -3.1414 -70.4493 L -2.8414 -70.44948 L -2.87009 -71.09285 L -3.17009 -71.09267" />
    <path d="M -3.1414 1.05638 L -3.1414 -70.4493" />
    <path d="M -3.17009 0.413 L -3.1414 1.05638 L -3.14009 1.05638" />
    <path d="M -2.8414 -70.42023 L -2.8414 -70.44948" />
    <path d="M -3.20009 -0.25962 L -3.20009 -71.76529 L -3.17139 -71.12192 L -2.8714 -71.1221 L -2.90009 -71.76547 L -3.20009 -71.76529" />
    <path d="M -3.17139 0.38376 L -3.17139 -71.12192" />
    <path d="M -3.20009 -0.25962 L -3.17139 0.38376 L -3.17009 0.38376" />
    <path d="M -2.8714 -71.09285 L -2.8714 -71.1221" />
    <path d="M -3.23008 -0.93223 L -3.23008 -72.43791 L -3.20139 -71.79454 L -2.9014 -71.79472 L -2.93009 -72.43809 L -3.23008 -72.43791" />
    <path d="M -3.20139 -0.28886 L -3.20139 -71.79454" />
    <path d="M -3.23008 -0.93223 L -3.20139 -0.28886 L -3.20009 -0.28886" />
    <path d="M -2.9014 -71.76547 L -2.9014 -71.79472" />
    <path d="M -3.26008 -1.60485 L -3.26008 -73.11053 L -3.23139 -72.46716 L -2.93139 -72.46734 L -2.96008 -73.11071 L -3.26008 -73.11053" />
    <path d="M -3.23139 -0.96148 L -3.23139 -72.46716" />
    <path d="M -3.26008 -1.60485 L -3.23139 -0.96148 L -3.23008 -0.96148" />
    <path d="M -2.93139 -72.43809 L -2.93139 -72.46734" />
    <path d="M -3.29008 -2.27747 L -3.29008 -73.78315 L -3.26138 -73.13978 L -2.96139 -73.13996 L -2.99008 -73.78333 L -3.29008 -73.78315" />
    <path d="M -3.26138 -1.6341 L -3.26138 -73.13978" />
    <path d="M -3.29008 -2.27747 L -3.26138 -1.6341 L -3.26008 -1.6341" />
    <path d="M -2.96139 -73.11071 L -2.96139 -73.13996" />
    <path d="M -3.32007 -2.95009 L -3.32007 -74.45577 L -3.29138 -73.8124 L -2.99138 -73.81258 L -3.02008 -74.45595 L -3.32007 -74.45577" />
    <path d="M -3.29138 -2.30672 L -3.29138 -73.8124" />
    <path d="M -3.32007 -2.95009 L -3.29138 -2.30672 L -3.29008 -2.30672" />
    <path d="M -2.99138 -73.78333 L -2.99138 -73.81258" />
    <path d="M -3.38006 -4.29533 L -3.38006 -75.80101 L -3.35137 -75.15763 L -3.05138 -75.15782 L -3.08007 -75.80119 L -3.38006 -75.80101" />
    <path d="M -3.35137 -3.65196 L -3.35137 -75.15763" />
    <path d="M -3.38006 -4.29533 L -3.35137 -3.65196 L -3.35007 -3.65196" />
    <path d="M -3.05138 -75.12857 L -3.05138 -75.15782" />
    <path d="M -3.35007 -3.62271 L -3.35007 -75.12839 L -3.32138 -74.48502 L -3.02138 -74.4852 L -3.05007 -75.12857 L -3.35007 -75.12839" />
    <path d="M -3.32138 -2.97934 L -3.32138 -74.48502" />
    <path d="M -3.35007 -3.62271 L -3.32138 -2.97934 L -3.32007 -2.97934" />
    <path d="M -3.02138 -74.45595 L -3.02138 -74.4852" />
    <path d="M 0.25406 -62.95999 A 1.19 0.1392 360 0 1 1.45026 -62.82079 L 1.45026 -52.17058" />
    <path d="M 1.45026 -62.82079 A 1.19 0.1392 360 0 1 -0.92974 -62.82079 L -0.92974 -43.35029" />
    <path d="M -0.92974 -62.82079 A 1.19 0.1392 360 0 1 0.25406 -62.95999" />
    <path d="M -2.45018 16.55588 L -2.45018 -54.94979 L -2.42149 -54.30642 L -2.1215 -54.3066 L -2.15019 -54.94998 L -2.45018 -54.94979" />
    <path d="M -2.42149 17.19926 L -2.42149 -54.30642" />
    <path d="M -2.45018 16.55588 L -2.42149 17.19926 L -2.42019 17.19926" />
    <path d="M -2.1215 -54.27736 L -2.1215 -54.3066" />
    <path d="M -2.48018 15.88326 L -2.48018 -55.62241 L -2.45149 -54.97904 L -2.15149 -54.97922 L -2.18018 -55.6226 L -2.48018 -55.62241" />
    <path d="M -2.45149 16.52664 L -2.45149 -54.97904" />
    <path d="M -2.48018 15.88326 L -2.45149 16.52664 L -2.45018 16.52664" />
    <path d="M -2.15149 -54.94998 L -2.15149 -54.97922" />
    <path d="M -2.51018 15.21064 L -2.51018 -56.29503 L -2.48148 -55.65166 L -2.18149 -55.65184 L -2.21018 -56.29522 L -2.51018 -56.29503" />
    <path d="M -2.48148 15.85402 L -2.48148 -55.65166" />
    <path d="M -2.51018 15.21064 L -2.48148 15.85402 L -2.48018 15.85402" />
    <path d="M -2.18149 -55.6226 L -2.18149 -55.65184" />
    <path d="M -2.54017 14.53802 L -2.54017 -56.96765 L -2.51148 -56.32428 L -2.21148 -56.32446 L -2.24018 -56.96784 L -2.54017 -56.96765" />
    <path d="M -2.51148 15.1814 L -2.51148 -56.32428" />
    <path d="M -2.54017 14.53802 L -2.51148 15.1814 L -2.51018 15.1814" />
    <path d="M -2.21148 -56.29522 L -2.21148 -56.32446" />
    <path d="M -2.57017 13.8654 L -2.57017 -57.64027 L -2.54148 -56.9969 L -2.24148 -56.99708 L -2.27017 -57.64046 L -2.57017 -57.64027" />
    <path d="M -2.54148 14.50878 L -2.54148 -56.9969" />
    <path d="M -2.57017 13.8654 L -2.54148 14.50878 L -2.54017 14.50878" />
    <path d="M -2.24148 -56.96784 L -2.24148 -56.99708" />
    <path d="M -2.60016 13.19278 L -2.60016 -58.31289 L -2.57147 -57.66952 L -2.27148 -57.6697 L -2.30017 -58.31308 L -2.60016 -58.31289" />
    <path d="M -2.57147 13.83616 L -2.57147 -57.66952" />
    <path d="M -2.60016 13.19278 L -2.57147 13.83616 L -2.57017 13.83616" />
    <path d="M -2.27148 -57.64046 L -2.27148 -57.6697" />
    <path d="M -2.63016 12.52016 L -2.63016 -58.98551 L -2.60147 -58.34214 L -2.30147 -58.34232 L -2.33016 -58.9857 L -2.63016 -58.98551" />
    <path d="M -2.60147 13.16354 L -2.60147 -58.34214" />
    <path d="M -2.63016 12.52016 L -2.60147 13.16354 L -2.60016 13.16354" />
    <path d="M -2.30147 -58.31308 L -2.30147 -58.34232" />
    <path d="M -2.66016 11.84754 L -2.66016 -59.65813 L -2.63146 -59.01476 L -2.33147 -59.01494 L -2.36016 -59.65832 L -2.66016 -59.65813" />
    <path d="M -2.63146 12.49092 L -2.63146 -59.01476" />
    <path d="M -2.66016 11.84754 L -2.63146 12.49092 L -2.63016 12.49092" />
    <path d="M -2.33147 -58.9857 L -2.33147 -59.01494" />
    <path d="M -2.69015 11.17492 L -2.69015 -60.33075 L -2.66146 -59.68738 L -2.36147 -59.68756 L -2.39016 -60.33094 L -2.69015 -60.33075" />
    <path d="M -2.66146 11.8183 L -2.66146 -59.68738" />
    <path d="M -2.69015 11.17492 L -2.66146 11.8183 L -2.66016 11.8183" />
    <path d="M -2.36147 -59.65832 L -2.36147 -59.68756" />
    <path d="M -2.72015 10.5023 L -2.72015 -61.00337 L -2.69146 -60.36 L -2.39146 -60.36018 L -2.42015 -61.00356 L -2.72015 -61.00337" />
    <path d="M -2.69146 11.14568 L -2.69146 -60.36" />
    <path d="M -2.72015 10.5023 L -2.69146 11.14568 L -2.69015 11.14568" />
    <path d="M -2.39146 -60.33094 L -2.39146 -60.36018" />
    <path d="M -2.75015 9.82968 L -2.75015 -61.67599 L -2.72145 -61.03262 L -2.42146 -61.0328 L -2.45015 -61.67618 L -2.75015 -61.67599" />
    <path d="M -2.72145 10.47306 L -2.72145 -61.03262" />
    <path d="M -2.75015 9.82968 L -2.72145 10.47306 L -2.72015 10.47306" />
    <path d="M -2.42146 -61.00356 L -2.42146 -61.0328" />
    <path d="M -2.78014 9.15706 L -2.78014 -62.34861 L -2.75145 -61.70524 L -2.45145 -61.70542 L -2.48015 -62.3488 L -2.78014 -62.34861" />
    <path d="M -2.75145 9.80044 L -2.75145 -61.70524" />
    <path d="M -2.78014 9.15706 L -2.75145 9.80044 L -2.75015 9.80044" />
    <path d="M -2.45145 -61.67618 L -2.45145 -61.70542" />
    <path d="M -2.81014 8.48444 L -2.81014 -63.02123 L -2.78145 -62.37786 L -2.48145 -62.37804 L -2.51014 -63.02142 L -2.81014 -63.02123" />
    <path d="M -2.78145 9.12782 L -2.78145 -62.37786" />
    <path d="M -2.81014 8.48444 L -2.78145 9.12782 L -2.78014 9.12782" />
    <path d="M -2.48145 -62.3488 L -2.48145 -62.37804" />
    <path d="M -2.84013 7.81182 L -2.84013 -63.69385 L -2.81144 -63.05048 L -2.51145 -63.05066 L -2.54014 -63.69404 L -2.84013 -63.69385" />
    <path d="M -2.81144 8.4552 L -2.81144 -63.05048" />
    <path d="M -2.84013 7.81182 L -2.81144 8.4552 L -2.81014 8.4552" />
    <path d="M -2.51145 -63.02142 L -2.51145 -63.05066" />
    <path d="M -2.90013 6.46658 L -2.90013 -65.03909 L -2.87143 -64.39572 L -2.57144 -64.3959 L -2.60013 -65.03928 L -2.90013 -65.03909" />
    <path d="M -2.87143 7.10996 L -2.87143 -64.39572" />
    <path d="M -2.90013 6.46658 L -2.87143 7.10996 L -2.87013 7.10996" />
    <path d="M -2.57144 -64.36666 L -2.57144 -64.3959" />
    <path d="M -2.87013 7.1392 L -2.87013 -64.36647 L -2.84144 -63.7231 L -2.54144 -63.72328 L -2.57013 -64.36666 L -2.87013 -64.36647" />
    <path d="M -2.84144 7.78258 L -2.84144 -63.7231" />
    <path d="M -2.87013 7.1392 L -2.84144 7.78258 L -2.84013 7.78258" />
    <path d="M -2.54144 -63.69404 L -2.54144 -63.72328" />
    <path d="M 0.73399 -52.19808 A 1.19 0.1392 360 0 1 1.9302 -52.05887 L 1.9302 -41.40866" />
    <path d="M 1.9302 -52.05887 A 1.19 0.1392 360 0 1 -0.4498 -52.05887 L -0.4498 -32.58838" />
    <path d="M -0.4498 -52.05887 A 1.19 0.1392 360 0 1 0.73399 -52.19808" />
    <path d="M -1.97025 27.3178 L -1.97025 -44.18788 L -1.94155 -43.5445 L -1.64156 -43.54468 L -1.67025 -44.18806 L -1.97025 -44.18788" />
    <path d="M -1.94155 27.96118 L -1.94155 -43.5445" />
    <path d="M -1.97025 27.3178 L -1.94155 27.96118 L -1.94025 27.96117" />
    <path d="M -1.64156 -43.51544 L -1.64156 -43.54468" />
    <path d="M -2.00024 26.64518 L -2.00024 -44.8605 L -1.97155 -44.21712 L -1.67155 -44.2173 L -1.70025 -44.86068 L -2.00024 -44.8605" />
    <path d="M -1.97155 27.28856 L -1.97155 -44.21712" />
    <path d="M -2.00024 26.64518 L -1.97155 27.28856 L -1.97025 27.28855" />
    <path d="M -1.67155 -44.18806 L -1.67155 -44.2173" />
    <path d="M -2.03024 25.97256 L -2.03024 -45.53312 L -2.00155 -44.88974 L -1.70155 -44.88992 L -1.73024 -45.5333 L -2.03024 -45.53312" />
    <path d="M -2.00155 26.61594 L -2.00155 -44.88974" />
    <path d="M -2.03024 25.97256 L -2.00155 26.61594 L -2.00024 26.61593" />
    <path d="M -1.70155 -44.86068 L -1.70155 -44.88992" />
    <path d="M -2.06023 25.29994 L -2.06023 -46.20574 L -2.03154 -45.56236 L -1.73155 -45.56254 L -1.76024 -46.20592 L -2.06023 -46.20574" />
    <path d="M -2.03154 25.94332 L -2.03154 -45.56236" />
    <path d="M -2.06023 25.29994 L -2.03154 25.94332 L -2.03024 25.94331" />
    <path d="M -1.73155 -45.5333 L -1.73155 -45.56254" />
    <path d="M -2.09023 24.62732 L -2.09023 -46.87836 L -2.06154 -46.23498 L -1.76154 -46.23516 L -1.79023 -46.87854 L -2.09023 -46.87836" />
    <path d="M -2.06154 25.2707 L -2.06154 -46.23498" />
    <path d="M -2.09023 24.62732 L -2.06154 25.2707 L -2.06023 25.27069" />
    <path d="M -1.76154 -46.20592 L -1.76154 -46.23516" />
    <path d="M -2.12023 23.9547 L -2.12023 -47.55098 L -2.09153 -46.9076 L -1.79154 -46.90778 L -1.82023 -47.55116 L -2.12023 -47.55098" />
    <path d="M -2.09153 24.59808 L -2.09153 -46.9076" />
    <path d="M -2.12023 23.9547 L -2.09153 24.59808 L -2.09023 24.59807" />
    <path d="M -1.79154 -46.87854 L -1.79154 -46.90778" />
    <path d="M -2.15022 23.28208 L -2.15022 -48.2236 L -2.12153 -47.58022 L -1.82154 -47.5804 L -1.85023 -48.22378 L -2.15022 -48.2236" />
    <path d="M -2.12153 23.92546 L -2.12153 -47.58022" />
    <path d="M -2.15022 23.28208 L -2.12153 23.92546 L -2.12023 23.92546" />
    <path d="M -1.82154 -47.55116 L -1.82154 -47.5804" />
    <path d="M -2.18022 22.60946 L -2.18022 -48.89622 L -2.15153 -48.25284 L -1.85153 -48.25302 L -1.88022 -48.8964 L -2.18022 -48.89622" />
    <path d="M -2.15153 23.25284 L -2.15153 -48.25284" />
    <path d="M -2.18022 22.60946 L -2.15153 23.25284 L -2.15022 23.25284" />
    <path d="M -1.85153 -48.22378 L -1.85153 -48.25302" />
    <path d="M -2.21022 21.93684 L -2.21022 -49.56884 L -2.18152 -48.92546 L -1.88153 -48.92564 L -1.91022 -49.56902 L -2.21022 -49.56884" />
    <path d="M -2.18152 22.58022 L -2.18152 -48.92546" />
    <path d="M -2.21022 21.93684 L -2.18152 22.58022 L -2.18022 22.58022" />
    <path d="M -1.88153 -48.8964 L -1.88153 -48.92564" />
    <path d="M -2.24021 21.26422 L -2.24021 -50.24146 L -2.21152 -49.59808 L -1.91152 -49.59826 L -1.94022 -50.24164 L -2.24021 -50.24146" />
    <path d="M -2.21152 21.9076 L -2.21152 -49.59808" />
    <path d="M -2.24021 21.26422 L -2.21152 21.9076 L -2.21022 21.9076" />
    <path d="M -1.91152 -49.56902 L -1.91152 -49.59826" />
    <path d="M -2.27021 20.5916 L -2.27021 -50.91408 L -2.24152 -50.2707 L -1.94152 -50.27088 L -1.97021 -50.91426 L -2.27021 -50.91408" />
    <path d="M -2.24152 21.23498 L -2.24152 -50.2707" />
    <path d="M -2.27021 20.5916 L -2.24152 21.23498 L -2.24021 21.23498" />
    <path d="M -1.94152 -50.24164 L -1.94152 -50.27088" />
    <path d="M -2.3002 19.91898 L -2.3002 -51.5867 L -2.27151 -50.94332 L -1.97152 -50.9435 L -2.00021 -51.58688 L -2.3002 -51.5867" />
    <path d="M -2.27151 20.56236 L -2.27151 -50.94332" />
    <path d="M -2.3002 19.91898 L -2.27151 20.56236 L -2.27021 20.56236" />
    <path d="M -1.97152 -50.91426 L -1.97152 -50.9435" />
    <path d="M -2.3302 19.24636 L -2.3302 -52.25932 L -2.30151 -51.61594 L -2.00151 -51.61612 L -2.0302 -52.2595 L -2.3302 -52.25932" />
    <path d="M -2.30151 19.88974 L -2.30151 -51.61594" />
    <path d="M -2.3302 19.24636 L -2.30151 19.88974 L -2.3002 19.88974" />
    <path d="M -2.00151 -51.58688 L -2.00151 -51.61612" />
    <path d="M -2.3602 18.57374 L -2.3602 -52.93194 L -2.3315 -52.28856 L -2.03151 -52.28874 L -2.0602 -52.93212 L -2.3602 -52.93194" />
    <path d="M -2.3315 19.21712 L -2.3315 -52.28856" />
    <path d="M -2.3602 18.57374 L -2.3315 19.21712 L -2.3302 19.21712" />
    <path d="M -2.03151 -52.2595 L -2.03151 -52.28874" />
    <path d="M -2.42019 17.2285 L -2.42019 -54.27717 L -2.3915 -53.6338 L -2.0915 -53.63398 L -2.12019 -54.27736 L -2.42019 -54.27717" />
    <path d="M -2.3915 17.87188 L -2.3915 -53.6338" />
    <path d="M -2.42019 17.2285 L -2.3915 17.87188 L -2.39019 17.87188" />
    <path d="M -2.0915 -53.60474 L -2.0915 -53.63398" />
    <path d="M -2.39019 17.90112 L -2.39019 -53.60455 L -2.3615 -52.96118 L -2.0615 -52.96136 L -2.0902 -53.60474 L -2.39019 -53.60455" />
    <path d="M -2.3615 18.5445 L -2.3615 -52.96118" />
    <path d="M -2.39019 17.90112 L -2.3615 18.5445 L -2.3602 18.5445" />
    <path d="M -2.0615 -52.93212 L -2.0615 -52.96136" />
    <path d="M 1.21393 -41.43616 A 1.19 0.1392 360 0 1 2.41014 -41.29696 L 2.41014 -30.64675" />
    <path d="M 2.41014 -41.29696 A 1.19 0.1392 360 0 1 0.03014 -41.29696 L 0.03014 -21.82646" />
    <path d="M 0.03014 -41.29696 A 1.19 0.1392 360 0 1 1.21393 -41.43616" />
    <path d="M 0.27819 54.12901 A 1.19 0.1392 180 0 0 0.51008 54.15565" />
    <path d="M -1.49031 38.07972 L -1.49031 -33.42596 L -1.46162 -32.78258 L -1.16162 -32.78277 L -1.19031 -33.42614 L -1.49031 -33.42596" />
    <path d="M -1.46162 38.72309 L -1.46162 -32.78258" />
    <path d="M -1.49031 38.07972 L -1.46162 38.72309 L -1.46031 38.72309" />
    <path d="M -1.16162 -32.75352 L -1.16162 -32.78277" />
    <path d="M -1.5203 37.4071 L -1.5203 -34.09858 L -1.49161 -33.4552 L -1.19162 -33.45539 L -1.22031 -34.09876 L -1.5203 -34.09858" />
    <path d="M -1.49161 38.05047 L -1.49161 -33.4552" />
    <path d="M -1.5203 37.4071 L -1.49161 38.05047 L -1.49031 38.05047" />
    <path d="M -1.19162 -33.42614 L -1.19162 -33.45539" />
    <path d="M -1.5503 36.73448 L -1.5503 -34.7712 L -1.52161 -34.12782 L -1.22161 -34.12801 L -1.2503 -34.77138 L -1.5503 -34.7712" />
    <path d="M -1.52161 37.37785 L -1.52161 -34.12782" />
    <path d="M -1.5503 36.73448 L -1.52161 37.37785 L -1.5203 37.37785" />
    <path d="M -1.22161 -34.09876 L -1.22161 -34.12801" />
    <path d="M -1.5803 36.06186 L -1.5803 -35.44382 L -1.5516 -34.80044 L -1.25161 -34.80063 L -1.2803 -35.444 L -1.5803 -35.44382" />
    <path d="M -1.5516 36.70523 L -1.5516 -34.80044" />
    <path d="M -1.5803 36.06186 L -1.5516 36.70523 L -1.5503 36.70523" />
    <path d="M -1.25161 -34.77138 L -1.25161 -34.80063" />
    <path d="M -1.61029 35.38924 L -1.61029 -36.11644 L -1.5816 -35.47306 L -1.2816 -35.47325 L -1.3103 -36.11662 L -1.61029 -36.11644" />
    <path d="M -1.5816 36.03261 L -1.5816 -35.47306" />
    <path d="M -1.61029 35.38924 L -1.5816 36.03261 L -1.5803 36.03261" />
    <path d="M -1.2816 -35.444 L -1.2816 -35.47325" />
    <path d="M -1.64029 34.71662 L -1.64029 -36.78906 L -1.6116 -36.14568 L -1.3116 -36.14587 L -1.34029 -36.78924 L -1.64029 -36.78906" />
    <path d="M -1.6116 35.35999 L -1.6116 -36.14568" />
    <path d="M -1.64029 34.71662 L -1.6116 35.35999 L -1.61029 35.35999" />
    <path d="M -1.3116 -36.11662 L -1.3116 -36.14587" />
    <path d="M -1.67029 34.044 L -1.67029 -37.46168 L -1.64159 -36.8183 L -1.3416 -36.81849 L -1.37029 -37.46186 L -1.67029 -37.46168" />
    <path d="M -1.64159 34.68737 L -1.64159 -36.8183" />
    <path d="M -1.67029 34.044 L -1.64159 34.68737 L -1.64029 34.68737" />
    <path d="M -1.3416 -36.78924 L -1.3416 -36.81849" />
    <path d="M -1.70028 33.37138 L -1.70028 -38.1343 L -1.67159 -37.49092 L -1.37159 -37.49111 L -1.40029 -38.13448 L -1.70028 -38.1343" />
    <path d="M -1.67159 34.01475 L -1.67159 -37.49092" />
    <path d="M -1.70028 33.37138 L -1.67159 34.01475 L -1.67029 34.01475" />
    <path d="M -1.37159 -37.46186 L -1.37159 -37.49111" />
    <path d="M -1.73028 32.69876 L -1.73028 -38.80692 L -1.70159 -38.16354 L -1.40159 -38.16373 L -1.43028 -38.8071 L -1.73028 -38.80692" />
    <path d="M -1.70159 33.34213 L -1.70159 -38.16354" />
    <path d="M -1.73028 32.69876 L -1.70159 33.34213 L -1.70028 33.34213" />
    <path d="M -1.40159 -38.13448 L -1.40159 -38.16373" />
    <path d="M -1.76027 32.02614 L -1.76027 -39.47954 L -1.73158 -38.83616 L -1.43159 -38.83635 L -1.46028 -39.47972 L -1.76027 -39.47954" />
    <path d="M -1.73158 32.66951 L -1.73158 -38.83616" />
    <path d="M -1.76027 32.02614 L -1.73158 32.66951 L -1.73028 32.66951" />
    <path d="M -1.43159 -38.8071 L -1.43159 -38.83635" />
    <path d="M -1.79027 31.35352 L -1.79027 -40.15216 L -1.76158 -39.50878 L -1.46158 -39.50897 L -1.49027 -40.15234 L -1.79027 -40.15216" />
    <path d="M -1.76158 31.99689 L -1.76158 -39.50878" />
    <path d="M -1.79027 31.35352 L -1.76158 31.99689 L -1.76027 31.99689" />
    <path d="M -1.46158 -39.47972 L -1.46158 -39.50897" />
    <path d="M -1.82027 30.6809 L -1.82027 -40.82478 L -1.79157 -40.1814 L -1.49158 -40.18159 L -1.52027 -40.82496 L -1.82027 -40.82478" />
    <path d="M -1.79157 31.32427 L -1.79157 -40.1814" />
    <path d="M -1.82027 30.6809 L -1.79157 31.32427 L -1.79027 31.32427" />
    <path d="M -1.49158 -40.15234 L -1.49158 -40.18159" />
    <path d="M -1.85026 30.00828 L -1.85026 -41.4974 L -1.82157 -40.85402 L -1.52157 -40.8542 L -1.55027 -41.49758 L -1.85026 -41.4974" />
    <path d="M -1.82157 30.65165 L -1.82157 -40.85402" />
    <path d="M -1.85026 30.00828 L -1.82157 30.65165 L -1.82027 30.65165" />
    <path d="M -1.52157 -40.82496 L -1.52157 -40.8542" />
    <path d="M -1.88026 29.33566 L -1.88026 -42.17002 L -1.85157 -41.52664 L -1.55157 -41.52682 L -1.58026 -42.1702 L -1.88026 -42.17002" />
    <path d="M -1.85157 29.97903 L -1.85157 -41.52664" />
    <path d="M -1.88026 29.33566 L -1.85157 29.97903 L -1.85026 29.97903" />
    <path d="M -1.55157 -41.49758 L -1.55157 -41.52682" />
    <path d="M -1.94025 27.99042 L -1.94025 -43.51526 L -1.91156 -42.87188 L -1.61156 -42.87206 L -1.64025 -43.51544 L -1.94025 -43.51526" />
    <path d="M -1.91156 28.63379 L -1.91156 -42.87188" />
    <path d="M -1.94025 27.99042 L -1.91156 28.63379 L -1.91025 28.63379" />
    <path d="M -1.61156 -42.84282 L -1.61156 -42.87206" />
    <path d="M -1.91025 28.66304 L -1.91025 -42.84264 L -1.88156 -42.19926 L -1.58157 -42.19944 L -1.61026 -42.84282 L -1.91025 -42.84264" />
    <path d="M -1.88156 29.30641 L -1.88156 -42.19926" />
    <path d="M -1.91025 28.66304 L -1.88156 29.30641 L -1.88026 29.30641" />
    <path d="M -1.58157 -42.1702 L -1.58157 -42.19944" />
    <path d="M 1.69387 -30.67424 A 1.19 0.1392 360 0 1 2.89008 -30.53504 L 2.89008 -19.88483" />
    <path d="M 2.89008 -30.53504 A 1.19 0.1392 360 0 1 0.51008 -30.53504 L 0.51008 -11.06454" />
    <path d="M 0.51008 -30.53504 A 1.19 0.1392 360 0 1 1.69387 -30.67424" />
    <path d="M 0.51008 64.80586 A 1.19 0.1392 180 0 0 0.99002 64.91757" />
    <path d="M -1.01037 48.84164 L -1.01037 -22.66404 L -0.98168 -22.02067 L -0.68168 -22.02085 L -0.71037 -22.66422 L -1.01037 -22.66404" />
    <path d="M -0.98168 49.48501 L -0.98168 -22.02067" />
    <path d="M -1.01037 48.84164 L -0.98168 49.48501 L -0.98037 49.48501" />
    <path d="M -0.68168 -21.9916 L -0.68168 -22.02085" />
    <path d="M -1.04037 48.16902 L -1.04037 -23.33666 L -1.01167 -22.69329 L -0.71168 -22.69347 L -0.74037 -23.33684 L -1.04037 -23.33666" />
    <path d="M -1.01167 48.81239 L -1.01167 -22.69329" />
    <path d="M -1.04037 48.16902 L -1.01167 48.81239 L -1.01037 48.81239" />
    <path d="M -0.71168 -22.66422 L -0.71168 -22.69347" />
    <path d="M -1.07036 47.4964 L -1.07036 -24.00928 L -1.04167 -23.36591 L -0.74167 -23.36609 L -0.77037 -24.00946 L -1.07036 -24.00928" />
    <path d="M -1.04167 48.13977 L -1.04167 -23.36591" />
    <path d="M -1.07036 47.4964 L -1.04167 48.13977 L -1.04037 48.13977" />
    <path d="M -0.74167 -23.33684 L -0.74167 -23.36609" />
    <path d="M -1.10036 46.82378 L -1.10036 -24.6819 L -1.07167 -24.03853 L -0.77167 -24.03871 L -0.80036 -24.68208 L -1.10036 -24.6819" />
    <path d="M -1.07167 47.46715 L -1.07167 -24.03853" />
    <path d="M -1.10036 46.82378 L -1.07167 47.46715 L -1.07036 47.46715" />
    <path d="M -0.77167 -24.00946 L -0.77167 -24.03871" />
    <path d="M -1.13036 46.15116 L -1.13036 -25.35452 L -1.10166 -24.71115 L -0.80167 -24.71133 L -0.83036 -25.3547 L -1.13036 -25.35452" />
    <path d="M -1.10166 46.79453 L -1.10166 -24.71115" />
    <path d="M -1.13036 46.15116 L -1.10166 46.79453 L -1.10036 46.79453" />
    <path d="M -0.80167 -24.68208 L -0.80167 -24.71133" />
    <path d="M -1.16035 45.47854 L -1.16035 -26.02714 L -1.13166 -25.38376 L -0.83166 -25.38395 L -0.86036 -26.02732 L -1.16035 -26.02714" />
    <path d="M -1.13166 46.12191 L -1.13166 -25.38376" />
    <path d="M -1.16035 45.47854 L -1.13166 46.12191 L -1.13036 46.12191" />
    <path d="M -0.83166 -25.3547 L -0.83166 -25.38395" />
    <path d="M -1.19035 44.80592 L -1.19035 -26.69976 L -1.16166 -26.05638 L -0.86166 -26.05657 L -0.89035 -26.69994 L -1.19035 -26.69976" />
    <path d="M -1.16166 45.44929 L -1.16166 -26.05638" />
    <path d="M -1.19035 44.80592 L -1.16166 45.44929 L -1.16035 45.44929" />
    <path d="M -0.86166 -26.02732 L -0.86166 -26.05657" />
    <path d="M -1.22034 44.1333 L -1.22034 -27.37238 L -1.19165 -26.729 L -0.89166 -26.72919 L -0.92035 -27.37256 L -1.22034 -27.37238" />
    <path d="M -1.19165 44.77667 L -1.19165 -26.729" />
    <path d="M -1.22034 44.1333 L -1.19165 44.77667 L -1.19035 44.77667" />
    <path d="M -0.89166 -26.69994 L -0.89166 -26.72919" />
    <path d="M -1.25034 43.46068 L -1.25034 -28.045 L -1.22165 -27.40162 L -0.92165 -27.40181 L -0.95034 -28.04518 L -1.25034 -28.045" />
    <path d="M -1.22165 44.10405 L -1.22165 -27.40162" />
    <path d="M -1.25034 43.46068 L -1.22165 44.10405 L -1.22034 44.10405" />
    <path d="M -0.92165 -27.37256 L -0.92165 -27.40181" />
    <path d="M -1.28034 42.78806 L -1.28034 -28.71762 L -1.25164 -28.07424 L -0.95165 -28.07443 L -0.98034 -28.7178 L -1.28034 -28.71762" />
    <path d="M -1.25164 43.43143 L -1.25164 -28.07424" />
    <path d="M -1.28034 42.78806 L -1.25164 43.43143 L -1.25034 43.43143" />
    <path d="M -0.95165 -28.04518 L -0.95165 -28.07443" />
    <path d="M -1.31033 42.11544 L -1.31033 -29.39024 L -1.28164 -28.74686 L -0.98164 -28.74705 L -1.01034 -29.39042 L -1.31033 -29.39024" />
    <path d="M -1.28164 42.75881 L -1.28164 -28.74686" />
    <path d="M -1.31033 42.11544 L -1.28164 42.75881 L -1.28034 42.75881" />
    <path d="M -0.98164 -28.7178 L -0.98164 -28.74705" />
    <path d="M -1.34033 41.44282 L -1.34033 -30.06286 L -1.31164 -29.41948 L -1.01164 -29.41967 L -1.04033 -30.06304 L -1.34033 -30.06286" />
    <path d="M -1.31164 42.08619 L -1.31164 -29.41948" />
    <path d="M -1.34033 41.44282 L -1.31164 42.08619 L -1.31033 42.08619" />
    <path d="M -1.01164 -29.39042 L -1.01164 -29.41967" />
    <path d="M -1.37032 40.7702 L -1.37032 -30.73548 L -1.34163 -30.0921 L -1.04164 -30.09229 L -1.07033 -30.73566 L -1.37032 -30.73548" />
    <path d="M -1.34163 41.41357 L -1.34163 -30.0921" />
    <path d="M -1.37032 40.7702 L -1.34163 41.41357 L -1.34033 41.41357" />
    <path d="M -1.04164 -30.06304 L -1.04164 -30.09229" />
    <path d="M -1.40032 40.09758 L -1.40032 -31.4081 L -1.37163 -30.76472 L -1.07163 -30.76491 L -1.10032 -31.40828 L -1.40032 -31.4081" />
    <path d="M -1.37163 40.74095 L -1.37163 -30.76472" />
    <path d="M -1.40032 40.09758 L -1.37163 40.74095 L -1.37032 40.74095" />
    <path d="M -1.07163 -30.73566 L -1.07163 -30.76491" />
    <path d="M -1.46031 38.75234 L -1.46031 -32.75334 L -1.43162 -32.10996 L -1.13162 -32.11015 L -1.16032 -32.75352 L -1.46031 -32.75334" />
    <path d="M -1.43162 39.39571 L -1.43162 -32.10996" />
    <path d="M -1.46031 38.75234 L -1.43162 39.39571 L -1.43032 39.39571" />
    <path d="M -1.13162 -32.0809 L -1.13162 -32.11015" />
    <path d="M -1.43032 39.42496 L -1.43032 -32.08072 L -1.40162 -31.43734 L -1.10163 -31.43753 L -1.13032 -32.0809 L -1.43032 -32.08072" />
    <path d="M -1.40162 40.06833 L -1.40162 -31.43734" />
    <path d="M -1.43032 39.42496 L -1.40162 40.06833 L -1.40032 40.06833" />
    <path d="M -1.10163 -31.40828 L -1.10163 -31.43753" />
    <path d="M 2.17381 -19.91232 A 1.19 0.1392 360 0 1 3.37002 -19.77312 L 3.37002 -9.12291" />
    <path d="M 3.37002 -19.77312 A 1.19 0.1392 360 0 1 0.99002 -19.77312 L 0.99002 -0.30262" />
    <path d="M 0.99002 -19.77312 A 1.19 0.1392 360 0 1 2.17381 -19.91232" />
    <path d="M 0.99002 75.56778 A 1.19 0.1392 180 0 0 1.46995 75.67949" />
    <path d="M -0.53043 59.60355 L -0.53043 -11.90212 L -0.50174 -11.25875 L -0.20174 -11.25893 L -0.23044 -11.90231 L -0.53043 -11.90212" />
    <path d="M -0.50174 60.24693 L -0.50174 -11.25875" />
    <path d="M -0.53043 59.60355 L -0.50174 60.24693 L -0.50044 60.24693" />
    <path d="M -0.20174 -11.22969 L -0.20174 -11.25893" />
    <path d="M -0.56043 58.93093 L -0.56043 -12.57474 L -0.53174 -11.93137 L -0.23174 -11.93155 L -0.26043 -12.57493 L -0.56043 -12.57474" />
    <path d="M -0.53174 59.57431 L -0.53174 -11.93137" />
    <path d="M -0.56043 58.93093 L -0.53174 59.57431 L -0.53043 59.57431" />
    <path d="M -0.23174 -11.90231 L -0.23174 -11.93155" />
    <path d="M -0.59042 58.25831 L -0.59042 -13.24736 L -0.56173 -12.60399 L -0.26174 -12.60417 L -0.29043 -13.24755 L -0.59042 -13.24736" />
    <path d="M -0.56173 58.90169 L -0.56173 -12.60399" />
    <path d="M -0.59042 58.25831 L -0.56173 58.90169 L -0.56043 58.90169" />
    <path d="M -0.26174 -12.57493 L -0.26174 -12.60417" />
    <path d="M -0.62042 57.58569 L -0.62042 -13.91998 L -0.59173 -13.27661 L -0.29173 -13.27679 L -0.32043 -13.92017 L -0.62042 -13.91998" />
    <path d="M -0.59173 58.22907 L -0.59173 -13.27661" />
    <path d="M -0.62042 57.58569 L -0.59173 58.22907 L -0.59042 58.22907" />
    <path d="M -0.29173 -13.24755 L -0.29173 -13.27679" />
    <path d="M -0.65042 56.91307 L -0.65042 -14.5926 L -0.62173 -13.94923 L -0.32173 -13.94941 L -0.35042 -14.59279 L -0.65042 -14.5926" />
    <path d="M -0.62173 57.55645 L -0.62173 -13.94923" />
    <path d="M -0.65042 56.91307 L -0.62173 57.55645 L -0.62042 57.55645" />
    <path d="M -0.32173 -13.92017 L -0.32173 -13.94941" />
    <path d="M -0.68041 56.24045 L -0.68041 -15.26522 L -0.65172 -14.62185 L -0.35173 -14.62203 L -0.38042 -15.26541 L -0.68041 -15.26522" />
    <path d="M -0.65172 56.88383 L -0.65172 -14.62185" />
    <path d="M -0.68041 56.24045 L -0.65172 56.88383 L -0.65042 56.88383" />
    <path d="M -0.35173 -14.59279 L -0.35173 -14.62203" />
    <path d="M -0.71041 55.56783 L -0.71041 -15.93784 L -0.68172 -15.29447 L -0.38172 -15.29465 L -0.41041 -15.93803 L -0.71041 -15.93784" />
    <path d="M -0.68172 56.21121 L -0.68172 -15.29447" />
    <path d="M -0.71041 55.56783 L -0.68172 56.21121 L -0.68041 56.21121" />
    <path d="M -0.38172 -15.2654 L -0.38172 -15.29465" />
    <path d="M -0.74041 54.89521 L -0.74041 -16.61046 L -0.71171 -15.96709 L -0.41172 -15.96727 L -0.44041 -16.61065 L -0.74041 -16.61046" />
    <path d="M -0.71171 55.53859 L -0.71171 -15.96709" />
    <path d="M -0.74041 54.89521 L -0.71171 55.53859 L -0.71041 55.53859" />
    <path d="M -0.41172 -15.93802 L -0.41172 -15.96727" />
    <path d="M -0.7704 54.22259 L -0.7704 -17.28308 L -0.74171 -16.63971 L -0.44171 -16.63989 L -0.47041 -17.28327 L -0.7704 -17.28308" />
    <path d="M -0.74171 54.86597 L -0.74171 -16.63971" />
    <path d="M -0.7704 54.22259 L -0.74171 54.86597 L -0.74041 54.86597" />
    <path d="M -0.44171 -16.61064 L -0.44171 -16.63989" />
    <path d="M -0.8004 53.54997 L -0.8004 -17.9557 L -0.77171 -17.31233 L -0.47171 -17.31251 L -0.5004 -17.95589 L -0.8004 -17.9557" />
    <path d="M -0.77171 54.19335 L -0.77171 -17.31233" />
    <path d="M -0.8004 53.54997 L -0.77171 54.19335 L -0.7704 54.19335" />
    <path d="M -0.47171 -17.28326 L -0.47171 -17.31251" />
    <path d="M -0.83039 52.87735 L -0.83039 -18.62832 L -0.8017 -17.98495 L -0.50171 -17.98513 L -0.5304 -18.6285 L -0.83039 -18.62832" />
    <path d="M -0.8017 53.52073 L -0.8017 -17.98495" />
    <path d="M -0.83039 52.87735 L -0.8017 53.52073 L -0.8004 53.52073" />
    <path d="M -0.50171 -17.95588 L -0.50171 -17.98513" />
    <path d="M -0.86039 52.20473 L -0.86039 -19.30094 L -0.8317 -18.65757 L -0.5317 -18.65775 L -0.56039 -19.30112 L -0.86039 -19.30094" />
    <path d="M -0.8317 52.84811 L -0.8317 -18.65757" />
    <path d="M -0.86039 52.20473 L -0.8317 52.84811 L -0.83039 52.84811" />
    <path d="M -0.5317 -18.6285 L -0.5317 -18.65775" />
    <path d="M -0.89039 51.53211 L -0.89039 -19.97356 L -0.86169 -19.33019 L -0.5617 -19.33037 L -0.59039 -19.97374 L -0.89039 -19.97356" />
    <path d="M -0.86169 52.17549 L -0.86169 -19.33019" />
    <path d="M -0.89039 51.53211 L -0.86169 52.17549 L -0.86039 52.17549" />
    <path d="M -0.5617 -19.30112 L -0.5617 -19.33037" />
    <path d="M -0.92038 50.85949 L -0.92038 -20.64618 L -0.89169 -20.00281 L -0.59169 -20.00299 L -0.62039 -20.64636 L -0.92038 -20.64618" />
    <path d="M -0.89169 51.50287 L -0.89169 -20.00281" />
    <path d="M -0.92038 50.85949 L -0.89169 51.50287 L -0.89039 51.50287" />
    <path d="M -0.59169 -19.97374 L -0.59169 -20.00299" />
    <path d="M -0.98037 49.51426 L -0.98037 -21.99142 L -0.95168 -21.34805 L -0.65169 -21.34823 L -0.68038 -21.9916 L -0.98037 -21.99142" />
    <path d="M -0.95168 50.15763 L -0.95168 -21.34805" />
    <path d="M -0.98037 49.51426 L -0.95168 50.15763 L -0.95038 50.15763" />
    <path d="M -0.65169 -21.31898 L -0.65169 -21.34823" />
    <path d="M -0.95038 50.18687 L -0.95038 -21.3188 L -0.92169 -20.67543 L -0.62169 -20.67561 L -0.65038 -21.31898 L -0.95038 -21.3188" />
    <path d="M -0.92169 50.83025 L -0.92169 -20.67543" />
    <path d="M -0.95038 50.18687 L -0.92169 50.83025 L -0.92038 50.83025" />
    <path d="M -0.62169 -20.64636 L -0.62169 -20.67561" />
    <path d="M 2.65375 -9.15041 A 1.19 0.1392 360 0 1 3.84995 -9.0112 L 3.84995 1.63901" />
    <path d="M 3.84995 -9.0112 A 1.19 0.1392 360 0 1 1.46995 -9.0112 L 1.46995 10.4593" />
    <path d="M 1.46995 -9.0112 A 1.19 0.1392 360 0 1 2.65375 -9.15041" />
    <path d="M 1.46995 86.3297 A 1.19 0.1392 180 0 0 1.94989 86.44141" />
    <path d="M -0.05049 70.36547 L -0.05049 -1.14021 L -0.0218 -0.49683 L 0.27819 -0.49701 L 0.2495 -1.14039 L -0.05049 -1.14021" />
    <path d="M -0.0218 71.00885 L -0.0218 -0.49683" />
    <path d="M -0.05049 70.36547 L -0.0218 71.00885 L 0.27819 71.00866 L 0.27819 -0.49701" />
    <path d="M -0.08049 69.69285 L -0.08049 -1.81283 L -0.0518 -1.16945 L 0.2482 -1.16963 L 0.2195 -1.81301 L -0.08049 -1.81283" />
    <path d="M -0.0518 70.33623 L -0.0518 -1.16945" />
    <path d="M -0.08049 69.69285 L -0.0518 70.33623 L -0.05049 70.33623" />
    <path d="M 0.2482 -1.14039 L 0.2482 -1.16963" />
    <path d="M -0.11049 69.02023 L -0.11049 -2.48545 L -0.0818 -1.84207 L 0.2182 -1.84225 L 0.18951 -2.48563 L -0.11049 -2.48545" />
    <path d="M -0.0818 69.66361 L -0.0818 -1.84207" />
    <path d="M -0.11049 69.02023 L -0.0818 69.66361 L -0.08049 69.66361" />
    <path d="M 0.2182 -1.81301 L 0.2182 -1.84225" />
    <path d="M -0.14048 68.34761 L -0.14048 -3.15807 L -0.11179 -2.51469 L 0.1882 -2.51487 L 0.15951 -3.15825 L -0.14048 -3.15807" />
    <path d="M -0.11179 68.99099 L -0.11179 -2.51469" />
    <path d="M -0.14048 68.34761 L -0.11179 68.99099 L -0.11049 68.99099" />
    <path d="M 0.1882 -2.48563 L 0.1882 -2.51487" />
    <path d="M -0.17048 67.67499 L -0.17048 -3.83068 L -0.14179 -3.18731 L 0.15821 -3.18749 L 0.12952 -3.83087 L -0.17048 -3.83068" />
    <path d="M -0.14179 68.31837 L -0.14179 -3.18731" />
    <path d="M -0.17048 67.67499 L -0.14179 68.31837 L -0.14048 68.31837" />
    <path d="M 0.15821 -3.15825 L 0.15821 -3.18749" />
    <path d="M -0.20048 67.00237 L -0.20048 -4.5033 L -0.17178 -3.85993 L 0.12821 -3.86011 L 0.09952 -4.50349 L -0.20048 -4.5033" />
    <path d="M -0.17178 67.64575 L -0.17178 -3.85993" />
    <path d="M -0.20048 67.00237 L -0.17178 67.64575 L -0.17048 67.64575" />
    <path d="M 0.12821 -3.83087 L 0.12821 -3.86011" />
    <path d="M -0.23047 66.32975 L -0.23047 -5.17592 L -0.20178 -4.53255 L 0.09822 -4.53273 L 0.06952 -5.17611 L -0.23047 -5.17592" />
    <path d="M -0.20178 66.97313 L -0.20178 -4.53255" />
    <path d="M -0.23047 66.32975 L -0.20178 66.97313 L -0.20048 66.97313" />
    <path d="M 0.09822 -4.50349 L 0.09822 -4.53273" />
    <path d="M -0.26047 65.65713 L -0.26047 -5.84854 L -0.23178 -5.20517 L 0.06822 -5.20535 L 0.03953 -5.84873 L -0.26047 -5.84854" />
    <path d="M -0.23178 66.30051 L -0.23178 -5.20517" />
    <path d="M -0.26047 65.65713 L -0.23178 66.30051 L -0.23047 66.30051" />
    <path d="M 0.06822 -5.17611 L 0.06822 -5.20535" />
    <path d="M -0.29046 64.98451 L -0.29046 -6.52116 L -0.26177 -5.87779 L 0.03822 -5.87797 L 0.00953 -6.52135 L -0.29046 -6.52116" />
    <path d="M -0.26177 65.62789 L -0.26177 -5.87779" />
    <path d="M -0.29046 64.98451 L -0.26177 65.62789 L -0.26047 65.62789" />
    <path d="M 0.03822 -5.84873 L 0.03822 -5.87797" />
    <path d="M -0.32046 64.31189 L -0.32046 -7.19378 L -0.29177 -6.55041 L 0.00823 -6.55059 L -0.02046 -7.19397 L -0.32046 -7.19378" />
    <path d="M -0.29177 64.95527 L -0.29177 -6.55041" />
    <path d="M -0.32046 64.31189 L -0.29177 64.95527 L -0.29046 64.95527" />
    <path d="M 0.00823 -6.52135 L 0.00823 -6.55059" />
    <path d="M -0.35046 63.63927 L -0.35046 -7.8664 L -0.32176 -7.22303 L -0.02177 -7.22321 L -0.05046 -7.86659 L -0.35046 -7.8664" />
    <path d="M -0.32176 64.28265 L -0.32176 -7.22303" />
    <path d="M -0.35046 63.63927 L -0.32176 64.28265 L -0.32046 64.28265" />
    <path d="M -0.02177 -7.19397 L -0.02177 -7.22321" />
    <path d="M -0.38045 62.96665 L -0.38045 -8.53902 L -0.35176 -7.89565 L -0.05176 -7.89583 L -0.08046 -8.53921 L -0.38045 -8.53902" />
    <path d="M -0.35176 63.61003 L -0.35176 -7.89565" />
    <path d="M -0.38045 62.96665 L -0.35176 63.61003 L -0.35046 63.61003" />
    <path d="M -0.05176 -7.86659 L -0.05176 -7.89583" />
    <path d="M -0.41045 62.29403 L -0.41045 -9.21164 L -0.38176 -8.56827 L -0.08176 -8.56845 L -0.11045 -9.21183 L -0.41045 -9.21164" />
    <path d="M -0.38176 62.93741 L -0.38176 -8.56827" />
    <path d="M -0.41045 62.29403 L -0.38176 62.93741 L -0.38045 62.93741" />
    <path d="M -0.08176 -8.53921 L -0.08176 -8.56845" />
    <path d="M -0.44044 61.62141 L -0.44044 -9.88426 L -0.41175 -9.24089 L -0.11176 -9.24107 L -0.14045 -9.88445 L -0.44044 -9.88426" />
    <path d="M -0.41175 62.26479 L -0.41175 -9.24089" />
    <path d="M -0.44044 61.62141 L -0.41175 62.26479 L -0.41045 62.26479" />
    <path d="M -0.11176 -9.21183 L -0.11176 -9.24107" />
    <path d="M -0.50044 60.27617 L -0.50044 -11.2295 L -0.47174 -10.58613 L -0.17175 -10.58631 L -0.20044 -11.22969 L -0.50044 -11.2295" />
    <path d="M -0.47174 60.91955 L -0.47174 -10.58613" />
    <path d="M -0.50044 60.27617 L -0.47174 60.91955 L -0.47044 60.91955" />
    <path d="M -0.17175 -10.55707 L -0.17175 -10.58631" />
    <path d="M -0.47044 60.94879 L -0.47044 -10.55688 L -0.44175 -9.91351 L -0.14175 -9.91369 L -0.17044 -10.55707 L -0.47044 -10.55688" />
    <path d="M -0.44175 61.59217 L -0.44175 -9.91351" />
    <path d="M -0.47044 60.94879 L -0.44175 61.59217 L -0.44044 61.59217" />
    <path d="M -0.14175 -9.88445 L -0.14175 -9.91369" />
    <path d="M 1.94989 1.75072 L 1.94989 97.09162" />
    <path d="M 4.32989 1.75072 L 4.32989 97.09162" />
    <path d="M -2.36955 -95.10654 L -2.36955 -75.63605" />
    <path d="M 0.01045 -95.10654 L 0.01045 -84.45634" />
    <path d="M -1.88961 -84.34463 L -1.88961 -64.87413" />
    <path d="M 0.49039 -84.34463 L 0.49039 -73.69442" />
    <path d="M -1.40967 -73.58271 L -1.40967 -54.11221" />
    <path d="M 0.97033 -73.58271 L 0.97033 -62.9325" />
    <path d="M 0.51008 53.38099 L 0.51008 64.80586" />
    <path d="M 0.99002 23.58666 L 0.99002 29.49141" />
    <path d="M 0.99002 53.38069 L 0.99002 75.56778" />
    <path d="M 1.46995 23.58637 L 1.46995 40.25333" />
    <path d="M 1.46995 53.3804 L 1.46995 86.3297" />
</svg>