<svg version="1.1" xmlns="http://www.w3.org/2000/svg" viewBox="-3.88092272494357 -78.85331733633483 7.5001821109967315 158.60675012100666" fill="none" stroke="black" stroke-width="0.6%" vector-effect="non-scaling-stroke">
    <path d="M -1.71631 -77.85316 A 1.19 0.68029 360 0 1 -0.50092 -77.17302 A 1.19 0.68029 360 0 1 -2.88092 -77.17302 A 1.19 0.68029 360 0 1 -1.71631 -77.85316 Z" />
    <path d="M -1.51577 -56.80861 A 1.19 0.68029 360 0 1 -1.8157 -56.80495 L -1.8157 2.26964 L -1.78221 3.16667 L -1.78221 -55.90792 L -1.48228 -55.91158 L -1.51577 -56.80861 Z" />
    <path d="M -2.88092 1.59309 A 1.19 0.68029 180 0 0 -1.8157 2.26964" />
    <path d="M -0.50119 -40.88128 A 1.19 0.68029 360 0 1 -0.50092 -40.86677 A 1.19 0.68029 360 0 1 -0.90158 -40.35767" />
    <path d="M -0.50119 -40.88128 L -0.50119 -40.85225" />
    <path d="M 1.3397 55.19893 L 2.61926 55.18332 L 2.61926 52.31164 L 1.3397 52.32725" />
    <path d="M 1.80788 30.57881 L 2.61926 52.31164" />
    <path d="M -1.78221 3.16667 L -1.77687 3.16661" />
    <path d="M -1.48228 -55.76863 L -1.48228 -55.91158" />
    <path d="M -1.8157 -56.80495 L -1.78221 -55.90792" />
    <path d="M 0.05868 -40.88811 L -0.50092 -40.88129" />
    <path d="M 2.61926 27.69723 L 1.3397 27.71284" />
    <path d="M 0.05868 -40.88811 L 2.61926 27.69723" />
    <path d="M 1.3397 30.58452 L 2.61926 30.56891 L 2.61926 27.69723" />
    <path d="M 0.9224 75.60994 L 0.9224 16.53535 L 1.03976 19.67884 L 1.3397 19.67518 L 1.22234 16.53169 L 0.9224 16.53535" />
    <path d="M 1.03976 78.75343 L 1.03976 19.67884" />
    <path d="M 0.9224 75.60994 L 1.03976 78.75343 L 1.3397 78.74977 L 1.3397 19.67518" />
    <path d="M 0.79971 72.32356 L 0.79971 13.24897 L 0.91707 16.39246 L 1.217 16.3888 L 1.09964 13.24531 L 0.79971 13.24897" />
    <path d="M 0.91707 75.46705 L 0.91707 16.39246" />
    <path d="M 0.79971 72.32356 L 0.91707 75.46705 L 0.9224 75.46699" />
    <path d="M 1.217 16.53175 L 1.217 16.3888" />
    <path d="M 0.67701 69.03718 L 0.67701 9.96259 L 0.79437 13.10608 L 1.09431 13.10242 L 0.97695 9.95893 L 0.67701 9.96259" />
    <path d="M 0.79437 72.18067 L 0.79437 13.10608" />
    <path d="M 0.67701 69.03718 L 0.79437 72.18067 L 0.79971 72.1806" />
    <path d="M 1.09431 13.24537 L 1.09431 13.10242" />
    <path d="M 0.55432 65.75079 L 0.55432 6.67621 L 0.67168 9.8197 L 0.97161 9.81604 L 0.85425 6.67255 L 0.55432 6.67621" />
    <path d="M 0.67168 68.89429 L 0.67168 9.8197" />
    <path d="M 0.55432 65.75079 L 0.67168 68.89429 L 0.67701 68.89422" />
    <path d="M 0.97161 9.95899 L 0.97161 9.81604" />
    <path d="M 0.43163 62.46441 L 0.43163 3.38982 L 0.54899 6.53332 L 0.84892 6.52966 L 0.73156 3.38617 L 0.43163 3.38982" />
    <path d="M 0.54899 65.60791 L 0.54899 6.53332" />
    <path d="M 0.43163 62.46441 L 0.54899 65.60791 L 0.55432 65.60784" />
    <path d="M 0.84892 6.67261 L 0.84892 6.52966" />
    <path d="M 0.30893 59.17803 L 0.30893 0.10344 L 0.42629 3.24694 L 0.72622 3.24328 L 0.60886 0.09978 L 0.30893 0.10344" />
    <path d="M 0.42629 62.32153 L 0.42629 3.24694" />
    <path d="M 0.30893 59.17803 L 0.42629 62.32153 L 0.43163 62.32146" />
    <path d="M 0.72622 3.38623 L 0.72622 3.24328" />
    <path d="M 0.18624 55.89165 L 0.18624 -3.18294 L 0.3036 -0.03944 L 0.60353 -0.0431 L 0.48617 -3.1866 L 0.18624 -3.18294" />
    <path d="M 0.3036 59.03515 L 0.3036 -0.03944" />
    <path d="M 0.18624 55.89165 L 0.3036 59.03515 L 0.30893 59.03508" />
    <path d="M 0.60353 0.09985 L 0.60353 -0.0431" />
    <path d="M 0.06354 52.60527 L 0.06354 -6.46932 L 0.1809 -3.32582 L 0.48083 -3.32948 L 0.36347 -6.47298 L 0.06354 -6.46932" />
    <path d="M 0.1809 55.74877 L 0.1809 -3.32582" />
    <path d="M 0.06354 52.60527 L 0.1809 55.74877 L 0.18624 55.7487" />
    <path d="M 0.48083 -3.18653 L 0.48083 -3.32948" />
    <path d="M -0.05915 49.31889 L -0.05915 -9.7557 L 0.05821 -6.6122 L 0.35814 -6.61586 L 0.24078 -9.75936 L -0.05915 -9.7557" />
    <path d="M 0.05821 52.46238 L 0.05821 -6.6122" />
    <path d="M -0.05915 49.31889 L 0.05821 52.46238 L 0.06354 52.46232" />
    <path d="M 0.35814 -6.47291 L 0.35814 -6.61586" />
    <path d="M -0.18185 46.03251 L -0.18185 -13.04208 L -0.06449 -9.89858 L 0.23545 -9.90224 L 0.11809 -13.04574 L -0.18185 -13.04208" />
    <path d="M -0.06449 49.176 L -0.06449 -9.89858" />
    <path d="M -0.18185 46.03251 L -0.06449 49.176 L -0.05915 49.17594" />
    <path d="M 0.23545 -9.75929 L 0.23545 -9.90224" />
    <path d="M -0.30454 42.74613 L -0.30454 -16.32846 L -0.18718 -13.18497 L 0.11275 -13.18863 L -0.00461 -16.33212 L -0.30454 -16.32846" />
    <path d="M -0.18718 45.88962 L -0.18718 -13.18497" />
    <path d="M -0.30454 42.74613 L -0.18718 45.88962 L -0.18185 45.88956" />
    <path d="M 0.11275 -13.04567 L 0.11275 -13.18863" />
    <path d="M -0.42723 39.45975 L -0.42723 -19.61484 L -0.30987 -16.47135 L -0.00994 -16.47501 L -0.1273 -19.6185 L -0.42723 -19.61484" />
    <path d="M -0.30987 42.60324 L -0.30987 -16.47135" />
    <path d="M -0.42723 39.45975 L -0.30987 42.60324 L -0.30454 42.60318" />
    <path d="M -0.00994 -16.33205 L -0.00994 -16.47501" />
    <path d="M -0.54993 36.17337 L -0.54993 -22.90122 L -0.43257 -19.75773 L -0.13264 -19.76139 L -0.25 -22.90488 L -0.54993 -22.90122" />
    <path d="M -0.43257 39.31686 L -0.43257 -19.75773" />
    <path d="M -0.54993 36.17337 L -0.43257 39.31686 L -0.42723 39.3168" />
    <path d="M -0.13264 -19.61844 L -0.13264 -19.76139" />
    <path d="M -0.67262 32.88699 L -0.67262 -26.1876 L -0.55526 -23.04411 L -0.25533 -23.04777 L -0.37269 -26.19126 L -0.67262 -26.1876" />
    <path d="M -0.55526 36.03048 L -0.55526 -23.04411" />
    <path d="M -0.67262 32.88699 L -0.55526 36.03048 L -0.54993 36.03042" />
    <path d="M -0.25533 -22.90482 L -0.25533 -23.04777" />
    <path d="M -0.79532 29.6006 L -0.79532 -29.47398 L -0.67796 -26.33049 L -0.37803 -26.33415 L -0.49539 -29.47764 L -0.79532 -29.47398" />
    <path d="M -0.67796 32.7441 L -0.67796 -26.33049" />
    <path d="M -0.79532 29.6006 L -0.67796 32.7441 L -0.67262 32.74403" />
    <path d="M -0.37803 -26.1912 L -0.37803 -26.33415" />
    <path d="M -0.91801 26.31422 L -0.91801 -32.76036 L -0.80065 -29.61687 L -0.50072 -29.62053 L -0.61808 -32.76402 L -0.91801 -32.76036" />
    <path d="M -0.80065 29.45772 L -0.80065 -29.61687" />
    <path d="M -0.91801 26.31422 L -0.80065 29.45772 L -0.79532 29.45765" />
    <path d="M -0.50072 -29.47758 L -0.50072 -29.62053" />
    <path d="M -1.04071 23.02784 L -1.04071 -36.04675 L -0.92335 -32.90325 L -0.62342 -32.90691 L -0.74078 -36.05041 L -1.04071 -36.04675" />
    <path d="M -0.92335 26.17134 L -0.92335 -32.90325" />
    <path d="M -1.04071 23.02784 L -0.92335 26.17134 L -0.91801 26.17127" />
    <path d="M -0.62342 -32.76396 L -0.62342 -32.90691" />
    <path d="M -1.1634 19.74146 L -1.1634 -39.33313 L -1.04604 -36.18963 L -0.74611 -36.19329 L -0.86347 -39.33679 L -1.1634 -39.33313" />
    <path d="M -1.04604 22.88496 L -1.04604 -36.18963" />
    <path d="M -1.1634 19.74146 L -1.04604 22.88496 L -1.04071 22.88489" />
    <path d="M -0.74611 -36.05034 L -0.74611 -36.19329" />
    <path d="M -1.2861 16.45508 L -1.2861 -42.61951 L -1.16874 -39.47601 L -0.8688 -39.47967 L -0.98616 -42.62317 L -1.2861 -42.61951" />
    <path d="M -1.16874 19.59858 L -1.16874 -39.47601" />
    <path d="M -1.2861 16.45508 L -1.16874 19.59858 L -1.1634 19.59851" />
    <path d="M -0.8688 -39.33672 L -0.8688 -39.47967" />
    <path d="M -1.40879 13.1687 L -1.40879 -45.90589 L -1.29143 -42.76239 L -0.9915 -42.76605 L -1.10886 -45.90955 L -1.40879 -45.90589" />
    <path d="M -1.29143 16.3122 L -1.29143 -42.76239" />
    <path d="M -1.40879 13.1687 L -1.29143 16.3122 L -1.2861 16.31213" />
    <path d="M -0.9915 -42.6231 L -0.9915 -42.76605" />
    <path d="M -1.53148 9.88232 L -1.53148 -49.19227 L -1.41412 -46.04877 L -1.11419 -46.05243 L -1.23155 -49.19593 L -1.53148 -49.19227" />
    <path d="M -1.41412 13.02581 L -1.41412 -46.04877" />
    <path d="M -1.53148 9.88232 L -1.41412 13.02581 L -1.40879 13.02575" />
    <path d="M -1.11419 -45.90948 L -1.11419 -46.05243" />
    <path d="M -1.65418 6.59594 L -1.65418 -52.47865 L -1.53682 -49.33516 L -1.23689 -49.33881 L -1.35425 -52.48231 L -1.65418 -52.47865" />
    <path d="M -1.53682 9.73943 L -1.53682 -49.33516" />
    <path d="M -1.65418 6.59594 L -1.53682 9.73943 L -1.53148 9.73937" />
    <path d="M -1.23689 -49.19586 L -1.23689 -49.33881" />
    <path d="M -1.77687 3.30956 L -1.77687 -55.76503 L -1.65951 -52.62154 L -1.35958 -52.6252 L -1.47694 -55.76869 L -1.77687 -55.76503" />
    <path d="M -1.65951 6.45305 L -1.65951 -52.62154" />
    <path d="M -1.77687 3.30956 L -1.65951 6.45305 L -1.65418 6.45299" />
    <path d="M -1.35958 -52.48224 L -1.35958 -52.6252" />
    <path d="M -2.88092 -77.17302 L -2.88092 1.59309" />
    <path d="M -0.50092 -77.17302 L -0.50092 -40.86677" />
</svg>