<svg version="1.1" xmlns="http://www.w3.org/2000/svg" viewBox="-3.2647496338983926 -48.82176024576335 5.603594310367804 98.98636814564694" fill="none" stroke="black" stroke-width="0.6%" vector-effect="non-scaling-stroke">
    <path d="M -1.12418 -47.82088 A 1.19 1.02183 360 0 1 0.11525 -46.79993 A 1.19 1.02183 360 0 1 -2.26475 -46.79993 A 1.19 1.02183 360 0 1 -1.12418 -47.82088 Z" />
    <path d="M -1.17559 3.41992 A 1.19 1.02183 360 0 1 -2.26475 2.40177" />
    <path d="M -1.17559 -33.48136 L -1.17559 3.41992 L -1.11039 4.76644 L -1.11039 -32.13484 L -0.81065 -32.14554 L -0.87584 -33.49206" />
    <path d="M -1.17559 -33.48136 A 1.19 1.02183 180 0 0 -0.87584 -33.49206" />
    <path d="M -1.11039 4.76644 L -1.10001 4.76607" />
    <path d="M -0.81065 -31.93068 L -0.81065 -32.14554" />
    <path d="M -1.17559 -33.48136 L -1.11039 -32.13484" />
    <path d="M 0.81065 44.44596 L 0.81065 7.54469 L 1.0391 12.26333 L 1.33884 12.25263 L 1.11039 7.53399 L 0.81065 7.54469" />
    <path d="M 1.0391 49.16461 L 1.0391 12.26333" />
    <path d="M 0.81065 44.44596 L 1.0391 49.16461 L 1.33884 49.15391 L 1.33884 12.25263" />
    <path d="M 0.57182 39.51283 L 0.57182 2.61156 L 0.80027 7.3302 L 1.10001 7.3195 L 0.87156 2.60086 L 0.57182 2.61156" />
    <path d="M 0.80027 44.23148 L 0.80027 7.3302" />
    <path d="M 0.57182 39.51283 L 0.80027 44.23148 L 0.81065 44.23111" />
    <path d="M 1.10001 7.53436 L 1.10001 7.3195" />
    <path d="M 0.33299 34.5797 L 0.33299 -2.32157 L 0.56144 2.39707 L 0.86118 2.38637 L 0.63273 -2.33227 L 0.33299 -2.32157" />
    <path d="M 0.56144 39.29835 L 0.56144 2.39707" />
    <path d="M 0.33299 34.5797 L 0.56144 39.29835 L 0.57182 39.29798" />
    <path d="M 0.86118 2.60123 L 0.86118 2.38637" />
    <path d="M 0.09415 29.64657 L 0.09415 -7.2547 L 0.3226 -2.53606 L 0.62234 -2.54676 L 0.3939 -7.2654 L 0.09415 -7.2547" />
    <path d="M 0.3226 34.36522 L 0.3226 -2.53606" />
    <path d="M 0.09415 29.64657 L 0.3226 34.36522 L 0.33299 34.36485" />
    <path d="M 0.62234 -2.3319 L 0.62234 -2.54676" />
    <path d="M -0.14468 24.71344 L -0.14468 -12.18783 L 0.08377 -7.46919 L 0.38351 -7.47989 L 0.15506 -12.19853 L -0.14468 -12.18783" />
    <path d="M 0.08377 29.43209 L 0.08377 -7.46919" />
    <path d="M -0.14468 24.71344 L 0.08377 29.43209 L 0.09415 29.43172" />
    <path d="M 0.38351 -7.26503 L 0.38351 -7.47989" />
    <path d="M -0.38351 19.78031 L -0.38351 -17.12096 L -0.15506 -12.40232 L 0.14468 -12.41302 L -0.08377 -17.13166 L -0.38351 -17.12096" />
    <path d="M -0.15506 24.49896 L -0.15506 -12.40232" />
    <path d="M -0.38351 19.78031 L -0.15506 24.49896 L -0.14468 24.49859" />
    <path d="M 0.14468 -12.19816 L 0.14468 -12.41302" />
    <path d="M -0.62234 14.84718 L -0.62234 -22.05409 L -0.3939 -17.33545 L -0.09415 -17.34615 L -0.3226 -22.06479 L -0.62234 -22.05409" />
    <path d="M -0.3939 19.56583 L -0.3939 -17.33545" />
    <path d="M -0.62234 14.84718 L -0.3939 19.56583 L -0.38351 19.56546" />
    <path d="M -0.09415 -17.13129 L -0.09415 -17.34615" />
    <path d="M -0.86118 9.91405 L -0.86118 -26.98722 L -0.63273 -22.26858 L -0.33299 -22.27928 L -0.56144 -26.99792 L -0.86118 -26.98722" />
    <path d="M -0.63273 14.6327 L -0.63273 -22.26858" />
    <path d="M -0.86118 9.91405 L -0.63273 14.6327 L -0.62234 14.63233" />
    <path d="M -0.33299 -22.06442 L -0.33299 -22.27928" />
    <path d="M -1.10001 4.98092 L -1.10001 -31.92035 L -0.87156 -27.20171 L -0.57182 -27.21241 L -0.80027 -31.93105 L -1.10001 -31.92035" />
    <path d="M -0.87156 9.69957 L -0.87156 -27.20171" />
    <path d="M -1.10001 4.98092 L -0.87156 9.69957 L -0.86118 9.6992" />
    <path d="M -0.57182 -26.99755 L -0.57182 -27.21241" />
    <path d="M -2.26475 -46.79993 L -2.26475 2.40177" />
    <path d="M 0.11525 -46.79993 L 0.11525 -13.02084" />
</svg>