<svg version="1.1" xmlns="http://www.w3.org/2000/svg" viewBox="-5.340309973068748 -98.32502986333476 10.670201821669611 196.5558531187162" fill="none" stroke="black" stroke-width="0.6%" vector-effect="non-scaling-stroke">
    <path d="M 3.13368 1.61151 A 1.19 0.1392 0 0 1 4.32989 1.75072 A 1.19 0.1392 0 0 1 1.94989 1.75072 A 1.19 0.1392 0 0 1 3.13368 1.61151 Z" />
    <path d="M 1.94989 97.09162 A 1.19 0.1392 180 0 0 4.32989 97.09162" />
    <path d="M -3.89033 -15.72987 L -3.89033 -87.23555 L -3.86163 -86.59217 L -3.56164 -86.59236 L -3.59033 -87.23573 L -3.89033 -87.23555" />
    <path d="M -3.86163 -15.0865 L -3.86163 -86.59217" />
    <path d="M -3.89033 -15.72987 L -3.86163 -15.0865 L -3.86033 -15.0865" />
    <path d="M -3.56164 -86.56311 L -3.56164 -86.59236" />
    <path d="M -3.92033 -16.40249 L -3.92033 -87.90817 L -3.89163 -87.26479 L -3.59164 -87.26498 L -3.62033 -87.90835 L -3.92033 -87.90817" />
    <path d="M -3.89163 -15.75912 L -3.89163 -87.26479" />
    <path d="M -3.92033 -16.40249 L -3.89163 -15.75912 L -3.89033 -15.75912" />
    <path d="M -3.59164 -87.23573 L -3.59164 -87.26498" />
    <path d="M -3.95033 -17.07511 L -3.95033 -88.58079 L -3.92163 -87.93741 L -3.62164 -87.9376 L -3.65033 -88.58097 L -3.95033 -88.58079" />
    <path d="M -3.92163 -16.43174 L -3.92163 -87.93741" />
    <path d="M -3.95033 -17.07511 L -3.92163 -16.43174 L -3.92033 -16.43174" />
    <path d="M -3.62164 -87.90835 L -3.62164 -87.9376" />
    <path d="M -3.98032 -17.74773 L -3.98032 -89.25341 L -3.95163 -88.61003 L -3.65163 -88.61021 L -3.68033 -89.25359 L -3.98032 -89.25341" />
    <path d="M -3.95163 -17.10436 L -3.95163 -88.61003" />
    <path d="M -3.98032 -17.74773 L -3.95163 -17.10436 L -3.95033 -17.10436" />
    <path d="M -3.65163 -88.58097 L -3.65163 -88.61021" />
    <path d="M -4.01032 -18.42035 L -4.01032 -89.92603 L -3.98163 -89.28265 L -3.68163 -89.28283 L -3.71033 -89.92621 L -4.01032 -89.92603" />
    <path d="M -3.98163 -17.77698 L -3.98163 -89.28265" />
    <path d="M -4.01032 -18.42035 L -3.98163 -17.77698 L -3.98032 -17.77698" />
    <path d="M -3.68163 -89.25359 L -3.68163 -89.28283" />
    <path d="M -4.04032 -19.09297 L -4.04032 -90.59865 L -4.01163 -89.95527 L -3.71163 -89.95545 L -3.74033 -90.59883 L -4.04032 -90.59865" />
    <path d="M -4.01163 -18.4496 L -4.01163 -89.95527" />
    <path d="M -4.04032 -19.09297 L -4.01163 -18.4496 L -4.01032 -18.4496" />
    <path d="M -3.71163 -89.92621 L -3.71163 -89.95545" />
    <path d="M -4.07032 -19.76559 L -4.07032 -91.27127 L -4.04163 -90.62789 L -3.74163 -90.62807 L -3.77033 -91.27145 L -4.07032 -91.27127" />
    <path d="M -4.04163 -19.12222 L -4.04163 -90.62789" />
    <path d="M -4.07032 -19.76559 L -4.04163 -19.12222 L -4.04032 -19.12222" />
    <path d="M -3.74163 -90.59883 L -3.74163 -90.62807" />
    <path d="M -4.10032 -20.43821 L -4.10032 -91.94389 L -4.07163 -91.30051 L -3.77163 -91.30069 L -3.80032 -91.94407 L -4.10032 -91.94389" />
    <path d="M -4.07163 -19.79484 L -4.07163 -91.30051" />
    <path d="M -4.10032 -20.43821 L -4.07163 -19.79484 L -4.07032 -19.79484" />
    <path d="M -3.77163 -91.27145 L -3.77163 -91.30069" />
    <path d="M -4.13032 -21.11083 L -4.13032 -92.61651 L -4.10162 -91.97313 L -3.80163 -91.97331 L -3.83032 -92.61669 L -4.13032 -92.61651" />
    <path d="M -4.10162 -20.46745 L -4.10162 -91.97313" />
    <path d="M -4.13032 -21.11083 L -4.10162 -20.46745 L -4.10032 -20.46746" />
    <path d="M -3.80163 -91.94407 L -3.80163 -91.97331" />
    <path d="M -4.16032 -21.78345 L -4.16032 -93.28913 L -4.13162 -92.64575 L -3.83163 -92.64593 L -3.86032 -93.28931 L -4.16032 -93.28913" />
    <path d="M -4.13162 -21.14007 L -4.13162 -92.64575" />
    <path d="M -4.16032 -21.78345 L -4.13162 -21.14007 L -4.13032 -21.14008" />
    <path d="M -3.83163 -92.61669 L -3.83163 -92.64593" />
    <path d="M -4.19032 -22.45607 L -4.19032 -93.96175 L -4.16162 -93.31837 L -3.86163 -93.31855 L -3.89032 -93.96193 L -4.19032 -93.96175" />
    <path d="M -4.16162 -21.81269 L -4.16162 -93.31837" />
    <path d="M -4.19032 -22.45607 L -4.16162 -21.81269 L -4.16032 -21.8127" />
    <path d="M -3.86163 -93.28931 L -3.86163 -93.31855" />
    <path d="M -4.22031 -23.12869 L -4.22031 -94.63437 L -4.19162 -93.99099 L -3.89162 -93.99117 L -3.92032 -94.63455 L -4.22031 -94.63437" />
    <path d="M -4.19162 -22.48531 L -4.19162 -93.99099" />
    <path d="M -4.22031 -23.12869 L -4.19162 -22.48531 L -4.19032 -22.48532" />
    <path d="M -3.89162 -93.96193 L -3.89162 -93.99117" />
    <path d="M -4.25031 -23.80131 L -4.25031 -95.30699 L -4.22162 -94.66361 L -3.92162 -94.66379 L -3.95032 -95.30717 L -4.25031 -95.30699" />
    <path d="M -4.22162 -23.15793 L -4.22162 -94.66361" />
    <path d="M -4.25031 -23.80131 L -4.22162 -23.15793 L -4.22031 -23.15794" />
    <path d="M -3.92162 -94.63455 L -3.92162 -94.66379" />
    <path d="M -4.28031 -24.47393 L -4.28031 -95.97961 L -4.25162 -95.33623 L -3.95162 -95.33641 L -3.98032 -95.97979 L -4.28031 -95.97961" />
    <path d="M -4.25162 -23.83055 L -4.25162 -95.33623" />
    <path d="M -4.28031 -24.47393 L -4.25162 -23.83055 L -4.25031 -23.83056" />
    <path d="M -3.95162 -95.30717 L -3.95162 -95.33641" />
    <path d="M -4.34031 -25.81917 L -4.34031 -97.32485 L -4.31161 -96.68147 L -4.01162 -96.68165 L -4.04031 -97.32503 L -4.34031 -97.32485" />
    <path d="M -4.31161 -25.17579 L -4.31161 -96.68147" />
    <path d="M -4.34031 -25.81917 L -4.31161 -25.17579 L -4.31031 -25.17579" />
    <path d="M -4.01162 -96.65241 L -4.01162 -96.68165" />
    <path d="M -4.31031 -25.14655 L -4.31031 -96.65223 L -4.28162 -96.00885 L -3.98162 -96.00903 L -4.01031 -96.65241 L -4.31031 -96.65223" />
    <path d="M -4.28162 -24.50317 L -4.28162 -96.00885" />
    <path d="M -4.31031 -25.14655 L -4.28162 -24.50317 L -4.28031 -24.50317" />
    <path d="M -3.98162 -95.97979 L -3.98162 -96.00903" />
    <path d="M -3.41035 -4.96795 L -3.41035 -76.47363 L -3.38166 -75.83025 L -3.08166 -75.83044 L -3.11035 -76.47381 L -3.41035 -76.47363" />
    <path d="M -3.38166 -4.32458 L -3.38166 -75.83025" />
    <path d="M -3.41035 -4.96795 L -3.38166 -4.32458 L -3.38035 -4.32458" />
    <path d="M -3.08166 -75.80119 L -3.08166 -75.83044" />
    <path d="M -3.44035 -5.64057 L -3.44035 -77.14625 L -3.41165 -76.50287 L -3.11166 -76.50306 L -3.14035 -77.14643 L -3.44035 -77.14625" />
    <path d="M -3.41165 -4.9972 L -3.41165 -76.50287" />
    <path d="M -3.44035 -5.64057 L -3.41165 -4.9972 L -3.41035 -4.9972" />
    <path d="M -3.11166 -76.47381 L -3.11166 -76.50306" />
    <path d="M -3.47035 -6.31319 L -3.47035 -77.81887 L -3.44165 -77.17549 L -3.14166 -77.17568 L -3.17035 -77.81905 L -3.47035 -77.81887" />
    <path d="M -3.44165 -5.66982 L -3.44165 -77.17549" />
    <path d="M -3.47035 -6.31319 L -3.44165 -5.66982 L -3.44035 -5.66982" />
    <path d="M -3.14166 -77.14643 L -3.14166 -77.17568" />
    <path d="M -3.50035 -6.98581 L -3.50035 -78.49149 L -3.47165 -77.84811 L -3.17166 -77.8483 L -3.20035 -78.49167 L -3.50035 -78.49149" />
    <path d="M -3.47165 -6.34244 L -3.47165 -77.84811" />
    <path d="M -3.50035 -6.98581 L -3.47165 -6.34244 L -3.47035 -6.34244" />
    <path d="M -3.17166 -77.81905 L -3.17166 -77.8483" />
    <path d="M -3.53034 -7.65843 L -3.53034 -79.16411 L -3.50165 -78.52073 L -3.20165 -78.52092 L -3.23035 -79.16429 L -3.53034 -79.16411" />
    <path d="M -3.50165 -7.01506 L -3.50165 -78.52073" />
    <path d="M -3.53034 -7.65843 L -3.50165 -7.01506 L -3.50035 -7.01506" />
    <path d="M -3.20165 -78.49167 L -3.20165 -78.52092" />
    <path d="M -3.56034 -8.33105 L -3.56034 -79.83673 L -3.53165 -79.19335 L -3.23165 -79.19354 L -3.26035 -79.83691 L -3.56034 -79.83673" />
    <path d="M -3.53165 -7.68768 L -3.53165 -79.19335" />
    <path d="M -3.56034 -8.33105 L -3.53165 -7.68768 L -3.53034 -7.68768" />
    <path d="M -3.23165 -79.16429 L -3.23165 -79.19354" />
    <path d="M -3.59034 -9.00367 L -3.59034 -80.50935 L -3.56165 -79.86597 L -3.26165 -79.86616 L -3.29035 -80.50953 L -3.59034 -80.50935" />
    <path d="M -3.56165 -8.3603 L -3.56165 -79.86597" />
    <path d="M -3.59034 -9.00367 L -3.56165 -8.3603 L -3.56034 -8.3603" />
    <path d="M -3.26165 -79.83691 L -3.26165 -79.86616" />
    <path d="M -3.62034 -9.67629 L -3.62034 -81.18197 L -3.59165 -80.53859 L -3.29165 -80.53878 L -3.32034 -81.18215 L -3.62034 -81.18197" />
    <path d="M -3.59165 -9.03292 L -3.59165 -80.53859" />
    <path d="M -3.62034 -9.67629 L -3.59165 -9.03292 L -3.59034 -9.03292" />
    <path d="M -3.29165 -80.50953 L -3.29165 -80.53878" />
    <path d="M -3.65034 -10.34891 L -3.65034 -81.85459 L -3.62165 -81.21121 L -3.32165 -81.2114 L -3.35034 -81.85477 L -3.65034 -81.85459" />
    <path d="M -3.62165 -9.70554 L -3.62165 -81.21121" />
    <path d="M -3.65034 -10.34891 L -3.62165 -9.70554 L -3.62034 -9.70554" />
    <path d="M -3.32165 -81.18215 L -3.32165 -81.2114" />
    <path d="M -3.68034 -11.02153 L -3.68034 -82.52721 L -3.65164 -81.88383 L -3.35165 -81.88402 L -3.38034 -82.52739 L -3.68034 -82.52721" />
    <path d="M -3.65164 -10.37816 L -3.65164 -81.88383" />
    <path d="M -3.68034 -11.02153 L -3.65164 -10.37816 L -3.65034 -10.37816" />
    <path d="M -3.35165 -81.85477 L -3.35165 -81.88402" />
    <path d="M -3.71034 -11.69415 L -3.71034 -83.19983 L -3.68164 -82.55645 L -3.38165 -82.55664 L -3.41034 -83.20001 L -3.71034 -83.19983" />
    <path d="M -3.68164 -11.05078 L -3.68164 -82.55645" />
    <path d="M -3.71034 -11.69415 L -3.68164 -11.05078 L -3.68034 -11.05078" />
    <path d="M -3.38165 -82.52739 L -3.38165 -82.55664" />
    <path d="M -3.74034 -12.36677 L -3.74034 -83.87245 L -3.71164 -83.22907 L -3.41165 -83.22926 L -3.44034 -83.87263 L -3.74034 -83.87245" />
    <path d="M -3.71164 -11.7234 L -3.71164 -83.22907" />
    <path d="M -3.74034 -12.36677 L -3.71164 -11.7234 L -3.71034 -11.7234" />
    <path d="M -3.41165 -83.20001 L -3.41165 -83.22926" />
    <path d="M -3.77033 -13.03939 L -3.77033 -84.54507 L -3.74164 -83.90169 L -3.44164 -83.90188 L -3.47034 -84.54525 L -3.77033 -84.54507" />
    <path d="M -3.74164 -12.39602 L -3.74164 -83.90169" />
    <path d="M -3.77033 -13.03939 L -3.74164 -12.39602 L -3.74034 -12.39602" />
    <path d="M -3.44164 -83.87263 L -3.44164 -83.90188" />
    <path d="M -3.80033 -13.71201 L -3.80033 -85.21769 L -3.77164 -84.57431 L -3.47164 -84.5745 L -3.50034 -85.21787 L -3.80033 -85.21769" />
    <path d="M -3.77164 -13.06864 L -3.77164 -84.57431" />
    <path d="M -3.80033 -13.71201 L -3.77164 -13.06864 L -3.77033 -13.06864" />
    <path d="M -3.47164 -84.54525 L -3.47164 -84.5745" />
    <path d="M -3.86033 -15.05725 L -3.86033 -86.56293 L -3.83164 -85.91955 L -3.53164 -85.91974 L -3.56033 -86.56311 L -3.86033 -86.56293" />
    <path d="M -3.83164 -14.41388 L -3.83164 -85.91955" />
    <path d="M -3.86033 -15.05725 L -3.83164 -14.41388 L -3.83033 -14.41388" />
    <path d="M -3.53164 -85.89049 L -3.53164 -85.91974" />
    <path d="M -3.83033 -14.38463 L -3.83033 -85.89031 L -3.80164 -85.24693 L -3.50164 -85.24712 L -3.53034 -85.89049 L -3.83033 -85.89031" />
    <path d="M -3.80164 -13.74126 L -3.80164 -85.24693" />
    <path d="M -3.83033 -14.38463 L -3.80164 -13.74126 L -3.80033 -13.74126" />
    <path d="M -3.50164 -85.21787 L -3.50164 -85.24712" />
    <path d="M -2.93037 5.79396 L -2.93037 -65.71171 L -2.90168 -65.06834 L -2.60168 -65.06852 L -2.63038 -65.7119 L -2.93037 -65.71171" />
    <path d="M -2.90168 6.43734 L -2.90168 -65.06834" />
    <path d="M -2.93037 5.79396 L -2.90168 6.43734 L -2.90037 6.43734" />
    <path d="M -2.60168 -65.03927 L -2.60168 -65.06852" />
    <path d="M -2.96037 5.12134 L -2.96037 -66.38433 L -2.93168 -65.74096 L -2.63168 -65.74114 L -2.66037 -66.38452 L -2.96037 -66.38433" />
    <path d="M -2.93168 5.76472 L -2.93168 -65.74096" />
    <path d="M -2.96037 5.12134 L -2.93168 5.76472 L -2.93037 5.76472" />
    <path d="M -2.63168 -65.71189 L -2.63168 -65.74114" />
    <path d="M -2.99037 4.44872 L -2.99037 -67.05695 L -2.96167 -66.41358 L -2.66168 -66.41376 L -2.69037 -67.05714 L -2.99037 -67.05695" />
    <path d="M -2.96167 5.0921 L -2.96167 -66.41358" />
    <path d="M -2.99037 4.44872 L -2.96167 5.0921 L -2.96037 5.0921" />
    <path d="M -2.66168 -66.38451 L -2.66168 -66.41376" />
    <path d="M -3.02037 3.7761 L -3.02037 -67.72957 L -2.99167 -67.0862 L -2.69168 -67.08638 L -2.72037 -67.72975 L -3.02037 -67.72957" />
    <path d="M -2.99167 4.41948 L -2.99167 -67.0862" />
    <path d="M -3.02037 3.7761 L -2.99167 4.41948 L -2.99037 4.41948" />
    <path d="M -2.69168 -67.05713 L -2.69168 -67.08638" />
    <path d="M -3.05037 3.10348 L -3.05037 -68.40219 L -3.02167 -67.75882 L -2.72168 -67.759 L -2.75037 -68.40237 L -3.05037 -68.40219" />
    <path d="M -3.02167 3.74686 L -3.02167 -67.75882" />
    <path d="M -3.05037 3.10348 L -3.02167 3.74686 L -3.02037 3.74686" />
    <path d="M -2.72168 -67.72975 L -2.72168 -67.759" />
    <path d="M -3.08036 2.43086 L -3.08036 -69.07481 L -3.05167 -68.43144 L -2.75167 -68.43162 L -2.78037 -69.07499 L -3.08036 -69.07481" />
    <path d="M -3.05167 3.07424 L -3.05167 -68.43144" />
    <path d="M -3.08036 2.43086 L -3.05167 3.07424 L -3.05037 3.07424" />
    <path d="M -2.75167 -68.40237 L -2.75167 -68.43162" />
    <path d="M -3.11036 1.75824 L -3.11036 -69.74743 L -3.08167 -69.10406 L -2.78167 -69.10424 L -2.81037 -69.74761 L -3.11036 -69.74743" />
    <path d="M -3.08167 2.40162 L -3.08167 -69.10406" />
    <path d="M -3.11036 1.75824 L -3.08167 2.40162 L -3.08036 2.40162" />
    <path d="M -2.78167 -69.07499 L -2.78167 -69.10424" />
    <path d="M -3.14036 1.08563 L -3.14036 -70.42005 L -3.11167 -69.77668 L -2.81167 -69.77686 L -2.84037 -70.42023 L -3.14036 -70.42005" />
    <path d="M -3.11167 1.729 L -3.11167 -69.77668" />
    <path d="M -3.14036 1.08563 L -3.11167 1.729 L -3.11036 1.729" />
    <path d="M -2.81167 -69.74761 L -2.81167 -69.77686" />
    <path d="M -3.17036 0.41301 L -3.17036 -71.09267 L -3.14167 -70.4493 L -2.84167 -70.44948 L -2.87036 -71.09285 L -3.17036 -71.09267" />
    <path d="M -3.14167 1.05638 L -3.14167 -70.4493" />
    <path d="M -3.17036 0.41301 L -3.14167 1.05638 L -3.14036 1.05638" />
    <path d="M -2.84167 -70.42023 L -2.84167 -70.44948" />
    <path d="M -3.20036 -0.25961 L -3.20036 -71.76529 L -3.17167 -71.12192 L -2.87167 -71.1221 L -2.90036 -71.76547 L -3.20036 -71.76529" />
    <path d="M -3.17167 0.38376 L -3.17167 -71.12192" />
    <path d="M -3.20036 -0.25961 L -3.17167 0.38376 L -3.17036 0.38376" />
    <path d="M -2.87167 -71.09285 L -2.87167 -71.1221" />
    <path d="M -3.23036 -0.93223 L -3.23036 -72.43791 L -3.20166 -71.79454 L -2.90167 -71.79472 L -2.93036 -72.43809 L -3.23036 -72.43791" />
    <path d="M -3.20166 -0.28886 L -3.20166 -71.79454" />
    <path d="M -3.23036 -0.93223 L -3.20166 -0.28886 L -3.20036 -0.28886" />
    <path d="M -2.90167 -71.76547 L -2.90167 -71.79472" />
    <path d="M -3.26036 -1.60485 L -3.26036 -73.11053 L -3.23166 -72.46716 L -2.93167 -72.46734 L -2.96036 -73.11071 L -3.26036 -73.11053" />
    <path d="M -3.23166 -0.96148 L -3.23166 -72.46716" />
    <path d="M -3.26036 -1.60485 L -3.23166 -0.96148 L -3.23036 -0.96148" />
    <path d="M -2.93167 -72.43809 L -2.93167 -72.46734" />
    <path d="M -3.29036 -2.27747 L -3.29036 -73.78315 L -3.26166 -73.13978 L -2.96167 -73.13996 L -2.99036 -73.78333 L -3.29036 -73.78315" />
    <path d="M -3.26166 -1.6341 L -3.26166 -73.13978" />
    <path d="M -3.29036 -2.27747 L -3.26166 -1.6341 L -3.26036 -1.6341" />
    <path d="M -2.96167 -73.11071 L -2.96167 -73.13996" />
    <path d="M -3.32035 -2.95009 L -3.32035 -74.45577 L -3.29166 -73.81239 L -2.99166 -73.81258 L -3.02036 -74.45595 L -3.32035 -74.45577" />
    <path d="M -3.29166 -2.30672 L -3.29166 -73.81239" />
    <path d="M -3.32035 -2.95009 L -3.29166 -2.30672 L -3.29036 -2.30672" />
    <path d="M -2.99166 -73.78333 L -2.99166 -73.81258" />
    <path d="M -3.38035 -4.29533 L -3.38035 -75.80101 L -3.35166 -75.15763 L -3.05166 -75.15782 L -3.08036 -75.80119 L -3.38035 -75.80101" />
    <path d="M -3.35166 -3.65196 L -3.35166 -75.15763" />
    <path d="M -3.38035 -4.29533 L -3.35166 -3.65196 L -3.35035 -3.65196" />
    <path d="M -3.05166 -75.12857 L -3.05166 -75.15782" />
    <path d="M -3.35035 -3.62271 L -3.35035 -75.12839 L -3.32166 -74.48501 L -3.02166 -74.4852 L -3.05036 -75.12857 L -3.35035 -75.12839" />
    <path d="M -3.32166 -2.97934 L -3.32166 -74.48501" />
    <path d="M -3.35035 -3.62271 L -3.32166 -2.97934 L -3.32035 -2.97934" />
    <path d="M -3.02166 -74.45595 L -3.02166 -74.4852" />
    <path d="M -2.45039 16.55588 L -2.45039 -54.94979 L -2.4217 -54.30642 L -2.1217 -54.3066 L -2.1504 -54.94998 L -2.45039 -54.94979" />
    <path d="M -2.4217 17.19926 L -2.4217 -54.30642" />
    <path d="M -2.45039 16.55588 L -2.4217 17.19926 L -2.42039 17.19926" />
    <path d="M -2.1217 -54.27736 L -2.1217 -54.3066" />
    <path d="M -2.48039 15.88326 L -2.48039 -55.62241 L -2.4517 -54.97904 L -2.1517 -54.97922 L -2.1804 -55.6226 L -2.48039 -55.62241" />
    <path d="M -2.4517 16.52664 L -2.4517 -54.97904" />
    <path d="M -2.48039 15.88326 L -2.4517 16.52664 L -2.45039 16.52664" />
    <path d="M -2.1517 -54.94998 L -2.1517 -54.97922" />
    <path d="M -2.51039 15.21064 L -2.51039 -56.29503 L -2.4817 -55.65166 L -2.1817 -55.65184 L -2.21039 -56.29522 L -2.51039 -56.29503" />
    <path d="M -2.4817 15.85402 L -2.4817 -55.65166" />
    <path d="M -2.51039 15.21064 L -2.4817 15.85402 L -2.48039 15.85402" />
    <path d="M -2.1817 -55.6226 L -2.1817 -55.65184" />
    <path d="M -2.54039 14.53802 L -2.54039 -56.96765 L -2.51169 -56.32428 L -2.2117 -56.32446 L -2.24039 -56.96784 L -2.54039 -56.96765" />
    <path d="M -2.51169 15.1814 L -2.51169 -56.32428" />
    <path d="M -2.54039 14.53802 L -2.51169 15.1814 L -2.51039 15.1814" />
    <path d="M -2.2117 -56.29522 L -2.2117 -56.32446" />
    <path d="M -2.57039 13.8654 L -2.57039 -57.64027 L -2.54169 -56.9969 L -2.2417 -56.99708 L -2.27039 -57.64046 L -2.57039 -57.64027" />
    <path d="M -2.54169 14.50878 L -2.54169 -56.9969" />
    <path d="M -2.57039 13.8654 L -2.54169 14.50878 L -2.54039 14.50878" />
    <path d="M -2.2417 -56.96784 L -2.2417 -56.99708" />
    <path d="M -2.60039 13.19278 L -2.60039 -58.31289 L -2.57169 -57.66952 L -2.2717 -57.6697 L -2.30039 -58.31308 L -2.60039 -58.31289" />
    <path d="M -2.57169 13.83616 L -2.57169 -57.66952" />
    <path d="M -2.60039 13.19278 L -2.57169 13.83616 L -2.57039 13.83616" />
    <path d="M -2.2717 -57.64046 L -2.2717 -57.6697" />
    <path d="M -2.63038 12.52016 L -2.63038 -58.98551 L -2.60169 -58.34214 L -2.30169 -58.34232 L -2.33039 -58.9857 L -2.63038 -58.98551" />
    <path d="M -2.60169 13.16354 L -2.60169 -58.34214" />
    <path d="M -2.63038 12.52016 L -2.60169 13.16354 L -2.60039 13.16354" />
    <path d="M -2.30169 -58.31308 L -2.30169 -58.34232" />
    <path d="M -2.66038 11.84754 L -2.66038 -59.65813 L -2.63169 -59.01476 L -2.33169 -59.01494 L -2.36039 -59.65832 L -2.66038 -59.65813" />
    <path d="M -2.63169 12.49092 L -2.63169 -59.01476" />
    <path d="M -2.66038 11.84754 L -2.63169 12.49092 L -2.63038 12.49092" />
    <path d="M -2.33169 -58.9857 L -2.33169 -59.01494" />
    <path d="M -2.69038 11.17492 L -2.69038 -60.33075 L -2.66169 -59.68738 L -2.36169 -59.68756 L -2.39039 -60.33094 L -2.69038 -60.33075" />
    <path d="M -2.66169 11.8183 L -2.66169 -59.68738" />
    <path d="M -2.69038 11.17492 L -2.66169 11.8183 L -2.66038 11.8183" />
    <path d="M -2.36169 -59.65832 L -2.36169 -59.68756" />
    <path d="M -2.72038 10.5023 L -2.72038 -61.00337 L -2.69169 -60.36 L -2.39169 -60.36018 L -2.42038 -61.00356 L -2.72038 -61.00337" />
    <path d="M -2.69169 11.14568 L -2.69169 -60.36" />
    <path d="M -2.72038 10.5023 L -2.69169 11.14568 L -2.69038 11.14568" />
    <path d="M -2.39169 -60.33094 L -2.39169 -60.36018" />
    <path d="M -2.75038 9.82968 L -2.75038 -61.67599 L -2.72169 -61.03262 L -2.42169 -61.0328 L -2.45038 -61.67618 L -2.75038 -61.67599" />
    <path d="M -2.72169 10.47306 L -2.72169 -61.03262" />
    <path d="M -2.75038 9.82968 L -2.72169 10.47306 L -2.72038 10.47306" />
    <path d="M -2.42169 -61.00356 L -2.42169 -61.0328" />
    <path d="M -2.78038 9.15706 L -2.78038 -62.34861 L -2.75168 -61.70524 L -2.45169 -61.70542 L -2.48038 -62.3488 L -2.78038 -62.34861" />
    <path d="M -2.75168 9.80044 L -2.75168 -61.70524" />
    <path d="M -2.78038 9.15706 L -2.75168 9.80044 L -2.75038 9.80044" />
    <path d="M -2.45169 -61.67618 L -2.45169 -61.70542" />
    <path d="M -2.81038 8.48444 L -2.81038 -63.02123 L -2.78168 -62.37786 L -2.48169 -62.37804 L -2.51038 -63.02142 L -2.81038 -63.02123" />
    <path d="M -2.78168 9.12782 L -2.78168 -62.37786" />
    <path d="M -2.81038 8.48444 L -2.78168 9.12782 L -2.78038 9.12782" />
    <path d="M -2.48169 -62.3488 L -2.48169 -62.37804" />
    <path d="M -2.84038 7.81182 L -2.84038 -63.69385 L -2.81168 -63.05048 L -2.51169 -63.05066 L -2.54038 -63.69404 L -2.84038 -63.69385" />
    <path d="M -2.81168 8.4552 L -2.81168 -63.05048" />
    <path d="M -2.84038 7.81182 L -2.81168 8.4552 L -2.81038 8.4552" />
    <path d="M -2.51169 -63.02142 L -2.51169 -63.05066" />
    <path d="M -2.90037 6.46658 L -2.90037 -65.03909 L -2.87168 -64.39572 L -2.57168 -64.3959 L -2.60038 -65.03928 L -2.90037 -65.03909" />
    <path d="M -2.87168 7.10996 L -2.87168 -64.39572" />
    <path d="M -2.90037 6.46658 L -2.87168 7.10996 L -2.87037 7.10996" />
    <path d="M -2.57168 -64.36665 L -2.57168 -64.3959" />
    <path d="M -2.87037 7.1392 L -2.87037 -64.36647 L -2.84168 -63.7231 L -2.54168 -63.72328 L -2.57038 -64.36666 L -2.87037 -64.36647" />
    <path d="M -2.84168 7.78258 L -2.84168 -63.7231" />
    <path d="M -2.87037 7.1392 L -2.84168 7.78258 L -2.84038 7.78258" />
    <path d="M -2.54168 -63.69403 L -2.54168 -63.72328" />
    <path d="M -1.97041 27.3178 L -1.97041 -44.18788 L -1.94172 -43.5445 L -1.64172 -43.54468 L -1.67042 -44.18806 L -1.97041 -44.18788" />
    <path d="M -1.94172 27.96118 L -1.94172 -43.5445" />
    <path d="M -1.97041 27.3178 L -1.94172 27.96118 L -1.94042 27.96117" />
    <path d="M -1.64172 -43.51544 L -1.64172 -43.54468" />
    <path d="M -2.00041 26.64518 L -2.00041 -44.8605 L -1.97172 -44.21712 L -1.67172 -44.2173 L -1.70042 -44.86068 L -2.00041 -44.8605" />
    <path d="M -1.97172 27.28856 L -1.97172 -44.21712" />
    <path d="M -2.00041 26.64518 L -1.97172 27.28856 L -1.97041 27.28855" />
    <path d="M -1.67172 -44.18806 L -1.67172 -44.2173" />
    <path d="M -2.03041 25.97256 L -2.03041 -45.53312 L -2.00172 -44.88974 L -1.70172 -44.88992 L -1.73042 -45.5333 L -2.03041 -45.53312" />
    <path d="M -2.00172 26.61594 L -2.00172 -44.88974" />
    <path d="M -2.03041 25.97256 L -2.00172 26.61594 L -2.00041 26.61593" />
    <path d="M -1.70172 -44.86068 L -1.70172 -44.88992" />
    <path d="M -2.06041 25.29994 L -2.06041 -46.20574 L -2.03172 -45.56236 L -1.73172 -45.56254 L -1.76041 -46.20592 L -2.06041 -46.20574" />
    <path d="M -2.03172 25.94332 L -2.03172 -45.56236" />
    <path d="M -2.06041 25.29994 L -2.03172 25.94332 L -2.03041 25.94331" />
    <path d="M -1.73172 -45.5333 L -1.73172 -45.56254" />
    <path d="M -2.09041 24.62732 L -2.09041 -46.87836 L -2.06171 -46.23498 L -1.76172 -46.23516 L -1.79041 -46.87854 L -2.09041 -46.87836" />
    <path d="M -2.06171 25.2707 L -2.06171 -46.23498" />
    <path d="M -2.09041 24.62732 L -2.06171 25.2707 L -2.06041 25.27069" />
    <path d="M -1.76172 -46.20592 L -1.76172 -46.23516" />
    <path d="M -2.12041 23.9547 L -2.12041 -47.55098 L -2.09171 -46.9076 L -1.79172 -46.90778 L -1.82041 -47.55116 L -2.12041 -47.55098" />
    <path d="M -2.09171 24.59808 L -2.09171 -46.9076" />
    <path d="M -2.12041 23.9547 L -2.09171 24.59808 L -2.09041 24.59808" />
    <path d="M -1.79172 -46.87854 L -1.79172 -46.90778" />
    <path d="M -2.15041 23.28208 L -2.15041 -48.2236 L -2.12171 -47.58022 L -1.82172 -47.5804 L -1.85041 -48.22378 L -2.15041 -48.2236" />
    <path d="M -2.12171 23.92546 L -2.12171 -47.58022" />
    <path d="M -2.15041 23.28208 L -2.12171 23.92546 L -2.12041 23.92546" />
    <path d="M -1.82172 -47.55116 L -1.82172 -47.5804" />
    <path d="M -2.1804 22.60946 L -2.1804 -48.89622 L -2.15171 -48.25284 L -1.85171 -48.25302 L -1.88041 -48.8964 L -2.1804 -48.89622" />
    <path d="M -2.15171 23.25284 L -2.15171 -48.25284" />
    <path d="M -2.1804 22.60946 L -2.15171 23.25284 L -2.15041 23.25284" />
    <path d="M -1.85171 -48.22378 L -1.85171 -48.25302" />
    <path d="M -2.2104 21.93684 L -2.2104 -49.56884 L -2.18171 -48.92546 L -1.88171 -48.92564 L -1.91041 -49.56902 L -2.2104 -49.56884" />
    <path d="M -2.18171 22.58022 L -2.18171 -48.92546" />
    <path d="M -2.2104 21.93684 L -2.18171 22.58022 L -2.1804 22.58022" />
    <path d="M -1.88171 -48.8964 L -1.88171 -48.92564" />
    <path d="M -2.2404 21.26422 L -2.2404 -50.24146 L -2.21171 -49.59808 L -1.91171 -49.59826 L -1.94041 -50.24164 L -2.2404 -50.24146" />
    <path d="M -2.21171 21.9076 L -2.21171 -49.59808" />
    <path d="M -2.2404 21.26422 L -2.21171 21.9076 L -2.2104 21.9076" />
    <path d="M -1.91171 -49.56902 L -1.91171 -49.59826" />
    <path d="M -2.2704 20.5916 L -2.2704 -50.91408 L -2.24171 -50.2707 L -1.94171 -50.27088 L -1.9704 -50.91426 L -2.2704 -50.91408" />
    <path d="M -2.24171 21.23498 L -2.24171 -50.2707" />
    <path d="M -2.2704 20.5916 L -2.24171 21.23498 L -2.2404 21.23498" />
    <path d="M -1.94171 -50.24164 L -1.94171 -50.27088" />
    <path d="M -2.3004 19.91898 L -2.3004 -51.5867 L -2.27171 -50.94332 L -1.97171 -50.9435 L -2.0004 -51.58688 L -2.3004 -51.5867" />
    <path d="M -2.27171 20.56236 L -2.27171 -50.94332" />
    <path d="M -2.3004 19.91898 L -2.27171 20.56236 L -2.2704 20.56236" />
    <path d="M -1.97171 -50.91426 L -1.97171 -50.9435" />
    <path d="M -2.3304 19.24636 L -2.3304 -52.25931 L -2.3017 -51.61594 L -2.00171 -51.61612 L -2.0304 -52.2595 L -2.3304 -52.25931" />
    <path d="M -2.3017 19.88974 L -2.3017 -51.61594" />
    <path d="M -2.3304 19.24636 L -2.3017 19.88974 L -2.3004 19.88974" />
    <path d="M -2.00171 -51.58688 L -2.00171 -51.61612" />
    <path d="M -2.3604 18.57374 L -2.3604 -52.93193 L -2.3317 -52.28856 L -2.03171 -52.28874 L -2.0604 -52.93212 L -2.3604 -52.93193" />
    <path d="M -2.3317 19.21712 L -2.3317 -52.28856" />
    <path d="M -2.3604 18.57374 L -2.3317 19.21712 L -2.3304 19.21712" />
    <path d="M -2.03171 -52.2595 L -2.03171 -52.28874" />
    <path d="M -2.42039 17.2285 L -2.42039 -54.27717 L -2.3917 -53.6338 L -2.0917 -53.63398 L -2.1204 -54.27736 L -2.42039 -54.27717" />
    <path d="M -2.3917 17.87188 L -2.3917 -53.6338" />
    <path d="M -2.42039 17.2285 L -2.3917 17.87188 L -2.3904 17.87188" />
    <path d="M -2.0917 -53.60474 L -2.0917 -53.63398" />
    <path d="M -2.3904 17.90112 L -2.3904 -53.60455 L -2.3617 -52.96118 L -2.06171 -52.96136 L -2.0904 -53.60474 L -2.3904 -53.60455" />
    <path d="M -2.3617 18.5445 L -2.3617 -52.96118" />
    <path d="M -2.3904 17.90112 L -2.3617 18.5445 L -2.3604 18.5445" />
    <path d="M -2.06171 -52.93212 L -2.06171 -52.96136" />
    <path d="M -1.49044 38.07972 L -1.49044 -33.42596 L -1.46174 -32.78258 L -1.16175 -32.78277 L -1.19044 -33.42614 L -1.49044 -33.42596" />
    <path d="M -1.46174 38.72309 L -1.46174 -32.78258" />
    <path d="M -1.49044 38.07972 L -1.46174 38.72309 L -1.46044 38.72309" />
    <path d="M -1.16175 -32.75352 L -1.16175 -32.78277" />
    <path d="M -1.52043 37.4071 L -1.52043 -34.09858 L -1.49174 -33.4552 L -1.19174 -33.45539 L -1.22044 -34.09876 L -1.52043 -34.09858" />
    <path d="M -1.49174 38.05047 L -1.49174 -33.4552" />
    <path d="M -1.52043 37.4071 L -1.49174 38.05047 L -1.49044 38.05047" />
    <path d="M -1.19174 -33.42614 L -1.19174 -33.45539" />
    <path d="M -1.55043 36.73448 L -1.55043 -34.7712 L -1.52174 -34.12782 L -1.22174 -34.12801 L -1.25044 -34.77138 L -1.55043 -34.7712" />
    <path d="M -1.52174 37.37785 L -1.52174 -34.12782" />
    <path d="M -1.55043 36.73448 L -1.52174 37.37785 L -1.52043 37.37785" />
    <path d="M -1.22174 -34.09876 L -1.22174 -34.12801" />
    <path d="M -1.58043 36.06186 L -1.58043 -35.44382 L -1.55174 -34.80044 L -1.25174 -34.80063 L -1.28044 -35.444 L -1.58043 -35.44382" />
    <path d="M -1.55174 36.70523 L -1.55174 -34.80044" />
    <path d="M -1.58043 36.06186 L -1.55174 36.70523 L -1.55043 36.70523" />
    <path d="M -1.25174 -34.77138 L -1.25174 -34.80063" />
    <path d="M -1.61043 35.38924 L -1.61043 -36.11644 L -1.58174 -35.47306 L -1.28174 -35.47325 L -1.31043 -36.11662 L -1.61043 -36.11644" />
    <path d="M -1.58174 36.03261 L -1.58174 -35.47306" />
    <path d="M -1.61043 35.38924 L -1.58174 36.03261 L -1.58043 36.03261" />
    <path d="M -1.28174 -35.444 L -1.28174 -35.47325" />
    <path d="M -1.64043 34.71662 L -1.64043 -36.78906 L -1.61173 -36.14568 L -1.31174 -36.14587 L -1.34043 -36.78924 L -1.64043 -36.78906" />
    <path d="M -1.61173 35.35999 L -1.61173 -36.14568" />
    <path d="M -1.64043 34.71662 L -1.61173 35.35999 L -1.61043 35.35999" />
    <path d="M -1.31174 -36.11662 L -1.31174 -36.14587" />
    <path d="M -1.67043 34.044 L -1.67043 -37.46168 L -1.64173 -36.8183 L -1.34174 -36.81849 L -1.37043 -37.46186 L -1.67043 -37.46168" />
    <path d="M -1.64173 34.68737 L -1.64173 -36.8183" />
    <path d="M -1.67043 34.044 L -1.64173 34.68737 L -1.64043 34.68737" />
    <path d="M -1.34174 -36.78924 L -1.34174 -36.81849" />
    <path d="M -1.70043 33.37138 L -1.70043 -38.1343 L -1.67173 -37.49092 L -1.37174 -37.49111 L -1.40043 -38.13448 L -1.70043 -38.1343" />
    <path d="M -1.67173 34.01475 L -1.67173 -37.49092" />
    <path d="M -1.70043 33.37138 L -1.67173 34.01475 L -1.67043 34.01475" />
    <path d="M -1.37174 -37.46186 L -1.37174 -37.49111" />
    <path d="M -1.73042 32.69876 L -1.73042 -38.80692 L -1.70173 -38.16354 L -1.40173 -38.16373 L -1.43043 -38.8071 L -1.73042 -38.80692" />
    <path d="M -1.70173 33.34213 L -1.70173 -38.16354" />
    <path d="M -1.73042 32.69876 L -1.70173 33.34213 L -1.70043 33.34213" />
    <path d="M -1.40173 -38.13448 L -1.40173 -38.16373" />
    <path d="M -1.76042 32.02614 L -1.76042 -39.47954 L -1.73173 -38.83616 L -1.43173 -38.83635 L -1.46043 -39.47972 L -1.76042 -39.47954" />
    <path d="M -1.73173 32.66951 L -1.73173 -38.83616" />
    <path d="M -1.76042 32.02614 L -1.73173 32.66951 L -1.73042 32.66951" />
    <path d="M -1.43173 -38.8071 L -1.43173 -38.83635" />
    <path d="M -1.79042 31.35352 L -1.79042 -40.15216 L -1.76173 -39.50878 L -1.46173 -39.50897 L -1.49043 -40.15234 L -1.79042 -40.15216" />
    <path d="M -1.76173 31.99689 L -1.76173 -39.50878" />
    <path d="M -1.79042 31.35352 L -1.76173 31.99689 L -1.76042 31.99689" />
    <path d="M -1.46173 -39.47972 L -1.46173 -39.50897" />
    <path d="M -1.82042 30.6809 L -1.82042 -40.82478 L -1.79173 -40.1814 L -1.49173 -40.18158 L -1.52042 -40.82496 L -1.82042 -40.82478" />
    <path d="M -1.79173 31.32427 L -1.79173 -40.1814" />
    <path d="M -1.82042 30.6809 L -1.79173 31.32427 L -1.79042 31.32427" />
    <path d="M -1.49173 -40.15234 L -1.49173 -40.18158" />
    <path d="M -1.85042 30.00828 L -1.85042 -41.4974 L -1.82173 -40.85402 L -1.52173 -40.8542 L -1.55042 -41.49758 L -1.85042 -41.4974" />
    <path d="M -1.82173 30.65165 L -1.82173 -40.85402" />
    <path d="M -1.85042 30.00828 L -1.82173 30.65165 L -1.82042 30.65165" />
    <path d="M -1.52173 -40.82496 L -1.52173 -40.8542" />
    <path d="M -1.88042 29.33566 L -1.88042 -42.17002 L -1.85172 -41.52664 L -1.55173 -41.52682 L -1.58042 -42.1702 L -1.88042 -42.17002" />
    <path d="M -1.85172 29.97903 L -1.85172 -41.52664" />
    <path d="M -1.88042 29.33566 L -1.85172 29.97903 L -1.85042 29.97903" />
    <path d="M -1.55173 -41.49758 L -1.55173 -41.52682" />
    <path d="M -1.94042 27.99042 L -1.94042 -43.51526 L -1.91172 -42.87188 L -1.61173 -42.87206 L -1.64042 -43.51544 L -1.94042 -43.51526" />
    <path d="M -1.91172 28.6338 L -1.91172 -42.87188" />
    <path d="M -1.94042 27.99042 L -1.91172 28.6338 L -1.91042 28.63379" />
    <path d="M -1.61173 -42.84282 L -1.61173 -42.87206" />
    <path d="M -1.91042 28.66304 L -1.91042 -42.84264 L -1.88172 -42.19926 L -1.58173 -42.19944 L -1.61042 -42.84282 L -1.91042 -42.84264" />
    <path d="M -1.88172 29.30641 L -1.88172 -42.19926" />
    <path d="M -1.91042 28.66304 L -1.88172 29.30641 L -1.88042 29.30641" />
    <path d="M -1.58173 -42.1702 L -1.58173 -42.19944" />
    <path d="M -1.01046 48.84164 L -1.01046 -22.66404 L -0.98176 -22.02067 L -0.68177 -22.02085 L -0.71046 -22.66422 L -1.01046 -22.66404" />
    <path d="M -0.98176 49.48501 L -0.98176 -22.02067" />
    <path d="M -1.01046 48.84164 L -0.98176 49.48501 L -0.98046 49.48501" />
    <path d="M -0.68177 -21.9916 L -0.68177 -22.02085" />
    <path d="M -1.04046 48.16902 L -1.04046 -23.33666 L -1.01176 -22.69329 L -0.71177 -22.69347 L -0.74046 -23.33684 L -1.04046 -23.33666" />
    <path d="M -1.01176 48.81239 L -1.01176 -22.69329" />
    <path d="M -1.04046 48.16902 L -1.01176 48.81239 L -1.01046 48.81239" />
    <path d="M -0.71177 -22.66422 L -0.71177 -22.69347" />
    <path d="M -1.07045 47.4964 L -1.07045 -24.00928 L -1.04176 -23.36591 L -0.74176 -23.36609 L -0.77046 -24.00946 L -1.07045 -24.00928" />
    <path d="M -1.04176 48.13977 L -1.04176 -23.36591" />
    <path d="M -1.07045 47.4964 L -1.04176 48.13977 L -1.04046 48.13977" />
    <path d="M -0.74176 -23.33684 L -0.74176 -23.36609" />
    <path d="M -1.10045 46.82378 L -1.10045 -24.6819 L -1.07176 -24.03853 L -0.77176 -24.03871 L -0.80046 -24.68208 L -1.10045 -24.6819" />
    <path d="M -1.07176 47.46715 L -1.07176 -24.03853" />
    <path d="M -1.10045 46.82378 L -1.07176 47.46715 L -1.07045 47.46715" />
    <path d="M -0.77176 -24.00946 L -0.77176 -24.03871" />
    <path d="M -1.13045 46.15116 L -1.13045 -25.35452 L -1.10176 -24.71114 L -0.80176 -24.71133 L -0.83046 -25.3547 L -1.13045 -25.35452" />
    <path d="M -1.10176 46.79453 L -1.10176 -24.71114" />
    <path d="M -1.13045 46.15116 L -1.10176 46.79453 L -1.10045 46.79453" />
    <path d="M -0.80176 -24.68208 L -0.80176 -24.71133" />
    <path d="M -1.16045 45.47854 L -1.16045 -26.02714 L -1.13176 -25.38376 L -0.83176 -25.38395 L -0.86045 -26.02732 L -1.16045 -26.02714" />
    <path d="M -1.13176 46.12191 L -1.13176 -25.38376" />
    <path d="M -1.16045 45.47854 L -1.13176 46.12191 L -1.13045 46.12191" />
    <path d="M -0.83176 -25.3547 L -0.83176 -25.38395" />
    <path d="M -1.19045 44.80592 L -1.19045 -26.69976 L -1.16175 -26.05638 L -0.86176 -26.05657 L -0.89045 -26.69994 L -1.19045 -26.69976" />
    <path d="M -1.16175 45.44929 L -1.16175 -26.05638" />
    <path d="M -1.19045 44.80592 L -1.16175 45.44929 L -1.16045 45.44929" />
    <path d="M -0.86176 -26.02732 L -0.86176 -26.05657" />
    <path d="M -1.22045 44.1333 L -1.22045 -27.37238 L -1.19175 -26.729 L -0.89176 -26.72919 L -0.92045 -27.37256 L -1.22045 -27.37238" />
    <path d="M -1.19175 44.77667 L -1.19175 -26.729" />
    <path d="M -1.22045 44.1333 L -1.19175 44.77667 L -1.19045 44.77667" />
    <path d="M -0.89176 -26.69994 L -0.89176 -26.72919" />
    <path d="M -1.25045 43.46068 L -1.25045 -28.045 L -1.22175 -27.40162 L -0.92176 -27.40181 L -0.95045 -28.04518 L -1.25045 -28.045" />
    <path d="M -1.22175 44.10405 L -1.22175 -27.40162" />
    <path d="M -1.25045 43.46068 L -1.22175 44.10405 L -1.22045 44.10405" />
    <path d="M -0.92176 -27.37256 L -0.92176 -27.40181" />
    <path d="M -1.28044 42.78806 L -1.28044 -28.71762 L -1.25175 -28.07424 L -0.95175 -28.07443 L -0.98045 -28.7178 L -1.28044 -28.71762" />
    <path d="M -1.25175 43.43143 L -1.25175 -28.07424" />
    <path d="M -1.28044 42.78806 L -1.25175 43.43143 L -1.25045 43.43143" />
    <path d="M -0.95175 -28.04518 L -0.95175 -28.07443" />
    <path d="M -1.31044 42.11544 L -1.31044 -29.39024 L -1.28175 -28.74686 L -0.98175 -28.74705 L -1.01045 -29.39042 L -1.31044 -29.39024" />
    <path d="M -1.28175 42.75881 L -1.28175 -28.74686" />
    <path d="M -1.31044 42.11544 L -1.28175 42.75881 L -1.28044 42.75881" />
    <path d="M -0.98175 -28.7178 L -0.98175 -28.74705" />
    <path d="M -1.34044 41.44282 L -1.34044 -30.06286 L -1.31175 -29.41948 L -1.01175 -29.41967 L -1.04045 -30.06304 L -1.34044 -30.06286" />
    <path d="M -1.31175 42.08619 L -1.31175 -29.41948" />
    <path d="M -1.34044 41.44282 L -1.31175 42.08619 L -1.31044 42.08619" />
    <path d="M -1.01175 -29.39042 L -1.01175 -29.41967" />
    <path d="M -1.37044 40.7702 L -1.37044 -30.73548 L -1.34175 -30.0921 L -1.04175 -30.09229 L -1.07044 -30.73566 L -1.37044 -30.73548" />
    <path d="M -1.34175 41.41357 L -1.34175 -30.0921" />
    <path d="M -1.37044 40.7702 L -1.34175 41.41357 L -1.34044 41.41357" />
    <path d="M -1.04175 -30.06304 L -1.04175 -30.09229" />
    <path d="M -1.40044 40.09758 L -1.40044 -31.4081 L -1.37175 -30.76472 L -1.07175 -30.76491 L -1.10044 -31.40828 L -1.40044 -31.4081" />
    <path d="M -1.37175 40.74095 L -1.37175 -30.76472" />
    <path d="M -1.40044 40.09758 L -1.37175 40.74095 L -1.37044 40.74095" />
    <path d="M -1.07175 -30.73566 L -1.07175 -30.76491" />
    <path d="M -1.46044 38.75234 L -1.46044 -32.75334 L -1.43174 -32.10996 L -1.13175 -32.11015 L -1.16044 -32.75352 L -1.46044 -32.75334" />
    <path d="M -1.43174 39.39571 L -1.43174 -32.10996" />
    <path d="M -1.46044 38.75234 L -1.43174 39.39571 L -1.43044 39.39571" />
    <path d="M -1.13175 -32.0809 L -1.13175 -32.11015" />
    <path d="M -1.43044 39.42496 L -1.43044 -32.08072 L -1.40174 -31.43734 L -1.10175 -31.43753 L -1.13044 -32.0809 L -1.43044 -32.08072" />
    <path d="M -1.40174 40.06833 L -1.40174 -31.43734" />
    <path d="M -1.43044 39.42496 L -1.40174 40.06833 L -1.40044 40.06833" />
    <path d="M -1.10175 -31.40828 L -1.10175 -31.43753" />
    <path d="M -0.53048 59.60355 L -0.53048 -11.90212 L -0.50178 -11.25875 L -0.20179 -11.25893 L -0.23048 -11.90231 L -0.53048 -11.90212" />
    <path d="M -0.50178 60.24693 L -0.50178 -11.25875" />
    <path d="M -0.53048 59.60355 L -0.50178 60.24693 L -0.50048 60.24693" />
    <path d="M -0.20179 -11.22969 L -0.20179 -11.25893" />
    <path d="M -0.56048 58.93093 L -0.56048 -12.57474 L -0.53178 -11.93137 L -0.23179 -11.93155 L -0.26048 -12.57493 L -0.56048 -12.57474" />
    <path d="M -0.53178 59.57431 L -0.53178 -11.93137" />
    <path d="M -0.56048 58.93093 L -0.53178 59.57431 L -0.53048 59.57431" />
    <path d="M -0.23179 -11.90231 L -0.23179 -11.93155" />
    <path d="M -0.59048 58.25831 L -0.59048 -13.24736 L -0.56178 -12.60399 L -0.26179 -12.60417 L -0.29048 -13.24755 L -0.59048 -13.24736" />
    <path d="M -0.56178 58.90169 L -0.56178 -12.60399" />
    <path d="M -0.59048 58.25831 L -0.56178 58.90169 L -0.56048 58.90169" />
    <path d="M -0.26179 -12.57493 L -0.26179 -12.60417" />
    <path d="M -0.62047 57.58569 L -0.62047 -13.91998 L -0.59178 -13.27661 L -0.29178 -13.27679 L -0.32048 -13.92017 L -0.62047 -13.91998" />
    <path d="M -0.59178 58.22907 L -0.59178 -13.27661" />
    <path d="M -0.62047 57.58569 L -0.59178 58.22907 L -0.59048 58.22907" />
    <path d="M -0.29178 -13.24755 L -0.29178 -13.27679" />
    <path d="M -0.65047 56.91307 L -0.65047 -14.5926 L -0.62178 -13.94923 L -0.32178 -13.94941 L -0.35048 -14.59279 L -0.65047 -14.5926" />
    <path d="M -0.62178 57.55645 L -0.62178 -13.94923" />
    <path d="M -0.65047 56.91307 L -0.62178 57.55645 L -0.62047 57.55645" />
    <path d="M -0.32178 -13.92017 L -0.32178 -13.94941" />
    <path d="M -0.68047 56.24045 L -0.68047 -15.26522 L -0.65178 -14.62185 L -0.35178 -14.62203 L -0.38048 -15.26541 L -0.68047 -15.26522" />
    <path d="M -0.65178 56.88383 L -0.65178 -14.62185" />
    <path d="M -0.68047 56.24045 L -0.65178 56.88383 L -0.65047 56.88383" />
    <path d="M -0.35178 -14.59278 L -0.35178 -14.62203" />
    <path d="M -0.71047 55.56783 L -0.71047 -15.93784 L -0.68178 -15.29447 L -0.38178 -15.29465 L -0.41047 -15.93803 L -0.71047 -15.93784" />
    <path d="M -0.68178 56.21121 L -0.68178 -15.29447" />
    <path d="M -0.71047 55.56783 L -0.68178 56.21121 L -0.68047 56.21121" />
    <path d="M -0.38178 -15.2654 L -0.38178 -15.29465" />
    <path d="M -0.74047 54.89521 L -0.74047 -16.61046 L -0.71177 -15.96709 L -0.41178 -15.96727 L -0.44047 -16.61065 L -0.74047 -16.61046" />
    <path d="M -0.71177 55.53859 L -0.71177 -15.96709" />
    <path d="M -0.74047 54.89521 L -0.71177 55.53859 L -0.71047 55.53859" />
    <path d="M -0.41178 -15.93802 L -0.41178 -15.96727" />
    <path d="M -0.77047 54.22259 L -0.77047 -17.28308 L -0.74177 -16.63971 L -0.44178 -16.63989 L -0.47047 -17.28327 L -0.77047 -17.28308" />
    <path d="M -0.74177 54.86597 L -0.74177 -16.63971" />
    <path d="M -0.77047 54.22259 L -0.74177 54.86597 L -0.74047 54.86597" />
    <path d="M -0.44178 -16.61064 L -0.44178 -16.63989" />
    <path d="M -0.80047 53.54997 L -0.80047 -17.9557 L -0.77177 -17.31233 L -0.47178 -17.31251 L -0.50047 -17.95589 L -0.80047 -17.9557" />
    <path d="M -0.77177 54.19335 L -0.77177 -17.31233" />
    <path d="M -0.80047 53.54997 L -0.77177 54.19335 L -0.77047 54.19335" />
    <path d="M -0.47178 -17.28326 L -0.47178 -17.31251" />
    <path d="M -0.83046 52.87735 L -0.83046 -18.62832 L -0.80177 -17.98495 L -0.50177 -17.98513 L -0.53047 -18.6285 L -0.83046 -18.62832" />
    <path d="M -0.80177 53.52073 L -0.80177 -17.98495" />
    <path d="M -0.83046 52.87735 L -0.80177 53.52073 L -0.80047 53.52073" />
    <path d="M -0.50177 -17.95588 L -0.50177 -17.98513" />
    <path d="M -0.86046 52.20473 L -0.86046 -19.30094 L -0.83177 -18.65757 L -0.53177 -18.65775 L -0.56047 -19.30112 L -0.86046 -19.30094" />
    <path d="M -0.83177 52.84811 L -0.83177 -18.65757" />
    <path d="M -0.86046 52.20473 L -0.83177 52.84811 L -0.83046 52.84811" />
    <path d="M -0.53177 -18.6285 L -0.53177 -18.65775" />
    <path d="M -0.89046 51.53211 L -0.89046 -19.97356 L -0.86177 -19.33019 L -0.56177 -19.33037 L -0.59047 -19.97374 L -0.89046 -19.97356" />
    <path d="M -0.86177 52.17549 L -0.86177 -19.33019" />
    <path d="M -0.89046 51.53211 L -0.86177 52.17549 L -0.86046 52.17549" />
    <path d="M -0.56177 -19.30112 L -0.56177 -19.33037" />
    <path d="M -0.92046 50.85949 L -0.92046 -20.64618 L -0.89177 -20.00281 L -0.59177 -20.00299 L -0.62046 -20.64636 L -0.92046 -20.64618" />
    <path d="M -0.89177 51.50287 L -0.89177 -20.00281" />
    <path d="M -0.92046 50.85949 L -0.89177 51.50287 L -0.89046 51.50287" />
    <path d="M -0.59177 -19.97374 L -0.59177 -20.00299" />
    <path d="M -0.98046 49.51426 L -0.98046 -21.99142 L -0.95176 -21.34805 L -0.65177 -21.34823 L -0.68046 -21.9916 L -0.98046 -21.99142" />
    <path d="M -0.95176 50.15763 L -0.95176 -21.34805" />
    <path d="M -0.98046 49.51426 L -0.95176 50.15763 L -0.95046 50.15763" />
    <path d="M -0.65177 -21.31898 L -0.65177 -21.34823" />
    <path d="M -0.95046 50.18688 L -0.95046 -21.3188 L -0.92176 -20.67543 L -0.62177 -20.67561 L -0.65046 -21.31898 L -0.95046 -21.3188" />
    <path d="M -0.92176 50.83025 L -0.92176 -20.67543" />
    <path d="M -0.95046 50.18688 L -0.92176 50.83025 L -0.92046 50.83025" />
    <path d="M -0.62177 -20.64636 L -0.62177 -20.67561" />
    <path d="M -0.0505 70.36547 L -0.0505 -1.14021 L -0.0218 -0.49683 L 0.27819 -0.49701 L 0.2495 -1.14039 L -0.0505 -1.14021" />
    <path d="M -0.0218 71.00885 L -0.0218 -0.49683" />
    <path d="M -0.0505 70.36547 L -0.0218 71.00885 L 0.27819 71.00866 L 0.27819 -0.49701" />
    <path d="M -0.0805 69.69285 L -0.0805 -1.81283 L -0.0518 -1.16945 L 0.24819 -1.16963 L 0.2195 -1.81301 L -0.0805 -1.81283" />
    <path d="M -0.0518 70.33623 L -0.0518 -1.16945" />
    <path d="M -0.0805 69.69285 L -0.0518 70.33623 L -0.0505 70.33623" />
    <path d="M 0.24819 -1.14039 L 0.24819 -1.16963" />
    <path d="M -0.1105 69.02023 L -0.1105 -2.48545 L -0.0818 -1.84207 L 0.21819 -1.84225 L 0.1895 -2.48563 L -0.1105 -2.48545" />
    <path d="M -0.0818 69.66361 L -0.0818 -1.84207" />
    <path d="M -0.1105 69.02023 L -0.0818 69.66361 L -0.0805 69.66361" />
    <path d="M 0.21819 -1.81301 L 0.21819 -1.84225" />
    <path d="M -0.1405 68.34761 L -0.1405 -3.15806 L -0.1118 -2.51469 L 0.1882 -2.51487 L 0.1595 -3.15825 L -0.1405 -3.15806" />
    <path d="M -0.1118 68.99099 L -0.1118 -2.51469" />
    <path d="M -0.1405 68.34761 L -0.1118 68.99099 L -0.1105 68.99099" />
    <path d="M 0.1882 -2.48563 L 0.1882 -2.51487" />
    <path d="M -0.17049 67.67499 L -0.17049 -3.83068 L -0.1418 -3.18731 L 0.1582 -3.18749 L 0.1295 -3.83087 L -0.17049 -3.83068" />
    <path d="M -0.1418 68.31837 L -0.1418 -3.18731" />
    <path d="M -0.17049 67.67499 L -0.1418 68.31837 L -0.1405 68.31837" />
    <path d="M 0.1582 -3.15825 L 0.1582 -3.18749" />
    <path d="M -0.20049 67.00237 L -0.20049 -4.5033 L -0.1718 -3.85993 L 0.1282 -3.86011 L 0.0995 -4.50349 L -0.20049 -4.5033" />
    <path d="M -0.1718 67.64575 L -0.1718 -3.85993" />
    <path d="M -0.20049 67.00237 L -0.1718 67.64575 L -0.17049 67.64575" />
    <path d="M 0.1282 -3.83087 L 0.1282 -3.86011" />
    <path d="M -0.23049 66.32975 L -0.23049 -5.17592 L -0.2018 -4.53255 L 0.0982 -4.53273 L 0.0695 -5.17611 L -0.23049 -5.17592" />
    <path d="M -0.2018 66.97313 L -0.2018 -4.53255" />
    <path d="M -0.23049 66.32975 L -0.2018 66.97313 L -0.20049 66.97313" />
    <path d="M 0.0982 -4.50349 L 0.0982 -4.53273" />
    <path d="M -0.26049 65.65713 L -0.26049 -5.84854 L -0.2318 -5.20517 L 0.0682 -5.20535 L 0.03951 -5.84873 L -0.26049 -5.84854" />
    <path d="M -0.2318 66.30051 L -0.2318 -5.20517" />
    <path d="M -0.26049 65.65713 L -0.2318 66.30051 L -0.23049 66.30051" />
    <path d="M 0.0682 -5.17611 L 0.0682 -5.20535" />
    <path d="M -0.29049 64.98451 L -0.29049 -6.52116 L -0.26179 -5.87779 L 0.0382 -5.87797 L 0.00951 -6.52135 L -0.29049 -6.52116" />
    <path d="M -0.26179 65.62789 L -0.26179 -5.87779" />
    <path d="M -0.29049 64.98451 L -0.26179 65.62789 L -0.26049 65.62789" />
    <path d="M 0.0382 -5.84873 L 0.0382 -5.87797" />
    <path d="M -0.32049 64.31189 L -0.32049 -7.19378 L -0.29179 -6.55041 L 0.0082 -6.55059 L -0.02049 -7.19397 L -0.32049 -7.19378" />
    <path d="M -0.29179 64.95527 L -0.29179 -6.55041" />
    <path d="M -0.32049 64.31189 L -0.29179 64.95527 L -0.29049 64.95527" />
    <path d="M 0.0082 -6.52135 L 0.0082 -6.55059" />
    <path d="M -0.35049 63.63927 L -0.35049 -7.8664 L -0.32179 -7.22303 L -0.0218 -7.22321 L -0.05049 -7.86659 L -0.35049 -7.8664" />
    <path d="M -0.32179 64.28265 L -0.32179 -7.22303" />
    <path d="M -0.35049 63.63927 L -0.32179 64.28265 L -0.32049 64.28265" />
    <path d="M -0.0218 -7.19397 L -0.0218 -7.22321" />
    <path d="M -0.38048 62.96665 L -0.38048 -8.53902 L -0.35179 -7.89565 L -0.05179 -7.89583 L -0.08049 -8.53921 L -0.38048 -8.53902" />
    <path d="M -0.35179 63.61003 L -0.35179 -7.89565" />
    <path d="M -0.38048 62.96665 L -0.35179 63.61003 L -0.35049 63.61003" />
    <path d="M -0.05179 -7.86659 L -0.05179 -7.89583" />
    <path d="M -0.41048 62.29403 L -0.41048 -9.21164 L -0.38179 -8.56827 L -0.08179 -8.56845 L -0.11049 -9.21183 L -0.41048 -9.21164" />
    <path d="M -0.38179 62.93741 L -0.38179 -8.56827" />
    <path d="M -0.41048 62.29403 L -0.38179 62.93741 L -0.38048 62.93741" />
    <path d="M -0.08179 -8.53921 L -0.08179 -8.56845" />
    <path d="M -0.44048 61.62141 L -0.44048 -9.88426 L -0.41179 -9.24089 L -0.11179 -9.24107 L -0.14049 -9.88445 L -0.44048 -9.88426" />
    <path d="M -0.41179 62.26479 L -0.41179 -9.24089" />
    <path d="M -0.44048 61.62141 L -0.41179 62.26479 L -0.41048 62.26479" />
    <path d="M -0.11179 -9.21183 L -0.11179 -9.24107" />
    <path d="M -0.50048 60.27617 L -0.50048 -11.2295 L -0.47178 -10.58613 L -0.17179 -10.58631 L -0.20048 -11.22969 L -0.50048 -11.2295" />
    <path d="M -0.47178 60.91955 L -0.47178 -10.58613" />
    <path d="M -0.50048 60.27617 L -0.47178 60.91955 L -0.47048 60.91955" />
    <path d="M -0.17179 -10.55707 L -0.17179 -10.58631" />
    <path d="M -0.47048 60.94879 L -0.47048 -10.55688 L -0.44179 -9.91351 L -0.14179 -9.91369 L -0.17048 -10.55707 L -0.47048 -10.55688" />
    <path d="M -0.44179 61.59217 L -0.44179 -9.91351" />
    <path d="M -0.47048 60.94879 L -0.44179 61.59217 L -0.44048 61.59217" />
    <path d="M -0.14179 -9.88445 L -0.14179 -9.91369" />
    <path d="M -1.18613 -95.24575 A 1.19 0.1392 0 0 1 0.01008 -95.10654 L 0.01008 -84.45634" />
    <path d="M 0.01008 -95.10654 A 1.19 0.1392 0 0 1 -2.36992 -95.10654 L -2.36992 -75.63616" />
    <path d="M -2.36992 -95.10654 A 1.19 0.1392 0 0 1 -1.18613 -95.24575" />
    <path d="M -0.70615 -84.48383 A 1.19 0.1392 0 0 1 0.49006 -84.34463 L 0.49006 -73.69442" />
    <path d="M 0.49006 -84.34463 A 1.19 0.1392 0 0 1 -1.88994 -84.34463 L -1.88994 -64.87424" />
    <path d="M -1.88994 -84.34463 A 1.19 0.1392 0 0 1 -0.70615 -84.48383" />
    <path d="M -0.22617 -73.72191 A 1.19 0.1392 0 0 1 0.97004 -73.58271 L 0.97004 -62.9325" />
    <path d="M 0.97004 -73.58271 A 1.19 0.1392 0 0 1 -1.40996 -73.58271 L -1.40996 -54.11233" />
    <path d="M -1.40996 -73.58271 A 1.19 0.1392 0 0 1 -0.22617 -73.72191" />
    <path d="M 0.25381 -62.95999 A 1.19 0.1392 0 0 1 1.45002 -62.82079 L 1.45002 -52.17058" />
    <path d="M 1.45002 -62.82079 A 1.19 0.1392 0 0 1 -0.92998 -62.82079 L -0.92998 -43.35041" />
    <path d="M -0.92998 -62.82079 A 1.19 0.1392 0 0 1 0.25381 -62.95999" />
    <path d="M 0.73379 -52.19808 A 1.19 0.1392 0 0 1 1.93 -52.05887 L 1.93 -41.40867" />
    <path d="M 1.93 -52.05887 A 1.19 0.1392 0 0 1 -0.45 -52.05887 L -0.45 -32.58849" />
    <path d="M -0.45 -52.05887 A 1.19 0.1392 0 0 1 0.73379 -52.19808" />
    <path d="M 1.21377 -41.43616 A 1.19 0.1392 0 0 1 2.40998 -41.29696 L 2.40998 -30.64675" />
    <path d="M 2.40998 -41.29696 A 1.19 0.1392 0 0 1 0.02998 -41.29696 L 0.02998 -21.82657" />
    <path d="M 0.02998 -41.29696 A 1.19 0.1392 0 0 1 1.21377 -41.43616" />
    <path d="M 0.27819 54.12904 A 1.19 0.1392 180 0 0 0.50995 54.15566" />
    <path d="M 1.69375 -30.67424 A 1.19 0.1392 0 0 1 2.88995 -30.53504 L 2.88995 -19.88483" />
    <path d="M 2.88995 -30.53504 A 1.19 0.1392 0 0 1 0.50995 -30.53504 L 0.50995 -11.06465" />
    <path d="M 0.50995 -30.53504 A 1.19 0.1392 0 0 1 1.69375 -30.67424" />
    <path d="M 0.50995 64.80586 A 1.19 0.1392 180 0 0 0.98993 64.91758" />
    <path d="M 2.17373 -19.91232 A 1.19 0.1392 0 0 1 3.36993 -19.77312 L 3.36993 -9.12291" />
    <path d="M 3.36993 -19.77312 A 1.19 0.1392 0 0 1 0.98993 -19.77312 L 0.98993 -0.30274" />
    <path d="M 0.98993 -19.77312 A 1.19 0.1392 0 0 1 2.17373 -19.91232" />
    <path d="M 0.98993 75.56778 A 1.19 0.1392 180 0 0 1.46991 75.67949" />
    <path d="M 2.6537 -9.15041 A 1.19 0.1392 0 0 1 3.84991 -9.0112 L 3.84991 1.639" />
    <path d="M 3.84991 -9.0112 A 1.19 0.1392 0 0 1 1.46991 -9.0112 L 1.46991 10.45918" />
    <path d="M 1.46991 -9.0112 A 1.19 0.1392 0 0 1 2.6537 -9.15041" />
    <path d="M 1.46991 86.3297 A 1.19 0.1392 180 0 0 1.94989 86.44141" />
    <path d="M 0.40036 20.11105 L 0.27819 17.37176" />
    <path d="M 0.40036 20.11105 L 0.40036 23.58702 L 1.90034 23.58611 L 1.90034 20.11014 L -2.44033 -77.21503 L -3.14339 -77.2146" />
    <path d="M 0.27819 20.84773 L 0.40036 23.58702" />
    <path d="M 1.90034 20.11014 L 0.40036 20.11105" />
    <path d="M 0.40036 49.90508 L 0.27819 47.16579" />
    <path d="M 0.40036 49.90508 L 0.40036 53.38105 L 1.90034 53.38014 L 1.90034 49.90417 L 0.7266 23.58682" />
    <path d="M 0.27819 50.64176 L 0.40036 53.38105" />
    <path d="M 1.90034 49.90417 L 0.40036 49.90508" />
    <path d="M 1.94989 1.75072 L 1.94989 97.09162" />
    <path d="M 4.32989 1.75072 L 4.32989 97.09162" />
    <path d="M 0.50995 53.38099 L 0.50995 64.80586" />
    <path d="M 0.98993 23.58666 L 0.98993 29.4913" />
    <path d="M 0.98993 53.38069 L 0.98993 75.56778" />
    <path d="M 1.46991 23.58637 L 1.46991 40.25321" />
    <path d="M 1.46991 53.3804 L 1.46991 86.3297" />
</svg>