<svg version="1.1" xmlns="http://www.w3.org/2000/svg" viewBox="-5.339941939263013 -98.32341211156441 10.673686683163815 196.6473702436889" fill="none" stroke="black" stroke-width="0.6%" vector-effect="non-scaling-stroke">
    <path d="M 3.13753 1.70564 A 1.19 0.13934 0 0 1 4.33374 1.84498 A 1.19 0.13934 0 0 1 1.95374 1.84498 A 1.19 0.13934 0 0 1 3.13753 1.70564 Z" />
    <path d="M 1.95374 97.18462 A 1.19 0.13934 180 0 0 4.33374 97.18462" />
    <path d="M -0.07614 9.43311 L -0.19833 6.69301" />
    <path d="M -0.07614 9.43311 L -0.07614 12.90904 L 1.42384 12.90812 L 1.42384 9.4322 L -2.43997 -77.21368 L -3.14317 -77.21325" />
    <path d="M -0.19833 10.16894 L -0.07614 12.90904" />
    <path d="M 1.42384 9.4322 L -0.07614 9.43311" />
    <path d="M -0.07614 39.22675 L -0.19833 36.48665" />
    <path d="M -0.07614 39.22675 L -0.07614 42.70267 L 1.42384 42.70176 L 1.42384 39.22583 L 0.25028 12.90884" />
    <path d="M -0.19833 39.96257 L -0.07614 42.70267" />
    <path d="M 1.42384 39.22583 L -0.07614 39.22675" />
    <path d="M -1.18575 -95.24407 A 1.19 0.13934 0 0 1 0.01046 -95.10473 A 1.19 0.13934 0 0 1 -2.36954 -95.10473 A 1.19 0.13934 0 0 1 -1.18575 -95.24407 Z" />
    <path d="M -3.8896 -15.71957 L -3.8896 -87.2243 L -3.86088 -86.58031 L -3.56089 -86.58049 L -3.5896 -87.22448 L -3.8896 -87.2243" />
    <path d="M -3.86088 -15.07558 L -3.86088 -86.58031" />
    <path d="M -3.8896 -15.71957 L -3.86088 -15.07558 L -3.85958 -15.07558" />
    <path d="M -3.56089 -86.55122 L -3.56089 -86.58049" />
    <path d="M -3.91962 -16.39283 L -3.91962 -87.89756 L -3.8909 -87.25357 L -3.59091 -87.25375 L -3.61963 -87.89774 L -3.91962 -87.89756" />
    <path d="M -3.8909 -15.74884 L -3.8909 -87.25357" />
    <path d="M -3.91962 -16.39283 L -3.8909 -15.74884 L -3.8896 -15.74884" />
    <path d="M -3.59091 -87.22448 L -3.59091 -87.25375" />
    <path d="M -3.94964 -17.06609 L -3.94964 -88.57082 L -3.92093 -87.92683 L -3.62093 -87.92702 L -3.64965 -88.57101 L -3.94964 -88.57082" />
    <path d="M -3.92093 -16.4221 L -3.92093 -87.92683" />
    <path d="M -3.94964 -17.06609 L -3.92093 -16.4221 L -3.91962 -16.42211" />
    <path d="M -3.62093 -87.89774 L -3.62093 -87.92702" />
    <path d="M -3.97967 -17.73936 L -3.97967 -89.24408 L -3.95095 -88.6001 L -3.65095 -88.60028 L -3.67967 -89.24427 L -3.97967 -89.24408" />
    <path d="M -3.95095 -17.09537 L -3.95095 -88.6001" />
    <path d="M -3.97967 -17.73936 L -3.95095 -17.09537 L -3.94964 -17.09537" />
    <path d="M -3.65095 -88.57101 L -3.65095 -88.60028" />
    <path d="M -4.00969 -18.41262 L -4.00969 -89.91735 L -3.98097 -89.27336 L -3.68098 -89.27354 L -3.70969 -89.91753 L -4.00969 -89.91735" />
    <path d="M -3.98097 -17.76863 L -3.98097 -89.27336" />
    <path d="M -4.00969 -18.41262 L -3.98097 -17.76863 L -3.97967 -17.76863" />
    <path d="M -3.68098 -89.24427 L -3.68098 -89.27354" />
    <path d="M -4.03971 -19.08588 L -4.03971 -90.59061 L -4.011 -89.94662 L -3.711 -89.9468 L -3.73972 -90.59079 L -4.03971 -90.59061" />
    <path d="M -4.011 -18.44189 L -4.011 -89.94662" />
    <path d="M -4.03971 -19.08588 L -4.011 -18.44189 L -4.00969 -18.44189" />
    <path d="M -3.711 -89.91753 L -3.711 -89.9468" />
    <path d="M -4.06974 -19.75914 L -4.06974 -91.26387 L -4.04102 -90.61988 L -3.74102 -90.62006 L -3.76974 -91.26405 L -4.06974 -91.26387" />
    <path d="M -4.04102 -19.11515 L -4.04102 -90.61988" />
    <path d="M -4.06974 -19.75914 L -4.04102 -19.11515 L -4.03971 -19.11515" />
    <path d="M -3.74102 -90.59079 L -3.74102 -90.62006" />
    <path d="M -4.09976 -20.4324 L -4.09976 -91.93713 L -4.07104 -91.29314 L -3.77105 -91.29333 L -3.79976 -91.93732 L -4.09976 -91.93713" />
    <path d="M -4.07104 -19.78841 L -4.07104 -91.29314" />
    <path d="M -4.09976 -20.4324 L -4.07104 -19.78841 L -4.06974 -19.78841" />
    <path d="M -3.77105 -91.26405 L -3.77105 -91.29333" />
    <path d="M -4.12978 -21.10567 L -4.12978 -92.61039 L -4.10106 -91.9664 L -3.80107 -91.96659 L -3.82979 -92.61058 L -4.12978 -92.61039" />
    <path d="M -4.10106 -20.46168 L -4.10106 -91.9664" />
    <path d="M -4.12978 -21.10567 L -4.10106 -20.46168 L -4.09976 -20.46168" />
    <path d="M -3.80107 -91.93732 L -3.80107 -91.96659" />
    <path d="M -4.1598 -21.77893 L -4.1598 -93.28366 L -4.13109 -92.63967 L -3.83109 -92.63985 L -3.85981 -93.28384 L -4.1598 -93.28366" />
    <path d="M -4.13109 -21.13494 L -4.13109 -92.63967" />
    <path d="M -4.1598 -21.77893 L -4.13109 -21.13494 L -4.12978 -21.13494" />
    <path d="M -3.83109 -92.61058 L -3.83109 -92.63985" />
    <path d="M -4.18983 -22.45219 L -4.18983 -93.95692 L -4.16111 -93.31293 L -3.86111 -93.31311 L -3.88983 -93.9571 L -4.18983 -93.95692" />
    <path d="M -4.16111 -21.8082 L -4.16111 -93.31293" />
    <path d="M -4.18983 -22.45219 L -4.16111 -21.8082 L -4.1598 -21.8082" />
    <path d="M -3.86111 -93.28384 L -3.86111 -93.31311" />
    <path d="M -4.21985 -23.12545 L -4.21985 -94.63018 L -4.19113 -93.98619 L -3.89114 -93.98637 L -3.91985 -94.63036 L -4.21985 -94.63018" />
    <path d="M -4.19113 -22.48146 L -4.19113 -93.98619" />
    <path d="M -4.21985 -23.12545 L -4.19113 -22.48146 L -4.18983 -22.48146" />
    <path d="M -3.89114 -93.9571 L -3.89114 -93.98637" />
    <path d="M -4.24987 -23.79871 L -4.24987 -95.30344 L -4.22116 -94.65945 L -3.92116 -94.65964 L -3.94988 -95.30363 L -4.24987 -95.30344" />
    <path d="M -4.22116 -23.15472 L -4.22116 -94.65945" />
    <path d="M -4.24987 -23.79871 L -4.22116 -23.15472 L -4.21985 -23.15472" />
    <path d="M -3.92116 -94.63036 L -3.92116 -94.65964" />
    <path d="M -4.2799 -24.47198 L -4.2799 -95.9767 L -4.25118 -95.33271 L -3.95118 -95.3329 L -3.9799 -95.97689 L -4.2799 -95.9767" />
    <path d="M -4.25118 -23.82799 L -4.25118 -95.33271" />
    <path d="M -4.2799 -24.47198 L -4.25118 -23.82799 L -4.24987 -23.82799" />
    <path d="M -3.95118 -95.30362 L -3.95118 -95.3329" />
    <path d="M -4.33994 -25.8185 L -4.33994 -97.32323 L -4.31122 -96.67924 L -4.01123 -96.67942 L -4.03995 -97.32341 L -4.33994 -97.32323" />
    <path d="M -4.31122 -25.17451 L -4.31122 -96.67924" />
    <path d="M -4.33994 -25.8185 L -4.31122 -25.17451 L -4.30992 -25.17451" />
    <path d="M -4.01123 -96.65015 L -4.01123 -96.67942" />
    <path d="M -4.30992 -25.14524 L -4.30992 -96.64997 L -4.2812 -96.00598 L -3.9812 -96.00616 L -4.00992 -96.65015 L -4.30992 -96.64997" />
    <path d="M -4.2812 -24.50125 L -4.2812 -96.00598" />
    <path d="M -4.30992 -25.14524 L -4.2812 -24.50125 L -4.2799 -24.50125" />
    <path d="M -3.9812 -95.97689 L -3.9812 -96.00616" />
    <path d="M -0.70539 -84.47188 A 1.19 0.13934 0 0 1 0.49082 -84.33254 A 1.19 0.13934 0 0 1 -1.88918 -84.33254 A 1.19 0.13934 0 0 1 -0.70539 -84.47188 Z" />
    <path d="M -3.40923 -4.94738 L -3.40923 -76.45211 L -3.38052 -75.80812 L -3.08052 -75.8083 L -3.10924 -76.45229 L -3.40923 -76.45211" />
    <path d="M -3.38052 -4.30339 L -3.38052 -75.80812" />
    <path d="M -3.40923 -4.94738 L -3.38052 -4.30339 L -3.37921 -4.30339" />
    <path d="M -3.08052 -75.77903 L -3.08052 -75.8083" />
    <path d="M -3.43926 -5.62064 L -3.43926 -77.12537 L -3.41054 -76.48138 L -3.11054 -76.48156 L -3.13926 -77.12555 L -3.43926 -77.12537" />
    <path d="M -3.41054 -4.97665 L -3.41054 -76.48138" />
    <path d="M -3.43926 -5.62064 L -3.41054 -4.97665 L -3.40923 -4.97665" />
    <path d="M -3.11054 -76.45229 L -3.11054 -76.48156" />
    <path d="M -3.46928 -6.2939 L -3.46928 -77.79863 L -3.44056 -77.15464 L -3.14057 -77.15483 L -3.16928 -77.79882 L -3.46928 -77.79863" />
    <path d="M -3.44056 -5.64991 L -3.44056 -77.15464" />
    <path d="M -3.46928 -6.2939 L -3.44056 -5.64991 L -3.43926 -5.64991" />
    <path d="M -3.14057 -77.12555 L -3.14057 -77.15483" />
    <path d="M -3.4993 -6.96717 L -3.4993 -78.47189 L -3.47058 -77.8279 L -3.17059 -77.82809 L -3.19931 -78.47208 L -3.4993 -78.47189" />
    <path d="M -3.47058 -6.32318 L -3.47058 -77.8279" />
    <path d="M -3.4993 -6.96717 L -3.47058 -6.32318 L -3.46928 -6.32318" />
    <path d="M -3.17059 -77.79882 L -3.17059 -77.82809" />
    <path d="M -3.52933 -7.64043 L -3.52933 -79.14516 L -3.50061 -78.50117 L -3.20061 -78.50135 L -3.22933 -79.14534 L -3.52933 -79.14516" />
    <path d="M -3.50061 -6.99644 L -3.50061 -78.50117" />
    <path d="M -3.52933 -7.64043 L -3.50061 -6.99644 L -3.4993 -6.99644" />
    <path d="M -3.20061 -78.47208 L -3.20061 -78.50135" />
    <path d="M -3.55935 -8.31369 L -3.55935 -79.81842 L -3.53063 -79.17443 L -3.23063 -79.17461 L -3.25935 -79.8186 L -3.55935 -79.81842" />
    <path d="M -3.53063 -7.6697 L -3.53063 -79.17443" />
    <path d="M -3.55935 -8.31369 L -3.53063 -7.6697 L -3.52933 -7.6697" />
    <path d="M -3.23063 -79.14534 L -3.23063 -79.17461" />
    <path d="M -3.58937 -8.98695 L -3.58937 -80.49168 L -3.56065 -79.84769 L -3.26066 -79.84787 L -3.28937 -80.49186 L -3.58937 -80.49168" />
    <path d="M -3.56065 -8.34296 L -3.56065 -79.84769" />
    <path d="M -3.58937 -8.98695 L -3.56065 -8.34296 L -3.55935 -8.34296" />
    <path d="M -3.26066 -79.8186 L -3.26066 -79.84787" />
    <path d="M -3.61939 -9.66021 L -3.61939 -81.16494 L -3.59068 -80.52095 L -3.29068 -80.52114 L -3.3194 -81.16513 L -3.61939 -81.16494" />
    <path d="M -3.59068 -9.01622 L -3.59068 -80.52095" />
    <path d="M -3.61939 -9.66021 L -3.59068 -9.01622 L -3.58937 -9.01622" />
    <path d="M -3.29068 -80.49186 L -3.29068 -80.52114" />
    <path d="M -3.64942 -10.33348 L -3.64942 -81.8382 L -3.6207 -81.19421 L -3.3207 -81.1944 L -3.34942 -81.83839 L -3.64942 -81.8382" />
    <path d="M -3.6207 -9.68949 L -3.6207 -81.19421" />
    <path d="M -3.64942 -10.33348 L -3.6207 -9.68949 L -3.61939 -9.68949" />
    <path d="M -3.3207 -81.16512 L -3.3207 -81.1944" />
    <path d="M -3.67944 -11.00674 L -3.67944 -82.51147 L -3.65072 -81.86748 L -3.35073 -81.86766 L -3.37944 -82.51165 L -3.67944 -82.51147" />
    <path d="M -3.65072 -10.36275 L -3.65072 -81.86748" />
    <path d="M -3.67944 -11.00674 L -3.65072 -10.36275 L -3.64942 -10.36275" />
    <path d="M -3.35073 -81.83839 L -3.35073 -81.86766" />
    <path d="M -3.70946 -11.68 L -3.70946 -83.18473 L -3.68074 -82.54074 L -3.38075 -82.54092 L -3.40947 -83.18491 L -3.70946 -83.18473" />
    <path d="M -3.68074 -11.03601 L -3.68074 -82.54074" />
    <path d="M -3.70946 -11.68 L -3.68074 -11.03601 L -3.67944 -11.03601" />
    <path d="M -3.38075 -82.51165 L -3.38075 -82.54092" />
    <path d="M -3.73948 -12.35326 L -3.73948 -83.85799 L -3.71077 -83.214 L -3.41077 -83.21418 L -3.43949 -83.85817 L -3.73948 -83.85799" />
    <path d="M -3.71077 -11.70927 L -3.71077 -83.214" />
    <path d="M -3.73948 -12.35326 L -3.71077 -11.70927 L -3.70946 -11.70927" />
    <path d="M -3.41077 -83.18491 L -3.41077 -83.21418" />
    <path d="M -3.76951 -13.02652 L -3.76951 -84.53125 L -3.74079 -83.88726 L -3.44079 -83.88745 L -3.46951 -84.53143 L -3.76951 -84.53125" />
    <path d="M -3.74079 -12.38253 L -3.74079 -83.88726" />
    <path d="M -3.76951 -13.02652 L -3.74079 -12.38253 L -3.73948 -12.38253" />
    <path d="M -3.44079 -83.85817 L -3.44079 -83.88745" />
    <path d="M -3.79953 -13.69978 L -3.79953 -85.20451 L -3.77081 -84.56052 L -3.47082 -84.56071 L -3.49953 -85.2047 L -3.79953 -85.20451" />
    <path d="M -3.77081 -13.05579 L -3.77081 -84.56052" />
    <path d="M -3.79953 -13.69978 L -3.77081 -13.05579 L -3.76951 -13.0558" />
    <path d="M -3.47082 -84.53143 L -3.47082 -84.56071" />
    <path d="M -3.85958 -15.04631 L -3.85958 -86.55104 L -3.83086 -85.90705 L -3.53086 -85.90723 L -3.55958 -86.55122 L -3.85958 -86.55104" />
    <path d="M -3.83086 -14.40232 L -3.83086 -85.90705" />
    <path d="M -3.85958 -15.04631 L -3.83086 -14.40232 L -3.82955 -14.40232" />
    <path d="M -3.53086 -85.87796 L -3.53086 -85.90723" />
    <path d="M -3.82955 -14.37305 L -3.82955 -85.87778 L -3.80084 -85.23379 L -3.50084 -85.23397 L -3.52956 -85.87796 L -3.82955 -85.87778" />
    <path d="M -3.80084 -13.72906 L -3.80084 -85.23379" />
    <path d="M -3.82955 -14.37305 L -3.80084 -13.72906 L -3.79953 -13.72906" />
    <path d="M -3.50084 -85.2047 L -3.50084 -85.23397" />
    <path d="M -0.22502 -73.69969 A 1.19 0.13934 0 0 1 0.97119 -73.56035 A 1.19 0.13934 0 0 1 -1.40881 -73.56035 A 1.19 0.13934 0 0 1 -0.22502 -73.69969 Z" />
    <path d="M -2.92887 5.82481 L -2.92887 -65.67992 L -2.90015 -65.03593 L -2.60016 -65.03611 L -2.62887 -65.6801 L -2.92887 -65.67992" />
    <path d="M -2.90015 6.4688 L -2.90015 -65.03593" />
    <path d="M -2.92887 5.82481 L -2.90015 6.4688 L -2.89885 6.4688" />
    <path d="M -2.60016 -65.00684 L -2.60016 -65.03611" />
    <path d="M -2.95889 5.15155 L -2.95889 -66.35318 L -2.93017 -65.70919 L -2.63018 -65.70937 L -2.6589 -66.35336 L -2.95889 -66.35318" />
    <path d="M -2.93017 5.79554 L -2.93017 -65.70919" />
    <path d="M -2.95889 5.15155 L -2.93017 5.79554 L -2.92887 5.79554" />
    <path d="M -2.63018 -65.6801 L -2.63018 -65.70937" />
    <path d="M -2.98891 4.47829 L -2.98891 -67.02644 L -2.9602 -66.38245 L -2.6602 -66.38264 L -2.68892 -67.02663 L -2.98891 -67.02644" />
    <path d="M -2.9602 5.12228 L -2.9602 -66.38245" />
    <path d="M -2.98891 4.47829 L -2.9602 5.12228 L -2.95889 5.12228" />
    <path d="M -2.6602 -66.35336 L -2.6602 -66.38264" />
    <path d="M -3.01894 3.80502 L -3.01894 -67.6997 L -2.99022 -67.05571 L -2.69022 -67.0559 L -2.71894 -67.69989 L -3.01894 -67.6997" />
    <path d="M -2.99022 4.44901 L -2.99022 -67.05571" />
    <path d="M -3.01894 3.80502 L -2.99022 4.44901 L -2.98891 4.44901" />
    <path d="M -2.69022 -67.02662 L -2.69022 -67.0559" />
    <path d="M -3.04896 3.13176 L -3.04896 -68.37297 L -3.02024 -67.72898 L -2.72025 -67.72916 L -2.74896 -68.37315 L -3.04896 -68.37297" />
    <path d="M -3.02024 3.77575 L -3.02024 -67.72898" />
    <path d="M -3.04896 3.13176 L -3.02024 3.77575 L -3.01894 3.77575" />
    <path d="M -2.72025 -67.69989 L -2.72025 -67.72916" />
    <path d="M -3.07898 2.4585 L -3.07898 -69.04623 L -3.05027 -68.40224 L -2.75027 -68.40242 L -2.77899 -69.04641 L -3.07898 -69.04623" />
    <path d="M -3.05027 3.10249 L -3.05027 -68.40224" />
    <path d="M -3.07898 2.4585 L -3.05027 3.10249 L -3.04896 3.10249" />
    <path d="M -2.75027 -68.37315 L -2.75027 -68.40242" />
    <path d="M -3.10901 1.78524 L -3.10901 -69.71949 L -3.08029 -69.0755 L -2.78029 -69.07568 L -2.80901 -69.71967 L -3.10901 -69.71949" />
    <path d="M -3.08029 2.42923 L -3.08029 -69.0755" />
    <path d="M -3.10901 1.78524 L -3.08029 2.42923 L -3.07898 2.42923" />
    <path d="M -2.78029 -69.04641 L -2.78029 -69.07568" />
    <path d="M -3.13903 1.11198 L -3.13903 -70.39275 L -3.11031 -69.74876 L -2.81032 -69.74895 L -2.83903 -70.39294 L -3.13903 -70.39275" />
    <path d="M -3.11031 1.75597 L -3.11031 -69.74876" />
    <path d="M -3.13903 1.11198 L -3.11031 1.75597 L -3.10901 1.75597" />
    <path d="M -2.81032 -69.71967 L -2.81032 -69.74895" />
    <path d="M -3.16905 0.43872 L -3.16905 -71.06601 L -3.14033 -70.42202 L -2.84034 -70.42221 L -2.86906 -71.0662 L -3.16905 -71.06601" />
    <path d="M -3.14033 1.0827 L -3.14033 -70.42202" />
    <path d="M -3.16905 0.43872 L -3.14033 1.0827 L -3.13903 1.0827" />
    <path d="M -2.84034 -70.39293 L -2.84034 -70.42221" />
    <path d="M -3.19907 -0.23455 L -3.19907 -71.73928 L -3.17036 -71.09529 L -2.87036 -71.09547 L -2.89908 -71.73946 L -3.19907 -71.73928" />
    <path d="M -3.17036 0.40944 L -3.17036 -71.09529" />
    <path d="M -3.19907 -0.23455 L -3.17036 0.40944 L -3.16905 0.40944" />
    <path d="M -2.87036 -71.0662 L -2.87036 -71.09547" />
    <path d="M -3.2291 -0.90781 L -3.2291 -72.41254 L -3.20038 -71.76855 L -2.90038 -71.76873 L -2.9291 -72.41272 L -3.2291 -72.41254" />
    <path d="M -3.20038 -0.26382 L -3.20038 -71.76855" />
    <path d="M -3.2291 -0.90781 L -3.20038 -0.26382 L -3.19907 -0.26382" />
    <path d="M -2.90038 -71.73946 L -2.90038 -71.76873" />
    <path d="M -3.25912 -1.58107 L -3.25912 -73.0858 L -3.2304 -72.44181 L -2.93041 -72.44199 L -2.95912 -73.08598 L -3.25912 -73.0858" />
    <path d="M -3.2304 -0.93708 L -3.2304 -72.44181" />
    <path d="M -3.25912 -1.58107 L -3.2304 -0.93708 L -3.2291 -0.93708" />
    <path d="M -2.93041 -72.41272 L -2.93041 -72.44199" />
    <path d="M -3.28914 -2.25433 L -3.28914 -73.75906 L -3.26043 -73.11507 L -2.96043 -73.11525 L -2.98915 -73.75924 L -3.28914 -73.75906" />
    <path d="M -3.26043 -1.61034 L -3.26043 -73.11507" />
    <path d="M -3.28914 -2.25433 L -3.26043 -1.61034 L -3.25912 -1.61034" />
    <path d="M -2.96043 -73.08598 L -2.96043 -73.11525" />
    <path d="M -3.31917 -2.92759 L -3.31917 -74.43232 L -3.29045 -73.78833 L -2.99045 -73.78852 L -3.01917 -74.43251 L -3.31917 -74.43232" />
    <path d="M -3.29045 -2.2836 L -3.29045 -73.78833" />
    <path d="M -3.31917 -2.92759 L -3.29045 -2.2836 L -3.28914 -2.28361" />
    <path d="M -2.99045 -73.75924 L -2.99045 -73.78852" />
    <path d="M -3.37921 -4.27412 L -3.37921 -75.77885 L -3.35049 -75.13486 L -3.0505 -75.13504 L -3.07922 -75.77903 L -3.37921 -75.77885" />
    <path d="M -3.35049 -3.63013 L -3.35049 -75.13486" />
    <path d="M -3.37921 -4.27412 L -3.35049 -3.63013 L -3.34919 -3.63013" />
    <path d="M -3.0505 -75.10577 L -3.0505 -75.13504" />
    <path d="M -3.34919 -3.60086 L -3.34919 -75.10558 L -3.32047 -74.4616 L -3.02047 -74.46178 L -3.04919 -75.10577 L -3.34919 -75.10558" />
    <path d="M -3.32047 -2.95687 L -3.32047 -74.4616" />
    <path d="M -3.34919 -3.60086 L -3.32047 -2.95687 L -3.31917 -2.95687" />
    <path d="M -3.02047 -74.43251 L -3.02047 -74.46178" />
    <path d="M 0.25534 -62.9275 A 1.19 0.13934 0 0 1 1.45155 -62.78816 L 1.45155 -52.12782" />
    <path d="M 1.45155 -62.78816 A 1.19 0.13934 0 0 1 -0.92845 -62.78816 L -0.92845 -43.31782" />
    <path d="M -0.92845 -62.78816 A 1.19 0.13934 0 0 1 0.25534 -62.9275" />
    <path d="M -2.4485 16.597 L -2.4485 -54.90773 L -2.41979 -54.26374 L -2.11979 -54.26392 L -2.14851 -54.90791 L -2.4485 -54.90773" />
    <path d="M -2.41979 17.24099 L -2.41979 -54.26374" />
    <path d="M -2.4485 16.597 L -2.41979 17.24099 L -2.41848 17.24099" />
    <path d="M -2.11979 -54.23465 L -2.11979 -54.26392" />
    <path d="M -2.47853 15.92374 L -2.47853 -55.58099 L -2.44981 -54.937 L -2.14981 -54.93718 L -2.17853 -55.58117 L -2.47853 -55.58099" />
    <path d="M -2.44981 16.56773 L -2.44981 -54.937" />
    <path d="M -2.47853 15.92374 L -2.44981 16.56773 L -2.4485 16.56773" />
    <path d="M -2.14981 -54.90791 L -2.14981 -54.93718" />
    <path d="M -2.50855 15.25048 L -2.50855 -56.25425 L -2.47983 -55.61026 L -2.17984 -55.61045 L -2.20855 -56.25444 L -2.50855 -56.25425" />
    <path d="M -2.47983 15.89447 L -2.47983 -55.61026" />
    <path d="M -2.50855 15.25048 L -2.47983 15.89447 L -2.47853 15.89447" />
    <path d="M -2.17984 -55.58117 L -2.17984 -55.61045" />
    <path d="M -2.53857 14.57722 L -2.53857 -56.92751 L -2.50985 -56.28352 L -2.20986 -56.28371 L -2.23858 -56.9277 L -2.53857 -56.92751" />
    <path d="M -2.50985 15.2212 L -2.50985 -56.28352" />
    <path d="M -2.53857 14.57722 L -2.50985 15.2212 L -2.50855 15.2212" />
    <path d="M -2.20986 -56.25443 L -2.20986 -56.28371" />
    <path d="M -2.5686 13.90395 L -2.5686 -57.60078 L -2.53988 -56.95679 L -2.23988 -56.95697 L -2.2686 -57.60096 L -2.5686 -57.60078" />
    <path d="M -2.53988 14.54794 L -2.53988 -56.95679" />
    <path d="M -2.5686 13.90395 L -2.53988 14.54794 L -2.53857 14.54794" />
    <path d="M -2.23988 -56.9277 L -2.23988 -56.95697" />
    <path d="M -2.59862 13.23069 L -2.59862 -58.27404 L -2.5699 -57.63005 L -2.2699 -57.63023 L -2.29862 -58.27422 L -2.59862 -58.27404" />
    <path d="M -2.5699 13.87468 L -2.5699 -57.63005" />
    <path d="M -2.59862 13.23069 L -2.5699 13.87468 L -2.5686 13.87468" />
    <path d="M -2.2699 -57.60096 L -2.2699 -57.63023" />
    <path d="M -2.62864 12.55743 L -2.62864 -58.9473 L -2.59992 -58.30331 L -2.29993 -58.30349 L -2.32864 -58.94748 L -2.62864 -58.9473" />
    <path d="M -2.59992 13.20142 L -2.59992 -58.30331" />
    <path d="M -2.62864 12.55743 L -2.59992 13.20142 L -2.59862 13.20142" />
    <path d="M -2.29993 -58.27422 L -2.29993 -58.30349" />
    <path d="M -2.65866 11.88417 L -2.65866 -59.62056 L -2.62995 -58.97657 L -2.32995 -58.97675 L -2.35867 -59.62074 L -2.65866 -59.62056" />
    <path d="M -2.62995 12.52816 L -2.62995 -58.97657" />
    <path d="M -2.65866 11.88417 L -2.62995 12.52816 L -2.62864 12.52816" />
    <path d="M -2.32995 -58.94748 L -2.32995 -58.97675" />
    <path d="M -2.68869 11.21091 L -2.68869 -60.29382 L -2.65997 -59.64983 L -2.35997 -59.65002 L -2.38869 -60.29401 L -2.68869 -60.29382" />
    <path d="M -2.65997 11.8549 L -2.65997 -59.64983" />
    <path d="M -2.68869 11.21091 L -2.65997 11.8549 L -2.65866 11.85489" />
    <path d="M -2.35997 -59.62074 L -2.35997 -59.65002" />
    <path d="M -2.71871 10.53764 L -2.71871 -60.96709 L -2.68999 -60.3231 L -2.39 -60.32328 L -2.41871 -60.96727 L -2.71871 -60.96709" />
    <path d="M -2.68999 11.18163 L -2.68999 -60.3231" />
    <path d="M -2.71871 10.53764 L -2.68999 11.18163 L -2.68869 11.18163" />
    <path d="M -2.39 -60.29401 L -2.39 -60.32328" />
    <path d="M -2.74873 9.86438 L -2.74873 -61.64035 L -2.72001 -60.99636 L -2.42002 -60.99654 L -2.44874 -61.64053 L -2.74873 -61.64035" />
    <path d="M -2.72001 10.50837 L -2.72001 -60.99636" />
    <path d="M -2.74873 9.86438 L -2.72001 10.50837 L -2.71871 10.50837" />
    <path d="M -2.42002 -60.96727 L -2.42002 -60.99654" />
    <path d="M -2.77875 9.19112 L -2.77875 -62.31361 L -2.75004 -61.66962 L -2.45004 -61.6698 L -2.47876 -62.31379 L -2.77875 -62.31361" />
    <path d="M -2.75004 9.83511 L -2.75004 -61.66962" />
    <path d="M -2.77875 9.19112 L -2.75004 9.83511 L -2.74873 9.83511" />
    <path d="M -2.45004 -61.64053 L -2.45004 -61.6698" />
    <path d="M -2.80878 8.51786 L -2.80878 -62.98687 L -2.78006 -62.34288 L -2.48006 -62.34306 L -2.50878 -62.98705 L -2.80878 -62.98687" />
    <path d="M -2.78006 9.16185 L -2.78006 -62.34288" />
    <path d="M -2.80878 8.51786 L -2.78006 9.16185 L -2.77875 9.16185" />
    <path d="M -2.48006 -62.31379 L -2.48006 -62.34306" />
    <path d="M -2.8388 7.8446 L -2.8388 -63.66013 L -2.81008 -63.01614 L -2.51009 -63.01633 L -2.5388 -63.66032 L -2.8388 -63.66013" />
    <path d="M -2.81008 8.48859 L -2.81008 -63.01614" />
    <path d="M -2.8388 7.8446 L -2.81008 8.48859 L -2.80878 8.48859" />
    <path d="M -2.51009 -62.98705 L -2.51009 -63.01633" />
    <path d="M -2.89885 6.49807 L -2.89885 -65.00666 L -2.87013 -64.36267 L -2.57013 -64.36285 L -2.59885 -65.00684 L -2.89885 -65.00666" />
    <path d="M -2.87013 7.14206 L -2.87013 -64.36267" />
    <path d="M -2.89885 6.49807 L -2.87013 7.14206 L -2.86882 7.14206" />
    <path d="M -2.57013 -64.33358 L -2.57013 -64.36285" />
    <path d="M -2.86882 7.17133 L -2.86882 -64.33339 L -2.84011 -63.6894 L -2.54011 -63.68959 L -2.56883 -64.33358 L -2.86882 -64.33339" />
    <path d="M -2.84011 7.81532 L -2.84011 -63.6894" />
    <path d="M -2.86882 7.17133 L -2.84011 7.81532 L -2.8388 7.81532" />
    <path d="M -2.54011 -63.66032 L -2.54011 -63.68959" />
    <path d="M 0.73571 -52.15531 A 1.19 0.13934 0 0 1 1.93192 -52.01597 L 1.93192 -41.35563" />
    <path d="M 1.93192 -52.01597 A 1.19 0.13934 0 0 1 -0.44808 -52.01597 L -0.44808 -32.54563" />
    <path d="M -0.44808 -52.01597 A 1.19 0.13934 0 0 1 0.73571 -52.15531" />
    <path d="M -0.19833 43.40907 A 1.19 0.13934 180 0 0 0.03228 43.43552" />
    <path d="M -1.96814 27.36919 L -1.96814 -44.13554 L -1.93942 -43.49155 L -1.63943 -43.49173 L -1.66814 -44.13572 L -1.96814 -44.13554" />
    <path d="M -1.93942 28.01318 L -1.93942 -43.49155" />
    <path d="M -1.96814 27.36919 L -1.93942 28.01318 L -1.93812 28.01318" />
    <path d="M -1.63943 -43.46246 L -1.63943 -43.49173" />
    <path d="M -1.99816 26.69593 L -1.99816 -44.8088 L -1.96944 -44.16481 L -1.66945 -44.16499 L -1.69817 -44.80898 L -1.99816 -44.8088" />
    <path d="M -1.96944 27.33992 L -1.96944 -44.16481" />
    <path d="M -1.99816 26.69593 L -1.96944 27.33992 L -1.96814 27.33992" />
    <path d="M -1.66945 -44.13572 L -1.66945 -44.16499" />
    <path d="M -2.02818 26.02267 L -2.02818 -45.48206 L -1.99947 -44.83807 L -1.69947 -44.83826 L -1.72819 -45.48224 L -2.02818 -45.48206" />
    <path d="M -1.99947 26.66666 L -1.99947 -44.83807" />
    <path d="M -2.02818 26.02267 L -1.99947 26.66666 L -1.99816 26.66666" />
    <path d="M -1.69947 -44.80898 L -1.69947 -44.83826" />
    <path d="M -2.05821 25.34941 L -2.05821 -46.15532 L -2.02949 -45.51133 L -1.72949 -45.51152 L -1.75821 -46.15551 L -2.05821 -46.15532" />
    <path d="M -2.02949 25.9934 L -2.02949 -45.51133" />
    <path d="M -2.05821 25.34941 L -2.02949 25.9934 L -2.02818 25.99339" />
    <path d="M -1.72949 -45.48224 L -1.72949 -45.51152" />
    <path d="M -2.08823 24.67614 L -2.08823 -46.82859 L -2.05951 -46.1846 L -1.75952 -46.18478 L -1.78823 -46.82877 L -2.08823 -46.82859" />
    <path d="M -2.05951 25.32013 L -2.05951 -46.1846" />
    <path d="M -2.08823 24.67614 L -2.05951 25.32013 L -2.05821 25.32013" />
    <path d="M -1.75952 -46.15551 L -1.75952 -46.18478" />
    <path d="M -2.11825 24.00288 L -2.11825 -47.50185 L -2.08954 -46.85786 L -1.78954 -46.85804 L -1.81826 -47.50203 L -2.11825 -47.50185" />
    <path d="M -2.08954 24.64687 L -2.08954 -46.85786" />
    <path d="M -2.11825 24.00288 L -2.08954 24.64687 L -2.08823 24.64687" />
    <path d="M -1.78954 -46.82877 L -1.78954 -46.85804" />
    <path d="M -2.14828 23.32962 L -2.14828 -48.17511 L -2.11956 -47.53112 L -1.81956 -47.5313 L -1.84828 -48.17529 L -2.14828 -48.17511" />
    <path d="M -2.11956 23.97361 L -2.11956 -47.53112" />
    <path d="M -2.14828 23.32962 L -2.11956 23.97361 L -2.11825 23.97361" />
    <path d="M -1.81956 -47.50203 L -1.81956 -47.5313" />
    <path d="M -2.1783 22.65636 L -2.1783 -48.84837 L -2.14958 -48.20438 L -1.84959 -48.20456 L -1.8783 -48.84855 L -2.1783 -48.84837" />
    <path d="M -2.14958 23.30035 L -2.14958 -48.20438" />
    <path d="M -2.1783 22.65636 L -2.14958 23.30035 L -2.14828 23.30035" />
    <path d="M -1.84959 -48.17529 L -1.84959 -48.20456" />
    <path d="M -2.20832 21.9831 L -2.20832 -49.52163 L -2.1796 -48.87764 L -1.87961 -48.87783 L -1.90833 -49.52182 L -2.20832 -49.52163" />
    <path d="M -2.1796 22.62709 L -2.1796 -48.87764" />
    <path d="M -2.20832 21.9831 L -2.1796 22.62709 L -2.1783 22.62709" />
    <path d="M -1.87961 -48.84855 L -1.87961 -48.87783" />
    <path d="M -2.23834 21.30983 L -2.23834 -50.19489 L -2.20963 -49.5509 L -1.90963 -49.55109 L -1.93835 -50.19508 L -2.23834 -50.19489" />
    <path d="M -2.20963 21.95382 L -2.20963 -49.5509" />
    <path d="M -2.23834 21.30983 L -2.20963 21.95382 L -2.20832 21.95382" />
    <path d="M -1.90963 -49.52182 L -1.90963 -49.55109" />
    <path d="M -2.26837 20.63657 L -2.26837 -50.86816 L -2.23965 -50.22417 L -1.93965 -50.22435 L -1.96837 -50.86834 L -2.26837 -50.86816" />
    <path d="M -2.23965 21.28056 L -2.23965 -50.22417" />
    <path d="M -2.26837 20.63657 L -2.23965 21.28056 L -2.23834 21.28056" />
    <path d="M -1.93965 -50.19508 L -1.93965 -50.22435" />
    <path d="M -2.29839 19.96331 L -2.29839 -51.54142 L -2.26967 -50.89743 L -1.96968 -50.89761 L -1.99839 -51.5416 L -2.29839 -51.54142" />
    <path d="M -2.26967 20.6073 L -2.26967 -50.89743" />
    <path d="M -2.29839 19.96331 L -2.26967 20.6073 L -2.26837 20.6073" />
    <path d="M -1.96968 -50.86834 L -1.96968 -50.89761" />
    <path d="M -2.32841 19.29005 L -2.32841 -52.21468 L -2.2997 -51.57069 L -1.9997 -51.57087 L -2.02842 -52.21486 L -2.32841 -52.21468" />
    <path d="M -2.2997 19.93404 L -2.2997 -51.57069" />
    <path d="M -2.32841 19.29005 L -2.2997 19.93404 L -2.29839 19.93404" />
    <path d="M -1.9997 -51.5416 L -1.9997 -51.57087" />
    <path d="M -2.35844 18.61679 L -2.35844 -52.88794 L -2.32972 -52.24395 L -2.02972 -52.24414 L -2.05844 -52.88813 L -2.35844 -52.88794" />
    <path d="M -2.32972 19.26078 L -2.32972 -52.24395" />
    <path d="M -2.35844 18.61679 L -2.32972 19.26078 L -2.32841 19.26078" />
    <path d="M -2.02972 -52.21486 L -2.02972 -52.24414" />
    <path d="M -2.41848 17.27026 L -2.41848 -54.23447 L -2.38976 -53.59048 L -2.08977 -53.59066 L -2.11849 -54.23465 L -2.41848 -54.23447" />
    <path d="M -2.38976 17.91425 L -2.38976 -53.59048" />
    <path d="M -2.41848 17.27026 L -2.38976 17.91425 L -2.38846 17.91425" />
    <path d="M -2.08977 -53.56139 L -2.08977 -53.59066" />
    <path d="M -2.38846 17.94352 L -2.38846 -53.5612 L -2.35974 -52.91721 L -2.05974 -52.9174 L -2.08846 -53.56139 L -2.38846 -53.5612" />
    <path d="M -2.35974 18.58751 L -2.35974 -52.91721" />
    <path d="M -2.38846 17.94352 L -2.35974 18.58751 L -2.35844 18.58751" />
    <path d="M -2.05974 -52.88812 L -2.05974 -52.9174" />
    <path d="M 1.21607 -41.38312 A 1.19 0.13934 0 0 1 2.41228 -41.24378 L 2.41228 -30.58344" />
    <path d="M 2.41228 -41.24378 A 1.19 0.13934 0 0 1 0.03228 -41.24378 L 0.03228 -21.77344" />
    <path d="M 0.03228 -41.24378 A 1.19 0.13934 0 0 1 1.21607 -41.38312" />
    <path d="M 0.03228 54.09586 A 1.19 0.13934 180 0 0 0.51265 54.20771" />
    <path d="M -1.48777 38.14138 L -1.48777 -33.36335 L -1.45906 -32.71936 L -1.15906 -32.71954 L -1.18778 -33.36353 L -1.48777 -33.36335" />
    <path d="M -1.45906 38.78537 L -1.45906 -32.71936" />
    <path d="M -1.48777 38.14138 L -1.45906 38.78537 L -1.45775 38.78537" />
    <path d="M -1.15906 -32.69027 L -1.15906 -32.71954" />
    <path d="M -1.5178 37.46812 L -1.5178 -34.03661 L -1.48908 -33.39262 L -1.18908 -33.3928 L -1.2178 -34.03679 L -1.5178 -34.03661" />
    <path d="M -1.48908 38.11211 L -1.48908 -33.39262" />
    <path d="M -1.5178 37.46812 L -1.48908 38.11211 L -1.48777 38.11211" />
    <path d="M -1.18908 -33.36353 L -1.18908 -33.3928" />
    <path d="M -1.54782 36.79486 L -1.54782 -34.70987 L -1.5191 -34.06588 L -1.21911 -34.06606 L -1.24782 -34.71005 L -1.54782 -34.70987" />
    <path d="M -1.5191 37.43885 L -1.5191 -34.06588" />
    <path d="M -1.54782 36.79486 L -1.5191 37.43885 L -1.5178 37.43885" />
    <path d="M -1.21911 -34.03679 L -1.21911 -34.06606" />
    <path d="M -1.57784 36.1216 L -1.57784 -35.38313 L -1.54912 -34.73914 L -1.24913 -34.73933 L -1.27785 -35.38332 L -1.57784 -35.38313" />
    <path d="M -1.54912 36.76559 L -1.54912 -34.73914" />
    <path d="M -1.57784 36.1216 L -1.54912 36.76559 L -1.54782 36.76558" />
    <path d="M -1.24913 -34.71005 L -1.24913 -34.73933" />
    <path d="M -1.60787 35.44833 L -1.60787 -36.05639 L -1.57915 -35.41241 L -1.27915 -35.41259 L -1.30787 -36.05658 L -1.60787 -36.05639" />
    <path d="M -1.57915 36.09232 L -1.57915 -35.41241" />
    <path d="M -1.60787 35.44833 L -1.57915 36.09232 L -1.57784 36.09232" />
    <path d="M -1.27915 -35.38332 L -1.27915 -35.41259" />
    <path d="M -1.63789 34.77507 L -1.63789 -36.72966 L -1.60917 -36.08567 L -1.30917 -36.08585 L -1.33789 -36.72984 L -1.63789 -36.72966" />
    <path d="M -1.60917 35.41906 L -1.60917 -36.08567" />
    <path d="M -1.63789 34.77507 L -1.60917 35.41906 L -1.60787 35.41906" />
    <path d="M -1.30917 -36.05658 L -1.30917 -36.08585" />
    <path d="M -1.66791 34.10181 L -1.66791 -37.40292 L -1.63919 -36.75893 L -1.3392 -36.75911 L -1.36791 -37.4031 L -1.66791 -37.40292" />
    <path d="M -1.63919 34.7458 L -1.63919 -36.75893" />
    <path d="M -1.66791 34.10181 L -1.63919 34.7458 L -1.63789 34.7458" />
    <path d="M -1.3392 -36.72984 L -1.3392 -36.75911" />
    <path d="M -1.69793 33.42855 L -1.69793 -38.07618 L -1.66922 -37.43219 L -1.36922 -37.43237 L -1.39794 -38.07636 L -1.69793 -38.07618" />
    <path d="M -1.66922 34.07254 L -1.66922 -37.43219" />
    <path d="M -1.69793 33.42855 L -1.66922 34.07254 L -1.66791 34.07254" />
    <path d="M -1.36922 -37.4031 L -1.36922 -37.43237" />
    <path d="M -1.72796 32.75529 L -1.72796 -38.74944 L -1.69924 -38.10545 L -1.39924 -38.10564 L -1.42796 -38.74963 L -1.72796 -38.74944" />
    <path d="M -1.69924 33.39928 L -1.69924 -38.10545" />
    <path d="M -1.72796 32.75529 L -1.69924 33.39928 L -1.69793 33.39928" />
    <path d="M -1.39924 -38.07636 L -1.39924 -38.10564" />
    <path d="M -1.75798 32.08202 L -1.75798 -39.4227 L -1.72926 -38.77871 L -1.42927 -38.7789 L -1.45798 -39.42289 L -1.75798 -39.4227" />
    <path d="M -1.72926 32.72601 L -1.72926 -38.77871" />
    <path d="M -1.75798 32.08202 L -1.72926 32.72601 L -1.72796 32.72601" />
    <path d="M -1.42927 -38.74962 L -1.42927 -38.7789" />
    <path d="M -1.788 31.40876 L -1.788 -40.09597 L -1.75928 -39.45198 L -1.45929 -39.45216 L -1.48801 -40.09615 L -1.788 -40.09597" />
    <path d="M -1.75928 32.05275 L -1.75928 -39.45198" />
    <path d="M -1.788 31.40876 L -1.75928 32.05275 L -1.75798 32.05275" />
    <path d="M -1.45929 -39.42289 L -1.45929 -39.45216" />
    <path d="M -1.81802 30.7355 L -1.81802 -40.76923 L -1.78931 -40.12524 L -1.48931 -40.12542 L -1.51803 -40.76941 L -1.81802 -40.76923" />
    <path d="M -1.78931 31.37949 L -1.78931 -40.12524" />
    <path d="M -1.81802 30.7355 L -1.78931 31.37949 L -1.788 31.37949" />
    <path d="M -1.48931 -40.09615 L -1.48931 -40.12542" />
    <path d="M -1.84805 30.06224 L -1.84805 -41.44249 L -1.81933 -40.7985 L -1.51933 -40.79868 L -1.54805 -41.44267 L -1.84805 -41.44249" />
    <path d="M -1.81933 30.70623 L -1.81933 -40.7985" />
    <path d="M -1.84805 30.06224 L -1.81933 30.70623 L -1.81802 30.70623" />
    <path d="M -1.51933 -40.76941 L -1.51933 -40.79868" />
    <path d="M -1.87807 29.38898 L -1.87807 -42.11575 L -1.84935 -41.47176 L -1.54936 -41.47195 L -1.57807 -42.11594 L -1.87807 -42.11575" />
    <path d="M -1.84935 30.03297 L -1.84935 -41.47176" />
    <path d="M -1.87807 29.38898 L -1.84935 30.03297 L -1.84805 30.03297" />
    <path d="M -1.54936 -41.44267 L -1.54936 -41.47195" />
    <path d="M -1.93812 28.04245 L -1.93812 -43.46228 L -1.9094 -42.81829 L -1.6094 -42.81847 L -1.63812 -43.46246 L -1.93812 -43.46228" />
    <path d="M -1.9094 28.68644 L -1.9094 -42.81829" />
    <path d="M -1.93812 28.04245 L -1.9094 28.68644 L -1.90809 28.68644" />
    <path d="M -1.6094 -42.7892 L -1.6094 -42.81847" />
    <path d="M -1.90809 28.71572 L -1.90809 -42.78901 L -1.87938 -42.14502 L -1.57938 -42.14521 L -1.6081 -42.7892 L -1.90809 -42.78901" />
    <path d="M -1.87938 29.3597 L -1.87938 -42.14502" />
    <path d="M -1.90809 28.71572 L -1.87938 29.3597 L -1.87807 29.3597" />
    <path d="M -1.57938 -42.11593 L -1.57938 -42.14521" />
    <path d="M 1.69644 -30.61093 A 1.19 0.13934 0 0 1 2.89265 -30.47159 L 2.89265 -19.81125" />
    <path d="M 2.89265 -30.47159 A 1.19 0.13934 0 0 1 0.51265 -30.47159 L 0.51265 -11.00125" />
    <path d="M 0.51265 -30.47159 A 1.19 0.13934 0 0 1 1.69644 -30.61093" />
    <path d="M 0.51265 64.86805 A 1.19 0.13934 180 0 0 0.99301 64.9799" />
    <path d="M -1.00741 48.91357 L -1.00741 -22.59116 L -0.97869 -21.94717 L -0.6787 -21.94735 L -0.70741 -22.59134 L -1.00741 -22.59116" />
    <path d="M -0.97869 49.55756 L -0.97869 -21.94717" />
    <path d="M -1.00741 48.91357 L -0.97869 49.55756 L -0.97739 49.55756" />
    <path d="M -0.6787 -21.91808 L -0.6787 -21.94735" />
    <path d="M -1.03743 48.24031 L -1.03743 -23.26442 L -1.00871 -22.62043 L -0.70872 -22.62061 L -0.73744 -23.2646 L -1.03743 -23.26442" />
    <path d="M -1.00871 48.8843 L -1.00871 -22.62043" />
    <path d="M -1.03743 48.24031 L -1.00871 48.8843 L -1.00741 48.8843" />
    <path d="M -0.70872 -22.59134 L -0.70872 -22.62061" />
    <path d="M -1.06745 47.56705 L -1.06745 -23.93768 L -1.03874 -23.29369 L -0.73874 -23.29387 L -0.76746 -23.93786 L -1.06745 -23.93768" />
    <path d="M -1.03874 48.21104 L -1.03874 -23.29369" />
    <path d="M -1.06745 47.56705 L -1.03874 48.21104 L -1.03743 48.21104" />
    <path d="M -0.73874 -23.2646 L -0.73874 -23.29387" />
    <path d="M -1.09748 46.89379 L -1.09748 -24.61094 L -1.06876 -23.96695 L -0.76876 -23.96714 L -0.79748 -24.61113 L -1.09748 -24.61094" />
    <path d="M -1.06876 47.53778 L -1.06876 -23.96695" />
    <path d="M -1.09748 46.89379 L -1.06876 47.53778 L -1.06745 47.53778" />
    <path d="M -0.76876 -23.93786 L -0.76876 -23.96714" />
    <path d="M -1.1275 46.22052 L -1.1275 -25.2842 L -1.09878 -24.64021 L -0.79879 -24.6404 L -0.8275 -25.28439 L -1.1275 -25.2842" />
    <path d="M -1.09878 46.86451 L -1.09878 -24.64021" />
    <path d="M -1.1275 46.22052 L -1.09878 46.86451 L -1.09748 46.86451" />
    <path d="M -0.79879 -24.61112 L -0.79879 -24.6404" />
    <path d="M -1.15752 45.54726 L -1.15752 -25.95747 L -1.12881 -25.31348 L -0.82881 -25.31366 L -0.85753 -25.95765 L -1.15752 -25.95747" />
    <path d="M -1.12881 46.19125 L -1.12881 -25.31348" />
    <path d="M -1.15752 45.54726 L -1.12881 46.19125 L -1.1275 46.19125" />
    <path d="M -0.82881 -25.28439 L -0.82881 -25.31366" />
    <path d="M -1.18755 44.874 L -1.18755 -26.63073 L -1.15883 -25.98674 L -0.85883 -25.98692 L -0.88755 -26.63091 L -1.18755 -26.63073" />
    <path d="M -1.15883 45.51799 L -1.15883 -25.98674" />
    <path d="M -1.18755 44.874 L -1.15883 45.51799 L -1.15752 45.51799" />
    <path d="M -0.85883 -25.95765 L -0.85883 -25.98692" />
    <path d="M -1.21757 44.20074 L -1.21757 -27.30399 L -1.18885 -26.66 L -0.88886 -26.66018 L -0.91757 -27.30417 L -1.21757 -27.30399" />
    <path d="M -1.18885 44.84473 L -1.18885 -26.66" />
    <path d="M -1.21757 44.20074 L -1.18885 44.84473 L -1.18755 44.84473" />
    <path d="M -0.88886 -26.63091 L -0.88886 -26.66018" />
    <path d="M -1.24759 43.52748 L -1.24759 -27.97725 L -1.21887 -27.33326 L -0.91888 -27.33345 L -0.9476 -27.97744 L -1.24759 -27.97725" />
    <path d="M -1.21887 44.17147 L -1.21887 -27.33326" />
    <path d="M -1.24759 43.52748 L -1.21887 44.17147 L -1.21757 44.17147" />
    <path d="M -0.91888 -27.30417 L -0.91888 -27.33345" />
    <path d="M -1.27761 42.85422 L -1.27761 -28.65051 L -1.2489 -28.00652 L -0.9489 -28.00671 L -0.97762 -28.6507 L -1.27761 -28.65051" />
    <path d="M -1.2489 43.4982 L -1.2489 -28.00652" />
    <path d="M -1.27761 42.85422 L -1.2489 43.4982 L -1.24759 43.4982" />
    <path d="M -0.9489 -27.97743 L -0.9489 -28.00671" />
    <path d="M -1.30764 42.18095 L -1.30764 -29.32378 L -1.27892 -28.67979 L -0.97892 -28.67997 L -1.00764 -29.32396 L -1.30764 -29.32378" />
    <path d="M -1.27892 42.82494 L -1.27892 -28.67979" />
    <path d="M -1.30764 42.18095 L -1.27892 42.82494 L -1.27761 42.82494" />
    <path d="M -0.97892 -28.6507 L -0.97892 -28.67997" />
    <path d="M -1.33766 41.50769 L -1.33766 -29.99704 L -1.30894 -29.35305 L -1.00895 -29.35323 L -1.03766 -29.99722 L -1.33766 -29.99704" />
    <path d="M -1.30894 42.15168 L -1.30894 -29.35305" />
    <path d="M -1.33766 41.50769 L -1.30894 42.15168 L -1.30764 42.15168" />
    <path d="M -1.00895 -29.32396 L -1.00895 -29.35323" />
    <path d="M -1.36768 40.83443 L -1.36768 -30.6703 L -1.33897 -30.02631 L -1.03897 -30.02649 L -1.06769 -30.67048 L -1.36768 -30.6703" />
    <path d="M -1.33897 41.47842 L -1.33897 -30.02631" />
    <path d="M -1.36768 40.83443 L -1.33897 41.47842 L -1.33766 41.47842" />
    <path d="M -1.03897 -29.99722 L -1.03897 -30.02649" />
    <path d="M -1.39771 40.16117 L -1.39771 -31.34356 L -1.36899 -30.69957 L -1.06899 -30.69976 L -1.09771 -31.34374 L -1.39771 -31.34356" />
    <path d="M -1.36899 40.80516 L -1.36899 -30.69957" />
    <path d="M -1.39771 40.16117 L -1.36899 40.80516 L -1.36768 40.80516" />
    <path d="M -1.06899 -30.67048 L -1.06899 -30.69976" />
    <path d="M -1.45775 38.81464 L -1.45775 -32.69009 L -1.42903 -32.0461 L -1.12904 -32.04628 L -1.15776 -32.69027 L -1.45775 -32.69009" />
    <path d="M -1.42903 39.45863 L -1.42903 -32.0461" />
    <path d="M -1.45775 38.81464 L -1.42903 39.45863 L -1.42773 39.45863" />
    <path d="M -1.12904 -32.01701 L -1.12904 -32.04628" />
    <path d="M -1.42773 39.48791 L -1.42773 -32.01682 L -1.39901 -31.37283 L -1.09901 -31.37302 L -1.12773 -32.01701 L -1.42773 -32.01682" />
    <path d="M -1.39901 40.1319 L -1.39901 -31.37283" />
    <path d="M -1.42773 39.48791 L -1.39901 40.1319 L -1.39771 40.13189" />
    <path d="M -1.09901 -31.34374 L -1.09901 -31.37302" />
    <path d="M 2.1768 -19.83874 A 1.19 0.13934 0 0 1 3.37301 -19.6994 L 3.37301 1.70825" />
    <path d="M 3.37301 -19.6994 A 1.19 0.13934 0 0 1 0.99301 -19.6994 L 0.99301 -0.22905" />
    <path d="M 0.99301 -19.6994 A 1.19 0.13934 0 0 1 2.1768 -19.83874" />
    <path d="M 0.99301 75.64024 A 1.19 0.13934 180 0 0 1.95374 75.77697" />
    <path d="M -0.52704 59.68576 L -0.52704 -11.81897 L -0.49833 -11.17498 L -0.19833 -11.17516 L -0.22705 -11.81915 L -0.52704 -11.81897" />
    <path d="M -0.49833 60.32975 L -0.49833 -11.17498" />
    <path d="M -0.52704 59.68576 L -0.49833 60.32975 L -0.19833 60.32957 L -0.19833 -11.17516" />
    <path d="M -0.55707 59.0125 L -0.55707 -12.49223 L -0.52835 -11.84824 L -0.22835 -11.84842 L -0.25707 -12.49241 L -0.55707 -12.49223" />
    <path d="M -0.52835 59.65649 L -0.52835 -11.84824" />
    <path d="M -0.55707 59.0125 L -0.52835 59.65649 L -0.52704 59.65649" />
    <path d="M -0.22835 -11.81915 L -0.22835 -11.84842" />
    <path d="M -0.58709 58.33924 L -0.58709 -13.16549 L -0.55837 -12.5215 L -0.25838 -12.52168 L -0.28709 -13.16567 L -0.58709 -13.16549" />
    <path d="M -0.55837 58.98323 L -0.55837 -12.5215" />
    <path d="M -0.58709 58.33924 L -0.55837 58.98323 L -0.55707 58.98323" />
    <path d="M -0.25838 -12.49241 L -0.25838 -12.52168" />
    <path d="M -0.61711 57.66598 L -0.61711 -13.83875 L -0.58839 -13.19476 L -0.2884 -13.19495 L -0.31712 -13.83894 L -0.61711 -13.83875" />
    <path d="M -0.58839 58.30997 L -0.58839 -13.19476" />
    <path d="M -0.61711 57.66598 L -0.58839 58.30997 L -0.58709 58.30997" />
    <path d="M -0.2884 -13.16567 L -0.2884 -13.19495" />
    <path d="M -0.64714 56.99272 L -0.64714 -14.51201 L -0.61842 -13.86802 L -0.31842 -13.86821 L -0.34714 -14.5122 L -0.64714 -14.51201" />
    <path d="M -0.61842 57.6367 L -0.61842 -13.86802" />
    <path d="M -0.64714 56.99272 L -0.61842 57.6367 L -0.61711 57.6367" />
    <path d="M -0.31842 -13.83893 L -0.31842 -13.86821" />
    <path d="M -0.67716 56.31945 L -0.67716 -15.18528 L -0.64844 -14.54129 L -0.34844 -14.54147 L -0.37716 -15.18546 L -0.67716 -15.18528" />
    <path d="M -0.64844 56.96344 L -0.64844 -14.54129" />
    <path d="M -0.67716 56.31945 L -0.64844 56.96344 L -0.64714 56.96344" />
    <path d="M -0.34844 -14.5122 L -0.34844 -14.54147" />
    <path d="M -0.70718 55.64619 L -0.70718 -15.85854 L -0.67846 -15.21455 L -0.37847 -15.21473 L -0.40718 -15.85872 L -0.70718 -15.85854" />
    <path d="M -0.67846 56.29018 L -0.67846 -15.21455" />
    <path d="M -0.70718 55.64619 L -0.67846 56.29018 L -0.67716 56.29018" />
    <path d="M -0.37847 -15.18546 L -0.37847 -15.21473" />
    <path d="M -0.7372 54.97293 L -0.7372 -16.5318 L -0.70849 -15.88781 L -0.40849 -15.88799 L -0.43721 -16.53198 L -0.7372 -16.5318" />
    <path d="M -0.70849 55.61692 L -0.70849 -15.88781" />
    <path d="M -0.7372 54.97293 L -0.70849 55.61692 L -0.70718 55.61692" />
    <path d="M -0.40849 -15.85872 L -0.40849 -15.88799" />
    <path d="M -0.76723 54.29967 L -0.76723 -17.20506 L -0.73851 -16.56107 L -0.43851 -16.56126 L -0.46723 -17.20524 L -0.76723 -17.20506" />
    <path d="M -0.73851 54.94366 L -0.73851 -16.56107" />
    <path d="M -0.76723 54.29967 L -0.73851 54.94366 L -0.7372 54.94366" />
    <path d="M -0.43851 -16.53198 L -0.43851 -16.56126" />
    <path d="M -0.79725 53.62641 L -0.79725 -17.87832 L -0.76853 -17.23433 L -0.46854 -17.23452 L -0.49725 -17.87851 L -0.79725 -17.87832" />
    <path d="M -0.76853 54.2704 L -0.76853 -17.23433" />
    <path d="M -0.79725 53.62641 L -0.76853 54.2704 L -0.76723 54.27039" />
    <path d="M -0.46854 -17.20524 L -0.46854 -17.23452" />
    <path d="M -0.82727 52.95314 L -0.82727 -18.55159 L -0.79855 -17.9076 L -0.49856 -17.90778 L -0.52728 -18.55177 L -0.82727 -18.55159" />
    <path d="M -0.79855 53.59713 L -0.79855 -17.9076" />
    <path d="M -0.82727 52.95314 L -0.79855 53.59713 L -0.79725 53.59713" />
    <path d="M -0.49856 -17.87851 L -0.49856 -17.90778" />
    <path d="M -0.85729 52.27988 L -0.85729 -19.22485 L -0.82858 -18.58086 L -0.52858 -18.58104 L -0.5573 -19.22503 L -0.85729 -19.22485" />
    <path d="M -0.82858 52.92387 L -0.82858 -18.58086" />
    <path d="M -0.85729 52.27988 L -0.82858 52.92387 L -0.82727 52.92387" />
    <path d="M -0.52858 -18.55177 L -0.52858 -18.58104" />
    <path d="M -0.88732 51.60662 L -0.88732 -19.89811 L -0.8586 -19.25412 L -0.5586 -19.2543 L -0.58732 -19.89829 L -0.88732 -19.89811" />
    <path d="M -0.8586 52.25061 L -0.8586 -19.25412" />
    <path d="M -0.88732 51.60662 L -0.8586 52.25061 L -0.85729 52.25061" />
    <path d="M -0.5586 -19.22503 L -0.5586 -19.2543" />
    <path d="M -0.91734 50.93336 L -0.91734 -20.57137 L -0.88862 -19.92738 L -0.58863 -19.92756 L -0.61734 -20.57155 L -0.91734 -20.57137" />
    <path d="M -0.88862 51.57735 L -0.88862 -19.92738" />
    <path d="M -0.91734 50.93336 L -0.88862 51.57735 L -0.88732 51.57735" />
    <path d="M -0.58863 -19.89829 L -0.58863 -19.92756" />
    <path d="M -0.97739 49.58683 L -0.97739 -21.91789 L -0.94867 -21.27391 L -0.64867 -21.27409 L -0.67739 -21.91808 L -0.97739 -21.91789" />
    <path d="M -0.94867 50.23082 L -0.94867 -21.27391" />
    <path d="M -0.97739 49.58683 L -0.94867 50.23082 L -0.94736 50.23082" />
    <path d="M -0.64867 -21.24482 L -0.64867 -21.27409" />
    <path d="M -0.94736 50.2601 L -0.94736 -21.24463 L -0.91865 -20.60064 L -0.61865 -20.60083 L -0.64737 -21.24482 L -0.94736 -21.24463" />
    <path d="M -0.91865 50.90409 L -0.91865 -20.60064" />
    <path d="M -0.94736 50.2601 L -0.91865 50.90409 L -0.91734 50.90408" />
    <path d="M -0.61865 -20.57155 L -0.61865 -20.60083" />
    <path d="M 1.95374 1.84498 L 1.95374 97.18462" />
    <path d="M 4.33374 1.84498 L 4.33374 97.18462" />
    <path d="M -2.36954 -95.10473 L -2.36954 -75.63439" />
    <path d="M 0.01046 -95.10473 L 0.01046 -84.44439" />
    <path d="M -1.88918 -84.33254 L -1.88918 -64.8622" />
    <path d="M 0.49082 -84.33254 L 0.49082 -73.6722" />
    <path d="M -1.40881 -73.56035 L -1.40881 -54.09001" />
    <path d="M 0.97119 -73.56035 L 0.97119 -62.90001" />
    <path d="M 0.03228 42.70261 L 0.03228 54.09586" />
    <path d="M 0.51265 12.90868 L 0.51265 18.79239" />
    <path d="M 0.51265 42.70231 L 0.51265 64.86805" />
    <path d="M 0.99301 12.90838 L 0.99301 29.56458" />
    <path d="M 0.99301 42.70202 L 0.99301 75.64024" />
</svg>